<?xml version="1.0" encoding="UTF-8" standalone="no"?>
<!-- Created with Inkscape (http://www.inkscape.org/) -->

<svg
   xmlns:dc="http://purl.org/dc/elements/1.1/"
   xmlns:cc="http://creativecommons.org/ns#"
   xmlns:rdf="http://www.w3.org/1999/02/22-rdf-syntax-ns#"
   xmlns:svg="http://www.w3.org/2000/svg"
   xmlns="http://www.w3.org/2000/svg"
   xmlns:sodipodi="http://sodipodi.sourceforge.net/DTD/sodipodi-0.dtd"
   xmlns:inkscape="http://www.inkscape.org/namespaces/inkscape"
   width="1052.3622"
   height="744.09448"
   id="svg5396"
   version="1.1"
   inkscape:version="0.48.4 r9939"
   sodipodi:docname="gecos-v03.svg">
  <defs
     id="defs3">
    <inkscape:perspective
       sodipodi:type="inkscape:persp3d"
       inkscape:vp_x="0 : 372.04724 : 1"
       inkscape:vp_y="0 : 1000 : 0"
       inkscape:vp_z="1052.3622 : 372.04724 : 1"
       inkscape:persp3d-origin="526.18109 : 248.03149 : 1"
       id="perspective7460" />
  </defs>
  <sodipodi:namedview
     inkscape:document-units="mm"
     id="base"
     pagecolor="#ffffff"
     bordercolor="#666666"
     borderopacity="1.0"
     inkscape:pageopacity="0"
     inkscape:pageshadow="2"
     inkscape:zoom="0.7"
     inkscape:cx="557.35541"
     inkscape:cy="424.13556"
     inkscape:current-layer="layer3"
     showgrid="true"
     units="mm"
     inkscape:window-width="1276"
     inkscape:window-height="973"
     inkscape:window-x="0"
     inkscape:window-y="0"
     inkscape:window-maximized="0">
    <inkscape:grid
       type="xygrid"
       id="grid5404"
       empspacing="5"
       visible="true"
       enabled="true"
       snapvisiblegridlinesonly="true" />
  </sodipodi:namedview>
  <metadata
     id="metadata4">
    <rdf:RDF>
      <cc:Work
         rdf:about="">
        <dc:format>image/svg+xml</dc:format>
        <dc:type
           rdf:resource="http://purl.org/dc/dcmitype/StillImage" />
        <dc:title></dc:title>
      </cc:Work>
    </rdf:RDF>
  </metadata>
  <g
     inkscape:groupmode="layer"
     id="layer2"
     inkscape:label="background"
     style="display:inline"
     sodipodi:insensitive="true">
    <rect
       style="fill:#afe9dd;fill-opacity:1;stroke:none"
       id="rect5402-2"
       width="1060"
       height="525"
       x="2.0050203e-07"
       y="-0.90550864" />
    <rect
       transform="translate(0,-308.2677)"
       style="fill:#b3b3b3;fill-opacity:1;stroke:none"
       id="rect5402"
       width="1060"
       height="240"
       x="0"
       y="812.36218" />
    <text
       xml:space="preserve"
       style="font-size:64px;font-style:normal;font-variant:normal;font-weight:normal;font-stretch:normal;text-align:start;line-height:125%;letter-spacing:0px;word-spacing:0px;writing-mode:lr-tb;text-anchor:start;fill:#000000;fill-opacity:1;stroke:none;font-family:Moria Citadel;-inkscape-font-specification:Moria Citadel"
       x="690.94434"
       y="80.424263"
       id="text6210"
       sodipodi:linespacing="125%"><tspan
         sodipodi:role="line"
         id="tspan6212"
         x="690.94434"
         y="80.424263" /></text>
    <text
       xml:space="preserve"
       style="font-size:64px;font-style:normal;font-variant:normal;font-weight:normal;font-stretch:normal;text-align:start;line-height:125%;letter-spacing:0px;word-spacing:0px;writing-mode:lr-tb;text-anchor:start;fill:#000000;fill-opacity:1;stroke:none;font-family:Moria Citadel;-inkscape-font-specification:Moria Citadel"
       x="925.29974"
       y="282.45477"
       id="text6255"
       sodipodi:linespacing="125%"><tspan
         sodipodi:role="line"
         id="tspan6257"
         x="925.29974"
         y="282.45477" /></text>
    <text
       xml:space="preserve"
       style="font-size:64px;font-style:normal;font-variant:normal;font-weight:normal;font-stretch:normal;text-align:start;line-height:125%;letter-spacing:0px;word-spacing:0px;writing-mode:lr-tb;text-anchor:start;fill:#000000;fill-opacity:1;stroke:none;font-family:Moria Citadel;-inkscape-font-specification:Moria Citadel"
       x="889.9444"
       y="448.11978"
       id="text6293"
       sodipodi:linespacing="125%"><tspan
         sodipodi:role="line"
         id="tspan6295"
         x="889.9444"
         y="448.11978" /></text>
  </g>
  <g
     inkscape:label="characters"
     inkscape:groupmode="layer"
     id="layer1"
     transform="translate(0,-308.2677)"
     style="display:inline">
    <path
       inkscape:connector-curvature="0"
       id="path674-8"
       d="m 470.50695,769.73922 4.11973,2.05986 2.97536,1.60212 4.80636,4.57749 2.51762,5.49298 0,5.72185 -0.9155,2.74649 -0.45775,0.9155 -1.37324,2.51761 -4.57749,3.43312 -5.95072,1.37324 -6.40848,-0.9155 -3.43311,-1.37324 -4.11974,-1.83099 -2.97536,-1.831 -4.80636,-4.57748 -2.51762,-5.49298 0,-5.72185 0.9155,-2.74649 0.45775,-0.68663 1.37324,-2.51761 4.57749,-3.43312 5.95073,-1.37324 6.40847,0.68662 3.43312,1.37325 z"
       style="fill:#e4d4b3;stroke:#060000;stroke-width:4.11973524" />
    <path
       inkscape:connector-curvature="0"
       id="path676-5"
       d="m 674.89158,768.36597 -4.11974,2.05987 -3.20423,1.60212 -4.57749,4.80636 -2.51761,5.2641 -0.22888,5.72186 1.14437,2.74649 0.22888,0.91549 1.60212,2.51762 4.57748,3.43311 5.95073,1.37325 6.40848,-0.9155 3.20423,-1.14437 4.11974,-2.05987 3.20424,-1.83099 4.57748,-4.57749 2.51762,-5.49298 0.22887,-5.72185 -0.9155,-2.51762 -0.45774,-0.91549 -1.60212,-2.51762 -4.57749,-3.43311 -5.72185,-1.37325 -6.63735,0.68663 -3.20424,1.37324 z"
       style="fill:#e4d4b3;stroke:#060000;stroke-width:4.11973524" />
    <path
       inkscape:connector-curvature="0"
       id="path678-6"
       d="m 537.79595,684.8269 -34.33112,-16.70781 -1.831,-0.68663 -4.11973,0.22888 -7.0951,3.89086 -10.98596,10.75708 -10.75709,16.25007 -5.03523,9.61272 -5.72185,11.67258 -4.57749,10.07046 -5.95073,18.30994 -1.83099,15.33456 1.60212,8.0106 2.28874,3.43311 1.60212,0.9155 34.33113,16.70781 1.83099,0.68663 4.11974,-0.22888 7.09509,-3.89086 10.75709,-10.75708 10.98596,-16.0212 5.03523,-9.84159 5.72186,-11.67258 4.57748,-10.07046 5.72185,-18.30994 2.05987,-15.33456 -1.60212,-8.0106 -2.28874,-3.43311 -1.60212,-0.9155 z"
       style="fill:#b9c8ca;stroke:#000000;stroke-width:4.80635786" />
    <path
       inkscape:connector-curvature="0"
       id="path680-9"
       d="m 574.18694,766.53498 2.97537,0 16.47894,0.45775 21.97192,2.97536 13.04583,2.97537 10.98596,3.66198 8.69722,4.57749 5.95072,5.03523 3.20424,5.2641 0.45775,2.97537 0,45.54596 -0.22887,2.74649 -3.20424,5.49298 -6.1796,5.03523 -8.69722,4.34861 -10.98596,3.89086 -12.81696,2.97536 -22.20079,2.97537 -16.47894,0.45775 -2.74649,0 -16.47894,-0.45775 -22.2008,-2.97537 -12.81695,-2.97536 -10.98596,-3.66199 -8.69722,-4.57748 -6.1796,-5.03523 -3.20424,-5.49298 -0.22887,-2.74649 -0.22888,-45.54596 0.45775,-2.74649 3.20424,-5.49298 5.95073,-5.03523 8.69722,-4.57749 10.98596,-3.66198 12.81695,-2.97537 22.20079,-2.97536 16.47894,-0.45775 z"
       style="fill:#897cc4;stroke:#000000;stroke-width:5.49298048" />
    <path
       inkscape:connector-curvature="0"
       id="path682-7"
       d="m 575.33132,863.57763 -0.68663,-30.89802"
       style="fill:none;stroke:none" />
    <path
       inkscape:connector-curvature="0"
       id="path684-1"
       d="m 575.33132,863.57763 -0.68663,-30.89802"
       style="fill:none;stroke:#000000;stroke-width:3.43311262" />
    <path
       inkscape:connector-curvature="0"
       id="path686-5"
       d="m 583.34191,870.67273 0,-0.9155 1.37325,-6.86623 3.66198,-7.0951 4.11974,-4.57748 5.95073,-3.66199 7.78172,-2.51761 5.03523,-0.45775 6.63735,0 10.98596,1.37325 8.23947,2.97536 6.40848,3.89086 5.95073,6.63735 3.20423,6.63735 0,0.68663 0.22888,0.68662 -1.14437,1.37324 -4.11974,1.831 -15.10569,3.20423 -26.77828,2.05987 -16.02119,-1.37324 -4.80636,-1.60212 -1.60212,-1.37325 0,-0.91549 z"
       style="fill:#c6bca0;stroke:#000000;stroke-width:4.57748365" />
    <path
       inkscape:connector-curvature="0"
       id="path688-0"
       d="m 567.54959,870.67273 -0.22887,-0.9155 -1.37325,-6.63735 -3.66198,-6.63735 -4.11974,-4.34861 -5.95073,-3.66199 -8.01059,-2.28874 -5.03523,-0.45775 -6.63735,0 -10.98596,1.37325 -8.46835,2.74649 -6.1796,3.89086 -6.1796,6.1796 -3.20424,6.40848 0,0.68662 -0.22888,0.68662 1.14437,1.14437 4.11974,1.831 15.33457,3.20423 27.00715,1.831 16.02119,-1.14437 4.80636,-1.60212 1.60212,-1.60212 0.22887,-0.68662 z"
       style="fill:#c6bca0;stroke:#000000;stroke-width:4.57748365" />
    <path
       inkscape:connector-curvature="0"
       id="path690-7"
       d="m 599.3631,683.9114 34.33113,-16.70781 1.83099,-0.68662 4.11974,0.45774 7.0951,3.66199 10.98596,10.98596 10.75708,16.02119 5.03523,9.61272 5.72186,11.67258 4.57748,10.07046 5.95073,18.53881 1.83099,15.1057 -1.60212,8.01059 -2.28874,3.43312 -1.60212,0.91549 -34.33112,16.93669 -1.831,0.45775 -4.11973,-0.22887 -7.0951,-3.89087 -10.75709,-10.75708 -10.98596,-16.02119 -5.03523,-9.84159 -5.72185,-11.67259 -4.57749,-9.84158 -5.95072,-18.53881 -1.831,-15.33457 1.60212,-7.78172 2.28874,-3.66199 1.60212,-0.9155 z"
       style="fill:#b9c8ca;stroke:#000000;stroke-width:4.80635786" />
    <path
       inkscape:connector-curvature="0"
       id="path692-7"
       d="m 573.27145,637.44995 -0.45775,0 -0.45775,0 -1.37324,0 0,0 -7.55285,0.91549 -14.41907,4.80636 -13.27471,7.78172 -11.4437,10.29934 -5.03524,5.95073 -5.03523,6.40848 -8.46834,13.73245 -7.0951,14.41907 -5.95073,15.10569 -4.57748,15.56345 -3.43312,16.02119 -2.97536,24.03179 -0.68662,16.25006 0.22887,8.46835 0,13.2747 1.37325,8.23947 1.60212,3.66199 6.40847,3.66198 15.79232,5.03523 26.32053,4.11974 15.79232,1.83099 9.38384,0.22888 13.04583,0 0,0 1.37324,0 1.37325,0 0.22887,0 0,0 13.04583,0 9.38384,-0.22888 15.79232,-1.83099 26.32053,-4.11974 16.02119,-5.03523 6.40847,-3.66198 1.37325,-3.66199 1.37325,-8.23947 0.22887,-13.2747 0,-8.46835 -0.45775,-16.25006 -3.20424,-24.03179 -3.43311,-16.02119 -4.57748,-15.56345 -5.72186,-15.10569 -7.0951,-14.41907 -8.69722,-13.73245 -5.03523,-6.40848 -4.80635,-5.95073 -11.67259,-10.29934 -13.04583,-8.01059 -14.64794,-4.57749 -7.55285,-0.91549 0,0 -0.68662,0 z"
       style="fill:#b9c8ca;stroke:#000000;stroke-width:5.72185421" />
    <rect
       style="fill:#312b2a;fill-opacity:1;stroke:#000000;stroke-width:7.01880789;stroke-linecap:butt;stroke-linejoin:round;stroke-miterlimit:4;stroke-opacity:1;stroke-dasharray:none;stroke-dashoffset:0"
       id="rect5318"
       width="22.852701"
       height="22.852701"
       x="890.54639"
       y="74.023834"
       transform="matrix(0.70432126,0.70988137,-0.70988137,0.70432126,0,0)" />
    <path
       inkscape:connector-curvature="0"
       id="path694-2"
       d="m 567.09185,525.75935 8.23947,0 9.38384,0.22888 17.85218,3.20423 16.47894,5.95073 14.64795,8.46835 12.3592,10.75708 9.84159,12.81696 6.86623,14.1902 3.66199,15.33456 0.22887,8.23947 0,5.49298 -0.22887,8.23947 -3.66199,15.33457 -6.86623,14.1902 -9.84159,12.81696 -12.3592,10.75708 -14.64795,8.46835 -16.47894,5.95073 -17.85218,3.20423 -9.38384,0.22888 -8.23947,0 -9.38385,-0.22888 -18.08106,-3.20423 -16.25006,-5.95073 -14.64795,-8.46835 -12.3592,-10.75708 -10.07047,-12.81696 -6.86622,-14.1902 -3.66199,-15.33457 -0.22887,-8.23947 0,-5.49298 0.22887,-8.23947 3.66199,-15.33456 6.86622,-14.1902 10.07047,-12.81696 12.3592,-10.75708 14.64795,-8.46835 16.25006,-5.95073 18.08106,-3.20423 9.38385,-0.22888 z"
       style="fill:#e4d4b3;stroke:#000000;stroke-width:5.49298048" />
    <path
       inkscape:connector-curvature="0"
       id="path718-8"
       d="m 569.83834,520.49525 -9.38385,0.45774 -21.51417,5.26411 -20.59867,8.69722 -12.58808,8.23947 -5.95073,6.1796 -2.05987,3.20424 -4.80636,5.26411 -7.0951,10.29933 -6.1796,14.87682 -2.97536,9.84159 8.69722,-8.23947 13.04582,-11.67258 5.72186,-2.51762 3.66199,0.22888 1.60211,0.9155 5.95073,3.66198 14.87682,6.17961 16.93669,4.80635 17.62331,2.97537 8.69722,0.68662 10.07047,-0.22887 21.51417,-3.20424 20.3698,-5.26411 16.70781,-7.0951 5.72186,-3.89086 8.23947,5.95073 9.38384,7.55285 -0.9155,-5.95073 -3.20424,-9.84159 -4.80635,-8.23947 -5.72186,-6.63735 -3.43311,-2.51762 -3.66199,-3.89086 -7.78172,-6.86622 -12.58808,-8.23947 -18.76768,-7.0951 -19.91205,-3.43312 -10.07047,-0.45774 -2.28874,0 -2.51761,0 z"
       style="fill:#36201d;stroke:#060606;stroke-width:2.74649024" />
    <path
       inkscape:connector-curvature="0"
       id="path360-2"
       d="m 622.67291,628.94777 -0.45775,3.20424 -2.51761,3.43311 -2.51762,1.14437 -1.37324,0.22887 -1.37325,-0.22887 -2.51761,-1.14437 -2.51762,-3.43311 -0.45775,-3.20424 0.45775,-3.20424 2.51762,-3.66199 2.51761,-1.14437 1.37325,0 1.37324,0 2.51762,1.14437 2.51761,3.66199 0.45775,3.20424 z"
       style="fill:#000000;stroke:none" />
    <path
       inkscape:connector-curvature="0"
       id="path362-1"
       d="m 555.06981,631.00763 -0.45774,3.20424 -2.74649,3.43312 -2.28875,1.14437 -1.37324,0.22887 -1.60212,-0.22887 -2.28874,-1.14437 -2.74649,-3.43312 -0.22888,-3.20424 0.22888,-3.20423 2.74649,-3.43312 2.28874,-1.37324 1.60212,0 1.37324,0 2.28875,1.37324 2.74649,3.43312 0.45774,3.20423 z"
       style="fill:#000000;stroke:none" />
    <path
       inkscape:connector-curvature="0"
       id="path364-3"
       d="m 521.87077,626.27307 33.87338,-0.45775"
       style="fill:none;stroke:#000000;stroke-width:5.95072889" />
    <path
       inkscape:connector-curvature="0"
       id="path366-6"
       d="m 590.68139,624.7609 32.94846,-0.31411"
       style="fill:none;stroke:#000000;stroke-width:6.87563515" />
    <rect
       style="fill:#312b2a;fill-opacity:1;stroke:#000000;stroke-width:8.34229183;stroke-linecap:butt;stroke-linejoin:round;stroke-miterlimit:4;stroke-opacity:1;stroke-dasharray:none;stroke-dashoffset:0"
       id="rect5318-3"
       width="38.49337"
       height="38.280167"
       x="1137.4557"
       y="-367.4534"
       transform="matrix(0.38061278,0.92473451,-0.38575404,0.92260166,0,0)" />
    <rect
       style="fill:#aa4400;fill-opacity:1;stroke:#000000;stroke-opacity:1"
       id="rect6010"
       width="520"
       height="20"
       x="313.73602"
       y="734.38251" />
    <rect
       style="fill:#aa4400;fill-opacity:1;stroke:#000000;stroke-opacity:1"
       id="rect6010-5"
       width="481.42856"
       height="140"
       x="332.30746"
       y="754.38251" />
    <path
       style="fill:#d45500;stroke:#000000;stroke-width:1px;stroke-linecap:butt;stroke-linejoin:miter;stroke-opacity:1"
       d="m 313.73603,734.38249 30,-10 450,0 40,10 z"
       id="path6078"
       inkscape:connector-curvature="0" />
    <path
       inkscape:connector-curvature="0"
       id="path4146"
       sodipodi:nodetypes="ccccccccc"
       style="fill:#b3b3b3;stroke:#000000;stroke-width:1.87460816;stroke-linecap:round"
       d="m 692.67131,592.71053 c 2.07898,-2.98169 2.46021,-6.94285 8.36471,-7.69504 l 90.6865,-0.44915 c 3.97623,1.54768 7.58897,3.31179 7.48258,7.24048 l -7.62,103.62869 c -0.54524,2.48926 -2.46022,4.5943 -6.10842,5.88221 l -80.93873,-0.45455 c -4.41065,-0.21646 -6.67139,-2.94382 -7.97463,-6.78592 l -3.89201,-101.36672 z" />
    <path
       inkscape:connector-curvature="0"
       id="path4152"
       style="fill:#000000;stroke:#000000;stroke-width:1.7342391;stroke-linecap:round"
       d="m 703.73603,604.38249 c 0.64276,28.29089 3.38625,53.58977 4.02901,81.88067 24.42923,0.29221 48.85403,0.58983 73.28326,0.88205 l 7.68773,-87.76272 c -27.51447,0.88206 -57.48553,4.11793 -85,5 z"
       sodipodi:nodetypes="ccccc" />
    <path
       inkscape:connector-curvature="0"
       id="path4162"
       sodipodi:nodetypes="ccc"
       style="fill:#cccccc;stroke:#000000;stroke-width:1.28199875;stroke-linecap:round"
       d="m 705.63619,725.54792 c 1.37141,10.13366 78.49071,9.12721 76.11648,0 -7.68104,-7.56956 -60.27741,-8.26582 -76.11648,0 z" />
    <path
       inkscape:connector-curvature="0"
       id="path4156"
       sodipodi:nodetypes="ccccc"
       style="fill:#b3b3b3;stroke:#000000;stroke-width:1.7993294;stroke-linecap:round"
       d="m 729.51603,701.15721 1.13193,21.9023 c 8.54443,4.28046 17.08885,6.00583 25.63328,0 l 4.14857,-21.9023 h -30.91378 z" />
    <path
       inkscape:connector-curvature="0"
       id="path4222"
       sodipodi:nodetypes="cccc"
       style="fill:#e6e6e6"
       d="m 732.26893,704.01451 1.02203,17.39107 7.50041,-17.39107 h -8.52244 z" />
    <path
       inkscape:connector-curvature="0"
       id="path5197"
       sodipodi:nodetypes="ccc"
       style="fill:#f2f2f2"
       d="m 714.16948,724.80909 c 2.94521,5.23857 20.05055,7.61502 28.93016,3.8518 l -28.93016,-3.8518 z" />
    <path
       id="path5241"
       sodipodi:rx="4.2857141"
       sodipodi:ry="4.4642859"
       style="fill:#99ff55"
       sodipodi:type="arc"
       d="m 210.35714,279.10715 a 4.2857141,4.4642859 0 1 1 -8.57143,0 4.2857141,4.4642859 0 1 1 8.57143,0 z"
       transform="matrix(0.67514691,0,0,0.67514691,648.1476,494.97165)"
       sodipodi:cy="279.10715"
       sodipodi:cx="206.07143" />
    <g
       transform="matrix(0.60442636,0.04206885,-0.04206885,0.60442636,258.74965,469.25587)"
       id="g3070">
      <path
         inkscape:connector-curvature="0"
         d="m 268.83,177.89 7.34,230.96 c -29.71,8.28 -59.43,13.35 -89.15,7.25 L 145.7,192.38 c 40.2,-12.68 82.93,-16.28 123.13,-14.49 z"
         style="fill:#b3b3b3;stroke:#000000;stroke-width:4.09350014;stroke-linecap:round"
         sodipodi:nodetypes="ccccc"
         id="path4164" />
      <path
         sodipodi:cx="189.64285"
         sodipodi:cy="265.35715"
         transform="matrix(1.2287,0,0,1.2287,-14.231,-15.404)"
         d="m 202.14285,265.35715 a 12.5,11.785714 0 1 1 -25,0 12.5,11.785714 0 1 1 25,0 z"
         sodipodi:type="arc"
         style="fill:#cccccc;stroke:#000000;stroke-width:3;stroke-linecap:round"
         sodipodi:ry="11.785714"
         sodipodi:rx="12.5"
         id="path4166" />
      <path
         inkscape:connector-curvature="0"
         d="m 174.9,221.14 2.55,23.73 71.74,-7.66 -0.85,-26.37 -73.44,10.3 z"
         style="fill:#cccccc;stroke:#000000;stroke-width:3.63249993;stroke-linecap:round"
         sodipodi:nodetypes="ccccc"
         id="path4168" />
      <path
         inkscape:connector-curvature="0"
         d="m 152.08,196.89 39.1,211.62 6.2,0.62 -35.37,-214.72 -9.93,2.48 z"
         style="fill:#f2f2f2"
         sodipodi:nodetypes="ccccc"
         id="path5237" />
      <path
         sodipodi:cx="206.07143"
         sodipodi:cy="279.10715"
         transform="matrix(1.2287,0,0,1.2287,-34.165,-29.496)"
         d="m 210.35714,279.10715 a 4.2857141,4.4642859 0 1 1 -8.57143,0 4.2857141,4.4642859 0 1 1 8.57143,0 z"
         sodipodi:type="arc"
         style="fill:#66ff00"
         sodipodi:ry="4.4642859"
         sodipodi:rx="4.2857141"
         id="path5239" />
    </g>
    <g
       transform="matrix(0.75838379,0,0,0.1101615,299.56776,677.35506)"
       id="g3093">
      <path
         inkscape:connector-curvature="0"
         d="M 268.78,431.6 237.45,487.08 481,488.04 452.83,424.95 268.78,431.6 z"
         style="fill:#cccccc;stroke:#000000;stroke-width:4.17689991;stroke-linecap:round"
         sodipodi:nodetypes="ccccc"
         id="path4172" />
      <path
         inkscape:connector-curvature="0"
         d="m 265.83,473.65 188.67,-3.14 -16.37,-31.69 -151.73,0.26 -20.57,34.57 z"
         style="fill:#e6e6e6"
         sodipodi:nodetypes="ccccc"
         id="path5243" />
    </g>
    <path
       inkscape:connector-curvature="0"
       id="path960"
       d="m 611.09255,666.71552 0,1.37344 -1.31792,2.74689 -2.30634,1.96206 -3.13004,1.17723 -1.81213,0.19621 -1.64739,-0.19621 -3.13005,-1.17723 -2.30634,-1.96206 -1.31792,-2.74689 -0.16474,-1.37344 0.16474,-1.56965 1.31792,-2.74688 2.30634,-1.96206 3.13005,-1.17724 1.64739,-0.19621 1.81213,0.19621 3.13004,1.17724 2.30634,1.96206 1.31792,2.74688 0,1.56965 z"
       style="fill:#ac646d;stroke:#000000;stroke-width:3.59570837;display:inline" />
    <g
       transform="matrix(3.739589,0,0,3.624275,-228.46595,262.64734)"
       id="g7380">
      <path
         style="fill:#3e432a;stroke:#000000;stroke-width:1.08000004"
         d="m 284.1809,180.96422 0.18,-0.66 1.68,-2.34 1.2,-0.84 1.62,-0.6 2.1,-0.24 1.2,0.06 1.68,0.18 2.7,0.66 1.98,0.96 1.44,1.02 1.26,1.62 0.48,1.5 0,0.18 -0.06,0.24 -1.32,0.42 -3.96,0.18 -6.78,-0.48 -3.96,-0.78 -1.08,-0.48 -0.36,-0.42 0,-0.18 z"
         id="path98"
         inkscape:connector-curvature="0" />
      <path
         style="fill:#cfc0a0;stroke:#000000;stroke-width:0.89999998"
         d="m 284.6609,156.84422 0.42,0.78 1.32,1.26 1.62,0.78 1.8,0.24 0.84,-0.12 0.84,-0.3 1.2,-0.96 0.6,-1.32 -0.06,-1.62 -0.3,-0.78 -0.48,-0.84 -1.26,-1.26 -1.68,-0.78 -1.74,-0.24 -0.9,0.18 -0.78,0.24 -1.2,1.02 -0.6,1.32 0,1.56 0.36,0.84 z"
         id="path100"
         inkscape:connector-curvature="0" />
      <path
         style="fill:#452789;stroke:#000000;stroke-width:1.13999999"
         d="m 298.1609,156.48422 -0.24,0.3 -1.26,0.12 -3.12,-0.6 -4.92,-1.86 -2.76,-1.62 -0.9,-1.02 0.06,-0.36 1.14,-4.8 2.28,-7.44 2.22,-5.34 2.1,-3.42 1.92,-2.04 1.74,-0.9 2.16,-0.18 0.96,0.24 0.6,0.6 0.9,1.62 0.54,2.22 0.12,2.94 -0.42,5.52 -1.8,9.9 -1.32,6.12 z"
         id="path102"
         inkscape:connector-curvature="0" />
      <path
         style="fill:#7c8f9a;stroke:#000000;stroke-width:1.38"
         d="m 311.0009,155.94422 -0.72,0 -4.08,0.12 -5.46,0.72 -3.18,0.78 -2.76,0.96 -2.1,1.14 -1.56,1.26 -0.78,1.38 -0.06,0.72 0,11.58 0.06,0.72 0.78,1.38 1.5,1.26 2.16,1.14 2.7,0.96 3.18,0.72 5.46,0.78 4.08,0.06 0.72,0 4.08,-0.06 5.46,-0.78 3.18,-0.72 2.76,-0.96 2.1,-1.14 1.56,-1.26 0.78,-1.38 0.06,-0.72 0,-11.58 -0.06,-0.72 -0.78,-1.38 -1.5,-1.26 -2.16,-1.14 -2.7,-0.96 -3.18,-0.78 -5.46,-0.72 -4.08,-0.12 z"
         id="path104"
         inkscape:connector-curvature="0" />
      <path
         style="fill:none;stroke:none"
         d="m 301.8809,180.36422 0.24,-8.16"
         id="path106"
         inkscape:connector-curvature="0" />
      <path
         style="fill:none;stroke:#000000;stroke-width:0.89999998"
         d="m 301.8809,180.36422 0.24,-8.16"
         id="path108"
         inkscape:connector-curvature="0" />
      <path
         style="fill:#452789;stroke:#000000;stroke-width:1.38"
         d="m 307.8209,123.42422 0.12,0 0.12,0 0.06,-0.06 0.06,0 0.06,0 0.12,0 0,0.06 1.74,0.12 3.42,1.08 3.18,1.86 2.76,2.46 1.2,1.38 1.2,1.56 2.1,3.3 1.8,3.48 1.44,3.6 1.74,5.7 1.26,7.8 0.24,3.96 0.06,2.04 0.06,3.24 -0.24,2.04 -0.36,0.9 -1.5,0.9 -3.66,1.32 -6.12,1.14 -3.72,0.48 -2.16,0.12 -3.06,0.12 0,0 -0.36,0 -0.3,0 -0.06,0 0,0 -3.06,0.06 -2.16,0 -3.72,-0.36 -6.24,-0.84 -3.72,-1.14 -1.56,-0.84 -0.36,-0.9 -0.36,-1.98 -0.12,-3.24 -0.12,-2.04 0.06,-3.96 0.84,-7.86 1.38,-5.76 1.26,-3.72 1.56,-3.54 1.92,-3.36 1.08,-1.62 1.14,-1.44 2.64,-2.58 3.06,-1.98 3.36,-1.26 1.74,-0.24 0,0 0.12,-0.06 0.06,0 0,0.06 z"
         id="path110"
         inkscape:connector-curvature="0" />
      <path
         style="fill:#cfc0a0;stroke:#000000;stroke-width:0.89999998"
         d="m 331.1009,162.42422 -0.54,0.72 -1.5,1.02 -1.74,0.48 -1.8,-0.06 -0.84,-0.3 -0.72,-0.36 -1.02,-1.2 -0.42,-1.44 0.36,-1.5 0.42,-0.78 0.6,-0.72 1.5,-1.02 1.74,-0.48 1.74,0.06 0.84,0.3 0.78,0.42 1.02,1.14 0.36,1.44 -0.3,1.56 -0.48,0.72 z"
         id="path112"
         inkscape:connector-curvature="0" />
      <path
         style="fill:#3e432a;stroke:#000000;stroke-width:1.20000005"
         d="m 334.2809,181.26422 0,-0.18 -0.66,-1.86 -1.5,-1.8 -1.62,-1.08 -2.16,-0.84 -2.94,-0.36 -1.74,0 -2.4,0.18 -3.96,0.66 -2.94,1.08 -2.16,1.26 -2.04,1.86 -0.96,1.92 -0.06,0.18 0,0.18 0.42,0.3 1.5,0.42 5.58,0.42 9.66,-0.3 5.76,-0.78 1.68,-0.54 0.54,-0.48 0,-0.24 z"
         id="path114"
         inkscape:connector-curvature="0" />
      <path
         style="fill:#452789;stroke:#000000;stroke-width:1.25999999"
         d="m 323.9009,159.42422 0.18,0.3 1.44,0.3 3.6,-0.24 5.76,-1.38 3.3,-1.38 1.08,-0.9 0.06,-0.42 -0.78,-5.16 -1.74,-8.1 -1.92,-5.82 -1.98,-3.9 -1.92,-2.34 -1.86,-1.2 -2.4,-0.42 -1.14,0.18 -0.78,0.24 -1.2,1.26 -0.84,2.22 -0.48,3.12 -0.12,6.06 0.9,10.92 0.84,6.66 z"
         id="path116"
         inkscape:connector-curvature="0" />
      <path
         style="fill:#cfc0a0;stroke:#000000;stroke-width:1.44000006"
         d="m 312.6209,89.88422 -2.16,0 -2.46,0.06 -4.74,0.84 -4.26,1.56 -3.84,2.28 -3.24,2.76 -2.58,3.36 -1.86,3.72 -0.96,4.08 -0.06,2.1 0,1.44 0.06,2.16 0.96,4.02 1.86,3.78 2.58,3.3 3.24,2.82 3.84,2.22 4.26,1.56 4.74,0.84 2.46,0.06 2.16,0 2.46,-0.06 4.68,-0.84 4.32,-1.56 3.84,-2.22 3.24,-2.82 2.58,-3.3 1.8,-3.78 0.96,-4.02 0.06,-2.16 0,-1.44 -0.06,-2.1 -0.96,-4.08 -1.8,-3.72 -2.58,-3.36 -3.24,-2.76 -3.84,-2.28 -4.32,-1.56 -4.68,-0.84 -2.46,-0.06 z"
         id="path118"
         inkscape:connector-curvature="0" />
      <path
         style="fill:none;stroke:#000000;stroke-width:1.25999999"
         d="m 305.3009,119.28422 -4.56,0.9"
         id="path120"
         inkscape:connector-curvature="0" />
      <path
         style="fill:#221f1f;stroke:none"
         d="m 308.1209,108.60422 0.12,0.42 0.48,0.72 0.66,0.42 0.84,0.18 0.42,-0.06 0.42,-0.12 0.66,-0.48 0.48,-0.72 0.18,-0.78 -0.06,-0.42 -0.12,-0.42 -0.48,-0.72 -0.72,-0.42 -0.78,-0.18 -0.48,0.06 -0.42,0.12 -0.66,0.48 -0.48,0.66 -0.12,0.84 0.06,0.42 z"
         id="path122"
         inkscape:connector-curvature="0" />
      <path
         style="fill:#221f1f;stroke:none"
         d="m 291.2009,111.72422 0.12,0.42 0.48,0.72 0.66,0.42 0.84,0.18 0.42,-0.06 0.42,-0.12 0.72,-0.48 0.42,-0.66 0.18,-0.84 -0.06,-0.42 -0.12,-0.42 -0.48,-0.72 -0.66,-0.42 -0.84,-0.18 -0.42,0.06 -0.42,0.12 -0.72,0.48 -0.42,0.66 -0.18,0.84 0.06,0.42 z"
         id="path124"
         inkscape:connector-curvature="0" />
      <path
         style="fill:#79602d;stroke:none"
         d="m 319.8809,77.82422 -0.42,0.18 -0.66,1.08 -0.6,1.44 -0.54,0.78 -0.48,0.24 -0.24,-0.06 -0.54,-0.24 -0.96,-1.2 -0.84,-1.56 -0.9,-1.2 -0.6,-0.18 -0.3,0 -0.48,0.36 -0.66,1.02 -0.84,1.8 -0.66,1.08 -0.54,0.42 -0.3,0.06 -0.3,-0.06 -0.54,-0.42 -0.66,-1.02 -0.78,-1.8 -0.66,-1.08 -0.54,-0.3 -0.24,-0.06 -0.3,0.12 -0.3,0.36 -0.06,1.02 0.24,1.62 -0.06,1.08 -0.24,0.48 -0.24,0.06 -0.6,0 -1.14,-0.9 -1.14,-1.38 -0.9,-0.72 -0.54,-0.18 -0.3,0.06 -0.24,0.18 -0.36,0.54 -0.3,1.32 -0.24,2.1 -0.42,1.8 -0.42,0.42 -0.3,0.06 -0.6,-0.12 -1.08,-0.72 -1.5,-1.38 -1.08,-0.72 -0.6,-0.12 -0.24,0.12 -0.24,0.18 -0.12,0.6 0.24,1.26 0.66,1.92 0.24,1.32 -0.12,0.66 -0.18,0.18 -0.54,0.24 -1.56,-0.36 -1.8,-0.78 -1.2,-0.3 -0.6,0.12 -0.18,0.18 -0.18,0.18 0.06,0.6 0.72,1.14 1.32,1.62 0.72,1.14 0.12,0.66 -0.12,0.24 -0.18,0.18 -0.6,0.18 -1.38,-0.24 -2.04,-0.54 -1.32,-0.18 -0.6,0.12 -0.12,0.24 -0.12,0.24 0.18,0.48 0.84,0.72 1.56,0.96 0.84,0.72 0.24,0.54 -0.06,0.24 -0.18,0.24 -0.54,0.36 -1.26,0.24 -2.04,0.18 -1.2,0.3 -0.54,0.36 -0.12,0.24 0,0.54 0.9,1.2 1.26,1.26 0.96,1.26 0.06,0.54 -0.18,0.54 -1.26,0.66 -1.62,0.54 -1.2,0.66 -0.18,0.48 0.06,0.24 0.36,0.36 0.96,0.36 1.8,0.24 1.68,0.3 0.48,0.36 0.42,0.06 1.14,-0.18 1.86,-0.12 0.84,-0.3 0.24,-0.3 0,-0.36 -0.9,-0.78 -1.32,-0.72 -0.66,-0.6 -0.18,-0.36 0.06,-0.18 0.36,-0.3 1.38,0.18 1.74,0.42 1.44,0.18 0.36,-0.24 0.12,-0.42 -0.72,-1.14 -1.2,-1.26 -0.54,-0.9 -0.06,-0.42 0.12,-0.18 0.36,-0.24 1.26,0.3 1.56,0.54 1.32,0.36 0.42,-0.18 0.3,-0.36 -0.24,-1.32 -0.6,-1.5 -0.18,-0.96 0.06,-0.42 0.18,-0.18 0.48,-0.06 1.14,0.66 1.26,1.02 1.2,0.72 0.48,-0.12 0.36,-0.3 0.3,-1.32 0.18,-1.68 0.36,-1.26 0.42,-0.24 0.42,-0.06 0.96,0.72 1.02,1.02 0.96,0.72 0.48,0 0.36,-0.18 0.06,-1.02 -0.18,-1.26 0.06,-0.78 0.24,-0.3 0.24,-0.06 0.42,0.06 0.78,1.02 0.66,1.38 0.78,1.08 0.48,0.12 0.48,-0.12 0.78,-1.02 0.66,-1.38 0.72,-1.02 0.48,-0.06 0.48,0.12 0.78,0.96 0.72,1.2 0.84,0.9 0.42,0.24 0.48,-0.06 0.6,-0.84 0.54,-1.14 0.6,-0.78 0.42,0.06 0.42,0.24 0.24,1.2 -0.06,1.44 0.24,1.26 0.36,0.24 0.54,0.12 1.26,-0.6 1.38,-0.84 1.26,-0.54 0.48,0.06 0.3,0.3 -0.06,0.96 -0.48,1.2 -0.12,1.02 0.3,0.3 0.48,0.24 1.26,-0.06 1.44,-0.18 1.26,0 0.42,0.24 0.24,0.3 -0.36,0.72 -0.72,0.78 -0.36,0.72 0.18,0.36 0.42,0.24 1.38,0 1.56,-0.3 1.32,0 0.36,0.3 0.12,0.36 -0.72,1.02 -1.14,1.02 -0.78,1.02 0.12,0.42 0.36,0.3 1.44,0.36 1.8,0.18 1.44,0.36 0.3,0.36 0.06,0.36 -0.9,0.9 -1.38,0.9 -0.96,0.9 -0.06,0.42 0.24,0.36 1.26,0.12 1.44,-0.06 1.14,0.18 0.18,0.36 -0.06,0.42 -0.96,0.54 -1.38,0.42 -1.02,0.54 -0.12,0.36 0.06,0.36 0.78,0.54 1.74,0.78 1.02,0.54 1.26,-0.06 2.28,0.24 1.08,-0.24 0.24,-0.36 0.06,-0.24 -0.18,-0.48 -0.84,-0.6 -1.5,-0.78 -0.84,-0.66 -0.24,-0.48 0.06,-0.24 0.3,-0.54 1.56,-0.78 1.98,-0.72 1.56,-0.84 0.18,-0.54 0,-0.24 -0.36,-0.54 -1.02,-0.66 -1.92,-0.9 -1.14,-0.72 -0.42,-0.48 -0.06,-0.3 0.06,-0.24 0.36,-0.48 0.96,-0.48 1.68,-0.6 0.9,-0.48 0.36,-0.48 0,-0.24 -0.06,-0.3 -0.42,-0.3 -1.08,-0.06 -1.8,0.06 -1.08,-0.06 -0.48,-0.3 -0.12,-0.24 -0.06,-0.3 0.3,-0.54 0.96,-0.9 1.62,-1.2 0.9,-0.84 0.24,-0.54 -0.06,-0.3 -0.12,-0.24 -0.6,-0.36 -1.32,-0.24 -2.16,-0.24 -1.8,-0.42 -0.42,-0.42 -0.06,-0.24 0.12,-0.6 0.78,-1.02 1.38,-1.38 0.72,-0.96 0.12,-0.6 -0.12,-0.24 -0.18,-0.24 -0.54,-0.18 -1.26,0.06 -1.86,0.36 -1.68,0.12 -0.48,-0.36 -0.12,-0.24 -0.06,-0.42 0.42,-0.78 0.9,-0.96 0.36,-0.72 -0.06,-0.42 -0.18,-0.24 -0.54,-0.3 -1.5,0 -1.68,0.3 -1.56,0.06 -0.54,-0.24 -0.24,-0.24 -0.12,-0.48 0.18,-1.02 0.54,-1.56 0.12,-0.96 -0.18,-0.48 -0.24,-0.18 -0.24,-0.12 -0.66,0.12 -1.14,0.6 -1.68,1.14 -1.56,0.78 -0.6,-0.12 -0.24,-0.12 -0.3,-0.6 -0.12,-1.2 0.06,-1.92 -0.18,-1.2 -0.3,-0.54 -0.3,-0.12 -0.12,-0.06 -0.12,0 z"
         id="path126"
         inkscape:connector-curvature="0" />
    </g>
  </g>
  <g
     inkscape:groupmode="layer"
     id="layer3"
     inkscape:label="balloons"
     style="display:inline">
    <text
       xml:space="preserve"
       style="font-size:24px;font-style:normal;font-variant:normal;font-weight:normal;font-stretch:normal;text-align:start;line-height:125%;letter-spacing:0px;word-spacing:0px;writing-mode:lr;text-anchor:start;fill:#000000;fill-opacity:1;stroke:none;font-family:SmackAttack BB;-inkscape-font-specification:SmackAttack BB"
       x="324.28571"
       y="64.094482"
       id="text7473"
       sodipodi:linespacing="125%"><tspan
         sodipodi:role="line"
         id="tspan7475"
         x="324.28571"
         y="64.094482" /></text>
    <path
       style="fill:#ffffff;fill-opacity:1;stroke:#000600;stroke-width:3.04860973;stroke-linecap:butt;stroke-linejoin:round;stroke-miterlimit:4;stroke-opacity:1;stroke-dasharray:none;stroke-dashoffset:0"
       d="M 160 44.125 C 148.92539 44.125 140.03125 53.019136 140.03125 64.09375 L 140.03125 124.09375 C 140.03125 135.16836 148.92539 144.0625 160 144.0625 L 389.96875 144.0625 L 420 174.09375 C 416.1491 162.82666 412.32717 154.27966 410.75 144.0625 L 430 144.0625 C 441.07461 144.0625 449.96875 135.16836 449.96875 124.09375 L 449.96875 64.09375 C 449.96875 53.019136 441.07461 44.125 430 44.125 L 160 44.125 z "
       id="rect7546" />
    <text
       xml:space="preserve"
       style="font-size:24px;font-style:normal;font-variant:normal;font-weight:normal;font-stretch:normal;text-align:start;line-height:125%;letter-spacing:0px;word-spacing:0px;writing-mode:lr-tb;text-anchor:start;fill:#000000;fill-opacity:1;stroke:none;font-family:SmackAttack BB;-inkscape-font-specification:SmackAttack BB"
       x="160"
       y="84.094482"
       id="text7477"
       sodipodi:linespacing="125%"><tspan
         sodipodi:role="line"
         id="tspan7479"
         x="160"
         y="84.094482">He pensado en </tspan><tspan
         sodipodi:role="line"
         x="160"
         y="114.09448"
         id="tspan7481">pasarnos a <tspan
   style="font-weight:bold;-inkscape-font-specification:SmackAttack BB Bold"
   id="tspan7550">GECOS</tspan></tspan></text>
    <text
       xml:space="preserve"
       style="font-size:24px;font-style:normal;font-variant:normal;font-weight:normal;font-stretch:normal;text-align:start;line-height:125%;writing-mode:lr-tb;text-anchor:start;fill:#afe9dd;fill-opacity:1;stroke:#000000;stroke-width:3.54330707;stroke-linecap:butt;stroke-linejoin:round;stroke-miterlimit:4;stroke-opacity:1;stroke-dasharray:none;stroke-dashoffset:0;font-family:SmackAttack BB;-inkscape-font-specification:SmackAttack BB"
       x="581.42859"
       y="134.09448"
       id="text7483"
       sodipodi:linespacing="125%"><tspan
         sodipodi:role="line"
         id="tspan7485"
         x="581.42859"
         y="134.09448" /></text>
    <text
       xml:space="preserve"
       style="font-size:24px;font-style:normal;font-variant:normal;font-weight:normal;font-stretch:normal;text-align:start;line-height:125%;writing-mode:lr-tb;text-anchor:start;fill:#afe9dd;fill-opacity:1;stroke:#000000;stroke-width:3.54330707;stroke-linecap:butt;stroke-linejoin:round;stroke-miterlimit:4;stroke-opacity:1;stroke-dasharray:none;stroke-dashoffset:0;font-family:SmackAttack BB;-inkscape-font-specification:SmackAttack BB"
       x="615.71429"
       y="65.523056"
       id="text7495"
       sodipodi:linespacing="125%"><tspan
         sodipodi:role="line"
         id="tspan7497"
         x="615.71429"
         y="65.523056" /></text>
    <text
       xml:space="preserve"
       style="font-size:24px;font-style:normal;font-variant:normal;font-weight:normal;font-stretch:normal;text-align:start;line-height:125%;writing-mode:lr-tb;text-anchor:start;fill:#afe9dd;fill-opacity:1;stroke:#000000;stroke-width:0;stroke-linecap:butt;stroke-linejoin:round;stroke-miterlimit:4;stroke-opacity:1;stroke-dasharray:none;stroke-dashoffset:0;font-family:SmackAttack BB;-inkscape-font-specification:SmackAttack BB"
       x="634.28571"
       y="66.951622"
       id="text7499"
       sodipodi:linespacing="125%"><tspan
         sodipodi:role="line"
         id="tspan7501"
         x="634.28571"
         y="66.951622" /></text>
    <path
       style="fill:#ffffff;fill-opacity:1;stroke:#000600;stroke-width:2.63825536;stroke-linecap:butt;stroke-linejoin:round;stroke-miterlimit:4;stroke-opacity:1;stroke-dasharray:none;stroke-dashoffset:0"
       d="M 535.28125 83.90625 C 526.72329 83.90625 519.8125 90.817041 519.8125 99.375 L 519.8125 130.25 C 519.8125 138.80796 526.72329 145.71875 535.28125 145.71875 L 580 145.71875 L 580 174.09375 L 594.1875 145.71875 L 784.71875 145.71875 C 793.27671 145.71875 800.1875 138.80796 800.1875 130.25 L 800.1875 99.375 C 800.1875 90.817041 793.27671 83.90625 784.71875 83.90625 L 535.28125 83.90625 z "
       id="rect7548" />
    <text
       xml:space="preserve"
       style="font-size:24px;font-style:normal;font-variant:normal;font-weight:normal;font-stretch:normal;text-align:start;line-height:125%;letter-spacing:0px;word-spacing:0px;writing-mode:lr-tb;text-anchor:start;fill:#000000;fill-opacity:1;stroke:none;display:inline;font-family:SmackAttack BB;-inkscape-font-specification:SmackAttack BB"
       x="540"
       y="124.09448"
       id="text7477-9"
       sodipodi:linespacing="125%"><tspan
         sodipodi:role="line"
         x="540"
         y="124.09448"
         id="tspan7481-2">¿qué le parece?</tspan></text>
    <rect
       style="fill:#ffffff;fill-opacity:1;stroke:#000600;stroke-width:3.12804866;stroke-linecap:butt;stroke-linejoin:round;stroke-miterlimit:4;stroke-opacity:1;stroke-dasharray:none;stroke-dashoffset:0;display:inline"
       id="rect7548-3"
       width="279.87195"
       height="87.014809"
       x="634.34973"
       y="471.30136"
       ry="21.753702" />
    <text
       xml:space="preserve"
       style="font-size:24px;font-style:normal;font-variant:normal;font-weight:bold;font-stretch:normal;text-align:start;line-height:125%;writing-mode:lr-tb;text-anchor:start;fill:#ffffff;fill-opacity:1;stroke:#000600;stroke-width:0;stroke-linecap:butt;stroke-linejoin:round;stroke-miterlimit:4;stroke-opacity:1;stroke-dasharray:none;stroke-dashoffset:0;font-family:SmackAttack BB;-inkscape-font-specification:SmackAttack BB Bold"
       x="667.14288"
       y="502.66592"
       id="text7552"
       sodipodi:linespacing="125%"><tspan
         sodipodi:role="line"
         id="tspan7554"
         x="667.14288"
         y="502.66592"
         style="-inkscape-font-specification:SmackAttack BB;font-family:SmackAttack BB;font-weight:normal;font-style:normal;font-stretch:normal;font-variant:normal;font-size:24px;text-anchor:start;text-align:start;writing-mode:lr;line-height:125%;stroke-width:0;stroke-miterlimit:4;stroke-dasharray:none;fill:#000000;fill-opacity:1;stroke:none">ofú</tspan><tspan
         sodipodi:role="line"
         x="667.14288"
         y="532.66589"
         id="tspan7556"
         style="-inkscape-font-specification:SmackAttack BB;font-family:SmackAttack BB;font-weight:normal;font-style:normal;font-stretch:normal;font-variant:normal;font-size:24px;text-anchor:start;text-align:start;writing-mode:lr;line-height:125%;stroke-width:0;stroke-miterlimit:4;stroke-dasharray:none;fill:#000000;fill-opacity:1;stroke:none">una cosa nueva</tspan></text>
    <path
       sodipodi:type="arc"
       style="fill:#ffffff;fill-opacity:1;stroke:#000600;stroke-opacity:1;stroke-width:3;stroke-miterlimit:4;stroke-dasharray:none"
       id="path7589"
       sodipodi:cx="825"
       sodipodi:cy="439.09448"
       sodipodi:rx="15"
       sodipodi:ry="15"
       d="m 840,439.09448 a 15,15 0 1 1 -30,0 15,15 0 1 1 30,0 z" />
    <path
       transform="matrix(0.56602846,0,0,0.58983799,366.59795,136.1713)"
       sodipodi:type="arc"
       style="fill:#ffffff;fill-opacity:1;stroke:#000600;stroke-width:5.19201275;stroke-miterlimit:4;stroke-opacity:1;stroke-dasharray:none;display:inline"
       id="path7589-9"
       sodipodi:cx="825"
       sodipodi:cy="439.09448"
       sodipodi:rx="15"
       sodipodi:ry="15"
       d="m 840,439.09448 a 15,15 0 1 1 -30,0 15,15 0 1 1 30,0 z" />
  </g>
</svg>
