<?xml version="1.0" encoding="UTF-8" standalone="no"?>
<!-- Created with Inkscape (http://www.inkscape.org/) -->

<svg
   xmlns:dc="http://purl.org/dc/elements/1.1/"
   xmlns:cc="http://creativecommons.org/ns#"
   xmlns:rdf="http://www.w3.org/1999/02/22-rdf-syntax-ns#"
   xmlns:svg="http://www.w3.org/2000/svg"
   xmlns="http://www.w3.org/2000/svg"
   xmlns:sodipodi="http://sodipodi.sourceforge.net/DTD/sodipodi-0.dtd"
   xmlns:inkscape="http://www.inkscape.org/namespaces/inkscape"
   width="1052.3622"
   height="744.09448"
   id="svg5396"
   version="1.1"
   inkscape:version="0.48.4 r9939"
   sodipodi:docname="gecos-v11.svg">
  <defs
     id="defs3" />
  <sodipodi:namedview
     inkscape:document-units="mm"
     id="base"
     pagecolor="#ffffff"
     bordercolor="#666666"
     borderopacity="1.0"
     inkscape:pageopacity="0"
     inkscape:pageshadow="2"
     inkscape:zoom="0.7"
     inkscape:cx="355.95493"
     inkscape:cy="366.49551"
     inkscape:current-layer="layer3"
     showgrid="true"
     units="mm"
     inkscape:window-width="1280"
     inkscape:window-height="975"
     inkscape:window-x="0"
     inkscape:window-y="0"
     inkscape:window-maximized="1">
    <inkscape:grid
       type="xygrid"
       id="grid5404"
       empspacing="5"
       visible="true"
       enabled="true"
       snapvisiblegridlinesonly="true" />
  </sodipodi:namedview>
  <metadata
     id="metadata4">
    <rdf:RDF>
      <cc:Work
         rdf:about="">
        <dc:format>image/svg+xml</dc:format>
        <dc:type
           rdf:resource="http://purl.org/dc/dcmitype/StillImage" />
        <dc:title></dc:title>
      </cc:Work>
    </rdf:RDF>
  </metadata>
  <g
     inkscape:groupmode="layer"
     id="layer2"
     inkscape:label="background"
     style="display:inline"
     sodipodi:insensitive="true">
    <rect
       style="fill:#afe9dd;fill-opacity:1;stroke:none"
       id="rect5402-2"
       width="1060"
       height="525"
       x="2.0050203e-07"
       y="-0.90550864" />
    <rect
       transform="translate(0,-308.2677)"
       style="fill:#b3b3b3;fill-opacity:1;stroke:none"
       id="rect5402"
       width="1060"
       height="240"
       x="0"
       y="812.36218" />
    <text
       xml:space="preserve"
       style="font-size:64px;font-style:normal;font-variant:normal;font-weight:normal;font-stretch:normal;text-align:start;line-height:125%;letter-spacing:0px;word-spacing:0px;writing-mode:lr-tb;text-anchor:start;fill:#000000;fill-opacity:1;stroke:none;font-family:Moria Citadel;-inkscape-font-specification:Moria Citadel"
       x="690.94434"
       y="80.424263"
       id="text6210"
       sodipodi:linespacing="125%"><tspan
         sodipodi:role="line"
         id="tspan6212"
         x="690.94434"
         y="80.424263" /></text>
    <text
       xml:space="preserve"
       style="font-size:64px;font-style:normal;font-variant:normal;font-weight:normal;font-stretch:normal;text-align:start;line-height:125%;letter-spacing:0px;word-spacing:0px;writing-mode:lr-tb;text-anchor:start;fill:#000000;fill-opacity:1;stroke:none;font-family:Moria Citadel;-inkscape-font-specification:Moria Citadel"
       x="925.29974"
       y="282.45477"
       id="text6255"
       sodipodi:linespacing="125%"><tspan
         sodipodi:role="line"
         id="tspan6257"
         x="925.29974"
         y="282.45477" /></text>
    <text
       xml:space="preserve"
       style="font-size:64px;font-style:normal;font-variant:normal;font-weight:normal;font-stretch:normal;text-align:start;line-height:125%;letter-spacing:0px;word-spacing:0px;writing-mode:lr-tb;text-anchor:start;fill:#000000;fill-opacity:1;stroke:none;font-family:Moria Citadel;-inkscape-font-specification:Moria Citadel"
       x="889.9444"
       y="448.11978"
       id="text6293"
       sodipodi:linespacing="125%"><tspan
         sodipodi:role="line"
         id="tspan6295"
         x="889.9444"
         y="448.11978" /></text>
  </g>
  <g
     inkscape:label="characters"
     inkscape:groupmode="layer"
     id="layer1"
     transform="translate(0,-308.2677)"
     style="display:inline">
    <path
       inkscape:connector-curvature="0"
       id="path674-8"
       d="m 551.96639,845.8051 2.75945,1.37972 1.99294,1.07312 3.21936,3.06606 1.68633,3.67927 0,3.83257 -0.61321,1.83963 -0.30661,0.61321 -0.91982,1.68633 -3.06605,2.29955 -3.98588,0.91981 -4.29248,-0.61321 -2.29954,-0.91981 -2.75945,-1.22643 -1.99294,-1.22642 -3.21936,-3.06606 -1.68633,-3.67926 0,-3.83257 0.61321,-1.83964 0.30661,-0.45991 0.91982,-1.68633 3.06605,-2.29954 3.98588,-0.91982 4.29248,0.45991 2.29954,0.91982 z"
       style="fill:#e4d4b3;stroke:#060000;stroke-width:2.75945091" />
    <path
       inkscape:connector-curvature="0"
       id="path676-5"
       d="m 688.86582,844.88528 -2.75945,1.37973 -2.14624,1.07312 -3.06606,3.21936 -1.68633,3.52596 -0.1533,3.83257 0.76651,1.83964 0.1533,0.61321 1.07312,1.68633 3.06606,2.29954 3.98587,0.91982 4.29248,-0.61321 2.14624,-0.76652 2.75945,-1.37972 2.14624,-1.22643 3.06606,-3.06605 1.68633,-3.67927 0.1533,-3.83257 -0.61321,-1.68633 -0.3066,-0.61321 -1.07312,-1.68634 -3.06606,-2.29954 -3.83257,-0.91981 -4.44578,0.4599 -2.14624,0.91982 z"
       style="fill:#e4d4b3;stroke:#060000;stroke-width:2.75945091" />
    <path
       inkscape:connector-curvature="0"
       id="path678-6"
       d="m 597.03742,788.92975 -22.99542,-11.19111 -1.22643,-0.45991 -2.75945,0.1533 -4.75239,2.60615 -7.35853,7.20524 -7.20523,10.8845 -3.37267,6.43872 -3.83257,7.81844 -3.06605,6.74533 -3.98588,12.26422 -1.22642,10.27129 1.07312,5.3656 1.53303,2.29954 1.07312,0.61321 22.99542,11.19111 1.22643,0.45991 2.75945,-0.1533 4.75238,-2.60615 7.20524,-7.20523 7.35853,-10.7312 3.37267,-6.59202 3.83257,-7.81845 3.06605,-6.74532 3.83257,-12.26423 1.37973,-10.27129 -1.07312,-5.3656 -1.53303,-2.29954 -1.07312,-0.61321 z"
       style="fill:#b9c8ca;stroke:#000000;stroke-width:3.21935987" />
    <path
       inkscape:connector-curvature="0"
       id="path680-9"
       d="m 621.41257,843.65886 1.99294,0 11.0378,0.3066 14.71707,1.99294 8.73827,1.99294 7.35853,2.45284 5.82551,3.06606 3.98587,3.37266 2.14624,3.52597 0.30661,1.99293 0,30.50727 -0.15331,1.83963 -2.14623,3.67927 -4.13918,3.37266 -5.82551,2.91276 -7.35853,2.60614 -8.58496,1.99294 -14.87038,1.99294 -11.0378,0.3066 -1.83964,0 -11.0378,-0.3066 -14.87037,-1.99294 -8.58496,-1.99294 -7.35854,-2.45284 -5.82551,-3.06606 -4.13917,-3.37266 -2.14624,-3.67927 -0.15331,-1.83963 -0.1533,-30.50727 0.30661,-1.83963 2.14624,-3.67927 3.98587,-3.37266 5.82551,-3.06606 7.35853,-2.45284 8.58496,-1.99294 14.87038,-1.99294 11.0378,-0.3066 z"
       style="fill:#897cc4;stroke:#000000;stroke-width:3.67926812" />
    <path
       inkscape:connector-curvature="0"
       id="path682-7"
       d="m 622.17909,908.65926 -0.45991,-20.69588"
       style="fill:none;stroke:none" />
    <path
       inkscape:connector-curvature="0"
       id="path684-1"
       d="m 622.17909,908.65926 -0.45991,-20.69588"
       style="fill:none;stroke:#000000;stroke-width:2.29954243" />
    <path
       inkscape:connector-curvature="0"
       id="path686-5"
       d="m 627.54468,913.41165 0,-0.61321 0.91982,-4.59909 2.45285,-4.75239 2.75945,-3.06605 3.98587,-2.45285 5.2123,-1.68633 3.37266,-0.30661 4.44578,0 7.35854,0.91982 5.5189,1.99294 4.29248,2.60615 3.98587,4.44578 2.14624,4.44578 0,0.45991 0.15331,0.45991 -0.76652,0.91981 -2.75945,1.22643 -10.11799,2.14624 -17.93643,1.37972 -10.7312,-0.91982 -3.21936,-1.07312 -1.07312,-0.91981 0,-0.61321 z"
       style="fill:#c6bca0;stroke:#000000;stroke-width:3.06605673" />
    <path
       inkscape:connector-curvature="0"
       id="path688-0"
       d="m 616.96679,913.41165 -0.1533,-0.61321 -0.91982,-4.44579 -2.45285,-4.44578 -2.75945,-2.91275 -3.98587,-2.45285 -5.3656,-1.53303 -3.37266,-0.3066 -4.44578,0 -7.35854,0.91981 -5.6722,1.83964 -4.13918,2.60615 -4.13918,4.13917 -2.14624,4.29248 0,0.45991 -0.1533,0.45991 0.76651,0.76651 2.75945,1.22643 10.27129,2.14624 18.08974,1.22642 10.7312,-0.76652 3.21936,-1.07312 1.07312,-1.07311 0.1533,-0.45991 z"
       style="fill:#c6bca0;stroke:#000000;stroke-width:3.06605673" />
    <path
       inkscape:connector-curvature="0"
       id="path690-7"
       d="m 638.27588,788.31654 22.99543,-11.19111 1.22642,-0.45991 2.75945,0.30661 4.75239,2.45284 7.35853,7.35854 7.20524,10.7312 3.37266,6.43871 3.83257,7.81845 3.06606,6.74532 3.98587,12.41753 1.22642,10.11799 -1.07312,5.3656 -1.53302,2.29954 -1.07312,0.61321 -22.99543,11.34441 -1.22642,0.30661 -2.75945,-0.1533 -4.75239,-2.60615 -7.20523,-7.20524 -7.35854,-10.73119 -3.37266,-6.59203 -3.83257,-7.81844 -3.06606,-6.59202 -3.98587,-12.41753 -1.22643,-10.27129 1.07312,-5.2123 1.53303,-2.45284 1.07312,-0.61321 z"
       style="fill:#b9c8ca;stroke:#000000;stroke-width:3.21935987" />
    <path
       inkscape:connector-curvature="0"
       id="path692-7"
       d="m 620.79936,757.19606 -0.30661,0 -0.3066,0 -0.91982,0 0,0 -5.05899,0.61321 -9.65808,3.21936 -8.89156,5.2123 -7.66515,6.89863 -3.37266,3.98587 -3.37266,4.29248 -5.67221,9.19817 -4.75238,9.65808 -3.98588,10.11798 -3.06605,10.4246 -2.29955,10.73119 -1.99293,16.0968 -0.45991,10.8845 0.1533,5.67221 0,8.89156 0.91982,5.5189 1.07312,2.45285 4.29248,2.45284 10.57789,3.37267 17.62983,2.75945 10.57789,1.22642 6.28542,0.1533 8.73826,0 0,0 0.91982,0 0.91982,0 0.1533,0 0,0 8.73826,0 6.28542,-0.1533 10.57789,-1.22642 17.62983,-2.75945 10.7312,-3.37267 4.29247,-2.45284 0.91982,-2.45285 0.91982,-5.5189 0.1533,-8.89156 0,-5.67221 -0.3066,-10.8845 -2.14624,-16.0968 -2.29955,-10.73119 -3.06605,-10.4246 -3.83257,-10.11798 -4.75239,-9.65808 -5.82551,-9.19817 -3.37266,-4.29248 -3.21936,-3.98587 -7.81845,-6.89863 -8.73826,-5.3656 -9.81138,-3.06606 -5.05899,-0.61321 0,0 -0.45991,0 z"
       style="fill:#b9c8ca;stroke:#000000;stroke-width:3.83257079" />
    <rect
       style="fill:#312b2a;fill-opacity:1;stroke:#000000;stroke-width:4.70128679;stroke-linecap:butt;stroke-linejoin:round;stroke-miterlimit:4;stroke-opacity:1;stroke-dasharray:none;stroke-dashoffset:0"
       id="rect5318"
       width="15.30703"
       height="15.30703"
       x="997.71301"
       y="114.05543"
       transform="matrix(0.70432126,0.70988137,-0.70988137,0.70432126,0,0)" />
    <path
       inkscape:connector-curvature="0"
       id="path694-2"
       d="m 616.66018,682.38428 5.51891,0 6.28541,0.1533 11.95762,2.14624 11.03781,3.98588 9.81138,5.6722 8.27835,7.20523 6.59202,8.58496 4.59909,9.50478 2.45284,10.27129 0.15331,5.5189 0,3.67927 -0.15331,5.5189 -2.45284,10.27129 -4.59909,9.50477 -6.59202,8.58496 -8.27835,7.20524 -9.81138,5.6722 -11.03781,3.98587 -11.95762,2.14624 -6.28541,0.15331 -5.51891,0 -6.28541,-0.15331 -12.11093,-2.14624 -10.8845,-3.98587 -9.81138,-5.6722 -8.27835,-7.20524 -6.74533,-8.58496 -4.59908,-9.50477 -2.45285,-10.27129 -0.1533,-5.5189 0,-3.67927 0.1533,-5.5189 2.45285,-10.27129 4.59908,-9.50478 6.74533,-8.58496 8.27835,-7.20523 9.81138,-5.6722 10.8845,-3.98588 12.11093,-2.14624 6.28541,-0.1533 z"
       style="fill:#e4d4b3;stroke:#000000;stroke-width:3.67926812" />
    <path
       inkscape:connector-curvature="0"
       id="path718-8"
       d="m 618.49982,678.85831 -6.28542,0.30661 -14.41046,3.52596 -13.79726,5.82551 -8.43166,5.5189 -3.98587,4.13918 -1.37972,2.14624 -3.21936,3.52597 -4.75239,6.89862 -4.13918,9.96469 -1.99294,6.59202 5.82551,-5.5189 8.73826,-7.81845 3.83257,-1.68633 2.45285,0.1533 1.07312,0.61322 3.98587,2.45284 9.96469,4.13918 11.34441,3.21936 11.80432,1.99293 5.8255,0.45991 6.74533,-0.1533 14.41046,-2.14624 13.64396,-3.52597 11.1911,-4.75238 3.83257,-2.60615 5.5189,3.98587 6.28542,5.059 -0.61321,-3.98588 -2.14624,-6.59202 -3.21936,-5.5189 -3.83257,-4.44578 -2.29954,-1.68633 -2.45285,-2.60615 -5.21229,-4.59909 -8.43166,-5.5189 -12.57083,-4.75239 -13.33735,-2.29954 -6.74532,-0.30661 -1.53303,0 -1.68633,0 z"
       style="fill:#36201d;stroke:#060606;stroke-width:1.83963406" />
    <path
       inkscape:connector-curvature="0"
       id="path360-2"
       d="m 648.62628,751.50119 -0.30661,2.14624 -1.68633,2.29954 -1.68633,0.76651 -0.91982,0.15331 -0.91982,-0.15331 -1.68633,-0.76651 -1.68633,-2.29954 -0.3066,-2.14624 0.3066,-2.14624 1.68633,-2.45285 1.68633,-0.76651 0.91982,0 0.91982,0 1.68633,0.76651 1.68633,2.45285 0.30661,2.14624 z"
       style="fill:#000000;stroke:none" />
    <path
       inkscape:connector-curvature="0"
       id="path362-1"
       d="m 603.34487,752.88091 -0.3066,2.14624 -1.83964,2.29955 -1.53303,0.76651 -0.91981,0.1533 -1.07312,-0.1533 -1.53303,-0.76651 -1.83964,-2.29955 -0.1533,-2.14624 0.1533,-2.14624 1.83964,-2.29954 1.53303,-0.91982 1.07312,0 0.91981,0 1.53303,0.91982 1.83964,2.29954 0.3066,2.14624 z"
       style="fill:#000000;stroke:none" />
    <path
       inkscape:connector-curvature="0"
       id="path364-3"
       d="m 586.37053,749.70965 22.68882,-0.30661"
       style="fill:none;stroke:#000000;stroke-width:3.9858737" />
    <path
       inkscape:connector-curvature="0"
       id="path366-6"
       d="m 632.15101,748.32992 22.68881,-0.1533"
       style="fill:none;stroke:#000000;stroke-width:3.9858737" />
    <rect
       style="fill:#312b2a;fill-opacity:1;stroke:#000000;stroke-width:5.58777285;stroke-linecap:butt;stroke-linejoin:round;stroke-miterlimit:4;stroke-opacity:1;stroke-dasharray:none;stroke-dashoffset:0"
       id="rect5318-3"
       width="25.783346"
       height="25.640539"
       x="1250.4874"
       y="-377.93283"
       transform="matrix(0.38061278,0.92473451,-0.38575405,0.92260165,0,0)" />
    <path
       inkscape:connector-curvature="0"
       id="path598"
       d="m 181.20457,849.14729 2.66971,1.1866 1.92812,1.1866 3.11468,2.9663 1.63149,3.5596 0.14831,3.7079 -0.74158,1.7798 -0.29663,0.445 -0.88991,1.6315 -2.96636,2.2248 -3.85625,0.8899 -4.15289,-0.445 -2.07645,-0.8899 -2.66971,-1.3349 -2.07644,-1.0382 -2.96636,-2.9663 -1.7798,-3.5597 0,-3.7078 0.59327,-1.7799 0.29663,-0.5933 0.8899,-1.4832 2.96636,-2.2247 3.85625,-1.0383 4.30121,0.5934 2.07645,0.8898 z"
       style="fill:#e3d2b0;stroke:#060000;stroke-width:2.66971564" />
    <path
       inkscape:connector-curvature="0"
       id="path600"
       d="m 313.65212,848.25749 -2.66971,1.1865 -1.92814,1.1866 -3.11466,2.9663 -1.63149,3.5596 0,3.7079 0.59326,1.7798 0.29664,0.445 0.88991,1.6315 2.96634,2.2248 3.85627,0.8899 4.15288,-0.445 2.22477,-0.89 2.66971,-1.3348 1.92813,-1.0382 2.96635,-2.9663 1.77981,-3.5597 0,-3.7079 -0.59327,-1.7798 -0.29663,-0.5932 -0.88991,-1.4833 -2.96635,-2.2247 -3.85625,-1.0383 -4.1529,0.5934 -2.22476,0.8899 z"
       style="fill:#e3d2b0;stroke:#060000;stroke-width:2.66971564" />
    <path
       inkscape:connector-curvature="0"
       id="path602"
       d="m 182.53942,730.93828 -0.74158,1.33486 -4.15289,9.78896 -3.11467,9.64064 -2.81803,12.01372 -1.48318,13.79353 0.44495,15.12839 2.07645,11.86531 2.5214,8.0092 1.48317,4.0046 0.88991,1.7798 2.37307,3.4113 5.0428,4.3012 8.60242,4.3012 9.64063,2.8181 14.68344,2.373 14.09017,0.7416 1.48317,0 -16.61157,-97.14794"
       style="fill:none;stroke:none" />
    <path
       inkscape:connector-curvature="0"
       id="path604"
       d="m 182.53942,730.93828 -0.74158,1.33486 -4.15289,9.78896 -3.11467,9.64064 -2.81803,12.01372 -1.48318,13.79353 0.44495,15.12839 2.07645,11.86531 2.5214,8.0092 1.48317,4.0046 0.88991,1.7798 2.37307,3.4113 5.0428,4.3012 8.60242,4.3012 9.64063,2.8181 14.68344,2.373 14.09017,0.7416 1.48317,0 -16.61157,-97.14794"
       style="fill:#312b2a;fill-opacity:1;stroke:#000000;stroke-width:2.07644534" />
    <path
       inkscape:connector-curvature="0"
       id="path606"
       d="m 224.80991,793.97324 -22.24762,-10.82718 -1.18655,-0.44496 -2.6697,0.29664 -4.59785,2.37308 -6.97093,7.11924 -7.11924,10.38223 -3.26298,6.2293 -3.70794,7.7125 -2.96635,6.3777 -3.70794,12.0137 -1.33486,9.7889 1.03823,5.1911 1.48317,2.2248 1.03822,0.7417 22.24764,10.8271 1.18653,0.445 2.66972,-0.2967 4.59784,-2.3731 7.11925,-7.1192 6.97091,-10.3823 3.26299,-6.2293 3.70794,-7.7125 2.96635,-6.3776 3.85626,-12.0138 1.18653,-9.7889 -1.03821,-5.1911 -1.48318,-2.22477 -1.03823,-0.74158 z"
       style="fill:#236670;stroke:#000000;stroke-width:3.11466813" />
    <path
       inkscape:connector-curvature="0"
       id="path608"
       d="m 248.39241,847.07089 1.92812,0 10.67886,0.2967 14.38681,1.7797 8.30577,1.9282 7.11925,2.5214 5.63606,2.818 4.00458,3.263 2.07645,3.5596 0.14831,1.9281 0,29.3668 -0.14831,1.9282 -2.07645,3.5596 -4.00458,3.263 -5.63606,2.818 -6.97092,2.5214 -8.4541,1.9282 -14.23848,1.7798 -10.82719,0.2966 -1.77981,0 -10.67886,-0.2966 -14.3868,-1.7798 -8.30578,-1.9282 -7.11924,-2.5214 -5.63607,-2.818 -4.00457,-3.263 -2.07645,-3.5596 -0.14831,-1.9282 0,-29.3668 0.14831,-1.9281 2.07645,-3.5596 4.00457,-3.263 5.63607,-2.818 6.97092,-2.5214 8.4541,-1.9282 14.23849,-1.7797 10.67886,-0.2967 z"
       style="fill:#ffffff;stroke:#000000;stroke-width:3.5596211" />
    <path
       inkscape:connector-curvature="0"
       id="path610"
       d="m 249.28231,909.95739 -0.59327,-20.1711"
       style="fill:none;stroke:none" />
    <path
       inkscape:connector-curvature="0"
       id="path612"
       d="m 249.28231,909.95739 -0.59327,-20.1711"
       style="fill:none;stroke:#000000;stroke-width:2.22476292" />
    <path
       inkscape:connector-curvature="0"
       id="path614"
       d="m 254.32511,914.55529 0,-0.5932 0.8899,-4.4496 2.5214,-4.5978 2.52139,-2.9664 3.85627,-2.3731 5.19111,-1.6314 3.11467,-0.2966 4.30121,0 7.11924,0.8898 5.48774,1.9282 4.00458,2.5214 3.85625,4.3012 2.07645,4.3011 0,0.445 0.14832,0.4449 -0.74159,0.8899 -2.66971,1.1866 -9.78896,2.0764 -17.35315,1.3349 -10.38223,-0.8899 -3.11467,-1.0382 -1.03822,-0.8899 0,-0.5933 z"
       style="fill:#2c3873;stroke:#000000;stroke-width:2.96635056" />
    <path
       inkscape:connector-curvature="0"
       id="path616"
       d="m 244.0912,914.55529 0,-0.445 -1.03823,-4.4494 -2.37307,-4.3013 -2.66972,-2.818 -3.85625,-2.3731 -5.19112,-1.4832 -3.11467,-0.2966 -4.44952,0 -7.11924,0.8899 -5.48775,1.7798 -4.00458,2.5214 -4.00457,4.0046 -2.07644,4.1529 0,0.445 -0.14833,0.4449 0.74159,0.7415 2.66971,1.1866 9.93728,2.0764 17.50147,1.1866 10.53055,-0.7416 2.96635,-1.0382 1.03821,-0.8899 0.14833,-0.5933 z"
       style="fill:#2c3873;stroke:#000000;stroke-width:2.96635056" />
    <path
       inkscape:connector-curvature="0"
       id="path618"
       d="m 309.20259,729.90007 0.74159,1.33486 4.15289,9.64063 3.11467,9.78896 2.81804,12.01372 1.48317,13.79352 -0.44495,14.98007 -2.07645,11.86546 -2.37308,8.0091 -1.63149,4.1529 -0.88991,1.7798 -2.37308,3.4113 -5.04279,4.3012 -8.60242,4.1529 -9.64064,2.9663 -14.68344,2.3731 -14.09016,0.7416 -1.48318,0 16.61157,-97.14796"
       style="fill:none;stroke:none" />
    <path
       inkscape:connector-curvature="0"
       id="path620"
       d="m 309.20259,729.90007 0.74159,1.33486 4.15289,9.64063 3.11467,9.78896 2.81804,12.01372 1.48317,13.79352 -0.44495,14.98007 -2.07645,11.86546 -2.37308,8.0091 -1.63149,4.1529 -0.88991,1.7798 -2.37308,3.4113 -5.04279,4.3012 -8.60242,4.1529 -9.64064,2.9663 -14.68344,2.3731 -14.09016,0.7416 -1.48318,0 16.61157,-97.14796"
       style="fill:#312b2a;fill-opacity:1;stroke:#000000;stroke-width:2.07644534" />
    <path
       inkscape:connector-curvature="0"
       id="path622"
       d="m 264.70734,793.52828 22.24762,-10.97549 1.18655,-0.29664 2.66971,0.14832 4.74616,2.37308 6.97093,7.11924 6.97092,10.3822 3.26298,6.3776 3.70795,7.5642 2.96635,6.3777 3.85625,12.0137 1.18654,9.789 -0.8899,5.1911 -1.48318,2.3731 -1.03822,0.5932 -22.39595,10.8272 -1.03822,0.445 -2.81804,-0.2967 -4.59784,-2.373 -6.97092,-7.1192 -7.11924,-10.3823 -3.26299,-6.2293 -3.70794,-7.5642 -2.81803,-6.526 -3.85625,-12.0137 -1.33486,-9.789 1.03821,-5.19108 1.48318,-2.22476 1.03823,-0.59327 z"
       style="fill:#236670;stroke:#000000;stroke-width:3.11466813" />
    <path
       inkscape:connector-curvature="0"
       id="path624"
       d="m 247.79914,763.27151 -0.29664,0 -0.29664,0 -0.8899,0 0,0.14832 -4.89448,0.44495 -9.344,3.11467 -8.60242,5.19111 -7.41588,6.67429 -3.26298,3.70794 -3.11467,4.30121 -5.63607,8.75073 -4.59783,9.34396 -3.85627,9.789 -2.96635,10.0856 -2.07644,10.3822 -2.07645,15.7216 -0.44494,10.3823 0.14831,5.6361 0.14832,8.6024 0.74158,5.3394 1.03823,2.3731 4.15288,2.373 10.23392,3.1147 17.20483,2.818 10.2339,1.0383 5.93271,0.1483 8.4541,0.1483 0,0 1.77981,0 0.14831,0 0.14833,0 8.4541,0 5.9327,-0.2966 10.2339,-1.0383 17.20484,-2.818 10.23391,-3.1147 4.15289,-2.373 1.03822,-2.3731 0.74159,-5.3394 0.14832,-8.6024 0.14832,-5.4878 -0.44496,-10.5306 -2.07645,-15.7216 -2.22476,-10.2339 -2.81803,-10.0856 -3.85625,-9.7889 -4.59785,-9.49236 -5.63607,-8.75073 -3.11466,-4.1529 -3.26299,-3.85625 -7.41587,-6.67429 -8.60242,-5.19111 -9.344,-3.11467 -4.89448,-0.44495 0,-0.14832 -0.59327,0 z"
       style="fill:#236670;stroke:#000000;stroke-width:3.70793843" />
    <path
       inkscape:connector-curvature="0"
       id="path626"
       d="m 243.79456,690.89255 5.33944,0 6.08101,0.29664 11.56877,1.92813 10.67887,4.00456 9.49231,5.48775 8.00915,6.97093 6.37765,8.15747 4.44953,9.19569 2.37308,10.08559 0.29663,5.33942 0,3.41131 -0.29663,5.33943 -2.37308,10.08559 -4.44953,9.19569 -6.37765,8.15746 -8.00915,6.97093 -9.49231,5.48775 -10.67887,4.00457 -11.56877,1.92813 -6.08101,0.29664 -5.33944,0 -6.08101,-0.29664 -11.56878,-1.92813 -10.67886,-4.00457 -9.49232,-5.48775 -8.00914,-6.97093 -6.37765,-8.15746 -4.59785,-9.19569 -2.22476,-10.08559 -0.29663,-5.33943 0,-3.41131 0.29663,-5.33942 2.22476,-10.08559 4.59785,-9.19569 6.37765,-8.15747 8.00914,-6.97093 9.49232,-5.48775 10.67886,-4.00456 11.56878,-1.92813 6.08101,-0.29664 z"
       style="fill:#e3d2b0;stroke:#000000;stroke-width:3.5596211" />
    <path
       inkscape:connector-curvature="0"
       id="path652"
       d="m 269.89845,766.08954 -0.59327,2.37308 -5.19111,8.89906 -3.11468,3.26298 -3.85625,2.66972 -4.59784,1.63149 -2.66972,0.14831 -2.66972,-0.14831 -4.74616,-1.63149 -4.00457,-2.66972 -3.11467,-3.26298 -5.48774,-8.89906 -0.74159,-2.37308 40.78732,0 z"
       style="fill:#b66b6e;stroke:#000000;stroke-width:1.77981055" />
    <path
       inkscape:connector-curvature="0"
       id="path654"
       d="m 229.40776,750.5162 0,1.03822 -0.8899,1.92813 -1.33486,1.48318 -1.92813,0.74158 -1.03822,0.14832 -1.18654,-0.14832 -1.92813,-0.74158 -1.33486,-1.48318 -0.8899,-1.92813 0,-1.03822 0,-1.03823 0.8899,-1.92812 1.33486,-1.48318 1.92813,-0.74159 1.18654,-0.14831 1.03822,0.14831 1.92813,0.74159 1.33486,1.48318 0.8899,1.92812 0,1.03823 z"
       style="fill:#221f1f;stroke:none" />
    <path
       inkscape:connector-curvature="0"
       id="path656"
       d="m 278.94582,749.6263 0,1.03822 -0.74159,1.92813 -1.48317,1.48317 -1.92813,0.74159 -1.03823,0.14832 -1.18653,-0.14832 -1.77982,-0.74159 -1.48317,-1.48317 -0.88991,-1.92813 0,-1.03822 0,-1.03823 0.88991,-1.92813 1.48317,-1.48317 1.77982,-0.74159 1.18653,-0.14832 1.03823,0.14832 1.92813,0.74159 1.48317,1.48317 0.74159,1.92813 0,1.03823 z"
       style="fill:#221f1f;stroke:none" />
    <path
       inkscape:connector-curvature="0"
       id="path666"
       d="m 243.34961,683.92163 -6.37765,0.14831 -12.31036,2.22477 -11.27214,4.00457 -10.08559,5.78439 -8.60241,7.26755 -6.82261,8.60242 -4.89448,9.64064 -2.81802,10.53055 -0.44496,5.48775 4.74617,-0.59327 4.89447,-0.14832 123.40018,0 -0.44495,-5.48775 -2.81803,-10.38223 -5.04279,-9.49232 -6.97093,-8.4541 -8.4541,-7.11924 -10.08559,-5.78438 -11.27213,-3.85626 -12.16204,-2.22477 -6.37765,-0.14831 -5.78439,0 z"
       style="fill:#312b2a;stroke:#000002;stroke-width:1.77981055" />
    <path
       inkscape:connector-curvature="0"
       id="path128"
       d="m 784.86961,801.45195 -22.39595,-10.82718 -1.18654,-0.44495 -2.66972,0.29664 -4.59783,2.37308 -6.97093,7.11924 -7.11924,10.38223 -3.26299,6.22933 -3.70794,7.56419 -2.96634,6.52597 -3.70795,12.01373 -1.33485,9.78895 1.03822,5.19111 1.48317,2.22477 1.03823,0.59327 22.24762,10.9755 1.18655,0.29663 2.66971,-0.14831 4.74616,-2.52141 6.97093,-6.97091 6.97092,-10.38223 3.26298,-6.37766 3.70795,-7.56419 2.96635,-6.37766 3.85625,-12.01372 1.18654,-9.93727 -0.8899,-5.0428 -1.48317,-2.37308 -1.03823,-0.59327 z"
       style="fill:#52357c;stroke:#000000;stroke-width:3.11466813" />
    <path
       inkscape:connector-curvature="0"
       id="path130"
       d="m 824.61871,800.85868 22.24762,-10.82718 1.18655,-0.44495 2.66971,0.29664 4.74617,2.37307 6.97091,7.11925 6.97093,10.38223 3.26299,6.22934 3.70794,7.7125 2.96634,6.37765 3.85627,12.01372 1.18653,9.78896 -1.03822,5.19111 -1.33486,2.22477 -1.18654,0.74159 -22.24763,10.82718 -1.18654,0.44496 -2.66971,-0.29665 -4.59785,-2.37307 -6.97092,-7.11924 -7.11925,-10.38223 -3.26297,-6.37766 -3.70795,-7.5642 -2.96635,-6.37765 -3.70794,-12.01371 -1.33485,-9.78896 1.03822,-5.19112 1.48318,-2.22476 1.03822,-0.74159 z"
       style="fill:#52357c;stroke:#000000;stroke-width:3.11466813" />
    <path
       inkscape:connector-curvature="0"
       id="path132"
       d="m 785.46288,821.02987 36.78275,0 7.41587,0.29663 12.90362,2.22476 7.5642,2.96635 3.85625,2.37309 2.66972,2.66971 1.48318,2.96636 0.14832,1.48317 0,65.70466 -0.14832,1.48318 -1.48318,2.96635 -2.66972,2.66971 -3.85625,2.37309 -7.5642,2.96635 -12.90362,2.22476 -7.41587,0.14832 -36.78275,0 -7.26756,-0.14832 -13.05195,-2.22476 -7.41587,-2.96635 -4.00458,-2.37309 -2.66971,-2.66971 -1.48318,-2.96635 -0.14831,-1.48318 0,-65.70466 0.14831,-1.48317 1.48318,-2.96636 2.66971,-2.66971 3.85627,-2.37309 7.56418,-2.96635 12.90363,-2.22476 7.41588,-0.29663 z"
       style="fill:#7c8f9a;stroke:#000000;stroke-width:3.5596211" />
    <path
       inkscape:connector-curvature="0"
       id="path134"
       d="m 806.22733,918.02953 -0.59327,-20.17118"
       style="fill:none;stroke:#000000;stroke-width:2.22476292" />
    <path
       inkscape:connector-curvature="0"
       id="path136"
       d="m 811.27013,915.50814 0,-0.59327 0.88991,-4.44953 2.37308,-4.59785 2.66971,-2.96635 3.85626,-2.52139 5.04279,-1.48318 3.26299,-0.29663 4.30121,-0.14832 7.11924,1.03822 5.48775,1.92813 4.00457,2.5214 3.85626,4.30121 2.07645,4.30121 0,0.44494 0.14831,0.44496 -0.74159,0.8899 -2.66971,1.18655 -9.78896,2.07644 -17.35315,1.33486 -10.38223,-0.88991 -3.11467,-1.03822 -1.03822,-0.8899 0,-0.59327 z"
       style="fill:#3e432a;stroke:#000000;stroke-width:2.96635056" />
    <path
       inkscape:connector-curvature="0"
       id="path138"
       d="m 801.03622,915.50814 0,-0.44496 -1.03823,-4.44952 -2.37307,-4.30121 -2.66972,-2.81803 -3.85625,-2.37308 -5.19111,-1.48319 -3.11468,-0.29663 -4.44952,0 -7.11924,0.88991 -5.48775,1.77981 -4.00458,2.52139 -4.00457,4.00458 -2.07644,4.15289 0,0.44495 -0.14832,0.44496 0.74159,0.74158 2.6697,1.18655 9.93728,2.07644 17.50147,1.18654 10.38223,-0.74159 3.11467,-1.03822 1.03823,-0.8899 0.14831,-0.59327 z"
       style="fill:#3e432a;stroke:#000000;stroke-width:2.96635056" />
    <path
       inkscape:connector-curvature="0"
       id="path140"
       d="m 804.74416,771.3435 -0.29663,0 -0.29665,0 -0.14831,0 -0.14832,0 -0.59327,0 0,0 -4.89448,0.59326 -9.344,2.96636 -8.60242,4.89448 -7.41588,6.37765 -3.26298,3.70794 -3.11467,4.00456 -5.63607,8.4541 -4.59784,8.89906 -3.85626,9.49232 -2.96635,9.64064 -2.07645,9.93728 -2.07644,14.98007 -0.44495,10.08559 0.14832,5.19111 0,8.30578 0.8899,5.19112 1.03823,2.22477 4.15289,2.22476 10.23391,3.11466 17.05651,2.66972 10.23392,1.03822 6.08101,0.14832 8.4541,0 0,0 0.8899,0 0.88992,0 0.14831,0 0,0 8.60242,0 5.9327,-0.14832 10.23391,-1.03822 17.05652,-2.66972 10.38222,-3.11466 4.15289,-2.22476 0.8899,-2.22477 0.88992,-5.19112 0.14831,-8.30578 0.14832,-5.19111 -0.44496,-10.08559 -2.07643,-14.98007 -2.22478,-9.93728 -2.96635,-9.64064 -3.70793,-9.49232 -4.59784,-8.89906 -5.63607,-8.4541 -3.26299,-4.00456 -3.11466,-3.70794 -7.5642,-6.37765 -8.4541,-4.89448 -9.344,-2.96636 -5.0428,-0.59326 0,0 -0.14831,0 -0.29664,0 z"
       style="fill:#52357c;stroke:#000000;stroke-width:3.70793843" />
    <path
       inkscape:connector-curvature="0"
       id="path142"
       d="m 800.73958,698.96454 5.33944,0 6.08102,0.14832 11.56876,2.07644 10.67887,3.85625 9.49231,5.63607 8.00916,6.97093 6.37765,8.15746 4.44952,9.19568 2.37308,10.0856 0.14832,5.19111 0,3.55963 -0.14832,5.33942 -2.37308,10.0856 -4.44952,9.19569 -6.37765,8.15746 -8.00916,6.97092 -9.49231,5.48776 -10.67887,3.85625 -11.56876,2.07644 -6.08102,0.14832 -5.33944,0 -6.08101,-0.14832 -11.71709,-2.07644 -10.53054,-3.85625 -9.49233,-5.48776 -8.00914,-6.97092 -6.37766,-8.15746 -4.59785,-9.19569 -2.37307,-10.0856 -0.14831,-5.33942 0,-3.55963 0.14831,-5.19111 2.37307,-10.0856 4.59785,-9.19568 6.37766,-8.15746 8.00914,-6.97093 9.49233,-5.63607 10.53054,-3.85625 11.71709,-2.07644 6.08101,-0.14832 z"
       style="fill:#cfc0a0;stroke:#000000;stroke-width:3.5596211" />
    <path
       inkscape:connector-curvature="0"
       id="path144"
       d="m 812.45667,667.3729 -1.03823,0.44496 -1.18653,2.96635 -1.03823,3.70793 -1.03822,2.07645 -0.8899,0.74159 -0.74159,0 -1.48317,-0.44496 -2.66972,-2.66971 -2.5214,-3.55962 -2.66972,-2.5214 -1.48318,-0.29663 -0.74158,0.14831 -1.18654,1.03822 -1.18654,2.81804 -1.48317,4.59784 -1.18655,2.96635 -1.18653,1.18655 -0.7416,0.14831 -0.74159,0 -1.33484,-0.74159 -2.07645,-2.37308 -2.5214,-4.15288 -1.92813,-2.37309 -1.48318,-0.59327 -0.59327,0 -0.74159,0.29664 -0.59326,1.03822 0.29663,2.5214 1.03822,4.00457 0.29664,2.5214 -0.44496,1.18654 -0.59327,0.44495 -1.48317,0.14832 -3.11467,-1.92813 -3.26299,-2.81803 -2.37307,-1.48318 -1.48318,-0.29664 -0.59327,0.29664 -0.59327,0.44495 -0.74159,1.48318 -0.29663,3.26298 0.14832,5.33944 -0.29664,4.44952 -1.03822,1.18655 -0.59327,0.29663 -1.63149,-0.14832 -2.81804,-1.33486 -4.15289,-2.81803 -2.81803,-1.33486 -1.48318,-0.14831 -0.59327,0.29663 -0.44495,0.59327 -0.14832,1.48317 0.88991,2.96635 2.37308,4.59785 1.03822,2.96635 0,1.63149 -0.44495,0.59327 -1.18654,0.74159 -4.00458,-0.29663 -4.74615,-1.33486 -2.96635,-0.29663 -1.33486,0.44494 -0.44496,0.59328 -0.29663,0.59327 0.29663,1.33486 2.07645,2.52139 3.85625,3.55962 2.22477,2.5214 0.44495,1.48318 -0.14832,0.74158 -0.44496,0.44496 -1.48317,0.59326 -3.4113,0 -5.19111,-0.74159 -3.26298,0.14833 -1.33486,0.59326 -0.44496,0.59327 0,0.59328 0.59327,1.03822 2.22477,1.48318 4.15289,1.7798 2.37308,1.48318 0.74158,1.18654 -0.14831,0.74159 -0.29663,0.59327 -1.18655,1.03822 -3.11466,1.03823 -4.89448,1.18653 -2.81803,1.18654 -1.18655,1.03823 -0.14831,0.59326 0.14831,1.33486 2.66972,2.66972 3.55962,2.66972 2.66972,2.66972 0.29663,1.33484 -0.29663,1.33486 -2.81803,2.07645 -3.70795,1.92813 -2.66971,1.92813 -0.29664,1.33486 0.14832,0.59326 1.03822,0.74159 2.5214,0.44496 4.59784,0 4.1529,0.29663 1.33486,0.59327 1.03821,0 2.66972,-0.74159 4.44952,-1.03822 2.07645,-1.03822 0.29663,-0.74159 0,-1.03822 -2.52139,-1.48317 -3.41131,-1.33486 -1.92813,-1.18655 -0.44494,-0.8899 0.14831,-0.44496 0.59328,-0.8899 3.55961,0 4.30121,0.44496 3.55962,0 0.8899,-0.74159 0.14832,-1.03823 -2.22476,-2.52139 -3.26298,-2.81803 -1.77982,-1.92813 -0.29663,-1.03823 0.29663,-0.44495 0.8899,-0.74159 3.11468,0.29663 4.00457,0.88991 3.26299,0.29664 1.03821,-0.59327 0.59328,-1.03822 -1.03822,-2.96636 -1.92813,-3.55962 -0.8899,-2.22476 0.14831,-1.18654 0.44496,-0.44495 1.03821,-0.29663 3.11468,1.18653 3.41129,2.07645 3.11468,1.33486 1.03822,-0.44496 0.8899,-0.8899 0.29664,-3.41131 -0.14831,-4.00457 0.44494,-3.26299 0.88991,-0.74158 1.18654,-0.29663 2.5214,1.33485 2.66972,2.22477 2.66971,1.48317 1.18654,-0.14831 0.8899,-0.59328 -0.14831,-2.5214 -0.88991,-3.11466 -0.29664,-1.92813 0.59327,-0.74159 0.44496,-0.14832 1.18655,0 2.22476,2.22477 2.22476,3.11466 2.22476,2.37309 1.18654,0.14831 1.18654,-0.44495 1.48317,-2.81804 1.03823,-3.70793 1.48317,-2.66972 1.18655,-0.29663 1.18653,0.14831 2.22476,1.92813 2.22477,2.66972 2.22477,2.07644 1.33485,0.29664 1.03822,-0.14832 1.18655,-2.22476 0.8899,-2.96636 1.18654,-2.22476 1.18654,0 1.03822,0.44496 0.88991,2.81803 0.44495,3.70794 1.03822,2.81803 1.03823,0.59327 1.18653,0 2.96635,-1.77981 2.96636,-2.66971 2.96635,-1.77982 1.18653,0.14832 0.88992,0.59327 0.14831,2.37308 -0.74159,3.11467 0,2.52139 0.88991,0.59328 1.18654,0.29664 3.26298,-0.44496 3.4113,-0.8899 2.96635,-0.44496 1.18655,0.44496 0.74158,0.59327 -0.59327,1.92812 -1.63149,2.07645 -0.59327,1.92813 0.59327,0.74159 1.18655,0.59327 3.26298,-0.59327 3.85626,-1.18655 3.11466,-0.44494 1.03823,0.59327 0.44495,0.8899 -1.48318,2.66972 -2.52139,2.96635 -1.48319,2.66972 0.44496,1.03821 0.8899,0.59327 3.70795,0.29664 4.59784,-0.14832 3.55962,0.44496 0.8899,0.74158 0.29664,0.88991 -2.07644,2.5214 -2.96635,2.66971 -2.07645,2.5214 0.14832,1.03822 0.74158,0.74158 2.96635,0 3.55962,-0.74158 2.81804,0 0.59327,0.88991 0,1.03822 -2.22476,1.63149 -3.26299,1.48317 -2.22476,1.6315 -0.14832,1.03822 0.29663,0.74159 1.92813,1.18654 4.59784,1.33486 2.66972,0.8899 3.11467,-0.59327 5.63607,-0.14831 2.66971,-0.88991 0.44495,-1.03823 0,-0.59327 -0.59327,-1.03821 -2.22476,-1.33486 -4.00458,-1.48318 -2.22476,-1.18654 -0.74158,-1.03822 0,-0.74159 0.44495,-1.33486 3.70794,-2.5214 4.59784,-2.52139 3.4113,-2.5214 0.44496,-1.33486 -0.14832,-0.59326 -1.03823,-1.18655 -2.81803,-1.33486 -5.04279,-1.48317 -2.96635,-1.33486 -1.18655,-1.03822 -0.29663,-0.7416 0,-0.59326 0.74159,-1.18654 2.22476,-1.63149 3.85626,-1.92813 2.07644,-1.63149 0.59327,-1.18655 0,-0.74158 -0.29663,-0.59327 -1.03823,-0.59328 -2.66971,0.14832 -4.3012,0.88991 -2.81804,0.14832 -1.18654,-0.59327 -0.44496,-0.59328 -0.14831,-0.59327 0.44495,-1.48317 2.07645,-2.52139 3.55962,-3.41131 1.92812,-2.5214 0.44496,-1.33485 -0.29663,-0.74159 -0.44496,-0.44495 -1.48317,-0.74159 -3.41131,-0.14832 -5.33942,0.14832 -4.44954,-0.29664 -1.18653,-1.03822 -0.29664,-0.59327 0.14831,-1.48318 1.48318,-2.66972 2.96636,-3.85625 1.33486,-2.66971 0.14831,-1.48318 -0.29664,-0.59327 -0.59327,-0.44495 -1.48318,-0.14832 -2.96635,0.44495 -4.44952,1.63149 -4.00458,0.74159 -1.33486,-0.74159 -0.44494,-0.44494 -0.29664,-1.03823 0.74158,-2.07645 1.77982,-2.66972 0.74159,-1.92812 -0.29663,-1.03822 -0.44496,-0.29663 -1.48317,-0.59328 -3.55962,0.44496 -4.1529,1.33486 -3.70793,0.59326 -1.48318,-0.44495 -0.59327,-0.29664 -0.59327,-1.33486 0.14831,-2.52139 0.74159,-3.85626 0.14832,-2.52139 -0.74159,-1.18655 -0.59326,-0.29663 -0.74159,-0.14831 -1.48318,0.44494 -2.66971,1.92813 -3.70795,3.41131 -3.41129,2.37308 -1.48318,0 -0.74159,-0.29663 -0.88991,-1.33486 -0.74158,-2.96635 -0.59328,-4.74617 -0.74158,-2.81803 -1.03822,-1.18654 -0.59327,-0.14832 -0.44496,-0.14831 -0.29663,0.14831 z"
       style="fill:#79602d;stroke:none" />
    <path
       inkscape:connector-curvature="0"
       id="path146"
       d="m 767.96141,755.17688 0.59327,-1.92813 2.22476,-3.11466 2.96635,-1.92813 3.26299,-1.03822 3.4113,0 3.41131,1.03822 2.81803,2.07644 1.92812,2.96635 0.59328,1.92813"
       style="fill:none;stroke:#000000;stroke-width:3.5596211" />
    <path
       inkscape:connector-curvature="0"
       id="path148"
       d="m 815.86797,754.58361 0.74159,-1.92813 2.07645,-3.11466 2.96635,-1.92813 3.26299,-1.03822 3.55962,0.14831 3.26298,1.03822 2.81803,1.92813 1.92813,3.11467 0.59327,1.77981"
       style="fill:none;stroke:#000000;stroke-width:3.5596211" />
    <path
       inkscape:connector-curvature="0"
       id="path150"
       d="m 794.80688,775.64471 16.61156,-1.48318"
       style="fill:none;stroke:#000000;stroke-width:3.41130328" />
    <path
       inkscape:connector-curvature="0"
       id="path152"
       d="m 726.58082,873.23764 1.33486,1.77981 3.70794,2.52139 4.3012,1.18655 4.44953,-0.14832 2.07644,-0.74158 1.92813,-1.03823 2.5214,-2.81804 0.88991,-3.55962 -0.74159,-3.85625 -1.18655,-1.77981 -1.33485,-1.77981 -3.70794,-2.5214 -4.44952,-1.18654 -4.30121,0.14832 -2.07644,0.74159 -1.92813,1.03822 -2.52141,2.81803 -0.8899,3.55962 0.74159,3.70795 1.18654,1.92812 z"
       style="fill:#cfc0a0;stroke:#000000;stroke-width:3.26298594" />
    <path
       inkscape:connector-curvature="0"
       id="path154"
       d="m 886.61543,871.45783 -1.48317,1.77981 -3.70794,2.5214 -4.30121,1.18653 -4.30121,-0.14831 -2.07644,-0.74159 -1.92813,-1.03822 -2.52139,-2.81803 -0.88991,-3.55962 0.74159,-3.70794 1.18653,-1.92813 1.33486,-1.77981 3.70794,-2.5214 4.30121,-1.18654 4.44953,0.14831 2.07645,0.74159 1.7798,1.03823 2.5214,2.81803 1.03822,3.55962 -0.8899,3.70794 -1.03823,1.92813 z"
       style="fill:#cfc0a0;stroke:#000000;stroke-width:3.26298594" />
    <path
       inkscape:connector-curvature="0"
       id="path288"
       d="m 369.0727,848.27273 2.66971,1.33486 2.07645,1.18654 2.96635,2.96635 1.6315,3.55962 0.14831,3.70793 -0.59327,1.63149 -0.29663,0.59328 -1.03823,1.6315 -2.96635,2.22476 -3.70793,0.8899 -4.30121,-0.44496 -2.07645,-0.8899 -2.66972,-1.33486 -2.07644,-1.03822 -2.96635,-3.11467 -1.63149,-3.41129 -0.14833,-3.70795 0.74159,-1.77981 0.14833,-0.59327 1.03821,-1.63149 2.96635,-2.22477 3.70795,-0.8899 4.30121,0.59327 2.07644,0.74159 z"
       style="fill:#ab926c;stroke:#060000;stroke-width:2.66971564" />
    <path
       inkscape:connector-curvature="0"
       id="path290"
       d="m 501.66857,847.53114 -2.66971,1.18654 -2.07645,1.18654 -2.96634,2.96636 -1.6315,3.55962 -0.14832,3.70793 0.59327,1.77981 0.29663,0.44495 1.03823,1.63149 2.81803,2.22477 3.85626,0.88991 4.3012,-0.44496 2.07645,-0.8899 2.66972,-1.33486 1.92813,-1.03823 3.11466,-3.11466 1.63149,-3.41131 0.14833,-3.70793 -0.74159,-1.77981 -0.29664,-0.59327 -0.8899,-1.6315 -2.96635,-2.22476 -3.85626,-0.8899 -4.1529,0.59327 -2.07644,0.8899 z"
       style="fill:#ab926c;stroke:#060000;stroke-width:2.66971564" />
    <path
       inkscape:connector-curvature="0"
       id="path292"
       d="m 412.82637,793.24693 -22.24763,-10.82719 -1.18654,-0.44495 -2.66972,0.29663 -4.74615,2.37308 -6.97093,7.11924 -7.11924,10.38223 -3.11468,6.22934 -3.70793,7.5642 -2.96635,6.52597 -3.85625,12.01372 -1.18654,9.78895 0.8899,5.19112 1.48317,2.22476 1.03823,0.59327 22.39594,10.9755 1.03823,0.29664 2.66972,-0.14833 4.74615,-2.52139 6.97093,-6.97093 7.11924,-10.38223 3.11467,-6.37765 3.70794,-7.56419 2.96635,-6.37765 3.85625,-12.01372 1.18654,-9.78896 -0.8899,-5.19111 -1.48317,-2.37309 -1.03823,-0.59326 z"
       style="fill:#db2944;stroke:#000000;stroke-width:3.11466813" />
    <path
       inkscape:connector-curvature="0"
       id="path294"
       d="m 436.40885,846.3446 1.77982,0 10.67886,0.14832 14.3868,1.92812 8.30578,1.92813 7.11924,2.52141 5.63607,2.81803 4.00458,3.26298 2.07645,3.55962 0.14831,1.77981 0.14832,29.51519 -0.29663,1.92813 -2.07645,3.4113 -3.85626,3.26298 -5.63607,2.96636 -7.11924,2.37308 -8.30578,1.92813 -14.3868,1.92812 -10.67887,0.29664 -1.92813,0 -10.67886,-0.29664 -14.23848,-1.92812 -8.4541,-1.92813 -7.11924,-2.37308 -5.63607,-2.96636 -3.85625,-3.11466 -2.07645,-3.55962 -0.29663,-1.92813 0,-29.51519 0.14832,-1.77981 2.07644,-3.55962 4.00457,-3.26298 5.63607,-2.81803 7.11924,-2.52141 8.30578,-1.92813 14.3868,-1.92812 10.67886,-0.14832 z"
       style="fill:#231d49;stroke:#000000;stroke-width:3.5596211" />
    <path
       inkscape:connector-curvature="0"
       id="path296"
       d="m 437.15044,909.23123 -0.44495,-20.17118"
       style="fill:none;stroke:none" />
    <path
       inkscape:connector-curvature="0"
       id="path298"
       d="m 437.15044,909.23123 -0.44495,-20.17118"
       style="fill:none;stroke:#000000;stroke-width:2.22476292" />
    <path
       inkscape:connector-curvature="0"
       id="path300"
       d="m 442.19325,913.68076 0,-0.44495 1.03821,-4.44953 2.37308,-4.74616 2.66972,-2.81803 3.70794,-2.5214 5.19112,-1.48318 3.11466,-0.29663 4.30121,-0.14832 7.11924,1.03822 5.48775,1.92814 4.00458,2.52139 4.00456,4.30121 1.92814,4.3012 0.14831,0.44496 0.14832,0.44496 -0.74159,0.8899 -2.66971,1.18654 -9.93727,2.07644 -17.35316,1.33486 -10.38223,-0.88991 -2.96635,-1.03821 -1.03822,-1.03823 -0.14831,-0.59327 z"
       style="fill:#3e432a;stroke:#000000;stroke-width:2.96635056" />
    <path
       inkscape:connector-curvature="0"
       id="path302"
       d="m 431.95933,913.82908 0,-0.59327 -0.8899,-4.30121 -2.5214,-4.3012 -2.66971,-2.81804 -3.70795,-2.37309 -5.19111,-1.48317 -3.26299,-0.29663 -4.30121,0 -7.11924,0.8899 -5.48774,1.77982 -4.15289,2.52139 -4.00458,4.00458 -1.92813,4.15289 -0.14831,0.44495 -0.14832,0.44495 0.74159,0.74159 2.66971,1.18654 10.08559,1.92812 17.35315,1.33486 10.53055,-0.74159 3.11467,-1.03821 1.03822,-1.03823 0,-0.44495 z"
       style="fill:#3e432a;stroke:#000000;stroke-width:2.96635056" />
    <path
       inkscape:connector-curvature="0"
       id="path304"
       d="m 452.57547,792.65366 22.39595,-10.82719 1.03822,-0.44495 2.66971,0.29663 4.74617,2.37309 6.97093,7.11924 7.11924,10.38222 3.26298,6.22934 3.55962,7.71251 2.96635,6.37766 3.85626,12.01372 1.18653,9.78896 -0.8899,5.19111 -1.48318,2.22476 -1.03821,0.74159 -22.24764,10.82717 -1.18653,0.44496 -2.66972,-0.29663 -4.74617,-2.37309 -6.97092,-7.11924 -7.11924,-10.38222 -3.11467,-6.22934 -3.70793,-7.71251 -2.96635,-6.37765 -3.85626,-12.01373 -1.18655,-9.78896 0.88991,-5.19111 1.48318,-2.22476 1.03822,-0.74158 z"
       style="fill:#db2944;stroke:#000000;stroke-width:3.11466813" />
    <path
       inkscape:connector-curvature="0"
       id="path306"
       d="m 435.66727,762.54519 -0.29663,0 -0.29663,0 -0.74159,0 0,0 -4.89448,0.59327 -9.49233,3.11468 -8.4541,5.04279 -7.56419,6.8226 -3.11467,3.70794 -3.26298,4.15289 -5.63607,8.89906 -4.59785,9.344 -3.70793,9.78896 -2.96635,10.08559 -2.22476,10.38223 -2.07645,15.72166 -0.29664,10.38222 0,5.63607 0.14832,8.60242 0.88991,5.33943 0.8899,2.37307 4.30121,2.22478 10.23391,3.26298 17.05652,2.66971 10.2339,1.18655 6.08103,0.14831 8.4541,0.14832 0,0 1.7798,0 0,0 0.14832,0 8.4541,-0.14832 6.08102,-0.14831 10.23391,-1.03823 17.05651,-2.81803 10.23392,-3.11467 4.15288,-2.37309 1.03823,-2.37307 0.8899,-5.33943 0,-8.60242 0.14832,-5.63607 -0.44495,-10.38222 -1.92813,-15.72166 -2.22476,-10.38223 -2.96635,-10.08559 -3.85626,-9.78896 -4.59784,-9.344 -5.48775,-8.75073 -3.26299,-4.30122 -3.26298,-3.70794 -7.41588,-6.67428 -8.60242,-5.19111 -9.344,-3.11468 -4.89448,-0.44495 0,-0.14832 -0.59327,0 z"
       style="fill:#db2944;stroke:#000000;stroke-width:3.70793843" />
    <path
       inkscape:connector-curvature="0"
       id="path308"
       d="m 431.6627,690.16623 5.33943,0 6.08102,0.14832 11.71708,2.07645 10.53055,3.85626 9.49232,5.63606 8.00915,6.97093 6.37765,8.15746 4.59784,9.19569 2.37309,10.08559 0.14831,5.19112 0,3.55962 -0.14831,5.33942 -2.37309,10.08559 -4.59784,9.19569 -6.37765,8.15747 -8.00915,6.97093 -9.49232,5.48774 -10.53055,3.85626 -11.71708,2.07645 -6.08102,0.14831 -5.33943,0 -6.08102,-0.14831 -11.56877,-2.07645 -10.67886,-3.85626 -9.49233,-5.48774 -8.00914,-6.97093 -6.37766,-8.15747 -4.44952,-9.19569 -2.37308,-10.08559 -0.14832,-5.33942 0,-3.55962 0.14832,-5.19112 2.37308,-10.08559 4.44952,-9.19569 6.37766,-8.15746 8.00914,-6.97093 9.49233,-5.63606 10.67886,-3.85626 11.56877,-2.07645 6.08102,-0.14832 z"
       style="fill:#ab926c;stroke:#000000;stroke-width:3.5596211" />
    <path
       inkscape:connector-curvature="0"
       id="path332"
       d="m 423.95019,701.58668 -1.77982,1.33486 -2.22476,3.26299 -0.8899,4.00457 0.59327,4.00458 1.03822,1.77981 1.33486,2.07645 3.85626,2.52139 4.44952,1.03823 4.59784,-0.74159 2.22476,-1.03823 2.22477,-1.63149 2.96635,-4.44953 1.18653,-5.04279 -0.8899,-5.33943 -1.18653,-2.37308 -1.92813,-2.66972 -4.89448,-3.4113 -5.9327,-1.18654 -5.93271,0.88991 -2.81803,1.48317 -1.48317,1.03822 -2.5214,2.37308 -2.81803,4.30121 -1.33486,6.67429 1.03822,6.82261 1.6315,3.11467 1.18653,1.7798 2.66972,2.81803 3.26299,2.22478 3.55962,1.48317 5.63607,1.03822 5.78438,-0.74159 3.70794,-1.48317 1.7798,-0.88991 1.92813,-1.33486 3.26299,-3.11467 2.37308,-3.55962 1.77981,-4.00457 0.88991,-4.3012 0,-4.30121 -0.59328,-4.44954 -1.63149,-4.15288 -1.18654,-1.92813 -1.92813,-2.96635 -2.52139,-2.37309"
       style="fill:none;stroke:none" />
    <path
       inkscape:connector-curvature="0"
       id="path334"
       d="m 423.95019,701.58668 -1.77982,1.33486 -2.22476,3.26299 -0.8899,4.00457 0.59327,4.00458 1.03822,1.77981 1.33486,2.07645 3.85626,2.52139 4.44952,1.03823 4.59784,-0.74159 2.22476,-1.03823 2.22477,-1.63149 2.96635,-4.44953 1.18653,-5.04279 -0.8899,-5.33943 -1.18653,-2.37308 -1.92813,-2.66972 -4.89448,-3.4113 -5.9327,-1.18654 -5.93271,0.88991 -2.81803,1.48317 -1.48317,1.03822 -2.5214,2.37308 -2.81803,4.30121 -1.33486,6.67429 1.03822,6.82261 1.6315,3.11467 1.18653,1.7798 2.66972,2.81803 3.26299,2.22478 3.55962,1.48317 5.63607,1.03822 5.78438,-0.74159 3.70794,-1.48317 1.7798,-0.88991 1.92813,-1.33486 3.26299,-3.11467 2.37308,-3.55962 1.77981,-4.00457 0.88991,-4.3012 0,-4.30121 -0.59328,-4.44954 -1.63149,-4.15288 -1.18654,-1.92813 -1.92813,-2.96635 -2.52139,-2.37309"
       style="fill:#808000;fill-opacity:1;stroke:#000000;stroke-width:2.81803322" />
    <path
       inkscape:connector-curvature="0"
       id="path336"
       d="m 396.21481,698.3237 -1.03823,-0.74158 -1.63149,-2.22476 -0.59327,-2.66972 0.44496,-2.66972 0.59327,-1.33486 1.03822,-1.33486 2.5214,-1.7798 2.96635,-0.59328 3.11466,0.44496 1.48318,0.74159 1.48317,1.18653 1.92813,2.81803 0.74159,3.55963 -0.44495,3.55962 -0.88991,1.6315 -1.18653,1.63149 -3.41131,2.37307 -3.85626,0.88991 -4.00457,-0.74159 -1.92813,-0.8899 -1.92813,-1.48318 -2.52139,-3.70793 -1.03823,-4.59785 0.74159,-4.59784 1.18654,-2.07645 1.48317,-2.22476 4.30121,-2.96635 5.0428,-1.03823 5.19112,0.88991 2.37308,1.18654 2.52139,1.92813 3.26299,4.74616 1.18654,5.78439 -1.03823,5.78438 -1.33486,2.81803 -1.33484,1.92813 -1.63151,1.63149"
       style="fill:none;stroke:none" />
    <path
       inkscape:connector-curvature="0"
       id="path338"
       d="m 396.21481,698.3237 -1.03823,-0.74158 -1.63149,-2.22476 -0.59327,-2.66972 0.44496,-2.66972 0.59327,-1.33486 1.03822,-1.33486 2.5214,-1.7798 2.96635,-0.59328 3.11466,0.44496 1.48318,0.74159 1.48317,1.18653 1.92813,2.81803 0.74159,3.55963 -0.44495,3.55962 -0.88991,1.6315 -1.18653,1.63149 -3.41131,2.37307 -3.85626,0.88991 -4.00457,-0.74159 -1.92813,-0.8899 -1.92813,-1.48318 -2.52139,-3.70793 -1.03823,-4.59785 0.74159,-4.59784 1.18654,-2.07645 1.48317,-2.22476 4.30121,-2.96635 5.0428,-1.03823 5.19112,0.88991 2.37308,1.18654 2.52139,1.92813 3.26299,4.74616 1.18654,5.78439 -1.03823,5.78438 -1.33486,2.81803 -1.33484,1.92813 -1.63151,1.63149"
       style="fill:#808000;fill-opacity:1;stroke:#000000;stroke-width:2.81803322" />
    <path
       inkscape:connector-curvature="0"
       id="path340"
       d="m 432.70092,691.35278 1.18654,-0.74159 1.48318,-2.22476 0.59327,-2.66972 -0.44496,-2.66972 -0.59327,-1.33486 -0.8899,-1.33485 -2.66972,-1.77981 -2.96635,-0.59327 -3.11466,0.44496 -1.33486,0.74158 -1.63149,1.03822 -1.92813,2.96635 -0.74159,3.4113 0.59327,3.55962 0.74159,1.6315 1.33486,1.77981 3.26298,2.37308 4.00457,0.74158 4.00457,-0.59326 1.77982,-1.03823 1.92813,-1.33485 2.6697,-3.85626 0.88992,-4.44952 -0.74159,-4.59785 -1.03823,-2.07644 -1.63149,-2.22477 -4.30121,-2.96634 -5.04279,-1.03823 -5.19112,0.88991 -2.37308,1.18653 -2.37308,1.77982 -3.26299,4.89448 -1.33485,5.78438 1.03822,5.78438 1.33486,2.66972 1.33485,1.92813 1.77982,1.63149"
       style="fill:none;stroke:none" />
    <path
       inkscape:connector-curvature="0"
       id="path342"
       d="m 432.70092,691.35278 1.18654,-0.74159 1.48318,-2.22476 0.59327,-2.66972 -0.44496,-2.66972 -0.59327,-1.33486 -0.8899,-1.33485 -2.66972,-1.77981 -2.96635,-0.59327 -3.11466,0.44496 -1.33486,0.74158 -1.63149,1.03822 -1.92813,2.96635 -0.74159,3.4113 0.59327,3.55962 0.74159,1.6315 1.33486,1.77981 3.26298,2.37308 4.00457,0.74158 4.00457,-0.59326 1.77982,-1.03823 1.92813,-1.33485 2.6697,-3.85626 0.88992,-4.44952 -0.74159,-4.59785 -1.03823,-2.07644 -1.63149,-2.22477 -4.30121,-2.96634 -5.04279,-1.03823 -5.19112,0.88991 -2.37308,1.18653 -2.37308,1.77982 -3.26299,4.89448 -1.33485,5.78438 1.03822,5.78438 1.33486,2.66972 1.33485,1.92813 1.77982,1.63149"
       style="fill:#808000;fill-opacity:1;stroke:#000000;stroke-width:2.81803322" />
    <path
       inkscape:connector-curvature="0"
       id="path344"
       d="m 492.47288,713.30377 1.03823,-0.59327 1.18654,-1.63149 0.59326,-1.92813 -0.44494,-1.92813 -0.44496,-0.8899 -0.8899,-1.03822 -2.07645,-1.18654 -2.5214,-0.59328 -2.66971,0.44496 -1.18654,0.44495 -1.18654,0.88991 -1.77981,2.07645 -0.59327,2.52139 0.44495,2.66972 0.74159,1.18653 1.03822,1.18654 2.81803,1.63149 3.26299,0.59328 3.41131,-0.44495 1.48317,-0.59327 1.63149,-1.03823 2.22476,-2.81803 0.74159,-3.26298 -0.59327,-3.41131 -0.8899,-1.48317 -1.33486,-1.63149 -3.55962,-2.07645 -4.30121,-0.88991 -4.30121,0.74158 -1.92813,0.88992 -2.07645,1.33486 -2.81803,3.55962 -1.03822,4.15288 0.88991,4.15289 1.18654,2.07645 1.03822,1.33486 1.48317,1.18654"
       style="fill:none;stroke:none" />
    <path
       inkscape:connector-curvature="0"
       id="path346"
       d="m 492.47288,713.30377 1.03823,-0.59327 1.18654,-1.63149 0.59326,-1.92813 -0.44494,-1.92813 -0.44496,-0.8899 -0.8899,-1.03822 -2.07645,-1.18654 -2.5214,-0.59328 -2.66971,0.44496 -1.18654,0.44495 -1.18654,0.88991 -1.77981,2.07645 -0.59327,2.52139 0.44495,2.66972 0.74159,1.18653 1.03822,1.18654 2.81803,1.63149 3.26299,0.59328 3.41131,-0.44495 1.48317,-0.59327 1.63149,-1.03823 2.22476,-2.81803 0.74159,-3.26298 -0.59327,-3.41131 -0.8899,-1.48317 -1.33486,-1.63149 -3.55962,-2.07645 -4.30121,-0.88991 -4.30121,0.74158 -1.92813,0.88992 -2.07645,1.33486 -2.81803,3.55962 -1.03822,4.15288 0.88991,4.15289 1.18654,2.07645 1.03822,1.33486 1.48317,1.18654"
       style="fill:#808000;fill-opacity:1;stroke:#000000;stroke-width:2.81803322" />
    <path
       inkscape:connector-curvature="0"
       id="path348"
       d="m 380.9381,703.81145 -1.03822,-0.59327 -1.33486,-1.6315 -0.44496,-1.92812 0.44496,-1.92813 0.44496,-1.03823 0.74158,-0.8899 2.22477,-1.33486 2.52139,-0.44494 2.5214,0.29663 1.33486,0.59327 1.18653,0.74159 1.77982,2.22476 0.59327,2.5214 -0.44496,2.52139 -0.74158,1.18655 -1.03822,1.33486 -2.81803,1.63149 -3.26299,0.59327 -3.41131,-0.44496 -1.63149,-0.74159 -1.63149,-1.03821 -2.07644,-2.66972 -0.88992,-3.26299 0.74159,-3.4113 0.88991,-1.48317 1.33486,-1.6315 3.55962,-2.22476 4.30121,-0.74159 4.30121,0.59327 1.92812,0.8899 2.07644,1.33486 2.81804,3.55962 1.03823,4.1529 -0.88991,4.3012 -1.18654,1.92813 -1.03823,1.48318 -1.48317,1.18653"
       style="fill:none;stroke:none" />
    <path
       inkscape:connector-curvature="0"
       id="path350"
       d="m 380.54838,703.81145 -1.03822,-0.59327 -1.33486,-1.6315 -0.44495,-1.92812 0.44495,-1.92813 0.44495,-1.03823 0.74159,-0.8899 2.22476,-1.33486 2.52141,-0.44494 2.52139,0.29663 1.33486,0.59327 1.18654,0.74159 1.77981,2.22476 0.59327,2.5214 -0.44495,2.52139 -0.7416,1.18655 -1.03821,1.33486 -2.81804,1.63149 -3.26299,0.59327 -3.41129,-0.44496 -1.6315,-0.74159 -1.63149,-1.03821 -2.07645,-2.66972 -0.8899,-3.26299 0.74159,-3.4113 0.8899,-1.48317 1.33486,-1.6315 3.55962,-2.22476 4.30121,-0.74159 4.3012,0.59327 1.92813,0.8899 2.07645,1.33486 2.81803,3.55962 1.03822,4.1529 -0.8899,4.3012 -1.18654,1.92813 -1.03822,1.48318 -1.48318,1.18653"
       style="fill:#808000;fill-opacity:1;stroke:#000000;stroke-width:2.81803322" />
    <path
       inkscape:connector-curvature="0"
       id="path352"
       d="m 448.12594,692.391 -1.18654,-0.88991 -1.48317,-2.22476 -0.59328,-2.5214 0.44496,-2.81803 0.59327,-1.18654 0.8899,-1.33486 2.52141,-1.77981 3.11466,-0.74159 3.11467,0.59327 1.33485,0.74159 1.48318,1.03823 2.07645,2.96635 0.74158,3.4113 -0.59326,3.55962 -0.88991,1.63149 -1.18654,1.77982 -3.26298,2.22476 -4.00458,0.8899 -4.00457,-0.59327 -1.77981,-1.03822 -1.92814,-1.33486 -2.6697,-3.85626 -0.88992,-4.44952 0.7416,-4.59784 1.03822,-2.07645 1.63149,-2.22477 4.30121,-2.96635 5.04279,-1.03821 5.04281,0.74158 2.37307,1.33486 2.5214,1.77981 3.26299,4.89448 1.18654,5.63606 -0.88991,5.9327 -1.48318,2.66972 -1.33485,1.92813 -1.6315,1.63149"
       style="fill:none;stroke:none" />
    <path
       inkscape:connector-curvature="0"
       id="path354"
       d="m 448.12594,692.391 -1.18654,-0.88991 -1.48317,-2.22476 -0.59328,-2.5214 0.44496,-2.81803 0.59327,-1.18654 0.8899,-1.33486 2.52141,-1.77981 3.11466,-0.74159 3.11467,0.59327 1.33485,0.74159 1.48318,1.03823 2.07645,2.96635 0.74158,3.4113 -0.59326,3.55962 -0.88991,1.63149 -1.18654,1.77982 -3.26298,2.22476 -4.00458,0.8899 -4.00457,-0.59327 -1.77981,-1.03822 -1.92814,-1.33486 -2.6697,-3.85626 -0.88992,-4.44952 0.7416,-4.59784 1.03822,-2.07645 1.63149,-2.22477 4.30121,-2.96635 5.04279,-1.03821 5.04281,0.74158 2.37307,1.33486 2.5214,1.77981 3.26299,4.89448 1.18654,5.63606 -0.88991,5.9327 -1.48318,2.66972 -1.33485,1.92813 -1.6315,1.63149"
       style="fill:#808000;fill-opacity:1;stroke:#000000;stroke-width:2.81803322" />
    <path
       inkscape:connector-curvature="0"
       id="path356"
       d="m 468.59376,702.4766 -1.03822,-0.88992 -1.63149,-2.22476 -0.59327,-2.66972 0.44495,-2.6697 0.59327,-1.33486 1.03822,-1.33486 2.5214,-1.63149 2.96635,-0.74159 3.11467,0.44495 1.48317,0.74158 1.48318,1.18655 1.92813,2.81803 0.74158,3.55962 -0.44494,3.55962 -0.88992,1.63149 -1.18653,1.77982 -3.4113,2.22476 -3.85627,0.8899 -4.00456,-0.74158 -1.92813,-0.88991 -1.92813,-1.48317 -2.5214,-3.70794 -1.03822,-4.59785 0.74158,-4.59784 1.18655,-2.07644 1.48317,-2.22477 4.30121,-2.96635 5.04279,-1.03822 5.19112,0.8899 2.37308,1.18655 2.5214,1.92812 3.26298,4.74616 1.18655,5.78438 -1.03823,5.78439 -1.33486,2.81803 -1.33485,1.92813 -1.6315,1.63149"
       style="fill:none;stroke:none" />
    <path
       inkscape:connector-curvature="0"
       id="path358"
       d="m 468.59376,702.4766 -1.03822,-0.88992 -1.63149,-2.22476 -0.59327,-2.66972 0.44495,-2.6697 0.59327,-1.33486 1.03822,-1.33486 2.5214,-1.63149 2.96635,-0.74159 3.11467,0.44495 1.48317,0.74158 1.48318,1.18655 1.92813,2.81803 0.74158,3.55962 -0.44494,3.55962 -0.88992,1.63149 -1.18653,1.77982 -3.4113,2.22476 -3.85627,0.8899 -4.00456,-0.74158 -1.92813,-0.88991 -1.92813,-1.48317 -2.5214,-3.70794 -1.03822,-4.59785 0.74158,-4.59784 1.18655,-2.07644 1.48317,-2.22477 4.30121,-2.96635 5.04279,-1.03822 5.19112,0.8899 2.37308,1.18655 2.5214,1.92812 3.26298,4.74616 1.18655,5.78438 -1.03823,5.78439 -1.33486,2.81803 -1.33485,1.92813 -1.6315,1.63149"
       style="fill:#808000;fill-opacity:1;stroke:#000000;stroke-width:2.81803322" />
    <path
       inkscape:connector-curvature="0"
       id="path360"
       d="m 465.03414,742.67064 -0.29664,2.07645 -1.63149,2.22476 -1.63149,0.74159 -0.8899,0.14832 -0.88991,-0.14832 -1.63149,-0.74159 -1.63149,-2.22476 -0.29664,-2.07645 0.29664,-2.07644 1.63149,-2.37308 1.63149,-0.74159 0.88991,0 0.8899,0 1.63149,0.74159 1.63149,2.37308 0.29664,2.07644 z"
       style="fill:#000000;stroke:none" />
    <path
       inkscape:connector-curvature="0"
       id="path362"
       d="m 420.83551,744.0055 -0.29663,2.07645 -1.7798,2.22476 -1.48319,0.74159 -0.8899,0.14831 -1.03822,-0.14831 -1.48317,-0.74159 -1.77982,-2.22476 -0.14831,-2.07645 0.14831,-2.07645 1.77982,-2.22476 1.48317,-0.8899 1.03822,0 0.8899,0 1.48319,0.8899 1.7798,2.22476 0.29663,2.07645 z"
       style="fill:#000000;stroke:none" />
    <path
       inkscape:connector-curvature="0"
       id="path364"
       d="m 400.51602,740.74252 21.95099,-0.29664"
       style="fill:none;stroke:#000000;stroke-width:3.85625577" />
    <path
       inkscape:connector-curvature="0"
       id="path366"
       d="M 444.41801,739.40766 466.369,739.25934"
       style="fill:none;stroke:#000000;stroke-width:3.85625577" />
    <path
       inkscape:connector-curvature="0"
       id="path652-6"
       d="m 631.90593,770.55962 -0.3,1.2 -2.625,4.5 -1.575,1.65 -1.95,1.35 -2.325,0.825 -1.35,0.075 -1.35,-0.075 -2.4,-0.825 -2.025,-1.35 -1.575,-1.65 -2.775,-4.5 -0.375,-1.2 20.625,0 z"
       style="fill:#b66b6e;stroke:#000000;stroke-width:0.90000004;display:inline" />
    <path
       inkscape:connector-curvature="0"
       id="path652-9"
       d="m 456.31166,766.95232 -0.59327,2.37308 -5.19111,8.89906 -3.11466,3.26297 -3.85626,2.66972 -4.59784,1.63149 -2.66972,0.14833 -2.66972,-0.14833 -4.74615,-1.63149 -4.00458,-2.66972 -3.11466,-3.26297 -5.48775,-8.89906 -0.74159,-2.37308 40.78731,0 z"
       style="fill:#b66b6e;stroke:#000000;stroke-width:1.77981055;display:inline" />
  </g>
  <g
     inkscape:groupmode="layer"
     id="layer3"
     inkscape:label="balloons"
     style="display:inline">
    <rect
       style="color:#000000;fill:#fcfbff;fill-opacity:1;fill-rule:evenodd;stroke:#050005;stroke-width:3.54330707000000000;stroke-linecap:butt;stroke-linejoin:round;stroke-miterlimit:4;stroke-opacity:1;stroke-dasharray:none;stroke-dashoffset:0;marker:none;visibility:visible;display:inline;overflow:visible;enable-background:accumulate"
       id="rect5171"
       width="460"
       height="280"
       x="300"
       y="64.094482"
       ry="40" />
    <text
       xml:space="preserve"
       style="font-size:24px;font-style:normal;font-variant:normal;font-weight:normal;font-stretch:normal;text-indent:0;text-align:start;text-decoration:none;line-height:125%;letter-spacing:0px;word-spacing:0px;text-transform:none;direction:ltr;block-progression:tb;writing-mode:lr-tb;text-anchor:start;baseline-shift:baseline;color:#000000;fill:#000000;fill-opacity:1;fill-rule:nonzero;stroke:none;stroke-width:3;marker:none;visibility:visible;display:inline;overflow:visible;enable-background:accumulate;font-family:SmackAttack BB;-inkscape-font-specification:SmackAttack BB"
       x="526.12543"
       y="144.09448"
       id="text3523"
       sodipodi:linespacing="125%"><tspan
         sodipodi:role="line"
         id="tspan3525"
         x="526.12543"
         y="144.09448"
         style="font-size:72px;text-align:center;text-anchor:middle;fill:#000000;fill-opacity:1;stroke:none">THE</tspan><tspan
         sodipodi:role="line"
         x="526.12543"
         y="234.09448"
         id="tspan3529"
         style="font-size:72px;text-align:center;text-anchor:middle;fill:#000000;fill-opacity:1;stroke:none">(happy)</tspan><tspan
         sodipodi:role="line"
         x="526.12543"
         y="324.09448"
         id="tspan3527"
         style="font-size:72px;text-align:center;text-anchor:middle;fill:#000000;fill-opacity:1;stroke:none">END</tspan></text>
  </g>
</svg>
