<?xml version="1.0" encoding="UTF-8" standalone="no"?>
<!-- Created with Inkscape (http://www.inkscape.org/) -->

<svg
   xmlns:dc="http://purl.org/dc/elements/1.1/"
   xmlns:cc="http://creativecommons.org/ns#"
   xmlns:rdf="http://www.w3.org/1999/02/22-rdf-syntax-ns#"
   xmlns:svg="http://www.w3.org/2000/svg"
   xmlns="http://www.w3.org/2000/svg"
   xmlns:sodipodi="http://sodipodi.sourceforge.net/DTD/sodipodi-0.dtd"
   xmlns:inkscape="http://www.inkscape.org/namespaces/inkscape"
   width="1052.3622"
   height="744.09448"
   id="svg5396"
   version="1.1"
   inkscape:version="0.48.4 r9939"
   sodipodi:docname="gecos-v01.svg">
  <defs
     id="defs3" />
  <sodipodi:namedview
     inkscape:document-units="mm"
     id="base"
     pagecolor="#ffffff"
     bordercolor="#666666"
     borderopacity="1.0"
     inkscape:pageopacity="0"
     inkscape:pageshadow="2"
     inkscape:zoom="0.49497475"
     inkscape:cx="414.4837"
     inkscape:cy="282.22205"
     inkscape:current-layer="layer3"
     showgrid="true"
     units="mm"
     inkscape:window-width="1280"
     inkscape:window-height="975"
     inkscape:window-x="0"
     inkscape:window-y="0"
     inkscape:window-maximized="1">
    <inkscape:grid
       type="xygrid"
       id="grid5404"
       empspacing="5"
       visible="true"
       enabled="true"
       snapvisiblegridlinesonly="true" />
  </sodipodi:namedview>
  <metadata
     id="metadata4">
    <rdf:RDF>
      <cc:Work
         rdf:about="">
        <dc:format>image/svg+xml</dc:format>
        <dc:type
           rdf:resource="http://purl.org/dc/dcmitype/StillImage" />
        <dc:title />
      </cc:Work>
    </rdf:RDF>
  </metadata>
  <g
     inkscape:groupmode="layer"
     id="layer2"
     inkscape:label="background"
     style="display:inline"
     sodipodi:insensitive="true">
    <rect
       style="fill:#afe9dd;fill-opacity:1;stroke:none;display:inline"
       id="rect5402-2"
       width="1060"
       height="524.28571"
       x="-0.35714284"
       y="-0.90551633" />
    <rect
       transform="translate(0,-308.2677)"
       style="fill:#b3b3b3;fill-opacity:1;stroke:none"
       id="rect5402"
       width="1060"
       height="240"
       x="0"
       y="812.36218" />
    <text
       xml:space="preserve"
       style="font-size:64px;font-style:normal;font-variant:normal;font-weight:normal;font-stretch:normal;text-align:start;line-height:125%;letter-spacing:0px;word-spacing:0px;writing-mode:lr-tb;text-anchor:start;fill:#000000;fill-opacity:1;stroke:none;font-family:Moria Citadel;-inkscape-font-specification:Moria Citadel"
       x="690.94434"
       y="80.424263"
       id="text6210"
       sodipodi:linespacing="125%"><tspan
         sodipodi:role="line"
         id="tspan6212"
         x="690.94434"
         y="80.424263" /></text>
    <text
       xml:space="preserve"
       style="font-size:64px;font-style:normal;font-variant:normal;font-weight:normal;font-stretch:normal;text-align:start;line-height:125%;letter-spacing:0px;word-spacing:0px;writing-mode:lr-tb;text-anchor:start;fill:#000000;fill-opacity:1;stroke:none;font-family:Moria Citadel;-inkscape-font-specification:Moria Citadel"
       x="925.29974"
       y="282.45477"
       id="text6255"
       sodipodi:linespacing="125%"><tspan
         sodipodi:role="line"
         id="tspan6257"
         x="925.29974"
         y="282.45477" /></text>
    <text
       xml:space="preserve"
       style="font-size:64px;font-style:normal;font-variant:normal;font-weight:normal;font-stretch:normal;text-align:start;line-height:125%;letter-spacing:0px;word-spacing:0px;writing-mode:lr-tb;text-anchor:start;fill:#000000;fill-opacity:1;stroke:none;font-family:Moria Citadel;-inkscape-font-specification:Moria Citadel"
       x="889.9444"
       y="448.11978"
       id="text6293"
       sodipodi:linespacing="125%"><tspan
         sodipodi:role="line"
         id="tspan6295"
         x="889.9444"
         y="448.11978" /></text>
  </g>
  <g
     inkscape:label="characters"
     inkscape:groupmode="layer"
     id="layer1"
     transform="translate(0,-308.2677)"
     style="display:inline">
    <g
       transform="matrix(3.8145695,0,0,3.8145695,-313.62935,-2048.5036)"
       id="g5914">
      <path
         style="fill:#e4d4b3;stroke:#060000;stroke-width:1.08000004"
         d="m 205.56351,738.81019 1.08,0.54 0.78,0.42 1.26,1.2 0.66,1.44 0,1.5 -0.24,0.72 -0.12,0.24 -0.36,0.66 -1.2,0.9 -1.56,0.36 -1.68,-0.24 -0.9,-0.36 -1.08,-0.48 -0.78,-0.48 -1.26,-1.2 -0.66,-1.44 0,-1.5 0.24,-0.72 0.12,-0.18 0.36,-0.66 1.2,-0.9 1.56,-0.36 1.68,0.18 0.9,0.36 z"
         id="path674-8"
         inkscape:connector-curvature="0" />
      <path
         style="fill:#e4d4b3;stroke:#060000;stroke-width:1.08000004"
         d="m 259.14351,738.45019 -1.08,0.54 -0.84,0.42 -1.2,1.26 -0.66,1.38 -0.06,1.5 0.3,0.72 0.06,0.24 0.42,0.66 1.2,0.9 1.56,0.36 1.68,-0.24 0.84,-0.3 1.08,-0.54 0.84,-0.48 1.2,-1.2 0.66,-1.44 0.06,-1.5 -0.24,-0.66 -0.12,-0.24 -0.42,-0.66 -1.2,-0.9 -1.5,-0.36 -1.74,0.18 -0.84,0.36 z"
         id="path676-5"
         inkscape:connector-curvature="0" />
      <path
         style="fill:#b9c8ca;stroke:#000000;stroke-width:1.26000011"
         d="m 223.20351,716.55019 -9,-4.38 -0.48,-0.18 -1.08,0.06 -1.86,1.02 -2.88,2.82 -2.82,4.26 -1.32,2.52 -1.5,3.06 -1.2,2.64 -1.56,4.8 -0.48,4.02 0.42,2.1 0.6,0.9 0.42,0.24 9,4.38 0.48,0.18 1.08,-0.06 1.86,-1.02 2.82,-2.82 2.88,-4.2 1.32,-2.58 1.5,-3.06 1.2,-2.64 1.5,-4.8 0.54,-4.02 -0.42,-2.1 -0.6,-0.9 -0.42,-0.24 z"
         id="path678-6"
         inkscape:connector-curvature="0" />
      <path
         style="fill:#897cc4;stroke:#000000;stroke-width:1.44000006"
         d="m 232.74351,737.97019 0.78,0 4.32,0.12 5.76,0.78 3.42,0.78 2.88,0.96 2.28,1.2 1.56,1.32 0.84,1.38 0.12,0.78 0,11.94 -0.06,0.72 -0.84,1.44 -1.62,1.32 -2.28,1.14 -2.88,1.02 -3.36,0.78 -5.82,0.78 -4.32,0.12 -0.72,0 -4.32,-0.12 -5.82,-0.78 -3.36,-0.78 -2.88,-0.96 -2.28,-1.2 -1.62,-1.32 -0.84,-1.44 -0.06,-0.72 -0.06,-11.94 0.12,-0.72 0.84,-1.44 1.56,-1.32 2.28,-1.2 2.88,-0.96 3.36,-0.78 5.82,-0.78 4.32,-0.12 z"
         id="path680-9"
         inkscape:connector-curvature="0" />
      <path
         style="fill:none;stroke:none"
         d="m 233.04351,763.41019 -0.18,-8.1"
         id="path682-7"
         inkscape:connector-curvature="0" />
      <path
         style="fill:none;stroke:#000000;stroke-width:0.90000004"
         d="m 233.04351,763.41019 -0.18,-8.1"
         id="path684-1"
         inkscape:connector-curvature="0" />
      <path
         style="fill:#c6bca0;stroke:#000000;stroke-width:1.20000005"
         d="m 235.14351,765.27019 0,-0.24 0.36,-1.8 0.96,-1.86 1.08,-1.2 1.56,-0.96 2.04,-0.66 1.32,-0.12 1.74,0 2.88,0.36 2.16,0.78 1.68,1.02 1.56,1.74 0.84,1.74 0,0.18 0.06,0.18 -0.3,0.36 -1.08,0.48 -3.96,0.84 -7.02,0.54 -4.2,-0.36 -1.26,-0.42 -0.42,-0.36 0,-0.24 z"
         id="path686-5"
         inkscape:connector-curvature="0" />
      <path
         style="fill:#c6bca0;stroke:#000000;stroke-width:1.20000005"
         d="m 231.00351,765.27019 -0.06,-0.24 -0.36,-1.74 -0.96,-1.74 -1.08,-1.14 -1.56,-0.96 -2.1,-0.6 -1.32,-0.12 -1.74,0 -2.88,0.36 -2.22,0.72 -1.62,1.02 -1.62,1.62 -0.84,1.68 0,0.18 -0.06,0.18 0.3,0.3 1.08,0.48 4.02,0.84 7.08,0.48 4.2,-0.3 1.26,-0.42 0.42,-0.42 0.06,-0.18 z"
         id="path688-0"
         inkscape:connector-curvature="0" />
      <path
         style="fill:#b9c8ca;stroke:#000000;stroke-width:1.26000011"
         d="m 239.34351,716.31019 9,-4.38 0.48,-0.18 1.08,0.12 1.86,0.96 2.88,2.88 2.82,4.2 1.32,2.52 1.5,3.06 1.2,2.64 1.56,4.86 0.48,3.96 -0.42,2.1 -0.6,0.9 -0.42,0.24 -9,4.44 -0.48,0.12 -1.08,-0.06 -1.86,-1.02 -2.82,-2.82 -2.88,-4.2 -1.32,-2.58 -1.5,-3.06 -1.2,-2.58 -1.56,-4.86 -0.48,-4.02 0.42,-2.04 0.6,-0.96 0.42,-0.24 z"
         id="path690-7"
         inkscape:connector-curvature="0" />
      <path
         style="fill:#b9c8ca;stroke:#000000;stroke-width:1.5"
         d="m 232.50351,704.13019 -0.12,0 -0.12,0 -0.36,0 0,0 -1.98,0.24 -3.78,1.26 -3.48,2.04 -3,2.7 -1.32,1.56 -1.32,1.68 -2.22,3.6 -1.86,3.78 -1.56,3.96 -1.2,4.08 -0.9,4.2 -0.78,6.3 -0.18,4.26 0.06,2.22 0,3.48 0.36,2.16 0.42,0.96 1.68,0.96 4.14,1.32 6.9,1.08 4.14,0.48 2.46,0.06 3.42,0 0,0 0.36,0 0.36,0 0.06,0 0,0 3.42,0 2.46,-0.06 4.14,-0.48 6.9,-1.08 4.2,-1.32 1.68,-0.96 0.36,-0.96 0.36,-2.16 0.06,-3.48 0,-2.22 -0.12,-4.26 -0.84,-6.3 -0.9,-4.2 -1.2,-4.08 -1.5,-3.96 -1.86,-3.78 -2.28,-3.6 -1.32,-1.68 -1.26,-1.56 -3.06,-2.7 -3.42,-2.1 -3.84,-1.2 -1.98,-0.24 0,0 -0.18,0 z"
         id="path692-7"
         inkscape:connector-curvature="0" />
      <rect
         transform="matrix(0.70432126,0.70988137,-0.70988137,0.70432126,0,0)"
         y="339.27521"
         x="672.58881"
         height="5.9908991"
         width="5.9908991"
         id="rect5318"
         style="fill:#312b2a;fill-opacity:1;stroke:#000000;stroke-width:1.84000003;stroke-linecap:butt;stroke-linejoin:round;stroke-miterlimit:4;stroke-opacity:1;stroke-dasharray:none;stroke-dashoffset:0" />
      <path
         style="fill:#e4d4b3;stroke:#000000;stroke-width:1.44000006"
         d="m 230.88351,674.85019 2.16,0 2.46,0.06 4.68,0.84 4.32,1.56 3.84,2.22 3.24,2.82 2.58,3.36 1.8,3.72 0.96,4.02 0.06,2.16 0,1.44 -0.06,2.16 -0.96,4.02 -1.8,3.72 -2.58,3.36 -3.24,2.82 -3.84,2.22 -4.32,1.56 -4.68,0.84 -2.46,0.06 -2.16,0 -2.46,-0.06 -4.74,-0.84 -4.26,-1.56 -3.84,-2.22 -3.24,-2.82 -2.64,-3.36 -1.8,-3.72 -0.96,-4.02 -0.06,-2.16 0,-1.44 0.06,-2.16 0.96,-4.02 1.8,-3.72 2.64,-3.36 3.24,-2.82 3.84,-2.22 4.26,-1.56 4.74,-0.84 2.46,-0.06 z"
         id="path694-2"
         inkscape:connector-curvature="0" />
      <path
         style="fill:#36201d;stroke:#060606;stroke-width:0.72000003"
         d="m 231.60351,673.47019 -2.46,0.12 -5.64,1.38 -5.4,2.28 -3.3,2.16 -1.56,1.62 -0.54,0.84 -1.26,1.38 -1.86,2.7 -1.62,3.9 -0.78,2.58 2.28,-2.16 3.42,-3.06 1.5,-0.66 0.96,0.06 0.42,0.24 1.56,0.96 3.9,1.62 4.44,1.26 4.62,0.78 2.28,0.18 2.64,-0.06 5.64,-0.84 5.34,-1.38 4.38,-1.86 1.5,-1.02 2.16,1.56 2.46,1.98 -0.24,-1.56 -0.84,-2.58 -1.26,-2.16 -1.5,-1.74 -0.9,-0.66 -0.96,-1.02 -2.04,-1.8 -3.3,-2.16 -4.92,-1.86 -5.22,-0.9 -2.64,-0.12 -0.6,0 -0.66,0 z"
         id="path718-8"
         inkscape:connector-curvature="0" />
      <path
         style="fill:#000000;stroke:none"
         d="m 243.39447,701.90132 -0.12,0.84 -0.66,0.9 -0.66,0.3 -0.36,0.06 -0.36,-0.06 -0.66,-0.3 -0.66,-0.9 -0.12,-0.84 0.12,-0.84 0.66,-0.96 0.66,-0.3 0.36,0 0.36,0 0.66,0.3 0.66,0.96 0.12,0.84 z"
         id="path360-2"
         inkscape:connector-curvature="0" />
      <path
         style="fill:#000000;stroke:none"
         d="m 225.67213,702.44132 -0.12,0.84 -0.72,0.9 -0.6,0.3 -0.36,0.06 -0.42,-0.06 -0.6,-0.3 -0.72,-0.9 -0.06,-0.84 0.06,-0.84 0.72,-0.9 0.6,-0.36 0.42,0 0.36,0 0.6,0.36 0.72,0.9 0.12,0.84 z"
         id="path362-1"
         inkscape:connector-curvature="0" />
      <path
         style="fill:none;stroke:#000000;stroke-width:1.56000006"
         d="m 219.02868,701.20014 8.88,-0.12"
         id="path364-3"
         inkscape:connector-curvature="0" />
      <path
         style="fill:none;stroke:#000000;stroke-width:1.56000006"
         d="m 236.94634,700.66014 8.88,-0.06"
         id="path366-6"
         inkscape:connector-curvature="0" />
      <path
         style="fill:none;stroke:#000000;stroke-width:1.38000011"
         d="m 225.18282,711.41773 5.22,0.72"
         id="path368-0"
         inkscape:connector-curvature="0" />
      <rect
         transform="matrix(0.38061278,0.92473451,-0.38575405,0.92260166,0,0)"
         y="85.011879"
         x="697.99445"
         height="10.035252"
         width="10.091144"
         id="rect5318-3"
         style="fill:#312b2a;fill-opacity:1;stroke:#000000;stroke-width:2.18695498;stroke-linecap:butt;stroke-linejoin:round;stroke-miterlimit:4;stroke-opacity:1;stroke-dasharray:none;stroke-dashoffset:0" />
    </g>
    <rect
       style="fill:#aa4400;fill-opacity:1;stroke:#000000;stroke-opacity:1"
       id="rect6010"
       width="520"
       height="20"
       x="313.73602"
       y="734.38251" />
    <rect
       style="fill:#aa4400;fill-opacity:1;stroke:#000000;stroke-opacity:1"
       id="rect6010-5"
       width="481.42856"
       height="140"
       x="332.30746"
       y="754.38251" />
    <path
       style="fill:#d45500;stroke:#000000;stroke-width:1px;stroke-linecap:butt;stroke-linejoin:miter;stroke-opacity:1"
       d="m 313.73603,734.38249 30,-10 450,0 40,10 z"
       id="path6078"
       inkscape:connector-curvature="0" />
    <path
       inkscape:connector-curvature="0"
       id="path4146"
       sodipodi:nodetypes="ccccccccc"
       style="fill:#b3b3b3;stroke:#000000;stroke-width:1.87460816;stroke-linecap:round"
       d="m 692.67131,592.71053 c 2.07898,-2.98169 2.46021,-6.94285 8.36471,-7.69504 l 90.6865,-0.44915 c 3.97623,1.54768 7.58897,3.31179 7.48258,7.24048 l -7.62,103.62869 c -0.54524,2.48926 -2.46022,4.5943 -6.10842,5.88221 l -80.93873,-0.45455 c -4.41065,-0.21646 -6.67139,-2.94382 -7.97463,-6.78592 l -3.89201,-101.36672 z" />
    <path
       inkscape:connector-curvature="0"
       id="path4152"
       style="fill:#000000;stroke:#000000;stroke-width:1.7342391;stroke-linecap:round"
       d="m 703.73603,604.38249 c 0.64276,28.29089 3.38625,53.58977 4.02901,81.88067 24.42923,0.29221 48.85403,0.58983 73.28326,0.88205 l 7.68773,-87.76272 c -27.51447,0.88206 -57.48553,4.11793 -85,5 z"
       sodipodi:nodetypes="ccccc" />
    <path
       inkscape:connector-curvature="0"
       id="path4162"
       sodipodi:nodetypes="ccc"
       style="fill:#cccccc;stroke:#000000;stroke-width:1.28199875;stroke-linecap:round"
       d="m 705.63619,725.54792 c 1.37141,10.13366 78.49071,9.12721 76.11648,0 -7.68104,-7.56956 -60.27741,-8.26582 -76.11648,0 z" />
    <path
       inkscape:connector-curvature="0"
       id="path4156"
       sodipodi:nodetypes="ccccc"
       style="fill:#b3b3b3;stroke:#000000;stroke-width:1.7993294;stroke-linecap:round"
       d="m 729.51603,701.15721 1.13193,21.9023 c 8.54443,4.28046 17.08885,6.00583 25.63328,0 l 4.14857,-21.9023 h -30.91378 z" />
    <path
       inkscape:connector-curvature="0"
       id="path4222"
       sodipodi:nodetypes="cccc"
       style="fill:#e6e6e6"
       d="m 732.26893,704.01451 1.02203,17.39107 7.50041,-17.39107 h -8.52244 z" />
    <path
       inkscape:connector-curvature="0"
       id="path5197"
       sodipodi:nodetypes="ccc"
       style="fill:#f2f2f2"
       d="m 714.16948,724.80909 c 2.94521,5.23857 20.05055,7.61502 28.93016,3.8518 l -28.93016,-3.8518 z" />
    <path
       id="path5241"
       sodipodi:rx="4.2857141"
       sodipodi:ry="4.4642859"
       style="fill:#99ff55"
       sodipodi:type="arc"
       d="m 210.35714,279.10715 c 0,2.46555 -1.91878,4.46428 -4.28571,4.46428 -2.36694,0 -4.28572,-1.99873 -4.28572,-4.46428 0,-2.46556 1.91878,-4.46429 4.28572,-4.46429 2.36693,0 4.28571,1.99873 4.28571,4.46429 z"
       transform="matrix(0.67514691,0,0,0.67514691,648.1476,494.97165)"
       sodipodi:cy="279.10715"
       sodipodi:cx="206.07143" />
    <g
       transform="matrix(0.60442636,0.04206885,-0.04206885,0.60442636,258.74965,469.25587)"
       id="g3070">
      <path
         inkscape:connector-curvature="0"
         d="m 268.83,177.89 7.34,230.96 c -29.71,8.28 -59.43,13.35 -89.15,7.25 L 145.7,192.38 c 40.2,-12.68 82.93,-16.28 123.13,-14.49 z"
         style="fill:#b3b3b3;stroke:#000000;stroke-width:4.09350014;stroke-linecap:round"
         sodipodi:nodetypes="ccccc"
         id="path4164" />
      <path
         sodipodi:cx="189.64285"
         sodipodi:cy="265.35715"
         transform="matrix(1.2287,0,0,1.2287,-14.231,-15.404)"
         d="m 202.14285,265.35715 c 0,6.50907 -5.59644,11.78571 -12.5,11.78571 -6.90356,0 -12.5,-5.27664 -12.5,-11.78571 0,-6.50907 5.59644,-11.78572 12.5,-11.78572 6.90356,0 12.5,5.27665 12.5,11.78572 z"
         sodipodi:type="arc"
         style="fill:#cccccc;stroke:#000000;stroke-width:3;stroke-linecap:round"
         sodipodi:ry="11.785714"
         sodipodi:rx="12.5"
         id="path4166" />
      <path
         inkscape:connector-curvature="0"
         d="m 174.9,221.14 2.55,23.73 71.74,-7.66 -0.85,-26.37 -73.44,10.3 z"
         style="fill:#cccccc;stroke:#000000;stroke-width:3.63249993;stroke-linecap:round"
         sodipodi:nodetypes="ccccc"
         id="path4168" />
      <path
         inkscape:connector-curvature="0"
         d="m 152.08,196.89 39.1,211.62 6.2,0.62 -35.37,-214.72 -9.93,2.48 z"
         style="fill:#f2f2f2"
         sodipodi:nodetypes="ccccc"
         id="path5237" />
      <path
         sodipodi:cx="206.07143"
         sodipodi:cy="279.10715"
         transform="matrix(1.2287,0,0,1.2287,-34.165,-29.496)"
         d="m 210.35714,279.10715 c 0,2.46555 -1.91878,4.46428 -4.28571,4.46428 -2.36694,0 -4.28572,-1.99873 -4.28572,-4.46428 0,-2.46556 1.91878,-4.46429 4.28572,-4.46429 2.36693,0 4.28571,1.99873 4.28571,4.46429 z"
         sodipodi:type="arc"
         style="fill:#66ff00"
         sodipodi:ry="4.4642859"
         sodipodi:rx="4.2857141"
         id="path5239" />
    </g>
    <g
       transform="matrix(0.75838379,0,0,0.1101615,299.56776,677.35506)"
       id="g3093">
      <path
         inkscape:connector-curvature="0"
         d="M 268.78,431.6 237.45,487.08 481,488.04 452.83,424.95 268.78,431.6 z"
         style="fill:#cccccc;stroke:#000000;stroke-width:4.17689991;stroke-linecap:round"
         sodipodi:nodetypes="ccccc"
         id="path4172" />
      <path
         inkscape:connector-curvature="0"
         d="m 265.83,473.65 188.67,-3.14 -16.37,-31.69 -151.73,0.26 -20.57,34.57 z"
         style="fill:#e6e6e6"
         sodipodi:nodetypes="ccccc"
         id="path5243" />
    </g>
  </g>
  <g
     inkscape:groupmode="layer"
     id="layer3"
     inkscape:label="balloons"
     style="display:inline">
    <rect
       style="display:inline;fill:#ffffff;fill-opacity:1;stroke:#000000;stroke-width:2.46533393999999983;stroke-linecap:butt;stroke-linejoin:round;stroke-miterlimit:4;stroke-opacity:1;stroke-dasharray:none;stroke-dashoffset:0"
       id="rect6372"
       width="226.97713"
       height="89.119987"
       x="160.08287"
       y="84.177345"
       ry="22.279997" />
    <text
       xml:space="preserve"
       style="font-size:64px;font-style:normal;font-variant:normal;font-weight:normal;font-stretch:normal;text-align:start;line-height:125%;letter-spacing:0px;word-spacing:0px;writing-mode:lr-tb;text-anchor:start;fill:#000000;fill-opacity:1;stroke:none;font-family:Post Human;-inkscape-font-specification:Post Human"
       x="170"
       y="124.09448"
       id="text6178"
       sodipodi:linespacing="125%"><tspan
         sodipodi:role="line"
         id="tspan6180"
         x="170"
         y="124.09448"
         style="font-size:20px;font-style:normal;font-variant:normal;font-weight:normal;font-stretch:normal;font-family:SmackAttack BB;-inkscape-font-specification:SmackAttack BB">que harto estoy </tspan><tspan
         sodipodi:role="line"
         x="170"
         y="149.27255"
         id="tspan6182"
         style="font-size:20px;font-style:normal;font-variant:normal;font-weight:normal;font-stretch:normal;font-family:SmackAttack BB;-inkscape-font-specification:SmackAttack BB">de la informática</tspan></text>
    <rect
       style="fill:#ffffff;fill-opacity:1;stroke:#000000;stroke-width:2.16746449;stroke-linecap:butt;stroke-linejoin:round;stroke-miterlimit:4;stroke-opacity:1;stroke-dasharray:none;stroke-dashoffset:0;display:inline"
       id="rect6370"
       width="320.13214"
       height="71.040771"
       x="419.93393"
       y="23.119785"
       ry="17.760193" />
    <text
       xml:space="preserve"
       style="font-size:64px;font-style:normal;font-variant:normal;font-weight:normal;font-stretch:normal;text-align:start;line-height:125%;letter-spacing:0px;word-spacing:0px;writing-mode:lr-tb;text-anchor:start;fill:#000000;fill-opacity:1;stroke:none;display:inline;font-family:Post Human;-inkscape-font-specification:Post Human"
       x="580"
       y="54.094482"
       id="text6178-9"
       sodipodi:linespacing="125%"><tspan
         sodipodi:role="line"
         id="tspan6180-7"
         x="580"
         y="54.094482"
         style="font-size:20px;font-style:normal;font-variant:normal;font-weight:normal;font-stretch:normal;text-align:center;text-anchor:middle;font-family:SmackAttack BB;-inkscape-font-specification:SmackAttack BB">los usuarios siempre</tspan><tspan
         sodipodi:role="line"
         x="580"
         y="79.094482"
         id="tspan6182-4"
         style="font-size:20px;font-style:normal;font-variant:normal;font-weight:normal;font-stretch:normal;text-align:center;text-anchor:middle;font-family:SmackAttack BB;-inkscape-font-specification:SmackAttack BB">pidiendo cosas</tspan></text>
    <rect
       style="fill:#ffffff;fill-opacity:1;stroke:#000000;stroke-width:2.29960632;stroke-linecap:butt;stroke-linejoin:round;stroke-miterlimit:4;stroke-opacity:1;stroke-dasharray:none;stroke-dashoffset:0"
       id="rect6360"
       width="360"
       height="100"
       x="638.98987"
       y="111.16555"
       ry="20" />
    <text
       xml:space="preserve"
       style="font-size:64px;font-style:normal;font-variant:normal;font-weight:normal;font-stretch:normal;text-align:start;line-height:125%;letter-spacing:0px;word-spacing:0px;writing-mode:lr-tb;text-anchor:start;fill:#000000;fill-opacity:1;stroke:none;display:inline;font-family:Post Human;-inkscape-font-specification:Post Human"
       x="660"
       y="144.09448"
       id="text6178-0"
       sodipodi:linespacing="125%"><tspan
         sodipodi:role="line"
         x="660"
         y="144.09448"
         id="tspan6182-9"
         style="font-size:20px;font-style:normal;font-variant:normal;font-weight:normal;font-stretch:normal;font-family:SmackAttack BB;-inkscape-font-specification:SmackAttack BB">que si las impresoras</tspan><tspan
         sodipodi:role="line"
         x="660"
         y="169.09448"
         style="font-size:20px;font-style:normal;font-variant:normal;font-weight:normal;font-stretch:normal;font-family:SmackAttack BB;-inkscape-font-specification:SmackAttack BB"
         id="tspan6272">que si las actualizaciones</tspan><tspan
         sodipodi:role="line"
         x="660"
         y="194.09448"
         style="font-size:20px;font-style:normal;font-variant:normal;font-weight:normal;font-stretch:normal;font-family:SmackAttack BB;-inkscape-font-specification:SmackAttack BB"
         id="tspan6274">que si los virus...</tspan></text>
    <rect
       style="fill:#ffffff;fill-opacity:1;stroke:#000000;stroke-width:2.29960632;stroke-linecap:butt;stroke-linejoin:round;stroke-miterlimit:4;stroke-opacity:1;stroke-dasharray:none;stroke-dashoffset:0"
       id="rect6364"
       width="220"
       height="80"
       x="830"
       y="234.09448"
       ry="20" />
    <text
       xml:space="preserve"
       style="font-size:64px;font-style:normal;font-variant:normal;font-weight:normal;font-stretch:normal;text-align:start;line-height:125%;letter-spacing:0px;word-spacing:0px;writing-mode:lr-tb;text-anchor:start;fill:#000000;fill-opacity:1;stroke:none;display:inline;font-family:Post Human;-inkscape-font-specification:Post Human"
       x="938.50531"
       y="264.09448"
       id="text6178-85"
       sodipodi:linespacing="125%"><tspan
         sodipodi:role="line"
         x="840"
         y="264.09448"
         id="tspan6182-1"
         style="font-size:20px;font-style:normal;font-variant:normal;font-weight:normal;font-stretch:normal;font-family:SmackAttack BB;-inkscape-font-specification:SmackAttack BB;text-anchor:middle;text-align:center">No tengo APENAS </tspan><tspan
         sodipodi:role="line"
         x="840"
         y="289.09448"
         style="font-size:20px;font-style:normal;font-variant:normal;font-weight:normal;font-stretch:normal;font-family:SmackAttack BB;-inkscape-font-specification:SmackAttack BB;text-anchor:middle;text-align:center"
         id="tspan6362">personal</tspan></text>
    <rect
       style="display:inline;fill:#ffffff;fill-opacity:1;stroke:#000000;stroke-width:2.29960632000000009;stroke-linecap:butt;stroke-linejoin:round;stroke-miterlimit:4;stroke-opacity:1;stroke-dasharray:none;stroke-dashoffset:0"
       id="rect6368"
       width="180"
       height="100"
       x="870"
       y="334.09448"
       ry="20" />
    <text
       xml:space="preserve"
       style="font-size:64px;font-style:normal;font-variant:normal;font-weight:normal;font-stretch:normal;text-align:start;line-height:125%;letter-spacing:0px;word-spacing:0px;writing-mode:lr-tb;text-anchor:start;fill:#000000;fill-opacity:1;stroke:none;display:inline;font-family:Post Human;-inkscape-font-specification:Post Human"
       x="880"
       y="364.09448"
       id="text6178-4"
       sodipodi:linespacing="125%"><tspan
         sodipodi:role="line"
         x="880"
         y="364.09448"
         id="tspan6182-10"
         style="font-size:20px;font-style:normal;font-variant:normal;font-weight:normal;font-stretch:normal;font-family:SmackAttack BB;-inkscape-font-specification:SmackAttack BB">y encima los </tspan><tspan
         sodipodi:role="line"
         x="880"
         y="389.09448"
         style="font-size:20px;font-style:normal;font-variant:normal;font-weight:normal;font-stretch:normal;font-family:SmackAttack BB;-inkscape-font-specification:SmackAttack BB"
         id="tspan6310">recortes de </tspan><tspan
         sodipodi:role="line"
         x="880"
         y="414.09448"
         style="font-size:20px;font-style:normal;font-variant:normal;font-weight:normal;font-stretch:normal;font-family:SmackAttack BB;-inkscape-font-specification:SmackAttack BB"
         id="tspan6366">presupuesto</tspan></text>
    <rect
       style="display:inline;fill:#ffffff;fill-opacity:1;stroke:#000000;stroke-width:2.13314700000000013;stroke-linecap:butt;stroke-linejoin:round;stroke-miterlimit:4;stroke-opacity:1;stroke-dasharray:none;stroke-dashoffset:0"
       id="rect6374"
       width="260.16647"
       height="51.595032"
       x="79.916771"
       y="224.01125"
       ry="17.198343" />
    <text
       xml:space="preserve"
       style="font-size:64px;font-style:normal;font-variant:normal;font-weight:normal;font-stretch:normal;text-align:start;line-height:125%;letter-spacing:0px;word-spacing:0px;writing-mode:lr-tb;text-anchor:start;fill:#000000;fill-opacity:1;stroke:none;display:inline;font-family:Post Human;-inkscape-font-specification:Post Human"
       x="110"
       y="254.09448"
       id="text6178-8"
       sodipodi:linespacing="125%"><tspan
         sodipodi:role="line"
         x="110"
         y="254.09448"
         id="tspan6182-8"
         style="font-size:20px;font-style:normal;font-variant:normal;font-weight:normal;font-stretch:normal;font-family:SmackAttack BB;-inkscape-font-specification:SmackAttack BB">todo es un caos</tspan></text>
    <rect
       style="fill:#ffffff;fill-opacity:1;stroke:#000000;stroke-width:2.47991204;stroke-linecap:butt;stroke-linejoin:round;stroke-miterlimit:4;stroke-opacity:1;stroke-dasharray:none;stroke-dashoffset:0"
       id="rect6425"
       width="299.8197"
       height="69.819695"
       x="20.090153"
       y="334.18463"
       ry="23.273232" />
    <text
       xml:space="preserve"
       style="font-size:64px;font-style:normal;font-variant:normal;font-weight:normal;font-stretch:normal;text-align:start;line-height:125%;letter-spacing:0px;word-spacing:0px;writing-mode:lr-tb;text-anchor:start;fill:#000000;fill-opacity:1;stroke:none;display:inline;font-family:Post Human;-inkscape-font-specification:Post Human"
       x="164.95078"
       y="364.09448"
       id="text6178-8-4"
       sodipodi:linespacing="125%"><tspan
         sodipodi:role="line"
         x="40"
         y="364.09448"
         id="tspan6182-8-7"
         style="font-size:20px;font-style:normal;font-variant:normal;font-weight:normal;font-stretch:normal;font-family:SmackAttack BB;-inkscape-font-specification:SmackAttack BB;text-anchor:middle;text-align:center">Sin tiempo para</tspan><tspan
         sodipodi:role="line"
         x="40"
         y="389.09448"
         style="font-size:20px;font-style:normal;font-variant:normal;font-weight:normal;font-stretch:normal;font-family:SmackAttack BB;-inkscape-font-specification:SmackAttack BB;text-anchor:middle;text-align:center"
         id="tspan6423">organizar las cosas</tspan></text>
    <rect
       style="color:#000000;fill:#ffffff;fill-opacity:1;fill-rule:evenodd;stroke:#050005;stroke-width:3.54330707;stroke-linecap:butt;stroke-linejoin:round;stroke-miterlimit:4;stroke-opacity:1;stroke-dasharray:none;stroke-dashoffset:0;marker:none;visibility:visible;display:inline;overflow:visible;enable-background:accumulate"
       id="rect5412"
       width="320"
       height="65"
       x="0"
       y="-0.90551758"
       ry="0" />
    <text
       xml:space="preserve"
       style="font-size:64px;font-style:normal;font-variant:normal;font-weight:normal;font-stretch:normal;text-align:start;line-height:125%;letter-spacing:0px;word-spacing:0px;writing-mode:lr-tb;text-anchor:start;fill:#000000;fill-opacity:1;stroke:none;display:inline;font-family:Post Human;-inkscape-font-specification:Post Human"
       x="10"
       y="24.094482"
       id="text6178-81"
       sodipodi:linespacing="125%"><tspan
         sodipodi:role="line"
         x="10"
         y="24.094482"
         style="font-size:18px;font-style:normal;font-variant:normal;font-weight:normal;font-stretch:normal;font-family:SmackAttack BB;-inkscape-font-specification:SmackAttack BB"
         id="tspan5402">Un dia cualquiera, </tspan><tspan
         sodipodi:role="line"
         x="10"
         y="46.594482"
         style="font-size:18px;font-style:normal;font-variant:normal;font-weight:normal;font-stretch:normal;font-family:SmackAttack BB;-inkscape-font-specification:SmackAttack BB"
         id="tspan5406">en una oficina cualquiera...</tspan></text>
  </g>
</svg>
