<?xml version="1.0" encoding="UTF-8" standalone="no"?>
<!-- Created with Inkscape (http://www.inkscape.org/) -->

<svg
   xmlns:dc="http://purl.org/dc/elements/1.1/"
   xmlns:cc="http://creativecommons.org/ns#"
   xmlns:rdf="http://www.w3.org/1999/02/22-rdf-syntax-ns#"
   xmlns:svg="http://www.w3.org/2000/svg"
   xmlns="http://www.w3.org/2000/svg"
   xmlns:sodipodi="http://sodipodi.sourceforge.net/DTD/sodipodi-0.dtd"
   xmlns:inkscape="http://www.inkscape.org/namespaces/inkscape"
   width="1052.3622"
   height="744.09448"
   id="svg5396"
   version="1.1"
   inkscape:version="0.48.4 r9939"
   sodipodi:docname="gecos-v09.svg">
  <defs
     id="defs3">
    <inkscape:perspective
       sodipodi:type="inkscape:persp3d"
       inkscape:vp_x="0 : 372.04724 : 1"
       inkscape:vp_y="0 : 1000 : 0"
       inkscape:vp_z="1052.3622 : 372.04724 : 1"
       inkscape:persp3d-origin="526.18109 : 248.03149 : 1"
       id="perspective7460" />
    <linearGradient
       id="linearGradient7500"
       y2="-204.24001"
       gradientUnits="userSpaceOnUse"
       x2="653.26001"
       gradientTransform="matrix(1.1013,-0.15809,0.69098,0.32964,-40.16,-222.83)"
       y1="-254.53"
       x1="654.28998">
      <stop
         id="stop14612"
         style="stop-color:white"
         offset="0" />
      <stop
         id="stop14614"
         style="stop-color:white;stop-opacity:0"
         offset="1" />
    </linearGradient>
    <linearGradient
       id="linearGradient7502"
       y2="-436.19"
       gradientUnits="userSpaceOnUse"
       x2="411.78"
       gradientTransform="matrix(0.50432,0,0,0.50432,34.099,911.79)"
       y1="-452.60999"
       x1="379.73999">
      <stop
         id="stop10162"
         style="stop-color:#f8f8f8"
         offset="0" />
      <stop
         id="stop10164"
         style="stop-color:#6b6b6b"
         offset="1" />
    </linearGradient>
    <linearGradient
       id="linearGradient7504"
       y2="-264.31"
       gradientUnits="userSpaceOnUse"
       x2="377.42999"
       gradientTransform="matrix(0.50432,0,0,0.50432,6.0662,842.39)"
       y1="-332.04999"
       x1="310.45999">
      <stop
         id="stop8366"
         style="stop-color:#e2e2e2;stop-opacity:.85795"
         offset="0" />
      <stop
         id="stop9255"
         style="stop-color:white;stop-opacity:.84659"
         offset=".49123" />
      <stop
         id="stop8368"
         style="stop-color:white;stop-opacity:.40341"
         offset="1" />
    </linearGradient>
    <linearGradient
       id="linearGradient7506"
       y2="-264.31"
       gradientUnits="userSpaceOnUse"
       x2="377.42999"
       gradientTransform="matrix(-0.50432,0,0,-0.50432,414.84,672.86)"
       y1="-332.04999"
       x1="310.45999">
      <stop
         id="stop9267"
         style="stop-color:black;stop-opacity:.57386"
         offset="0" />
      <stop
         id="stop9269"
         style="stop-color:#dfdfdf;stop-opacity:.45455"
         offset=".49123" />
      <stop
         id="stop9271"
         style="stop-color:white;stop-opacity:.40341"
         offset="1" />
    </linearGradient>
    <linearGradient
       id="linearGradient7508"
       y2="714.22998"
       gradientUnits="userSpaceOnUse"
       x2="106.65"
       gradientTransform="matrix(1.0022,0,0,0.92383,139.49,18.687)"
       y1="732.45001"
       x1="106.8">
      <stop
         id="stop7474"
         style="stop-color:black"
         offset="0" />
      <stop
         id="stop7480"
         style="stop-color:white"
         offset=".65919" />
      <stop
         id="stop7482"
         style="stop-color:white"
         offset=".84436" />
      <stop
         id="stop7476"
         style="stop-color:#c1c1c1"
         offset="1" />
    </linearGradient>
    <linearGradient
       id="linearGradient7510"
       y2="633.84998"
       gradientUnits="userSpaceOnUse"
       x2="127.79"
       gradientTransform="matrix(0.75903,0,0,0.86443,192.34,124.69)"
       y1="640.96002"
       x1="160.37">
      <stop
         id="stop2841"
         style="stop-color:black"
         offset="0" />
      <stop
         id="stop2843"
         style="stop-color:white"
         offset="1" />
    </linearGradient>
  </defs>
  <sodipodi:namedview
     inkscape:document-units="mm"
     id="base"
     pagecolor="#ffffff"
     bordercolor="#666666"
     borderopacity="1.0"
     inkscape:pageopacity="0"
     inkscape:pageshadow="2"
     inkscape:zoom="0.49497475"
     inkscape:cx="390.33334"
     inkscape:cy="449.17873"
     inkscape:current-layer="layer3"
     showgrid="true"
     units="mm"
     inkscape:window-width="1276"
     inkscape:window-height="973"
     inkscape:window-x="0"
     inkscape:window-y="0"
     inkscape:window-maximized="0">
    <inkscape:grid
       type="xygrid"
       id="grid5404"
       empspacing="5"
       visible="true"
       enabled="true"
       snapvisiblegridlinesonly="true" />
  </sodipodi:namedview>
  <metadata
     id="metadata4">
    <rdf:RDF>
      <cc:Work
         rdf:about="">
        <dc:format>image/svg+xml</dc:format>
        <dc:type
           rdf:resource="http://purl.org/dc/dcmitype/StillImage" />
        <dc:title></dc:title>
      </cc:Work>
    </rdf:RDF>
  </metadata>
  <g
     inkscape:groupmode="layer"
     id="layer2"
     inkscape:label="background"
     style="display:inline"
     sodipodi:insensitive="true">
    <rect
       style="fill:#afe9dd;fill-opacity:1;stroke:none"
       id="rect5402-2"
       width="1060"
       height="525"
       x="2.0050203e-07"
       y="-0.90550864" />
    <rect
       transform="translate(0,-308.2677)"
       style="fill:#b3b3b3;fill-opacity:1;stroke:none"
       id="rect5402"
       width="1060"
       height="240"
       x="0"
       y="812.36218" />
    <text
       xml:space="preserve"
       style="font-size:64px;font-style:normal;font-variant:normal;font-weight:normal;font-stretch:normal;text-align:start;line-height:125%;letter-spacing:0px;word-spacing:0px;writing-mode:lr-tb;text-anchor:start;fill:#000000;fill-opacity:1;stroke:none;font-family:Moria Citadel;-inkscape-font-specification:Moria Citadel"
       x="690.94434"
       y="80.424263"
       id="text6210"
       sodipodi:linespacing="125%"><tspan
         sodipodi:role="line"
         id="tspan6212"
         x="690.94434"
         y="80.424263" /></text>
    <text
       xml:space="preserve"
       style="font-size:64px;font-style:normal;font-variant:normal;font-weight:normal;font-stretch:normal;text-align:start;line-height:125%;letter-spacing:0px;word-spacing:0px;writing-mode:lr-tb;text-anchor:start;fill:#000000;fill-opacity:1;stroke:none;font-family:Moria Citadel;-inkscape-font-specification:Moria Citadel"
       x="925.29974"
       y="282.45477"
       id="text6255"
       sodipodi:linespacing="125%"><tspan
         sodipodi:role="line"
         id="tspan6257"
         x="925.29974"
         y="282.45477" /></text>
    <text
       xml:space="preserve"
       style="font-size:64px;font-style:normal;font-variant:normal;font-weight:normal;font-stretch:normal;text-align:start;line-height:125%;letter-spacing:0px;word-spacing:0px;writing-mode:lr-tb;text-anchor:start;fill:#000000;fill-opacity:1;stroke:none;font-family:Moria Citadel;-inkscape-font-specification:Moria Citadel"
       x="889.9444"
       y="448.11978"
       id="text6293"
       sodipodi:linespacing="125%"><tspan
         sodipodi:role="line"
         id="tspan6295"
         x="889.9444"
         y="448.11978" /></text>
  </g>
  <g
     inkscape:label="characters"
     inkscape:groupmode="layer"
     id="layer1"
     transform="translate(0,-308.2677)"
     style="display:inline">
    <rect
       style="fill:#aa4400;fill-opacity:1;stroke:#000000;stroke-opacity:1"
       id="rect6010-5"
       width="481.42856"
       height="140"
       x="332.30746"
       y="754.38251" />
    <rect
       style="fill:#aa4400;fill-opacity:1;stroke:#000000;stroke-opacity:1"
       id="rect6010"
       width="520"
       height="20"
       x="313.73602"
       y="734.38251" />
    <path
       style="fill:#d45500;stroke:#000000;stroke-width:1px;stroke-linecap:butt;stroke-linejoin:miter;stroke-opacity:1"
       d="m 313.73603,734.38249 30,-10 450,0 40,10 z"
       id="path6078"
       inkscape:connector-curvature="0" />
    <path
       inkscape:connector-curvature="0"
       id="path4146"
       sodipodi:nodetypes="ccccccccc"
       style="fill:#b3b3b3;stroke:#000000;stroke-width:1.87460816;stroke-linecap:round"
       d="m 692.67131,592.71053 c 2.07898,-2.98169 2.46021,-6.94285 8.36471,-7.69504 l 90.6865,-0.44915 c 3.97623,1.54768 7.58897,3.31179 7.48258,7.24048 l -7.62,103.62869 c -0.54524,2.48926 -2.46022,4.5943 -6.10842,5.88221 l -80.93873,-0.45455 c -4.41065,-0.21646 -6.67139,-2.94382 -7.97463,-6.78592 l -3.89201,-101.36672 z" />
    <path
       inkscape:connector-curvature="0"
       id="path4152"
       style="fill:#000000;stroke:#000000;stroke-width:1.7342391;stroke-linecap:round"
       d="m 703.73603,604.38249 c 0.64276,28.29089 3.38625,53.58977 4.02901,81.88067 24.42923,0.29221 48.85403,0.58983 73.28326,0.88205 l 7.68773,-87.76272 c -27.51447,0.88206 -57.48553,4.11793 -85,5 z"
       sodipodi:nodetypes="ccccc" />
    <path
       inkscape:connector-curvature="0"
       id="path4162"
       sodipodi:nodetypes="ccc"
       style="fill:#cccccc;stroke:#000000;stroke-width:1.28199875;stroke-linecap:round"
       d="m 705.63619,725.54792 c 1.37141,10.13366 78.49071,9.12721 76.11648,0 -7.68104,-7.56956 -60.27741,-8.26582 -76.11648,0 z" />
    <path
       inkscape:connector-curvature="0"
       id="path4156"
       sodipodi:nodetypes="ccccc"
       style="fill:#b3b3b3;stroke:#000000;stroke-width:1.7993294;stroke-linecap:round"
       d="m 729.51603,701.15721 1.13193,21.9023 c 8.54443,4.28046 17.08885,6.00583 25.63328,0 l 4.14857,-21.9023 h -30.91378 z" />
    <path
       inkscape:connector-curvature="0"
       id="path4222"
       sodipodi:nodetypes="cccc"
       style="fill:#e6e6e6"
       d="m 732.26893,704.01451 1.02203,17.39107 7.50041,-17.39107 h -8.52244 z" />
    <path
       inkscape:connector-curvature="0"
       id="path5197"
       sodipodi:nodetypes="ccc"
       style="fill:#f2f2f2"
       d="m 714.16948,724.80909 c 2.94521,5.23857 20.05055,7.61502 28.93016,3.8518 l -28.93016,-3.8518 z" />
    <g
       transform="matrix(0.60442636,0.04206885,-0.04206885,0.60442636,258.74965,469.25587)"
       id="g3070">
      <path
         inkscape:connector-curvature="0"
         d="m 268.83,177.89 7.34,230.96 c -29.71,8.28 -59.43,13.35 -89.15,7.25 L 145.7,192.38 c 40.2,-12.68 82.93,-16.28 123.13,-14.49 z"
         style="fill:#b3b3b3;stroke:#000000;stroke-width:4.09350014;stroke-linecap:round"
         sodipodi:nodetypes="ccccc"
         id="path4164" />
      <path
         sodipodi:cx="189.64285"
         sodipodi:cy="265.35715"
         transform="matrix(1.2287,0,0,1.2287,-14.231,-15.404)"
         d="m 202.14285,265.35715 c 0,6.50907 -5.59644,11.78571 -12.5,11.78571 -6.90356,0 -12.5,-5.27664 -12.5,-11.78571 0,-6.50907 5.59644,-11.78572 12.5,-11.78572 6.90356,0 12.5,5.27665 12.5,11.78572 z"
         sodipodi:type="arc"
         style="fill:#cccccc;stroke:#000000;stroke-width:3;stroke-linecap:round"
         sodipodi:ry="11.785714"
         sodipodi:rx="12.5"
         id="path4166" />
      <path
         inkscape:connector-curvature="0"
         d="m 174.9,221.14 2.55,23.73 71.74,-7.66 -0.85,-26.37 -73.44,10.3 z"
         style="fill:#cccccc;stroke:#000000;stroke-width:3.63249993;stroke-linecap:round"
         sodipodi:nodetypes="ccccc"
         id="path4168" />
      <path
         inkscape:connector-curvature="0"
         d="m 152.08,196.89 39.1,211.62 6.2,0.62 -35.37,-214.72 -9.93,2.48 z"
         style="fill:#f2f2f2"
         sodipodi:nodetypes="ccccc"
         id="path5237" />
      <path
         sodipodi:cx="206.07143"
         sodipodi:cy="279.10715"
         transform="matrix(1.2287,0,0,1.2287,-34.165,-29.496)"
         d="m 210.35714,279.10715 c 0,2.46555 -1.91878,4.46428 -4.28571,4.46428 -2.36694,0 -4.28572,-1.99873 -4.28572,-4.46428 0,-2.46556 1.91878,-4.46429 4.28572,-4.46429 2.36693,0 4.28571,1.99873 4.28571,4.46429 z"
         sodipodi:type="arc"
         style="fill:#66ff00"
         sodipodi:ry="4.4642859"
         sodipodi:rx="4.2857141"
         id="path5239" />
    </g>
    <g
       id="g6872"
       transform="matrix(0.95165231,0,0,0.95165231,-38.9426,-0.23150107)">
      <path
         style="fill:#e3d2b0;stroke:#000000;stroke-width:5.05878067"
         d="m 802.07252,872.33512 1.60961,2.98928 5.05878,4.82884 6.2085,2.98928 6.89834,0.91978 3.21922,-0.68984 3.21923,-0.91977 4.59889,-3.67911 2.29944,-5.28873 -0.22994,-5.97856 -1.14972,-3.21922 -1.83956,-2.98929 -5.05878,-4.82883 -6.20851,-2.98928 -6.66838,-0.91977 -3.44918,0.68983 -2.98928,0.91978 -4.59888,3.67911 -2.29945,5.28873 0,5.97855 1.37967,3.21922 z"
         id="path628"
         inkscape:connector-curvature="0" />
      <path
         style="fill:none;stroke:none"
         d="m 839.78342,644.46007 -1.37967,1.83955 -8.27799,14.25656 -6.89835,14.25657 -6.43844,17.93568 -5.05878,20.92495 -2.52939,23.2244 1.14972,18.62551 2.06951,12.8769 1.60961,6.43844 0.91977,2.98929 2.98928,5.74861 6.89833,7.58816 12.41701,8.27801 14.25656,6.2085 22.07469,6.6684 21.61478,3.90905 2.29945,0.22994 -6.43845,-152.68318"
         id="path630"
         inkscape:connector-curvature="0" />
      <path
         style="fill:#312b2a;fill-opacity:1;stroke:#000000;stroke-width:3.2192235"
         d="m 839.78342,644.46007 -1.37967,1.83955 -8.27799,14.25656 -6.89835,14.25657 -6.43844,17.93568 -5.05878,20.92495 -2.52939,23.2244 1.14972,18.62551 2.06951,12.8769 1.60961,6.43844 0.91977,2.98929 2.98928,5.74861 6.89833,7.58816 12.41701,8.27801 14.25656,6.2085 22.07469,6.6684 21.61478,3.90905 2.29945,0.22994 -6.43845,-152.68318"
         id="path632"
         inkscape:connector-curvature="0" />
      <path
         style="fill:#236670;stroke:#000000;stroke-width:4.36894655"
         d="m 853.81004,870.95546 -0.91978,0.91977 -4.82883,0.45989 -11.95712,-2.29944 -18.85545,-7.12829 -10.57745,-6.2085 -3.44917,-3.67911 0.22995,-1.60961 4.36894,-18.39557 8.7379,-28.51312 8.50794,-20.23512 8.04806,-13.33679 7.35823,-7.58816 6.66839,-3.67912 8.27801,-0.45989 3.67911,0.91978 2.29944,2.0695 3.44917,6.20851 2.0695,8.73788 0.45989,11.03734 -1.60961,21.15491 -6.89834,37.94084 -5.05878,23.6843 z"
         id="path634"
         inkscape:connector-curvature="0" />
      <path
         style="fill:#ffffff;stroke:#000000;stroke-width:5.2887249"
         d="m 899.56901,861.29778 -2.5294,0 -15.86617,0.45989 -20.92495,2.75934 -12.18706,2.98928 -10.34751,3.67911 -8.278,4.36894 -5.74862,4.82885 -2.98928,5.28872 -0.45988,2.75933 0,44.3793 0.22994,2.75934 2.98928,5.28872 5.97856,4.82884 8.04806,4.36895 10.57745,3.67911 12.18706,2.98928 20.92495,2.75933 15.63623,0.45989 2.75934,0 15.63623,-0.45989 20.925,-2.75933 12.187,-2.98928 10.34756,-3.67911 8.27798,-4.36895 5.74856,-4.82884 2.98929,-5.28872 0.45996,-2.75934 0,-44.3793 -0.23003,-2.75933 -2.98919,-5.28872 -5.97859,-4.82885 -8.04805,-4.36894 -10.57749,-3.67911 -12.187,-2.98928 -20.925,-2.75934 -15.63623,-0.45989 z"
         id="path636"
         inkscape:connector-curvature="0" />
      <path
         style="fill:none;stroke:none"
         d="m 864.84738,954.88522 0.68983,-31.27246"
         id="path638"
         inkscape:connector-curvature="0" />
      <path
         style="fill:none;stroke:#000000;stroke-width:3.44916844"
         d="m 864.84738,954.88522 0.68983,-31.27246"
         id="path640"
         inkscape:connector-curvature="0" />
      <path
         style="fill:#236670;stroke:#000000;stroke-width:5.2887249"
         d="m 890.83112,744.02606 0.45988,0 0.45989,0 0.22995,0 0.22994,0 0.22995,0 0.45989,0 0,0 6.66839,0.68983 13.10684,4.13901 12.18701,7.12828 10.57749,9.19778 4.59891,5.51867 4.5989,5.97855 8.04805,12.41701 6.89831,13.33679 5.51872,14.02661 6.66838,21.6148 4.82883,30.12273 0.91972,14.9464 0.23003,8.04805 0.22993,12.41701 -1.14975,7.58818 -1.14975,3.44916 -5.74855,3.67911 -14.02664,4.82885 -23.45438,4.59888 -14.25654,1.83956 -8.27801,0.45989 -11.72716,0.45989 0,0 -1.37968,0 -1.14972,0 -0.22995,0 -11.72716,0.22994 -8.27801,-0.22994 -14.25656,-1.14973 -23.91424,-3.44916 -14.25656,-4.139 -5.97856,-3.21923 -1.37966,-3.44917 -1.37967,-7.58816 -0.45989,-12.41701 -0.45989,-8.04807 0.22995,-14.94639 3.21922,-30.35268 5.28872,-21.84474 4.82884,-14.25656 5.97856,-13.56672 7.35823,-13.10684 4.139,-5.97857 4.36894,-5.74861 10.11756,-9.65767 11.72718,-7.81811 12.8769,-4.82884 6.66838,-0.91978 0,0 0.45989,0 0.22995,0 z"
         id="path642"
         inkscape:connector-curvature="0" />
      <path
         style="fill:#2c3873;stroke:#000000;stroke-width:5.51866961"
         d="m 792.87473,952.12589 0.68984,-2.52939 6.43845,-8.96784 4.59889,-3.21922 6.2085,-2.29945 8.04806,-0.91977 4.59889,0.22994 6.43845,0.68983 10.34751,2.52939 7.58816,3.44917 5.28872,4.139 5.05879,5.97856 1.83956,5.97856 0,0.68983 -0.22995,0.91978 -5.05877,1.60961 -15.17635,0.68983 -25.98373,-1.83955 -15.17634,-2.98928 -4.13901,-2.0695 -1.37967,-1.37967 0,-0.68983 z"
         id="path644"
         inkscape:connector-curvature="0" />
      <path
         style="fill:#e3d2b0;stroke:#000000;stroke-width:5.05878067"
         d="m 985.56822,893.71997 -2.06947,2.75934 -5.74855,3.90905 -6.66847,1.83955 -6.89831,-0.22994 -3.21922,-1.14972 -2.98929,-1.60961 -3.90901,-4.36895 -1.37969,-5.51867 1.14976,-5.97856 1.83954,-2.75933 2.2994,-2.75933 5.74865,-3.90907 6.66838,-1.83955 6.66837,0.22994 3.21922,1.14973 2.9893,1.37966 3.90901,4.5989 1.37968,5.51867 -1.14965,5.74861 -1.83965,2.98928 z"
         id="path646"
         inkscape:connector-curvature="0" />
      <path
         style="fill:#e3d2b0;stroke:#000000;stroke-width:5.51866961"
         d="m 909.22668,615.717 -8.278,0 -9.42773,0.22994 -18.16562,3.21922 -16.32606,5.97857 -14.71645,8.50794 -12.41701,10.8074 -9.88762,12.64695 -7.12827,14.25656 -3.67912,15.63623 -0.22995,8.27801 0,5.51866 0.22995,8.04807 3.67912,15.63623 7.12827,14.25656 9.88762,12.64695 12.41701,10.80739 14.71645,8.73789 16.32606,5.97856 18.16562,3.21923 9.42773,0.22994 8.278,0 9.42773,-0.22994 17.93569,-3.21923 16.55597,-5.97856 14.71643,-8.73789 12.41703,-10.80739 9.8876,-12.64695 6.89841,-14.25656 3.67906,-15.63623 0.2299,-8.04807 0,-5.51866 -0.2299,-8.27801 -3.67906,-15.63623 -6.89841,-14.25656 -9.8876,-12.64695 -12.41703,-10.8074 -14.71643,-8.50794 -16.55597,-5.97857 -17.93569,-3.21922 -9.42773,-0.22994 z"
         id="path648"
         inkscape:connector-curvature="0" />
      <path
         style="fill:#2c3873;stroke:#000000;stroke-width:5.51866961"
         d="m 968.5524,958.79428 -0.22993,-0.91978 -2.52944,-6.89833 -5.74865,-6.89834 -5.97848,-4.139 -8.50802,-3.21923 -11.03725,-1.60961 -6.8984,0.22995 -9.19777,0.45989 -14.94639,2.75933 -11.49723,3.90905 -8.278,4.82884 -7.81812,7.35823 -3.67911,7.12827 0,0.91978 -0.22994,0.68984 1.60961,1.14973 5.97855,1.37966 21.38485,1.60961 37.0211,-0.91977 22.0746,-2.98928 6.43855,-2.29945 1.83954,-1.60962 0.22993,-0.91977 z"
         id="path650"
         inkscape:connector-curvature="0" />
      <path
         style="fill:#b66b6e;stroke:#000000;stroke-width:2.33147097"
         d="m 832.43037,722.50104 0.38301,3.15382 4.97914,12.61527 3.25558,4.92783 4.40463,4.3365 5.74517,2.95671 3.25559,0.59134 3.44709,0.39423 6.31967,-1.18268 5.55366,-2.7596 4.78763,-3.74515 8.61775,-10.64414 1.34054,-2.9567 -52.08946,-7.68743 z"
         id="path658"
         inkscape:connector-curvature="0" />
      <path
         style="fill:#221f1f;stroke:none"
         d="m 883.4729,704.93548 -0.22995,1.60962 0.45989,3.21922 1.83955,2.52939 2.52939,2.0695 1.60961,0.45989 1.60961,0.22995 3.21923,-0.68984 2.52938,-1.60961 2.06951,-2.75933 0.45989,-1.60961 0.22995,-1.60961 -0.68984,-3.21923 -1.60961,-2.52939 -2.75934,-1.83956 -1.60961,-0.45989 -1.60961,-0.22994 -3.21922,0.45989 -2.52939,1.83955 -1.83956,2.52939 -0.45988,1.60961 z"
         id="path660"
         inkscape:connector-curvature="0" />
      <path
         style="fill:#221f1f;stroke:none"
         d="m 817.01891,700.10665 0.22995,1.60961 1.14972,2.98928 2.29944,2.29945 2.98928,1.14972 1.60961,0.22995 1.60962,-0.22995 2.98928,-1.14972 2.29944,-2.29945 1.14973,-2.98928 0.22994,-1.60961 -0.22994,-1.83956 -1.14973,-2.75933 -2.29944,-2.29944 -2.98928,-1.37967 -1.60962,0 -1.60961,0 -2.98928,1.37967 -2.29944,2.29944 -1.14972,2.75933 -0.22995,1.83956 z"
         id="path662"
         inkscape:connector-curvature="0" />
      <path
         style="fill:none;stroke:#000000;stroke-width:4.13900232"
         d="m 965.79303,726.55028 0.91983,0.68983 2.52932,0.68983 4.13905,-0.91978 2.52933,-2.0695 1.37968,-1.60961 1.37968,-3.44917 0,-3.44917 -1.37968,-2.98928 -1.14965,-1.14972 -1.60961,-1.37966 -3.90911,-0.91978 -2.2994,0"
         id="path664"
         inkscape:connector-curvature="0" />
      <path
         style="fill:#312b2a;stroke:#000002;stroke-width:2.7593348"
         d="m 894.74017,607.89889 7.35823,0.22994 7.58817,0.68983 8.73789,1.14973 6.66844,1.14972 12.64696,2.98928 11.95706,4.59888 11.03735,5.51868 9.8876,6.66839 9.1978,7.81812 7.81813,8.50794 6.43844,9.42773 2.75937,5.05878 0.91972,-0.45989 0.91982,1.83956 8.50795,20.69501 8.048,26.44362 4.8289,21.1549 3.4491,23.68429 1.6096,25.75379 -0.2299,13.33679 -0.4599,4.82883 -1.8395,8.04806 -3.2192,6.66839 -4.1391,5.05878 -5.2887,3.90906 -5.7486,2.75934 -9.42777,2.52938 -13.33675,0.45989 -12.1871,-1.37966 -14.02664,-2.98928 -2.06947,-0.68983 -0.22993,-8.04807 0.91983,-15.40628 2.98918,-22.53456 2.75937,-22.53457 0.68989,-15.40629 -0.68989,-16.09612 -3.44915,-17.01589 -2.75937,-8.96784 -151.99331,-19.54529 1.37966,-7.58817 5.74861,-14.02662 8.04807,-12.8769 10.57745,-11.03734 12.417,-9.19777 14.25656,-7.35823 15.63624,-5.05878 16.78595,-2.52939 8.50794,-0.22994 z"
         id="path668"
         inkscape:connector-curvature="0" />
      <path
         style="fill:#236670;stroke:#000000;stroke-width:4.82883596"
         d="m 946.93756,881.9928 0.68989,1.37966 5.51862,0.91978 13.79671,-0.91978 22.0747,-5.05877 12.64692,-5.28873 4.139,-3.44917 0.2299,-1.83955 -2.9893,-19.77524 -6.66836,-31.04252 -7.35816,-22.30461 -7.35827,-14.9464 -7.58819,-8.96784 -7.12824,-4.36894 -9.1978,-1.60961 -4.36898,0.45988 -2.98929,0.91978 -4.5988,5.05878 -3.21922,8.50795 -1.83965,11.72718 -0.45986,23.22439 3.44916,42.07985 3.21922,25.29391 z"
         id="path670"
         inkscape:connector-curvature="0" />
    </g>
    <path
       id="path5241"
       sodipodi:rx="4.2857141"
       sodipodi:ry="4.4642859"
       style="fill:#99ff55"
       sodipodi:type="arc"
       d="m 210.35714,279.10715 a 4.2857141,4.4642859 0 1 1 -8.57143,0 4.2857141,4.4642859 0 1 1 8.57143,0 z"
       transform="matrix(0.67514691,0,0,0.67514691,298.1476,530.68594)"
       sodipodi:cy="279.10715"
       sodipodi:cx="206.07143" />
    <path
       inkscape:connector-curvature="0"
       id="path98"
       d="m 484.25382,954.22573 0.67312,-2.39202 6.28251,-8.48081 4.48751,-3.04439 6.05813,-2.17456 7.85314,-0.86983 4.48751,0.21746 6.28251,0.65237 10.09689,2.39202 7.40438,3.4793 5.38501,3.69676 4.71188,5.87133 1.79501,5.43641 0,0.65237 -0.22438,0.86983 -4.93626,1.52219 -14.80877,0.65237 -25.35441,-1.73965 -14.80877,-2.82693 -4.03876,-1.73966 -1.34625,-1.52219 0,-0.65237 z"
       style="fill:#3e432a;stroke:#000000;stroke-width:3.97599912" />
    <path
       inkscape:connector-curvature="0"
       id="path100"
       d="m 486.04882,866.80822 1.57063,2.82693 4.93626,4.56659 6.05813,2.82693 6.73126,0.86983 3.14125,-0.43492 3.14126,-1.08728 4.48751,-3.4793 2.24375,-4.78405 -0.22438,-5.87132 -1.12187,-2.82694 -1.79501,-3.04439 -4.71188,-4.56658 -6.28251,-2.82694 -6.50688,-0.86982 -3.36563,0.65237 -2.91688,0.86982 -4.48751,3.69676 -2.24375,4.78405 0,5.65386 1.34625,3.0444 z"
       style="fill:#cfc0a0;stroke:#000000;stroke-width:3.31333232" />
    <path
       inkscape:connector-curvature="0"
       id="path102"
       d="m 536.53327,865.50348 -0.8975,1.08728 -4.71188,0.43491 -11.66752,-2.17456 -18.39878,-6.74115 -10.32126,-5.87133 -3.36563,-3.69676 0.22437,-1.30474 4.26313,-17.39652 8.52627,-26.96461 8.30188,-19.35362 7.85314,-12.39502 7.18001,-7.39353 6.50689,-3.26184 8.07751,-0.65237 3.59,0.86982 2.24376,2.17457 3.36563,5.87132 2.01938,8.04589 0.44875,10.65537 -1.57063,20.006 -6.73126,35.88032 -4.93626,22.18057 z"
       style="fill:#452789;stroke:#000000;stroke-width:4.19688797" />
    <path
       inkscape:connector-curvature="0"
       id="path104"
       d="m 584.54959,863.54637 -2.6925,0 -15.25752,0.43491 -20.41816,2.60948 -11.89189,2.82693 -10.32127,3.47931 -7.85313,4.13167 -5.83376,4.56659 -2.91688,5.0015 -0.22438,2.60947 0,41.96911 0.22438,2.60948 2.91688,5.0015 5.60938,4.56658 8.07751,4.13168 10.09689,3.4793 11.8919,2.60948 20.41815,2.82693 15.25753,0.21746 2.6925,0 15.25752,-0.21746 20.41816,-2.82693 11.89189,-2.60948 10.32127,-3.4793 7.85314,-4.13168 5.8338,-4.56658 2.9168,-5.0015 0.2244,-2.60948 0,-41.96911 -0.2244,-2.60947 -2.9168,-5.0015 -5.6094,-4.56659 -8.07754,-4.13167 -10.09689,-3.47931 -11.8919,-2.82693 -20.41815,-2.60948 -15.25753,-0.43491 z"
       style="fill:#7c8f9a;stroke:#000000;stroke-width:5.08044291" />
    <path
       inkscape:connector-curvature="0"
       id="path106"
       d="m 550.44454,952.05116 0.8975,-29.57408"
       style="fill:none;stroke:none" />
    <path
       inkscape:connector-curvature="0"
       id="path108"
       d="m 550.44454,952.05116 0.8975,-29.57408"
       style="fill:none;stroke:#000000;stroke-width:3.31333232" />
    <path
       inkscape:connector-curvature="0"
       id="path110"
       d="m 572.6577,745.68494 0.44875,0 0.44875,0 0.22438,-0.21745 0.22437,0 0.22438,0 0.44875,0 0,0.21745 6.50688,0.43492 12.7894,3.91421 11.89189,6.74116 10.32127,8.91571 4.4875,5.0015 4.48751,5.65387 7.85314,11.96011 6.73126,12.61248 5.38501,13.04739 6.50686,20.65836 4.7119,28.26935 0.8975,14.35213 0.2244,7.39352 0.2244,11.74265 -0.8975,7.39352 -1.3463,3.26185 -5.60938,3.26185 -13.6869,4.78404 -22.88628,4.13167 -13.91127,1.73965 -8.07752,0.43492 -11.44314,0.43491 0,0 -1.34625,0 -1.12188,0 -0.22437,0 0,0 -11.44314,0.21746 -8.07752,0 -13.91127,-1.30474 -23.33503,-3.04439 -13.91127,-4.13168 -5.83376,-3.04439 -1.34625,-3.26185 -1.34626,-7.17606 -0.44875,-11.74265 -0.44875,-7.39352 0.22438,-14.35213 3.14125,-28.4868 5.16063,-20.87583 4.71189,-13.4823 5.83376,-12.82993 7.18001,-12.17757 4.03875,-5.87132 4.26313,-5.21896 9.87252,-9.35063 11.44314,-7.17606 12.56502,-4.56659 6.50689,-0.86983 0,0 0.44875,-0.21745 0.22437,0 0,0.21745 z"
       style="fill:#452789;stroke:#000000;stroke-width:5.08044291" />
    <path
       inkscape:connector-curvature="0"
       id="path112"
       d="m 659.7153,887.03167 -2.0193,2.60948 -5.6094,3.69676 -6.50691,1.73965 -6.73126,-0.21746 -3.14126,-1.08728 -2.6925,-1.30474 -3.81438,-4.34913 -1.57063,-5.21895 1.34625,-5.43642 1.57063,-2.82693 2.24375,-2.60948 5.60939,-3.69676 6.50688,-1.73965 6.50684,0.21746 3.1413,1.08728 2.9169,1.52219 3.8144,4.13168 1.3462,5.21895 -1.1219,5.65387 -1.795,2.60948 z"
       style="fill:#cfc0a0;stroke:#000000;stroke-width:3.31333232" />
    <path
       inkscape:connector-curvature="0"
       id="path114"
       d="m 671.6072,955.31301 0,-0.65237 -2.4681,-6.74115 -5.6094,-6.5237 -6.0581,-3.91421 -8.07753,-3.04439 -10.99439,-1.30474 -6.50689,0 -8.97501,0.65237 -14.80877,2.39202 -10.9944,3.91422 -8.07751,4.56658 -7.62876,6.74115 -3.59001,6.95861 -0.22437,0.65237 0,0.65237 1.57063,1.08728 5.60938,1.5222 20.86691,1.52219 36.12443,-1.08728 21.53999,-2.82693 6.2825,-1.95711 2.0194,-1.73965 0,-0.86983 z"
       style="fill:#3e432a;stroke:#000000;stroke-width:4.41777658" />
    <path
       inkscape:connector-curvature="0"
       id="path116"
       d="m 632.79029,876.15884 0.67313,1.08729 5.38501,1.08728 13.46247,-0.86983 21.5401,-5.0015 12.3406,-5.0015 4.0388,-3.26184 0.2244,-1.5222 -2.9169,-18.70126 -6.5069,-29.35662 -7.18,-21.09329 -7.4044,-14.13467 -7.18,-8.4808 -6.9557,-4.34913 -8.97497,-1.5222 -4.26313,0.65237 -2.91688,0.86983 -4.4875,4.56659 -3.14126,8.04589 -1.795,11.30773 -0.44875,21.96311 3.36563,39.57708 3.14125,24.13767 z"
       style="fill:#452789;stroke:#000000;stroke-width:4.63866568" />
    <path
       inkscape:connector-curvature="0"
       id="path118"
       d="m 590.60773,624.12676 -8.07751,0 -9.19939,0.21746 -17.72565,3.04439 -15.93065,5.65387 -14.36003,8.26334 -12.11626,10.003 -9.64814,12.17757 -6.95564,13.4823 -3.59,14.78704 -0.22438,7.61098 0,5.21896 0.22438,7.82843 3.59,14.56959 6.95564,13.69976 9.64814,11.9601 12.11626,10.22046 14.36003,8.04589 15.93065,5.65387 17.72565,3.04439 9.19939,0.21746 8.07751,0 9.19939,-0.21746 17.50127,-3.04439 16.15503,-5.65387 14.36002,-8.04589 12.11626,-10.22046 9.6481,-11.9601 6.7313,-13.69976 3.59,-14.56959 0.2244,-7.82843 0,-5.21896 -0.2244,-7.61098 -3.59,-14.78704 -6.7313,-13.4823 -9.6481,-12.17757 -12.11626,-10.003 -14.36002,-8.26334 -16.15503,-5.65387 -17.50127,-3.04439 -9.19939,-0.21746 z"
       style="fill:#cfc0a0;stroke:#000000;stroke-width:5.301332" />
    <path
       inkscape:connector-curvature="0"
       id="path122"
       d="m 558.77958,704.11605 0.44875,1.52219 1.795,2.60948 2.46813,1.5222 3.14126,0.65237 1.57062,-0.21746 1.57063,-0.43491 2.46813,-1.73965 1.795,-2.60948 0.67313,-2.82694 -0.22438,-1.52219 -0.44875,-1.5222 -1.795,-2.60948 -2.69251,-1.52219 -2.91687,-0.65237 -1.79501,0.21746 -1.57062,0.43491 -2.46813,1.73965 -1.79501,2.39202 -0.44875,3.04439 0.22438,1.5222 z"
       style="fill:#221f1f;stroke:none" />
    <path
       inkscape:connector-curvature="0"
       id="path124"
       d="m 504.07716,703.28093 0.44875,1.52219 1.79501,2.60948 2.46812,1.5222 3.14126,0.65237 1.57063,-0.21746 1.57062,-0.43491 2.69251,-1.73966 1.57063,-2.39202 0.67312,-3.04439 -0.22437,-1.52219 -0.44875,-1.5222 -1.79501,-2.60948 -2.46813,-1.52219 -3.14125,-0.65237 -1.57063,0.21745 -1.57063,0.43492 -2.6925,1.73965 -1.57063,2.39202 -0.67312,3.04439 0.22437,1.5222 z"
       style="fill:#221f1f;stroke:none" />
    <path
       inkscape:connector-curvature="0"
       id="path126"
       d="m 617.75714,580.418 -1.57062,0.65237 -2.46813,3.91422 -2.24375,5.21896 -2.01938,2.82693 -1.79501,0.86983 -0.8975,-0.21746 -2.01937,-0.86982 -3.59001,-4.34913 -3.14125,-5.65387 -3.36564,-4.34913 -2.24375,-0.65237 -1.12188,0 -1.795,1.30474 -2.46813,3.69676 -3.14125,6.52369 -2.46813,3.91422 -2.01938,1.52219 -1.12187,0.21746 -1.12188,-0.21746 -2.01938,-1.52219 -2.46813,-3.69676 -2.91688,-6.5237 -2.46813,-3.91421 -2.01937,-1.08729 -0.89751,-0.21745 -1.12187,0.43491 -1.12188,1.30474 -0.22437,3.69676 0.8975,5.87132 -0.22438,3.91422 -0.8975,1.73965 -0.8975,0.21746 -2.24375,0 -4.26314,-3.26185 -4.26313,-5.0015 -3.36563,-2.60947 -2.01938,-0.65237 -1.12187,0.21745 -0.8975,0.65237 -1.34626,1.95711 -1.12187,4.78404 -0.8975,7.61098 -1.57063,6.5237 -1.57063,1.52219 -1.12188,0.21746 -2.24375,-0.43492 -4.03876,-2.60947 -5.60938,-5.0015 -4.03875,-2.60948 -2.24376,-0.43491 -0.8975,0.43491 -0.8975,0.65237 -0.44875,2.17456 0.8975,4.56659 2.46813,6.95861 0.8975,4.78404 -0.44875,2.39202 -0.67313,0.65237 -2.01937,0.86983 -5.83376,-1.30474 -6.73126,-2.82694 -4.48751,-1.08728 -2.24375,0.43492 -0.67313,0.65236 -0.67313,0.65237 0.22438,2.17457 2.6925,4.13167 4.93626,5.87133 2.6925,4.13167 0.44876,2.39202 -0.44876,0.86983 -0.67312,0.65237 -2.24375,0.65237 -5.16064,-0.86983 -7.62876,-1.95711 -4.93626,-0.65237 -2.24375,0.43492 -0.44875,0.86982 -0.44875,0.86983 0.67312,1.73965 3.14126,2.60948 5.83376,3.4793 3.14125,2.60948 0.8975,1.95711 -0.22437,0.86983 -0.67313,0.86982 -2.01937,1.30474 -4.71189,0.86983 -7.62876,0.65237 -4.48751,1.08728 -2.01937,1.30474 -0.44875,0.86982 0,1.95711 3.36563,4.34913 4.71188,4.56659 3.59,4.56659 0.22438,1.9571 -0.67313,1.95711 -4.71188,2.39202 -6.05813,1.95711 -4.48751,2.39202 -0.67313,1.73966 0.22438,0.86982 1.34625,1.30474 3.59001,1.30474 6.73126,0.86983 6.28251,1.08728 1.795,1.30474 1.57063,0.21745 4.26313,-0.65237 6.95563,-0.43491 3.14126,-1.08728 0.8975,-1.08728 0,-1.30474 -3.36563,-2.82694 -4.93626,-2.60948 -2.46813,-2.17456 -0.67312,-1.30474 0.22437,-0.65237 1.34625,-1.08728 5.16064,0.65237 6.50688,1.52219 5.38501,0.65237 1.34625,-0.86982 0.44875,-1.5222 -2.6925,-4.13167 -4.48751,-4.56659 -2.01938,-3.26185 -0.22437,-1.52219 0.44875,-0.65237 1.34625,-0.86983 4.71188,1.08729 5.83376,1.9571 4.93626,1.30474 1.57063,-0.65237 1.12187,-1.30474 -0.8975,-4.78404 -2.24375,-5.43641 -0.67313,-3.4793 0.22438,-1.5222 0.67312,-0.65237 1.79501,-0.21746 4.26313,2.39203 4.71188,3.69676 4.48751,2.60947 1.795,-0.43491 1.34625,-1.08728 1.12188,-4.78404 0.67313,-6.08879 1.34625,-4.56658 1.57062,-0.86983 1.57063,-0.21746 3.59001,2.60948 3.81438,3.69676 3.59,2.60948 1.79501,0 1.34625,-0.65237 0.22437,-3.69676 -0.67312,-4.56659 0.22437,-2.82693 0.8975,-1.08728 0.89751,-0.21746 1.57062,0.21746 2.91688,3.69676 2.46813,5.0015 2.91688,3.91421 1.795,0.43492 1.79501,-0.43492 2.91688,-3.69676 2.46812,-5.0015 2.69251,-3.69676 1.795,-0.21745 1.795,0.43491 2.91688,3.4793 2.69251,4.34913 3.14125,3.26185 1.57063,0.86983 1.795,-0.21746 2.24376,-3.04439 2.01937,-4.13167 2.24376,-2.82694 1.57062,0.21746 1.57063,0.86982 0.8975,4.34913 -0.22437,5.21896 0.8975,4.56659 1.34625,0.86982 2.01938,0.43492 4.71188,-2.17457 5.16063,-3.04439 4.71189,-1.95711 1.795,0.21746 1.12188,1.08728 -0.22438,3.4793 -1.795,4.34913 -0.44875,3.69677 1.12187,1.08728 1.79501,0.86982 4.71188,-0.21745 5.38501,-0.65237 4.71188,0 1.57063,0.86982 0.8975,1.08729 -1.34625,2.60947 -2.69251,2.82694 -1.34625,2.60948 0.67313,1.30474 1.57062,0.86982 5.16059,0 5.8338,-1.08728 4.9363,0 1.3462,1.08728 0.4488,1.30474 -2.6925,3.69676 -4.2632,3.69676 -2.9168,3.69676 0.4487,1.5222 1.3463,1.08728 5.385,1.30474 6.7312,0.65237 5.385,1.30474 1.1219,1.30474 0.2244,1.30474 -3.3656,3.26184 -5.1607,3.26185 -3.59,3.26185 -0.2244,1.52219 0.8975,1.30474 4.7119,0.43492 5.385,-0.21746 4.2632,0.65237 0.6731,1.30474 -0.2244,1.52219 -3.59,1.95711 -5.1606,1.5222 -3.8144,1.95711 -0.4488,1.30473 0.2244,1.30474 2.9169,1.95711 6.5069,2.82694 3.8144,1.95711 4.7118,-0.21746 8.5263,0.86982 4.0388,-0.86982 0.8975,-1.30474 0.2243,-0.86983 -0.6731,-1.73965 -3.1412,-2.17456 -5.6094,-2.82694 -3.1413,-2.39202 -0.8975,-1.73965 0.2244,-0.86983 1.1219,-1.95711 5.8337,-2.82693 7.4044,-2.60948 5.8338,-3.04439 0.6731,-1.95711 0,-0.86982 -1.3463,-1.95711 -3.8143,-2.39202 -7.18,-3.26185 -4.2632,-2.60948 -1.5706,-1.73965 -0.2244,-1.08728 0.2244,-0.86983 1.3463,-1.73965 3.59,-1.73965 6.2825,-2.17457 3.3656,-1.73965 1.3462,-1.73965 0,-0.86983 -0.2243,-1.08728 -1.5707,-1.08728 -4.0387,-0.21746 -6.7313,0.21746 -4.0387,-0.21746 -1.795,-1.08728 -0.4488,-0.86983 -0.2244,-1.08728 1.1219,-1.95711 3.59,-3.26185 6.0582,-4.34913 3.3656,-3.04439 0.8975,-1.95711 -0.2244,-1.08728 -0.4487,-0.86983 -2.2438,-1.30473 -4.9362,-0.86983 -8.0776,-0.86983 -6.7312,-1.52219 -1.5706,-1.5222 -0.2244,-0.86982 0.4487,-2.17457 2.9169,-3.69676 5.1606,-5.0015 2.6925,-3.4793 0.4488,-2.17457 -0.4488,-0.86982 -0.6731,-0.86983 -2.0194,-0.65237 -4.7118,0.21746 -6.9557,1.30474 -6.2825,0.43491 -1.795,-1.30474 -0.4487,-0.86983 -0.2244,-1.52219 1.5706,-2.82694 3.3656,-3.4793 1.3463,-2.60948 -0.2244,-1.52219 -0.6731,-0.86983 -2.0194,-1.08728 -5.6094,0 -6.2825,1.08728 -5.83373,0.21746 -2.01938,-0.86983 -0.8975,-0.86982 -0.44875,-1.73966 0.67312,-3.69676 2.01938,-5.65387 0.44875,-3.4793 -0.67313,-1.73965 -0.8975,-0.65237 -0.8975,-0.43491 -2.46813,0.43491 -4.26313,2.17456 -6.28251,4.13168 -5.83376,2.82693 -2.24375,-0.43491 -0.8975,-0.43491 -1.12188,-2.17457 -0.44875,-4.34913 0.22438,-6.95861 -0.67313,-4.34913 -1.12188,-1.95711 -1.12187,-0.43491 -0.44875,-0.21746 -0.44876,0 z"
       style="fill:#79602d;stroke:none" />
    <text
       xml:space="preserve"
       style="font-size:64px;font-style:normal;font-variant:normal;font-weight:normal;font-stretch:normal;text-align:start;line-height:125%;letter-spacing:0px;word-spacing:0px;writing-mode:lr-tb;text-anchor:start;fill:#000000;fill-opacity:1;stroke:none;font-family:Moria Citadel;-inkscape-font-specification:Moria Citadel"
       x="42.857143"
       y="98.380196"
       id="text4745"
       sodipodi:linespacing="125%"
       transform="translate(0,308.2677)"><tspan
         sodipodi:role="line"
         id="tspan4747"
         x="42.857143"
         y="98.380196" /></text>
    <g
       id="g6481"
       transform="translate(-354.28572,37.142857)">
      <path
         style="fill:#e4d4b3;stroke:#060000;stroke-width:4.27027702"
         d="m 466.52591,815.57181 4.28195,2.12931 3.09251,1.65613 4.99561,4.73183 2.61675,5.67818 0,5.91476 -0.95154,2.83909 -0.47578,0.94637 -1.42731,2.60249 -4.75773,3.54887 -6.18503,1.41954 -6.66081,-0.94636 -3.56829,-1.41954 -4.28196,-1.89273 -3.09252,-1.89273 -4.99561,-4.73181 -2.61675,-5.67818 0,-5.91477 0.95155,-2.83909 0.47577,-0.70978 1.42731,-2.60249 4.75773,-3.54887 6.18505,-1.41954 6.6608,0.70977 3.5683,1.41955 z"
         id="path674-8"
         inkscape:connector-curvature="0" />
      <path
         style="fill:#e4d4b3;stroke:#060000;stroke-width:4.27027702"
         d="m 678.95823,814.15226 -4.28195,2.12932 -3.3304,1.65613 -4.75773,4.96841 -2.61674,5.44159 -0.23789,5.91477 1.18943,2.83909 0.23789,0.94636 1.6652,2.6025 4.75772,3.54886 6.18504,1.41955 6.66082,-0.94636 3.3304,-1.18296 4.28195,-2.12932 3.33041,-1.89272 4.75772,-4.73182 2.61675,-5.67818 0.23788,-5.91477 -0.95155,-2.6025 -0.47576,-0.94636 -1.6652,-2.6025 -4.75773,-3.54886 -5.94715,-1.41955 -6.8987,0.70978 -3.33041,1.41954 z"
         id="path676-5"
         inkscape:connector-curvature="0" />
      <g
         id="g3093"
         transform="matrix(0.78824533,0,0,0.11387568,288.85595,720.07284)">
        <path
           id="path4172"
           sodipodi:nodetypes="ccccc"
           style="fill:#cccccc;stroke:#000000;stroke-width:4.17689991;stroke-linecap:round"
           d="M 268.78,431.6 237.45,487.08 481,488.04 452.83,424.95 268.78,431.6 z"
           inkscape:connector-curvature="0" />
        <path
           id="path5243"
           sodipodi:nodetypes="ccccc"
           style="fill:#e6e6e6"
           d="m 265.83,473.65 188.67,-3.14 -16.37,-31.69 -151.73,0.26 -20.57,34.57 z"
           inkscape:connector-curvature="0" />
      </g>
      <path
         style="fill:#b9c8ca;stroke:#000000;stroke-width:4.98198986"
         d="m 536.46443,727.7966 -35.68292,-17.27113 -1.90309,-0.70978 -4.28195,0.2366 -7.37447,4.02204 -11.41853,11.11977 -11.18066,16.79795 -5.23349,9.93682 -5.94715,12.06613 -4.75773,10.41 -6.18504,18.92727 -1.90308,15.85158 1.6652,8.28068 2.37886,3.54886 1.6652,0.94637 35.68293,17.27112 1.90308,0.70978 4.28196,-0.23659 7.37446,-4.02205 11.18065,-11.11976 11.41854,-16.56137 5.23349,-10.1734 5.94716,-12.06613 4.75772,-10.41 5.94715,-18.92727 2.14098,-15.85158 -1.66521,-8.28068 -2.37886,-3.54886 -1.6652,-0.94637 z"
         id="path678-6"
         inkscape:connector-curvature="0" />
      <path
         style="fill:#897cc4;stroke:#000000;stroke-width:5.69370317"
         d="m 574.28832,812.25953 3.09253,0 17.1278,0.47319 22.83707,3.07567 13.55951,3.07569 11.41854,3.78545 9.03967,4.73182 6.18504,5.205 3.3304,5.44158 0.47578,3.07569 0,47.08157 -0.23788,2.83909 -3.33041,5.67818 -6.42293,5.205 -9.03967,4.49523 -11.41854,4.02204 -13.32163,3.07568 -23.07495,3.07568 -17.1278,0.47319 -2.85463,0 -17.12781,-0.47319 -23.07496,-3.07568 -13.32162,-3.07568 -11.41853,-3.78546 -9.03968,-4.73181 -6.42292,-5.205 -3.33041,-5.67818 -0.23788,-2.83909 -0.23789,-47.08157 0.47577,-2.83909 3.33041,-5.67818 6.18504,-5.205 9.03968,-4.73182 11.41853,-3.78545 13.32162,-3.07569 23.07495,-3.07567 17.1278,-0.47319 z"
         id="path680-9"
         inkscape:connector-curvature="0" />
      <path
         style="fill:none;stroke:none"
         d="M 575.47776,912.57405 574.7641,880.63428"
         id="path682-7"
         inkscape:connector-curvature="0" />
      <path
         style="fill:none;stroke:#000000;stroke-width:3.55856419"
         d="M 575.47776,912.57405 574.7641,880.63428"
         id="path684-1"
         inkscape:connector-curvature="0" />
      <path
         style="fill:#c6bca0;stroke:#000000;stroke-width:4.74475241"
         d="m 583.80377,919.90837 0,-0.94637 1.42733,-7.09773 3.80617,-7.33432 4.28195,-4.73181 6.18504,-3.78546 8.08813,-2.60249 5.23349,-0.47318 6.8987,0 11.41854,1.41955 8.5639,3.07567 6.66081,4.02205 6.18504,6.86113 3.3304,6.86113 0,0.70978 0.23789,0.70977 -1.18943,1.41954 -4.28195,1.89274 -15.70048,3.31226 -27.83268,2.12932 -16.65203,-1.41954 -4.99561,-1.65614 -1.66521,-1.41955 0,-0.94635 z"
         id="path686-5"
         inkscape:connector-curvature="0" />
      <path
         style="fill:#c6bca0;stroke:#000000;stroke-width:4.74475241"
         d="m 567.38963,919.90837 -0.23788,-0.94637 -1.42733,-6.86113 -3.80617,-6.86114 -4.28195,-4.49522 -6.18504,-3.78546 -8.32601,-2.36591 -5.2335,-0.47318 -6.89869,0 -11.41854,1.41955 -8.80179,2.83909 -6.42293,4.02204 -6.42292,6.38795 -3.33041,6.62455 0,0.70977 -0.23789,0.70977 1.18943,1.18295 4.28196,1.89274 15.93837,3.31226 28.07056,1.89273 16.65203,-1.18295 4.99561,-1.65614 1.66521,-1.65613 0.23788,-0.70977 z"
         id="path688-0"
         inkscape:connector-curvature="0" />
      <path
         style="fill:#b9c8ca;stroke:#000000;stroke-width:4.98198986"
         d="m 600.4558,726.85023 35.68293,-17.27112 1.90308,-0.70977 4.28196,0.47317 7.37447,3.78546 11.41854,11.35636 11.18064,16.56135 5.23349,9.93683 5.94716,12.06613 4.75772,10.40999 6.18504,19.16386 1.90309,15.615 -1.66521,8.28067 -2.37886,3.54887 -1.6652,0.94636 -35.68292,17.50772 -1.90309,0.47319 -4.28195,-0.23659 -7.37447,-4.02205 -11.18065,-11.11977 -11.41854,-16.56135 -5.23349,-10.17341 -5.94715,-12.06614 -4.75773,-10.1734 -6.18503,-19.16386 -1.9031,-15.85159 1.66521,-8.04408 2.37886,-3.78546 1.6652,-0.94637 z"
         id="path690-7"
         inkscape:connector-curvature="0" />
      <path
         style="fill:#b9c8ca;stroke:#000000;stroke-width:5.93094015"
         d="m 573.33679,678.8223 -0.47578,0 -0.47577,0 -1.42731,0 0,0 -7.85025,0.94636 -14.98682,4.96841 -13.79741,8.04408 -11.8943,10.64659 -5.2335,6.15137 -5.23349,6.62454 -8.80179,14.19545 -7.37447,14.90523 -6.18504,15.61499 -4.75772,16.08818 -3.5683,16.56136 -3.09251,24.84204 -0.71366,16.79794 0.23788,8.75387 0,13.72226 1.42733,8.51727 1.6652,3.78546 6.6608,3.78545 16.41415,5.20499 27.35691,4.25864 16.41414,1.89273 9.75333,0.23659 13.55952,0 0,0 1.42731,0 1.42732,0 0.23788,0 0,0 13.55952,0 9.75333,-0.23659 16.41414,-1.89273 27.35691,-4.25864 16.65203,-5.20499 6.6608,-3.78545 1.42732,-3.78546 1.42733,-8.51727 0.23788,-13.72226 0,-8.75387 -0.47578,-16.79794 -3.3304,-24.84204 -3.56829,-16.56136 -4.75772,-16.08818 -5.94716,-15.61499 -7.37447,-14.90523 -9.03968,-14.19545 -5.23349,-6.62454 -4.9956,-6.15137 -12.1322,-10.64659 -13.55952,-8.28067 -15.2247,-4.73182 -7.85025,-0.94636 0,0 -0.71365,0 z"
         id="path692-7"
         inkscape:connector-curvature="0" />
      <rect
         transform="matrix(0.70625656,0.70795598,-0.71180139,0.7023808,0,0)"
         y="106.70621"
         x="921.41748"
         height="23.688461"
         width="23.687445"
         id="rect5318"
         style="fill:#312b2a;fill-opacity:1;stroke:#000000;stroke-width:7.27534103;stroke-linecap:butt;stroke-linejoin:round;stroke-miterlimit:4;stroke-opacity:1;stroke-dasharray:none;stroke-dashoffset:0" />
      <path
         style="fill:#e4d4b3;stroke:#000000;stroke-width:5.69370317"
         d="m 566.91386,563.36597 8.5639,0 9.75334,0.23659 18.55511,3.31227 17.1278,6.15136 15.22472,8.75387 12.84584,11.11976 10.22911,13.24909 7.13659,14.66864 3.80618,15.85157 0.23788,8.51727 0,5.67818 -0.23788,8.51727 -3.80618,15.85159 -7.13659,14.66863 -10.22911,13.2491 -12.84584,11.11976 -15.22472,8.75387 -17.1278,6.15136 -18.55511,3.31226 -9.75334,0.2366 -8.5639,0 -9.75334,-0.2366 -18.793,-3.31226 -16.88991,-6.15136 -15.22472,-8.75387 -12.84585,-11.11976 -10.46699,-13.2491 -7.13658,-14.66863 -3.80618,-15.85159 -0.23789,-8.51727 0,-5.67818 0.23789,-8.51727 3.80618,-15.85157 7.13658,-14.66864 10.46699,-13.24909 12.84585,-11.11976 15.22472,-8.75387 16.88991,-6.15136 18.793,-3.31227 9.75334,-0.23659 z"
         id="path694-2"
         inkscape:connector-curvature="0" />
      <path
         style="fill:#36201d;stroke:#060606;stroke-width:2.84685159"
         d="m 569.7685,557.92438 -9.75334,0.47318 -22.3613,5.44159 -21.40975,8.99045 -13.08374,8.51727 -6.18504,6.38795 -2.14097,3.31228 -4.99562,5.44159 -7.37447,10.64658 -6.42292,15.3784 -3.09252,10.17341 9.03968,-8.51727 13.5595,-12.06613 5.94716,-2.6025 3.80618,0.23659 1.6652,0.94637 6.18504,3.78545 15.4626,6.38796 17.60357,4.9684 18.31723,3.07568 9.03968,0.70977 10.467,-0.23658 22.36129,-3.31228 21.17187,-5.44159 17.36568,-7.33432 5.94716,-4.02204 8.5639,6.15136 9.75333,7.8075 -0.95155,-6.15136 -3.3304,-10.17341 -4.9956,-8.51727 -5.94716,-6.86113 -3.56829,-2.6025 -3.80619,-4.02205 -8.08812,-7.09772 -13.08374,-8.51727 -19.50666,-7.33431 -20.69609,-3.54887 -10.467,-0.47318 -2.37886,0 -2.61674,0 z"
         id="path718-8"
         inkscape:connector-curvature="0" />
      <path
         style="fill:#000000;stroke:none"
         d="m 621.53366,671.07766 -0.47578,3.31227 -2.61674,3.54886 -2.61675,1.18296 -1.42731,0.23658 -1.42733,-0.23658 -2.61674,-1.18296 -2.61675,-3.54886 -0.47577,-3.31227 0.47577,-3.31227 2.61675,-3.78546 2.61674,-1.18295 1.42733,0 1.42731,0 2.61675,1.18295 2.61674,3.78546 0.47578,3.31227 z"
         id="path360-2"
         inkscape:connector-curvature="0" />
      <path
         style="fill:#000000;stroke:none"
         d="m 554.94342,672.68488 -0.47576,3.31228 -2.85464,3.54887 -2.37887,1.18295 -1.42731,0.23659 -1.6652,-0.23659 -2.37886,-1.18295 -2.85464,-3.54887 -0.23789,-3.31228 0.23789,-3.31226 2.85464,-3.54887 2.37886,-1.41954 1.6652,0 1.42731,0 2.37887,1.41954 2.85464,3.54887 0.47576,3.31226 z"
         id="path362-1"
         inkscape:connector-curvature="0" />
      <path
         sodipodi:nodetypes="cc"
         style="fill:none;stroke:#000000;stroke-width:6.16817808"
         d="m 520.76148,661.9081 39.5069,0.47848"
         id="path364-3"
         inkscape:connector-curvature="0" />
      <path
         sodipodi:nodetypes="cc"
         style="fill:none;stroke:#000000;stroke-width:7.12688208"
         d="m 590,662.36218 37.25296,0.93013"
         id="path366-6"
         inkscape:connector-curvature="0" />
      <rect
         transform="matrix(0.38239259,0.92399995,-0.38754952,0.92184888,0,0)"
         y="-340.18814"
         x="1158.3846"
         height="39.603127"
         width="39.822838"
         id="rect5318-3"
         style="fill:#312b2a;fill-opacity:1;stroke:#000000;stroke-width:8.63050747;stroke-linecap:butt;stroke-linejoin:round;stroke-miterlimit:4;stroke-opacity:1;stroke-dasharray:none;stroke-dashoffset:0" />
      <path
         style="fill:#ac646d;stroke:#000000;stroke-width:3.40323019"
         d="m 584.40307,706.71213 0,1.32601 -1.22282,2.65201 -2.13995,1.89429 -2.90422,1.13658 -1.68139,0.18943 -1.52854,-0.18943 -2.90421,-1.13658 -2.13995,-1.89429 -1.22283,-2.65201 -0.15285,-1.32601 0.15285,-1.51543 1.22283,-2.65201 2.13995,-1.89429 2.90421,-1.13658 1.52854,-0.18943 1.68139,0.18943 2.90422,1.13658 2.13995,1.89429 1.22282,2.65201 0,1.51543 z"
         id="path960"
         inkscape:connector-curvature="0" />
    </g>
    <path
       inkscape:connector-curvature="0"
       id="path310"
       d="m 843.6241,879.52633 1.58987,2.95261 4.99674,4.76962 6.13236,3.17974 6.58661,0.68138 3.40686,-0.45425 2.95262,-1.13563 4.54249,-3.63399 2.49837,-4.99674 -0.22712,-5.90523 -1.36275,-3.17975 -1.58987,-2.95262 -4.99674,-4.76961 -6.13236,-2.95262 -6.81374,-0.9085 -3.17974,0.45425 -3.17974,1.13563 -4.54249,3.63399 -2.27125,4.99674 0.22713,6.13236 1.36275,2.95262 z"
       style="fill:#ab926c;stroke:#000000;stroke-width:4.99673939" />
    <path
       inkscape:connector-curvature="0"
       id="path312"
       d="m 894.72711,878.16358 -0.9085,1.13562 -4.76962,0.45425 -11.81047,-2.27124 -18.62421,-7.04086 -10.44772,-6.13237 -3.40687,-3.63399 0,-1.58987 4.54249,-18.16996 8.63073,-28.16344 8.4036,-19.98695 7.72224,-13.17322 7.49511,-7.72223 6.35948,-3.40687 8.17648,-0.45425 3.86112,0.9085 2.27125,2.04412 3.40686,6.13236 1.817,8.63073 0.45425,10.90198 -1.58987,20.89545 -6.58661,37.47554 -4.99674,23.1667 z"
       style="fill:#db2944;stroke:#000000;stroke-width:4.31536531" />
    <path
       inkscape:connector-curvature="0"
       id="path314"
       d="m 939.92488,868.85147 -2.72549,0 -15.44447,0.45425 -20.66833,2.7255 -12.0376,2.95262 -10.2206,3.63399 -8.17648,4.31536 -5.90524,4.76962 -2.95261,5.22386 -0.22713,2.7255 0,43.83502 0.22713,2.7255 2.95261,5.22386 5.67812,4.76961 8.17648,4.31537 10.2206,3.63399 12.0376,2.7255 20.66833,2.95261 15.44446,0.22713 2.7255,0 15.44446,-0.22713 20.66833,-2.95261 12.0376,-2.7255 10.44773,-3.63399 8.17652,-4.31537 5.6781,-4.76961 2.9526,-5.22386 0.2271,-2.7255 0,-43.83502 -0.2271,-2.7255 -2.9526,-5.22386 -5.6781,-4.76962 -8.17652,-4.31536 -10.22061,-3.63399 -12.03759,-2.95262 -20.66833,-2.7255 -15.44447,-0.45425 z"
       style="fill:#231d49;stroke:#000000;stroke-width:5.2238636" />
    <path
       inkscape:connector-curvature="0"
       id="path316"
       d="m 905.62908,961.29114 0.68138,-30.88893"
       style="fill:none;stroke:none" />
    <path
       inkscape:connector-curvature="0"
       id="path318"
       d="m 905.62908,961.29114 0.68138,-30.88893"
       style="fill:none;stroke:#000000;stroke-width:3.4068675" />
    <path
       inkscape:connector-curvature="0"
       id="path320"
       d="m 931.29415,753.01798 0.45425,0 0.22712,0 0.22713,0 0.22712,0 0.45425,0 0.45425,0 0,0 6.58661,0.45425 12.9461,4.08824 12.0376,7.04086 10.44772,9.31211 4.54249,5.45098 4.54249,5.67812 7.94936,12.49184 6.81373,13.17322 5.45103,13.8546 6.3594,21.3497 4.9968,29.75331 0.9085,14.76309 0,7.94936 0.4542,12.0376 -1.1356,7.72223 -1.1356,3.40687 -5.6781,3.40687 -13.85462,4.99673 -23.39382,4.31537 -13.85459,2.04412 -8.40361,0.45425 -11.58335,0.22712 0,0 -1.13562,0.22713 -1.13563,0 -0.22712,0 0,0 -11.58335,0.22712 -8.40361,-0.22712 -14.08171,-1.13562 -23.39383,-3.40687 -14.08172,-4.08824 -5.90523,-3.17975 -1.36275,-3.40686 -1.58987,-7.72224 -0.22713,-12.03759 -0.45424,-7.94936 0,-14.99022 3.17974,-29.75331 5.22386,-21.80395 4.76962,-13.85459 6.13236,-13.62747 7.26798,-12.71897 4.08824,-5.90524 4.31537,-5.67811 9.99348,-9.76636 11.35622,-7.49511 12.71897,-4.76961 6.81374,-0.9085 0,0 0.22712,0 0.45425,0 z"
       style="fill:#db2944;stroke:#000000;stroke-width:5.2238636" />
    <path
       inkscape:connector-curvature="0"
       id="path322"
       d="m 834.53912,958.56565 0.45424,-2.49837 6.58661,-8.85785 4.54249,-3.17975 6.13237,-2.27124 7.72223,-0.9085 4.76961,0.22712 6.35949,0.68138 9.99348,2.49837 7.72223,3.40686 5.22386,4.08825 4.76962,5.90523 2.04412,5.90524 0,0.45425 -0.22713,1.13562 -5.22386,1.36275 -14.76309,0.68137 -25.66507,-1.58987 -14.99022,-2.95262 -4.31536,-2.04412 -1.13562,-1.36275 0,-0.68137 z"
       style="fill:#3e432a;stroke:#000000;stroke-width:5.45098829" />
    <path
       inkscape:connector-curvature="0"
       id="path324"
       d="m 1024.8694,900.87603 -2.2712,2.49837 -5.6781,3.86111 -6.5866,2.04412 -6.5866,-0.22712 -3.1798,-1.13562 -2.9526,-1.58987 -3.86111,-4.31537 -1.36275,-5.45099 1.13562,-5.90523 1.817,-2.7255 2.04412,-2.72549 5.67812,-3.86112 6.5866,-2.04412 6.8137,0.45425 3.1798,1.13562 2.7255,1.36275 3.8611,4.31537 1.5899,5.45098 -1.3628,5.90524 -1.5899,2.95262 z"
       style="fill:#ab926c;stroke:#000000;stroke-width:4.99673939" />
    <path
       inkscape:connector-curvature="0"
       id="path326"
       d="m 986.4854,889.29268 0.9085,1.36275 5.45099,0.90849 13.40031,-0.90849 21.804,-4.99674 12.4918,-5.22387 4.3154,-3.63399 0,-1.58987 -2.7255,-19.53271 -6.5866,-30.6618 -7.268,-22.03108 -7.4951,-14.76309 -7.268,-8.85786 -7.0408,-4.54249 -9.08502,-1.36274 -4.31537,0.45425 -2.95262,0.90849 -4.54249,4.99674 -3.17974,8.40361 -1.81699,11.58335 -0.45425,22.93957 3.40686,41.33666 2.95262,25.21082 z"
       style="fill:#db2944;stroke:#000000;stroke-width:4.7696147" />
    <path
       inkscape:connector-curvature="0"
       id="path328"
       d="m 949.23699,626.05539 -8.17649,0 -9.3121,0.45425 -17.71571,2.95262 -16.35296,6.13236 -14.53597,8.4036 -12.26473,10.67486 -9.76635,12.49184 -6.81373,14.08172 -3.634,15.44447 -0.22712,8.17648 0,5.22386 0.22712,8.17648 3.634,15.44447 6.81373,14.08172 9.76635,12.49185 12.26473,10.67485 14.53597,8.4036 16.35296,6.13237 17.71571,2.95261 9.3121,0.45425 8.17649,0 9.3121,-0.45425 17.94284,-2.95261 16.12583,-6.13237 14.53594,-8.4036 12.2648,-10.67485 9.7663,-12.49185 7.0409,-14.08172 3.634,-15.44447 0.2271,-8.17648 0,-5.22386 -0.2271,-8.17648 -3.634,-15.44447 -7.0409,-14.08172 -9.7663,-12.49184 -12.2648,-10.67486 -14.53594,-8.4036 -16.12583,-6.13236 -17.94284,-2.95262 -9.3121,-0.45425 z"
       style="fill:#ab926c;stroke:#000000;stroke-width:5.45098829" />
    <path
       inkscape:connector-curvature="0"
       id="path330"
       d="m 1002.3841,964.92514 0,-0.68138 -2.49835,-6.81373 -5.67811,-6.81374 -6.13237,-4.08824 -8.17648,-3.17974 -11.1291,-1.58987 -6.58661,0 -9.08498,0.68137 -14.76309,2.7255 -11.35622,3.86111 -8.17649,4.76962 -7.72223,7.26798 -3.63399,7.04086 0,0.68137 -0.22713,0.9085 1.58988,1.13562 5.67811,1.36275 21.12258,1.58987 36.79416,-0.9085 21.57683,-2.95261 6.35949,-2.27125 2.0441,-1.817 0,-0.90849 z"
       style="fill:#3e432a;stroke:#000000;stroke-width:5.45098829" />
    <path
       inkscape:connector-curvature="0"
       id="path370"
       d="m 923.79904,650.58484 2.27125,1.58987 3.17974,4.54249 1.13562,5.22386 -0.9085,5.22386 -1.36274,2.49837 -1.817,2.7255 -4.99674,3.40686 -5.90523,1.36275 -6.35949,-0.9085 -2.72549,-1.58987 -2.95262,-2.04412 -4.08824,-5.90524 -1.36275,-6.81373 1.13562,-7.04086 1.58987,-3.17974 2.49837,-3.40687 6.58661,-4.54249 7.72224,-1.817 7.94935,1.36275 3.86112,2.04412 3.86112,2.7255 4.99674,7.4951 2.04412,8.85786 -1.58988,9.08498 -2.04412,4.08824 -3.17974,4.54249 -8.63073,5.67811 -9.99348,2.04412 -10.2206,-1.58987 -4.76961,-2.49837 -2.49837,-1.58987 -4.31537,-4.31537 -4.54249,-7.26798 -2.49837,-11.35622 1.13562,-8.63073 2.04412,-5.67812 1.58988,-2.49837 2.72549,-3.86111 3.17974,-3.17975"
       style="fill:none;stroke:none" />
    <path
       inkscape:connector-curvature="0"
       id="path372"
       d="m 923.79904,650.58484 2.27125,1.58987 3.17974,4.54249 1.13562,5.22386 -0.9085,5.22386 -1.36274,2.49837 -1.817,2.7255 -4.99674,3.40686 -5.90523,1.36275 -6.35949,-0.9085 -2.72549,-1.58987 -2.95262,-2.04412 -4.08824,-5.90524 -1.36275,-6.81373 1.13562,-7.04086 1.58987,-3.17974 2.49837,-3.40687 6.58661,-4.54249 7.72224,-1.817 7.94935,1.36275 3.86112,2.04412 3.86112,2.7255 4.99674,7.4951 2.04412,8.85786 -1.58988,9.08498 -2.04412,4.08824 -3.17974,4.54249 -8.63073,5.67811 -9.99348,2.04412 -10.2206,-1.58987 -4.76961,-2.49837 -2.49837,-1.58987 -4.31537,-4.31537 -4.54249,-7.26798 -2.49837,-11.35622 1.13562,-8.63073 2.04412,-5.67812 1.58988,-2.49837 2.72549,-3.86111 3.17974,-3.17975"
       style="fill:#808000;fill-opacity:1;stroke:#000000;stroke-width:3.63399172" />
    <path
       inkscape:connector-curvature="0"
       id="path374"
       d="m 998.75013,641.49986 1.58987,-0.9085 2.0441,-3.17975 0.6814,-3.40686 -0.4543,-3.63399 -0.9085,-1.58988 -1.3627,-1.81699 -3.40687,-2.27125 -3.86112,-0.9085 -4.08824,0.68138 -2.04412,0.9085 -1.81699,1.36274 -2.7255,3.86112 -0.9085,4.76961 0.68138,4.76962 1.13562,2.04412 1.58987,2.27124 4.31537,3.17975 5.22386,1.13562 5.45099,-0.9085 2.49835,-1.36275 2.4984,-1.81699 3.4069,-4.99674 1.3627,-6.13236 -1.1356,-5.90524 -1.3628,-2.95262 -2.0441,-2.95262 -5.6781,-3.86111 -6.81374,-1.36275 -6.81373,1.13562 -3.17974,1.58987 -3.17975,2.49837 -4.54249,6.35949 -1.58987,7.72223 1.36275,7.72224 1.817,3.63399 1.81699,2.49837 2.27125,2.27124"
       style="fill:none;stroke:none" />
    <path
       inkscape:connector-curvature="0"
       id="path376"
       d="m 998.75013,641.49986 1.58987,-0.9085 2.0441,-3.17975 0.6814,-3.40686 -0.4543,-3.63399 -0.9085,-1.58988 -1.3627,-1.81699 -3.40687,-2.27125 -3.86112,-0.9085 -4.08824,0.68138 -2.04412,0.9085 -1.81699,1.36274 -2.7255,3.86112 -0.9085,4.76961 0.68138,4.76962 1.13562,2.04412 1.58987,2.27124 4.31537,3.17975 5.22386,1.13562 5.45099,-0.9085 2.49835,-1.36275 2.4984,-1.81699 3.4069,-4.99674 1.3627,-6.13236 -1.1356,-5.90524 -1.3628,-2.95262 -2.0441,-2.95262 -5.6781,-3.86111 -6.81374,-1.36275 -6.81373,1.13562 -3.17974,1.58987 -3.17975,2.49837 -4.54249,6.35949 -1.58987,7.72223 1.36275,7.72224 1.817,3.63399 1.81699,2.49837 2.27125,2.27124"
       style="fill:#808000;fill-opacity:1;stroke:#000000;stroke-width:3.63399172" />
    <path
       inkscape:connector-curvature="0"
       id="path378"
       d="m 891.77449,645.5881 1.58987,-1.13563 2.04412,-2.95261 0.68137,-3.634 -0.45425,-3.40686 -0.90849,-1.817 -1.36275,-1.817 -3.40687,-2.27124 -3.86111,-0.9085 -4.08824,0.68137 -2.04413,0.9085 -1.81699,1.58987 -2.7255,3.86112 -1.13562,4.54249 0.9085,4.76961 1.13562,2.27125 1.58987,2.27124 4.31537,2.95262 5.22386,1.13563 5.45099,-0.9085 2.49837,-1.13562 2.49837,-2.04413 3.40687,-4.99673 1.36274,-5.90524 -1.13562,-6.13236 -1.36275,-2.7255 -2.04412,-2.95261 -5.67811,-3.86112 -6.81373,-1.58987 -6.81374,1.13562 -3.17974,1.817 -3.17974,2.27124 -4.54249,6.58661 -1.58988,7.49511 1.36275,7.72223 1.817,3.63399 1.81699,2.49837 2.27125,2.27125"
       style="fill:none;stroke:none" />
    <path
       inkscape:connector-curvature="0"
       id="path380"
       d="m 891.77449,645.5881 1.58987,-1.13563 2.04412,-2.95261 0.68137,-3.634 -0.45425,-3.40686 -0.90849,-1.817 -1.36275,-1.817 -3.40687,-2.27124 -3.86111,-0.9085 -4.08824,0.68137 -2.04413,0.9085 -1.81699,1.58987 -2.7255,3.86112 -1.13562,4.54249 0.9085,4.76961 1.13562,2.27125 1.58987,2.27124 4.31537,2.95262 5.22386,1.13563 5.45099,-0.9085 2.49837,-1.13562 2.49837,-2.04413 3.40687,-4.99673 1.36274,-5.90524 -1.13562,-6.13236 -1.36275,-2.7255 -2.04412,-2.95261 -5.67811,-3.86112 -6.81373,-1.58987 -6.81374,1.13562 -3.17974,1.817 -3.17974,2.27124 -4.54249,6.58661 -1.58988,7.49511 1.36275,7.72223 1.817,3.63399 1.81699,2.49837 2.27125,2.27125"
       style="fill:#808000;fill-opacity:1;stroke:#000000;stroke-width:3.63399172" />
    <path
       inkscape:connector-curvature="0"
       id="path382"
       d="m 908.35458,636.04887 -1.58987,-1.36275 -2.49837,-3.40687 -0.68138,-3.86111 0.45425,-4.08824 1.13562,-2.04412 1.36275,-2.04413 3.86112,-2.49836 4.54249,-1.13563 4.54249,0.9085 2.27124,0.9085 2.27125,1.81699 2.95262,4.31537 1.13562,5.22386 -0.68138,5.45099 -1.36274,2.49837 -1.817,2.49837 -4.99674,3.63399 -5.90523,1.13562 -6.13237,-0.90849 -2.95261,-1.36275 -2.95262,-2.27125 -3.86112,-5.67811 -1.36275,-6.81373 1.13563,-7.04086 1.58987,-3.17974 2.49837,-3.17975 6.35948,-4.54249 7.72224,-1.58987 7.72223,1.36275 3.63399,1.81699 3.86112,2.7255 4.76961,7.26798 1.817,8.85786 -1.36275,8.63073 -2.04412,4.08824 -2.04412,2.95262 -2.49837,2.49837"
       style="fill:none;stroke:none" />
    <path
       inkscape:connector-curvature="0"
       id="path384"
       d="m 908.35458,636.04887 -1.58987,-1.36275 -2.49837,-3.40687 -0.68138,-3.86111 0.45425,-4.08824 1.13562,-2.04412 1.36275,-2.04413 3.86112,-2.49836 4.54249,-1.13563 4.54249,0.9085 2.27124,0.9085 2.27125,1.81699 2.95262,4.31537 1.13562,5.22386 -0.68138,5.45099 -1.36274,2.49837 -1.817,2.49837 -4.99674,3.63399 -5.90523,1.13562 -6.13237,-0.90849 -2.95261,-1.36275 -2.95262,-2.27125 -3.86112,-5.67811 -1.36275,-6.81373 1.13563,-7.04086 1.58987,-3.17974 2.49837,-3.17975 6.35948,-4.54249 7.72224,-1.58987 7.72223,1.36275 3.63399,1.81699 3.86112,2.7255 4.76961,7.26798 1.817,8.85786 -1.36275,8.63073 -2.04412,4.08824 -2.04412,2.95262 -2.49837,2.49837"
       style="fill:#808000;fill-opacity:1;stroke:#000000;stroke-width:4.0882411" />
    <path
       inkscape:connector-curvature="0"
       id="path386"
       d="m 1025.7779,654.21883 1.1357,-0.9085 1.817,-2.04412 0.6813,-3.86112 -1.1356,-2.49837 -1.1356,-1.36274 -2.9526,-1.817 -3.1798,-0.45425 -3.634,0.45425 -1.5898,0.68137 -1.5899,0.9085 -2.2713,2.95262 -0.9085,3.40687 0.6814,3.40686 0.9085,1.58988 1.3628,1.58987 3.8611,2.27124 4.3153,0.9085 4.5425,-0.68137 2.0442,-0.9085 2.2712,-1.36275 2.7255,-3.86111 1.1356,-4.31537 -0.9085,-4.31537 -1.1356,-2.04412 -1.817,-2.27124 -4.7696,-2.72549 -5.6781,-1.13563 -5.6781,0.9085 -2.7255,1.13562 -2.7255,1.817 -3.634,4.76961 -1.3628,5.45099 1.1357,5.67811 1.5898,2.49837 1.3628,2.04412 1.817,1.58988"
       style="fill:none;stroke:none" />
    <path
       inkscape:connector-curvature="0"
       id="path388"
       d="m 1025.7779,654.21883 1.1357,-0.9085 1.817,-2.04412 0.6813,-3.86112 -1.1356,-2.49837 -1.1356,-1.36274 -2.9526,-1.817 -3.1798,-0.45425 -3.634,0.45425 -1.5898,0.68137 -1.5899,0.9085 -2.2713,2.95262 -0.9085,3.40687 0.6814,3.40686 0.9085,1.58988 1.3628,1.58987 3.8611,2.27124 4.3153,0.9085 4.5425,-0.68137 2.0442,-0.9085 2.2712,-1.36275 2.7255,-3.86111 1.1356,-4.31537 -0.9085,-4.31537 -1.1356,-2.04412 -1.817,-2.27124 -4.7696,-2.72549 -5.6781,-1.13563 -5.6781,0.9085 -2.7255,1.13562 -2.7255,1.817 -3.634,4.76961 -1.3628,5.45099 1.1357,5.67811 1.5898,2.49837 1.3628,2.04412 1.817,1.58988"
       style="fill:#808000;fill-opacity:1;stroke:#000000;stroke-width:3.63399172" />
    <path
       inkscape:connector-curvature="0"
       id="path390"
       d="m 963.09158,635.36749 1.817,-1.13562 2.27124,-3.40687 0.9085,-3.86111 -0.68137,-4.08824 -0.9085,-1.817 -1.36275,-1.817 -3.86112,-2.72549 -4.54249,-0.9085 -4.54249,0.68138 -2.04412,1.13562 -2.27124,1.58987 -2.95262,4.31537 -1.13562,4.99673 0.9085,5.45099 1.13562,2.27125 1.81699,2.72549 4.99674,3.40687 5.90524,1.13562 5.90524,-0.9085 2.72549,-1.58987 2.95262,-2.04412 3.63399,-5.45099 1.58987,-6.81373 -1.13562,-6.81374 -1.58987,-2.95261 -2.49837,-3.40687 -6.35949,-4.31537 -7.49511,-1.58987 -7.4951,1.36275 -3.634,1.81699 -3.63399,2.7255 -4.76961,7.04086 -1.817,8.63073 1.36275,8.63073 2.27124,3.86112 1.817,2.95261 2.49837,2.49837"
       style="fill:none;stroke:none" />
    <path
       inkscape:connector-curvature="0"
       id="path392"
       d="m 963.09158,635.36749 1.817,-1.13562 2.27124,-3.40687 0.9085,-3.86111 -0.68137,-4.08824 -0.9085,-1.817 -1.36275,-1.817 -3.86112,-2.72549 -4.54249,-0.9085 -4.54249,0.68138 -2.04412,1.13562 -2.27124,1.58987 -2.95262,4.31537 -1.13562,4.99673 0.9085,5.45099 1.13562,2.27125 1.81699,2.72549 4.99674,3.40687 5.90524,1.13562 5.90524,-0.9085 2.72549,-1.58987 2.95262,-2.04412 3.63399,-5.45099 1.58987,-6.81373 -1.13562,-6.81374 -1.58987,-2.95261 -2.49837,-3.40687 -6.35949,-4.31537 -7.49511,-1.58987 -7.4951,1.36275 -3.634,1.81699 -3.63399,2.7255 -4.76961,7.04086 -1.817,8.63073 1.36275,8.63073 2.27124,3.86112 1.817,2.95261 2.49837,2.49837"
       style="fill:#808000;fill-opacity:1;stroke:#000000;stroke-width:4.0882411" />
    <path
       inkscape:connector-curvature="0"
       id="path394"
       d="m 869.28916,700.77935 0.22713,2.72549 3.17974,3.86112 2.49837,0.22712 2.27125,-0.22712 3.17974,-3.86112 0.45425,-2.72549 -0.45425,-2.7255 -3.17974,-3.86111 -2.27125,-0.22713 -2.49837,0.22713 -3.17974,3.86111 -0.22713,2.7255 z"
       style="fill:#000000;stroke:none" />
    <path
       inkscape:connector-curvature="0"
       id="path396"
       d="m 928.11441,702.59634 0.22712,2.7255 3.17974,3.86111 2.49837,0.45425 2.27125,-0.45425 3.17974,-3.86111 0.45425,-2.7255 -0.45425,-2.72549 -3.17974,-3.63399 -2.27125,-0.45425 -2.49837,0.45425 -3.17974,3.63399 -0.22712,2.72549 z"
       style="fill:#000000;stroke:none" />
    <path
       inkscape:connector-curvature="0"
       id="path398"
       d="m 955.14222,698.28098 -29.29906,-0.22713"
       style="fill:none;stroke:#000000;stroke-width:5.2238636" />
    <path
       inkscape:connector-curvature="0"
       id="path400"
       d="m 896.5441,696.69111 -29.07193,-0.22713"
       style="fill:none;stroke:#000000;stroke-width:5.2238636" />
    <path
       inkscape:connector-curvature="0"
       id="path402-0"
       d="m 916.77805,738.97081 c -5.75382,6.81543 -11.50764,3.8668 -17.26146,2.49837"
       style="fill:none;stroke:#000000;stroke-width:4.54249001"
       sodipodi:nodetypes="cc" />
    <path
       inkscape:connector-curvature="0"
       id="path404"
       d="m 1016.9201,724.62742 2.0441,1.36275 5.2239,-0.9085 2.2712,-1.817 1.1356,-1.58987 1.3628,-3.17974 0,-3.17974 -1.3628,-2.95262 -1.1356,-1.13562 -1.3627,-1.13563 -3.634,-0.9085 -2.0441,0"
       style="fill:none;stroke:#000000;stroke-width:3.86111641" />
    <path
       inkscape:connector-curvature="0"
       id="path406"
       d="m 1034.4087,671.02604 1.817,-1.36275 0.9085,-3.86111 -0.9085,-1.817 -1.817,-1.817 -4.9968,-0.90849 -2.4983,0.90849 -1.3628,0.68138 -1.5899,2.27124 -0.6813,3.86112 1.1356,2.49837 1.1356,1.13562 2.7255,1.817 4.9967,0.68137 3.4069,-1.36275 1.5899,-0.90849 2.2712,-2.95262 0.6814,-3.17975 -0.6814,-3.40686 -0.9085,-1.58987 -1.3627,-1.58988 -3.634,-2.27124 -4.3154,-0.68137 -4.3153,0.68137 -2.0442,0.9085 -2.0441,1.36274 -2.7255,3.40687 -1.1356,4.31537 0.9085,4.31536 1.1356,2.04412 1.1357,1.36275 1.3627,1.13562"
       style="fill:none;stroke:none" />
    <path
       inkscape:connector-curvature="0"
       id="path408"
       d="m 1034.4087,671.02604 1.817,-1.36275 0.9085,-3.86111 -0.9085,-1.817 -1.817,-1.817 -4.9968,-0.90849 -2.4983,0.90849 -1.3628,0.68138 -1.5899,2.27124 -0.6813,3.86112 1.1356,2.49837 1.1356,1.13562 2.7255,1.817 4.9967,0.68137 3.4069,-1.36275 1.5899,-0.90849 2.2712,-2.95262 0.6814,-3.17975 -0.6814,-3.40686 -0.9085,-1.58987 -1.3627,-1.58988 -3.634,-2.27124 -4.3154,-0.68137 -4.3153,0.68137 -2.0442,0.9085 -2.0441,1.36274 -2.7255,3.40687 -1.1356,4.31537 0.9085,4.31536 1.1356,2.04412 1.1357,1.36275 1.3627,1.13562"
       style="fill:#808000;fill-opacity:1;stroke:#000000;stroke-width:2.72549415" />
    <path
       inkscape:connector-curvature="0"
       id="path960-4"
       d="m 548.61799,739.52493 0,1.13038 -1.24822,2.26075 -2.18439,1.61482 -2.96453,0.96889 -1.71631,0.16148 -1.56028,-0.16148 -2.96452,-0.96889 -2.18439,-1.61482 -1.24823,-2.26075 -0.15602,-1.13038 0.15602,-1.29186 1.24823,-2.26075 2.18439,-1.61482 2.96452,-0.96889 1.56028,-0.16148 1.71631,0.16148 2.96453,0.96889 2.18439,1.61482 1.24822,2.26075 0,1.29186 z"
       style="fill:#ac646d;stroke:#000000;stroke-width:3.17463136" />
  </g>
  <g
     inkscape:groupmode="layer"
     id="layer3"
     inkscape:label="balloons"
     style="display:inline">
    <text
       xml:space="preserve"
       style="font-size:24px;font-style:normal;font-variant:normal;font-weight:normal;font-stretch:normal;text-align:start;line-height:125%;letter-spacing:0px;word-spacing:0px;writing-mode:lr-tb;text-anchor:start;fill:#000000;fill-opacity:1;stroke:none;font-family:SmackAttack BB;-inkscape-font-specification:SmackAttack BB"
       x="324.28571"
       y="64.094482"
       id="text7473"
       sodipodi:linespacing="125%"><tspan
         sodipodi:role="line"
         id="tspan7475"
         x="324.28571"
         y="64.094482" /></text>
    <text
       xml:space="preserve"
       style="font-size:24px;font-style:normal;font-variant:normal;font-weight:normal;font-stretch:normal;text-align:start;line-height:125%;writing-mode:lr-tb;text-anchor:start;fill:#afe9dd;fill-opacity:1;stroke:#000000;stroke-width:3.54330707;stroke-linecap:butt;stroke-linejoin:round;stroke-miterlimit:4;stroke-opacity:1;stroke-dasharray:none;stroke-dashoffset:0;font-family:SmackAttack BB;-inkscape-font-specification:SmackAttack BB"
       x="581.42859"
       y="134.09448"
       id="text7483"
       sodipodi:linespacing="125%"><tspan
         sodipodi:role="line"
         id="tspan7485"
         x="581.42859"
         y="134.09448" /></text>
    <text
       xml:space="preserve"
       style="font-size:24px;font-style:normal;font-variant:normal;font-weight:normal;font-stretch:normal;text-align:start;line-height:125%;writing-mode:lr-tb;text-anchor:start;fill:#afe9dd;fill-opacity:1;stroke:#000000;stroke-width:3.54330707;stroke-linecap:butt;stroke-linejoin:round;stroke-miterlimit:4;stroke-opacity:1;stroke-dasharray:none;stroke-dashoffset:0;font-family:SmackAttack BB;-inkscape-font-specification:SmackAttack BB"
       x="615.71429"
       y="65.523056"
       id="text7495"
       sodipodi:linespacing="125%"><tspan
         sodipodi:role="line"
         id="tspan7497"
         x="615.71429"
         y="65.523056" /></text>
    <text
       xml:space="preserve"
       style="font-size:24px;font-style:normal;font-variant:normal;font-weight:normal;font-stretch:normal;text-align:start;line-height:125%;writing-mode:lr-tb;text-anchor:start;fill:#afe9dd;fill-opacity:1;stroke:#000000;stroke-width:0;stroke-linecap:butt;stroke-linejoin:round;stroke-miterlimit:4;stroke-opacity:1;stroke-dasharray:none;stroke-dashoffset:0;font-family:SmackAttack BB;-inkscape-font-specification:SmackAttack BB"
       x="634.28571"
       y="66.951622"
       id="text7499"
       sodipodi:linespacing="125%"><tspan
         sodipodi:role="line"
         id="tspan7501"
         x="634.28571"
         y="66.951622" /></text>
    <text
       xml:space="preserve"
       style="font-size:24px;font-style:normal;font-variant:normal;font-weight:normal;font-stretch:normal;text-align:start;line-height:125%;writing-mode:lr-tb;text-anchor:start;fill:#ffffff;fill-opacity:1;stroke:#050005;stroke-width:3.54330707;stroke-linecap:butt;stroke-linejoin:round;stroke-miterlimit:4;stroke-opacity:1;stroke-dasharray:none;stroke-dashoffset:0;font-family:SmackAttack BB;-inkscape-font-specification:SmackAttack BB"
       x="972.85712"
       y="92.665909"
       id="text7719"
       sodipodi:linespacing="125%"><tspan
         sodipodi:role="line"
         id="tspan7721"
         x="972.85712"
         y="92.665909" /><tspan
         sodipodi:role="line"
         x="972.85712"
         y="122.66591"
         id="tspan7727" /><tspan
         sodipodi:role="line"
         id="tspan7723"
         x="972.85712"
         y="152.66591" /><tspan
         sodipodi:role="line"
         x="972.85712"
         y="182.66591"
         id="tspan7725" /></text>
    <text
       xml:space="preserve"
       style="font-size:24px;font-style:normal;font-variant:normal;font-weight:normal;font-stretch:normal;text-indent:0;text-align:start;text-decoration:none;line-height:125%;letter-spacing:normal;word-spacing:normal;text-transform:none;direction:ltr;block-progression:tb;writing-mode:lr-tb;text-anchor:start;baseline-shift:baseline;color:#000000;fill:#ffffff;fill-opacity:1;fill-rule:nonzero;stroke:#000600;stroke-width:3;stroke-linecap:butt;stroke-linejoin:round;stroke-miterlimit:4;stroke-opacity:1;stroke-dasharray:none;stroke-dashoffset:0;marker:none;visibility:visible;display:inline;overflow:visible;enable-background:accumulate;font-family:SmackAttack BB;-inkscape-font-specification:SmackAttack BB"
       x="114.28571"
       y="132.66591"
       id="text4749"
       sodipodi:linespacing="125%"><tspan
         sodipodi:role="line"
         id="tspan4751"
         x="114.28571"
         y="132.66591" /></text>
    <text
       xml:space="preserve"
       style="font-size:24px;font-style:normal;font-variant:normal;font-weight:normal;font-stretch:normal;text-indent:0;text-align:start;text-decoration:none;line-height:125%;letter-spacing:normal;word-spacing:normal;text-transform:none;direction:ltr;block-progression:tb;writing-mode:lr-tb;text-anchor:start;baseline-shift:baseline;color:#000000;fill:#ffffff;fill-opacity:1;fill-rule:nonzero;stroke:#000600;stroke-width:3;stroke-linecap:butt;stroke-linejoin:round;stroke-miterlimit:4;stroke-opacity:1;stroke-dasharray:none;stroke-dashoffset:0;marker:none;visibility:visible;display:inline;overflow:visible;enable-background:accumulate;font-family:SmackAttack BB;-inkscape-font-specification:SmackAttack BB"
       x="751.42859"
       y="144.09448"
       id="text5612"
       sodipodi:linespacing="125%"><tspan
         sodipodi:role="line"
         id="tspan5614"
         x="751.42859"
         y="144.09448" /></text>
    <text
       xml:space="preserve"
       style="font-size:24px;font-style:normal;font-variant:normal;font-weight:normal;font-stretch:normal;text-indent:0;text-align:start;text-decoration:none;line-height:125%;letter-spacing:normal;word-spacing:normal;text-transform:none;direction:ltr;block-progression:tb;writing-mode:lr-tb;text-anchor:start;baseline-shift:baseline;color:#000000;fill:#ffffff;fill-opacity:1;fill-rule:nonzero;stroke:#000600;stroke-width:3;stroke-linecap:butt;stroke-linejoin:round;stroke-miterlimit:4;stroke-opacity:1;stroke-dasharray:none;stroke-dashoffset:0;marker:none;visibility:visible;display:inline;overflow:visible;enable-background:accumulate;font-family:SmackAttack BB;-inkscape-font-specification:SmackAttack BB"
       x="748.57141"
       y="119.80877"
       id="text5616"
       sodipodi:linespacing="125%"><tspan
         sodipodi:role="line"
         id="tspan5618"
         x="748.57141"
         y="119.80877" /></text>
    <text
       xml:space="preserve"
       style="font-size:24px;font-style:normal;font-variant:normal;font-weight:normal;font-stretch:normal;text-indent:0;text-align:start;text-decoration:none;line-height:125%;letter-spacing:normal;word-spacing:normal;text-transform:none;direction:ltr;block-progression:tb;writing-mode:lr-tb;text-anchor:start;baseline-shift:baseline;color:#000000;fill:#ffffff;fill-opacity:1;fill-rule:nonzero;stroke:#000600;stroke-width:3;stroke-linecap:butt;stroke-linejoin:round;stroke-miterlimit:4;stroke-opacity:1;stroke-dasharray:none;stroke-dashoffset:0;marker:none;visibility:visible;display:inline;overflow:visible;enable-background:accumulate;font-family:SmackAttack BB;-inkscape-font-specification:SmackAttack BB"
       x="260"
       y="606.95166"
       id="text5654"
       sodipodi:linespacing="125%"><tspan
         sodipodi:role="line"
         id="tspan5656"
         x="260"
         y="606.95166" /></text>
    <path
       style="color:#000000;fill:#ffffff;fill-opacity:1;fill-rule:evenodd;stroke:#050005;stroke-width:3.81776381;stroke-linecap:butt;stroke-linejoin:round;stroke-miterlimit:4;stroke-opacity:1;stroke-dasharray:none;stroke-dashoffset:0;marker:none;visibility:visible;display:inline;overflow:visible;enable-background:accumulate"
       d="M 242.59375 24.21875 C 230.1527 24.21875 220.125 34.246451 220.125 46.6875 L 220.125 91.59375 C 220.125 104.0348 230.1527 114.0625 242.59375 114.0625 L 368.46875 114.0625 L 400 159.09375 L 391.8125 114.0625 L 466.5 114.0625 C 478.94105 114.0625 488.96875 104.0348 488.96875 91.59375 L 488.96875 46.6875 C 488.96875 34.246451 478.94105 24.21875 466.5 24.21875 L 242.59375 24.21875 z "
       id="rect7609" />
    <text
       xml:space="preserve"
       style="font-size:24px;font-style:normal;font-variant:normal;font-weight:normal;font-stretch:normal;text-indent:0;text-align:start;text-decoration:none;line-height:125%;letter-spacing:0px;word-spacing:0px;text-transform:none;direction:ltr;block-progression:tb;writing-mode:lr-tb;text-anchor:start;baseline-shift:baseline;color:#000000;fill:#000000;fill-opacity:1;fill-rule:nonzero;stroke:none;stroke-width:3;marker:none;visibility:visible;display:inline;overflow:visible;enable-background:accumulate;font-family:SmackAttack BB;-inkscape-font-specification:SmackAttack BB"
       x="240"
       y="64.094482"
       id="text7076"
       sodipodi:linespacing="125%"><tspan
         sodipodi:role="line"
         id="tspan7078"
         x="240"
         y="64.094482">jefe, que ya lo </tspan><tspan
         sodipodi:role="line"
         x="240"
         y="94.094482"
         id="tspan7080">hemos probado</tspan></text>
    <path
       style="color:#000000;fill:#ffffff;fill-opacity:1;fill-rule:evenodd;stroke:#050005;stroke-width:3.54330707;stroke-linecap:butt;stroke-linejoin:round;stroke-miterlimit:4;stroke-opacity:1;stroke-dasharray:none;stroke-dashoffset:0;marker:none;visibility:visible;display:inline;overflow:visible;enable-background:accumulate"
       d="m 310,164.09375 c -11.08,0 -20,8.92 -20,20 l 0,20 c 0,5.89428 2.53153,11.15847 6.5625,14.8125 L 275,249.09375 l 37.5,-25 37.5,0 c 11.08,0 20,-8.92 20,-20 l 0,-20 c 0,-11.08 -8.92,-20 -20,-20 l -40,0 z"
       id="rect7611"
       inkscape:connector-curvature="0" />
    <text
       xml:space="preserve"
       style="font-size:24px;font-style:normal;font-variant:normal;font-weight:normal;font-stretch:normal;text-indent:0;text-align:start;text-decoration:none;line-height:125%;letter-spacing:0px;word-spacing:0px;text-transform:none;direction:ltr;block-progression:tb;writing-mode:lr-tb;text-anchor:start;baseline-shift:baseline;color:#000000;fill:#000000;fill-opacity:1;fill-rule:nonzero;stroke:none;stroke-width:3;marker:none;visibility:visible;display:inline;overflow:visible;enable-background:accumulate;font-family:SmackAttack BB;-inkscape-font-specification:SmackAttack BB"
       x="310"
       y="204.09448"
       id="text7085"
       sodipodi:linespacing="125%"><tspan
         sodipodi:role="line"
         id="tspan7087"
         x="310"
         y="204.09448">y?</tspan></text>
    <path
       style="color:#000000;fill:#ffffff;fill-opacity:1;fill-rule:evenodd;stroke:#050005;stroke-width:3.54330707;stroke-linecap:butt;stroke-linejoin:round;stroke-miterlimit:4;stroke-opacity:1;stroke-dasharray:none;stroke-dashoffset:0;marker:none;visibility:visible;display:inline;overflow:visible;enable-background:accumulate"
       d="M 450.1875 184.09375 C 433.46612 184.09375 420 197.55987 420 214.28125 L 420 223.90625 C 420 240.62763 433.46612 254.09375 450.1875 254.09375 L 468.75 254.09375 L 495 289.09375 L 491.125 254.09375 L 679.8125 254.09375 C 696.53388 254.09375 710 240.62763 710 223.90625 L 710 214.28125 C 710 197.55987 696.53388 184.09375 679.8125 184.09375 L 450.1875 184.09375 z "
       id="rect7645" />
    <text
       xml:space="preserve"
       style="font-size:24px;font-style:normal;font-variant:normal;font-weight:normal;font-stretch:normal;text-indent:0;text-align:start;text-decoration:none;line-height:125%;letter-spacing:0px;word-spacing:0px;text-transform:none;direction:ltr;block-progression:tb;writing-mode:lr-tb;text-anchor:start;baseline-shift:baseline;color:#000000;fill:#000000;fill-opacity:1;fill-rule:nonzero;stroke:none;stroke-width:3;stroke-linecap:butt;stroke-linejoin:round;stroke-miterlimit:4;stroke-opacity:1;stroke-dasharray:none;stroke-dashoffset:0;marker:none;visibility:visible;display:inline;overflow:visible;enable-background:accumulate;font-family:SmackAttack BB;-inkscape-font-specification:SmackAttack BB"
       x="428.57144"
       y="228.38019"
       id="text7089"
       sodipodi:linespacing="125%"><tspan
         sodipodi:role="line"
         id="tspan7091"
         x="428.57144"
         y="228.38019">que es estupendo</tspan></text>
    <path
       style="color:#000000;fill:#ffffff;fill-opacity:1;fill-rule:evenodd;stroke:#050005;stroke-width:3.54330707;stroke-linecap:butt;stroke-linejoin:round;stroke-miterlimit:4;stroke-opacity:1;stroke-dasharray:none;stroke-dashoffset:0;marker:none;visibility:visible;display:inline;overflow:visible;enable-background:accumulate"
       d="M 740 84.09375 C 728.92 84.09375 720 93.01375 720 104.09375 L 720 144.09375 C 720 155.17375 728.92 164.09375 740 164.09375 L 781.8125 164.09375 L 790 209.09375 L 798.1875 164.09375 L 880 164.09375 C 891.08 164.09375 900 155.17375 900 144.09375 L 900 104.09375 C 900 93.01375 891.08 84.09375 880 84.09375 L 740 84.09375 z "
       id="rect7615" />
    <text
       xml:space="preserve"
       style="font-size:24px;font-style:normal;font-variant:normal;font-weight:normal;font-stretch:normal;text-indent:0;text-align:start;text-decoration:none;line-height:125%;letter-spacing:0px;word-spacing:0px;text-transform:none;direction:ltr;block-progression:tb;writing-mode:lr-tb;text-anchor:start;baseline-shift:baseline;color:#000000;fill:#000000;fill-opacity:1;fill-rule:nonzero;stroke:none;stroke-width:3;stroke-linecap:butt;stroke-linejoin:round;stroke-miterlimit:4;stroke-opacity:1;stroke-dasharray:none;stroke-dashoffset:0;marker:none;visibility:visible;display:inline;overflow:visible;enable-background:accumulate;font-family:SmackAttack BB;-inkscape-font-specification:SmackAttack BB"
       x="751.42859"
       y="134.09448"
       id="text7093"
       sodipodi:linespacing="125%"><tspan
         sodipodi:role="line"
         id="tspan7095"
         x="751.42859"
         y="134.09448">y rapido</tspan></text>
    <path
       style="color:#000000;fill:#ffffff;fill-opacity:1;fill-rule:evenodd;stroke:#050005;stroke-width:3.53370333;stroke-linecap:butt;stroke-linejoin:round;stroke-miterlimit:4;stroke-opacity:1;stroke-dasharray:none;stroke-dashoffset:0;marker:none;visibility:visible;display:inline;overflow:visible;enable-background:accumulate"
       d="m 853.63219,204.08895 c -12.03189,0 -21.71821,8.16983 -21.71821,18.31802 l 0,54.95403 c 0,10.14818 9.68632,18.31801 21.71821,18.31801 l 52.49702,0 7.22809,18.31801 3.08806,-18.31801 110.93254,0 c 12.0319,0 21.7183,-8.16983 21.7183,-18.31801 l 0,-54.95403 c 0,-10.14819 -9.6864,-18.31802 -21.7183,-18.31802 l -173.74571,0 z"
       id="rect7632"
       inkscape:connector-curvature="0" />
    <text
       xml:space="preserve"
       style="font-size:24px;font-style:normal;font-variant:normal;font-weight:normal;font-stretch:normal;text-indent:0;text-align:start;text-decoration:none;line-height:125%;letter-spacing:0px;word-spacing:0px;text-transform:none;direction:ltr;block-progression:tb;writing-mode:lr-tb;text-anchor:start;baseline-shift:baseline;color:#000000;fill:#000000;fill-opacity:1;fill-rule:nonzero;stroke:none;stroke-width:3;marker:none;visibility:visible;display:inline;overflow:visible;enable-background:accumulate;font-family:SmackAttack BB;-inkscape-font-specification:SmackAttack BB"
       x="940"
       y="244.09448"
       id="text7097"
       sodipodi:linespacing="125%"><tspan
         sodipodi:role="line"
         id="tspan7099"
         x="940"
         y="244.09448"
         style="text-align:center;text-anchor:middle">y mola hacer</tspan><tspan
         sodipodi:role="line"
         x="940"
         y="274.09448"
         id="tspan7619"
         style="text-align:center;text-anchor:middle">algo nuevo</tspan></text>
    <text
       xml:space="preserve"
       style="font-size:24px;font-style:normal;font-variant:normal;font-weight:normal;font-stretch:normal;text-indent:0;text-align:start;text-decoration:none;line-height:125%;letter-spacing:0px;word-spacing:0px;text-transform:none;direction:ltr;block-progression:tb;writing-mode:lr-tb;text-anchor:start;baseline-shift:baseline;color:#000000;fill:#ffffff;fill-opacity:1;fill-rule:nonzero;stroke:#000600;stroke-width:3;stroke-linecap:butt;stroke-linejoin:round;stroke-miterlimit:4;stroke-opacity:1;stroke-dasharray:none;stroke-dashoffset:0;marker:none;visibility:visible;display:inline;overflow:visible;enable-background:accumulate;font-family:SmackAttack BB;-inkscape-font-specification:SmackAttack BB"
       x="355.71429"
       y="494.09448"
       id="text7662"
       sodipodi:linespacing="125%"><tspan
         sodipodi:role="line"
         id="tspan7664"></tspan></text>
    <path
       style="color:#000000;fill:#ffffff;fill-opacity:1;fill-rule:evenodd;stroke:#050005;stroke-width:3.54330707;stroke-linecap:butt;stroke-linejoin:round;stroke-miterlimit:4;stroke-opacity:1;stroke-dasharray:none;stroke-dashoffset:0;marker:none;visibility:visible;display:inline;overflow:visible;enable-background:accumulate"
       d="M 260 464.09375 L 286.46875 499.375 C 282.49526 503.02551 280 508.24767 280 514.09375 L 280 554.09375 C 280 565.17375 288.92 574.09375 300 574.09375 L 460 574.09375 C 471.08 574.09375 480 565.17375 480 554.09375 L 480 514.09375 C 480 503.01375 471.08 494.09375 460 494.09375 L 305 494.09375 L 260 464.09375 z "
       id="rect7721" />
    <text
       xml:space="preserve"
       style="font-size:24px;font-style:normal;font-variant:normal;font-weight:normal;font-stretch:normal;text-indent:0;text-align:start;text-decoration:none;line-height:125%;letter-spacing:0px;word-spacing:0px;text-transform:none;direction:ltr;block-progression:tb;writing-mode:lr-tb;text-anchor:start;baseline-shift:baseline;color:#000000;fill:#000000;fill-opacity:1;fill-rule:nonzero;stroke:none;stroke-width:3;marker:none;visibility:visible;display:inline;overflow:visible;enable-background:accumulate;font-family:SmackAttack BB;-inkscape-font-specification:SmackAttack BB"
       x="300"
       y="524.09448"
       id="text7076-9"
       sodipodi:linespacing="125%"><tspan
         sodipodi:role="line"
         x="300"
         y="524.09448"
         id="tspan7080-5">sois unos </tspan><tspan
         sodipodi:role="line"
         x="300"
         y="554.30817"
         id="tspan7703">fenmenos</tspan></text>
  </g>
</svg>
