<?xml version="1.0" encoding="UTF-8" standalone="no"?>
<!-- Created with Inkscape (http://www.inkscape.org/) -->

<svg
   xmlns:dc="http://purl.org/dc/elements/1.1/"
   xmlns:cc="http://creativecommons.org/ns#"
   xmlns:rdf="http://www.w3.org/1999/02/22-rdf-syntax-ns#"
   xmlns:svg="http://www.w3.org/2000/svg"
   xmlns="http://www.w3.org/2000/svg"
   xmlns:sodipodi="http://sodipodi.sourceforge.net/DTD/sodipodi-0.dtd"
   xmlns:inkscape="http://www.inkscape.org/namespaces/inkscape"
   width="1052.3622"
   height="744.09448"
   id="svg5396"
   version="1.1"
   inkscape:version="0.48.4 r9939"
   sodipodi:docname="gecos-v04.svg">
  <defs
     id="defs3">
    <inkscape:perspective
       sodipodi:type="inkscape:persp3d"
       inkscape:vp_x="0 : 372.04724 : 1"
       inkscape:vp_y="0 : 1000 : 0"
       inkscape:vp_z="1052.3622 : 372.04724 : 1"
       inkscape:persp3d-origin="526.18109 : 248.03149 : 1"
       id="perspective7460" />
  </defs>
  <sodipodi:namedview
     inkscape:document-units="mm"
     id="base"
     pagecolor="#ffffff"
     bordercolor="#666666"
     borderopacity="1.0"
     inkscape:pageopacity="0"
     inkscape:pageshadow="2"
     inkscape:zoom="0.7"
     inkscape:cx="560.21255"
     inkscape:cy="424.13556"
     inkscape:current-layer="layer3"
     showgrid="true"
     units="mm"
     inkscape:window-width="1276"
     inkscape:window-height="973"
     inkscape:window-x="0"
     inkscape:window-y="0"
     inkscape:window-maximized="0">
    <inkscape:grid
       type="xygrid"
       id="grid5404"
       empspacing="5"
       visible="true"
       enabled="true"
       snapvisiblegridlinesonly="true" />
  </sodipodi:namedview>
  <metadata
     id="metadata4">
    <rdf:RDF>
      <cc:Work
         rdf:about="">
        <dc:format>image/svg+xml</dc:format>
        <dc:type
           rdf:resource="http://purl.org/dc/dcmitype/StillImage" />
        <dc:title></dc:title>
      </cc:Work>
    </rdf:RDF>
  </metadata>
  <g
     inkscape:groupmode="layer"
     id="layer2"
     inkscape:label="background"
     style="display:inline"
     sodipodi:insensitive="true">
    <rect
       style="fill:#afe9dd;fill-opacity:1;stroke:none"
       id="rect5402-2"
       width="1060"
       height="525"
       x="2.0050203e-07"
       y="-0.90550864" />
    <rect
       transform="translate(0,-308.2677)"
       style="fill:#b3b3b3;fill-opacity:1;stroke:none"
       id="rect5402"
       width="1060"
       height="240"
       x="0"
       y="812.36218" />
    <text
       xml:space="preserve"
       style="font-size:64px;font-style:normal;font-variant:normal;font-weight:normal;font-stretch:normal;text-align:start;line-height:125%;letter-spacing:0px;word-spacing:0px;writing-mode:lr-tb;text-anchor:start;fill:#000000;fill-opacity:1;stroke:none;font-family:Moria Citadel;-inkscape-font-specification:Moria Citadel"
       x="690.94434"
       y="80.424263"
       id="text6210"
       sodipodi:linespacing="125%"><tspan
         sodipodi:role="line"
         id="tspan6212"
         x="690.94434"
         y="80.424263" /></text>
    <text
       xml:space="preserve"
       style="font-size:64px;font-style:normal;font-variant:normal;font-weight:normal;font-stretch:normal;text-align:start;line-height:125%;letter-spacing:0px;word-spacing:0px;writing-mode:lr-tb;text-anchor:start;fill:#000000;fill-opacity:1;stroke:none;font-family:Moria Citadel;-inkscape-font-specification:Moria Citadel"
       x="925.29974"
       y="282.45477"
       id="text6255"
       sodipodi:linespacing="125%"><tspan
         sodipodi:role="line"
         id="tspan6257"
         x="925.29974"
         y="282.45477" /></text>
    <text
       xml:space="preserve"
       style="font-size:64px;font-style:normal;font-variant:normal;font-weight:normal;font-stretch:normal;text-align:start;line-height:125%;letter-spacing:0px;word-spacing:0px;writing-mode:lr-tb;text-anchor:start;fill:#000000;fill-opacity:1;stroke:none;font-family:Moria Citadel;-inkscape-font-specification:Moria Citadel"
       x="889.9444"
       y="448.11978"
       id="text6293"
       sodipodi:linespacing="125%"><tspan
         sodipodi:role="line"
         id="tspan6295"
         x="889.9444"
         y="448.11978" /></text>
  </g>
  <g
     inkscape:label="characters"
     inkscape:groupmode="layer"
     id="layer1"
     transform="translate(0,-308.2677)"
     style="display:inline">
    <path
       inkscape:connector-curvature="0"
       id="path674-8"
       d="m 470.50695,769.73922 4.11973,2.05986 2.97536,1.60212 4.80636,4.57749 2.51762,5.49298 0,5.72185 -0.9155,2.74649 -0.45775,0.9155 -1.37324,2.51761 -4.57749,3.43312 -5.95072,1.37324 -6.40848,-0.9155 -3.43311,-1.37324 -4.11974,-1.83099 -2.97536,-1.831 -4.80636,-4.57748 -2.51762,-5.49298 0,-5.72185 0.9155,-2.74649 0.45775,-0.68663 1.37324,-2.51761 4.57749,-3.43312 5.95073,-1.37324 6.40847,0.68662 3.43312,1.37325 z"
       style="fill:#e4d4b3;stroke:#060000;stroke-width:4.11973524" />
    <path
       inkscape:connector-curvature="0"
       id="path676-5"
       d="m 674.89158,768.36597 -4.11974,2.05987 -3.20423,1.60212 -4.57749,4.80636 -2.51761,5.2641 -0.22888,5.72186 1.14437,2.74649 0.22888,0.91549 1.60212,2.51762 4.57748,3.43311 5.95073,1.37325 6.40848,-0.9155 3.20423,-1.14437 4.11974,-2.05987 3.20424,-1.83099 4.57748,-4.57749 2.51762,-5.49298 0.22887,-5.72185 -0.9155,-2.51762 -0.45774,-0.91549 -1.60212,-2.51762 -4.57749,-3.43311 -5.72185,-1.37325 -6.63735,0.68663 -3.20424,1.37324 z"
       style="fill:#e4d4b3;stroke:#060000;stroke-width:4.11973524" />
    <path
       inkscape:connector-curvature="0"
       id="path678-6"
       d="m 537.79595,684.8269 -34.33112,-16.70781 -1.831,-0.68663 -4.11973,0.22888 -7.0951,3.89086 -10.98596,10.75708 -10.75709,16.25007 -5.03523,9.61272 -5.72185,11.67258 -4.57749,10.07046 -5.95073,18.30994 -1.83099,15.33456 1.60212,8.0106 2.28874,3.43311 1.60212,0.9155 34.33113,16.70781 1.83099,0.68663 4.11974,-0.22888 7.09509,-3.89086 10.75709,-10.75708 10.98596,-16.0212 5.03523,-9.84159 5.72186,-11.67258 4.57748,-10.07046 5.72185,-18.30994 2.05987,-15.33456 -1.60212,-8.0106 -2.28874,-3.43311 -1.60212,-0.9155 z"
       style="fill:#b9c8ca;stroke:#000000;stroke-width:4.80635786" />
    <path
       inkscape:connector-curvature="0"
       id="path680-9"
       d="m 574.18694,766.53498 2.97537,0 16.47894,0.45775 21.97192,2.97536 13.04583,2.97537 10.98596,3.66198 8.69722,4.57749 5.95072,5.03523 3.20424,5.2641 0.45775,2.97537 0,45.54596 -0.22887,2.74649 -3.20424,5.49298 -6.1796,5.03523 -8.69722,4.34861 -10.98596,3.89086 -12.81696,2.97536 -22.20079,2.97537 -16.47894,0.45775 -2.74649,0 -16.47894,-0.45775 -22.2008,-2.97537 -12.81695,-2.97536 -10.98596,-3.66199 -8.69722,-4.57748 -6.1796,-5.03523 -3.20424,-5.49298 -0.22887,-2.74649 -0.22888,-45.54596 0.45775,-2.74649 3.20424,-5.49298 5.95073,-5.03523 8.69722,-4.57749 10.98596,-3.66198 12.81695,-2.97537 22.20079,-2.97536 16.47894,-0.45775 z"
       style="fill:#897cc4;stroke:#000000;stroke-width:5.49298048" />
    <path
       inkscape:connector-curvature="0"
       id="path682-7"
       d="m 575.33132,863.57763 -0.68663,-30.89802"
       style="fill:none;stroke:none" />
    <path
       inkscape:connector-curvature="0"
       id="path684-1"
       d="m 575.33132,863.57763 -0.68663,-30.89802"
       style="fill:none;stroke:#000000;stroke-width:3.43311262" />
    <path
       inkscape:connector-curvature="0"
       id="path686-5"
       d="m 583.34191,870.67273 0,-0.9155 1.37325,-6.86623 3.66198,-7.0951 4.11974,-4.57748 5.95073,-3.66199 7.78172,-2.51761 5.03523,-0.45775 6.63735,0 10.98596,1.37325 8.23947,2.97536 6.40848,3.89086 5.95073,6.63735 3.20423,6.63735 0,0.68663 0.22888,0.68662 -1.14437,1.37324 -4.11974,1.831 -15.10569,3.20423 -26.77828,2.05987 -16.02119,-1.37324 -4.80636,-1.60212 -1.60212,-1.37325 0,-0.91549 z"
       style="fill:#c6bca0;stroke:#000000;stroke-width:4.57748365" />
    <path
       inkscape:connector-curvature="0"
       id="path688-0"
       d="m 567.54959,870.67273 -0.22887,-0.9155 -1.37325,-6.63735 -3.66198,-6.63735 -4.11974,-4.34861 -5.95073,-3.66199 -8.01059,-2.28874 -5.03523,-0.45775 -6.63735,0 -10.98596,1.37325 -8.46835,2.74649 -6.1796,3.89086 -6.1796,6.1796 -3.20424,6.40848 0,0.68662 -0.22888,0.68662 1.14437,1.14437 4.11974,1.831 15.33457,3.20423 27.00715,1.831 16.02119,-1.14437 4.80636,-1.60212 1.60212,-1.60212 0.22887,-0.68662 z"
       style="fill:#c6bca0;stroke:#000000;stroke-width:4.57748365" />
    <path
       inkscape:connector-curvature="0"
       id="path690-7"
       d="m 599.3631,683.9114 34.33113,-16.70781 1.83099,-0.68662 4.11974,0.45774 7.0951,3.66199 10.98596,10.98596 10.75708,16.02119 5.03523,9.61272 5.72186,11.67258 4.57748,10.07046 5.95073,18.53881 1.83099,15.1057 -1.60212,8.01059 -2.28874,3.43312 -1.60212,0.91549 -34.33112,16.93669 -1.831,0.45775 -4.11973,-0.22887 -7.0951,-3.89087 -10.75709,-10.75708 -10.98596,-16.02119 -5.03523,-9.84159 -5.72185,-11.67259 -4.57749,-9.84158 -5.95072,-18.53881 -1.831,-15.33457 1.60212,-7.78172 2.28874,-3.66199 1.60212,-0.9155 z"
       style="fill:#b9c8ca;stroke:#000000;stroke-width:4.80635786" />
    <path
       inkscape:connector-curvature="0"
       id="path692-7"
       d="m 573.27145,637.44995 -0.45775,0 -0.45775,0 -1.37324,0 0,0 -7.55285,0.91549 -14.41907,4.80636 -13.27471,7.78172 -11.4437,10.29934 -5.03524,5.95073 -5.03523,6.40848 -8.46834,13.73245 -7.0951,14.41907 -5.95073,15.10569 -4.57748,15.56345 -3.43312,16.02119 -2.97536,24.03179 -0.68662,16.25006 0.22887,8.46835 0,13.2747 1.37325,8.23947 1.60212,3.66199 6.40847,3.66198 15.79232,5.03523 26.32053,4.11974 15.79232,1.83099 9.38384,0.22888 13.04583,0 0,0 1.37324,0 1.37325,0 0.22887,0 0,0 13.04583,0 9.38384,-0.22888 15.79232,-1.83099 26.32053,-4.11974 16.02119,-5.03523 6.40847,-3.66198 1.37325,-3.66199 1.37325,-8.23947 0.22887,-13.2747 0,-8.46835 -0.45775,-16.25006 -3.20424,-24.03179 -3.43311,-16.02119 -4.57748,-15.56345 -5.72186,-15.10569 -7.0951,-14.41907 -8.69722,-13.73245 -5.03523,-6.40848 -4.80635,-5.95073 -11.67259,-10.29934 -13.04583,-8.01059 -14.64794,-4.57749 -7.55285,-0.91549 0,0 -0.68662,0 z"
       style="fill:#b9c8ca;stroke:#000000;stroke-width:5.72185421" />
    <rect
       style="fill:#312b2a;fill-opacity:1;stroke:#000000;stroke-width:7.01880789;stroke-linecap:butt;stroke-linejoin:round;stroke-miterlimit:4;stroke-opacity:1;stroke-dasharray:none;stroke-dashoffset:0"
       id="rect5318"
       width="22.852701"
       height="22.852701"
       x="890.54639"
       y="74.023834"
       transform="matrix(0.70432126,0.70988137,-0.70988137,0.70432126,0,0)" />
    <path
       inkscape:connector-curvature="0"
       id="path694-2"
       d="m 567.09185,525.75935 8.23947,0 9.38384,0.22888 17.85218,3.20423 16.47894,5.95073 14.64795,8.46835 12.3592,10.75708 9.84159,12.81696 6.86623,14.1902 3.66199,15.33456 0.22887,8.23947 0,5.49298 -0.22887,8.23947 -3.66199,15.33457 -6.86623,14.1902 -9.84159,12.81696 -12.3592,10.75708 -14.64795,8.46835 -16.47894,5.95073 -17.85218,3.20423 -9.38384,0.22888 -8.23947,0 -9.38385,-0.22888 -18.08106,-3.20423 -16.25006,-5.95073 -14.64795,-8.46835 -12.3592,-10.75708 -10.07047,-12.81696 -6.86622,-14.1902 -3.66199,-15.33457 -0.22887,-8.23947 0,-5.49298 0.22887,-8.23947 3.66199,-15.33456 6.86622,-14.1902 10.07047,-12.81696 12.3592,-10.75708 14.64795,-8.46835 16.25006,-5.95073 18.08106,-3.20423 9.38385,-0.22888 z"
       style="fill:#e4d4b3;stroke:#000000;stroke-width:5.49298048" />
    <path
       inkscape:connector-curvature="0"
       id="path718-8"
       d="m 569.83834,520.49525 -9.38385,0.45774 -21.51417,5.26411 -20.59867,8.69722 -12.58808,8.23947 -5.95073,6.1796 -2.05987,3.20424 -4.80636,5.26411 -7.0951,10.29933 -6.1796,14.87682 -2.97536,9.84159 8.69722,-8.23947 13.04582,-11.67258 5.72186,-2.51762 3.66199,0.22888 1.60211,0.9155 5.95073,3.66198 14.87682,6.17961 16.93669,4.80635 17.62331,2.97537 8.69722,0.68662 10.07047,-0.22887 21.51417,-3.20424 20.3698,-5.26411 16.70781,-7.0951 5.72186,-3.89086 8.23947,5.95073 9.38384,7.55285 -0.9155,-5.95073 -3.20424,-9.84159 -4.80635,-8.23947 -5.72186,-6.63735 -3.43311,-2.51762 -3.66199,-3.89086 -7.78172,-6.86622 -12.58808,-8.23947 -18.76768,-7.0951 -19.91205,-3.43312 -10.07047,-0.45774 -2.28874,0 -2.51761,0 z"
       style="fill:#36201d;stroke:#060606;stroke-width:2.74649024" />
    <path
       inkscape:connector-curvature="0"
       id="path360-2"
       d="m 619.64245,629.95791 -0.45775,3.20424 -2.51761,3.43311 -2.51762,1.14437 -1.37324,0.22887 -1.37325,-0.22887 -2.51761,-1.14437 -2.51762,-3.43311 -0.45775,-3.20424 0.45775,-3.20424 2.51762,-3.66199 2.51761,-1.14437 1.37325,0 1.37324,0 2.51762,1.14437 2.51761,3.66199 0.45775,3.20424 z"
       style="fill:#000000;stroke:none" />
    <path
       inkscape:connector-curvature="0"
       id="path362-1"
       d="m 555.57489,631.51271 -0.45774,3.20424 -2.74649,3.43312 -2.28875,1.14437 -1.37324,0.22887 -1.60212,-0.22887 -2.28874,-1.14437 -2.74649,-3.43312 -0.22888,-3.20424 0.22888,-3.20423 2.74649,-3.43312 2.28874,-1.37324 1.60212,0 1.37324,0 2.28875,1.37324 2.74649,3.43312 0.45774,3.20423 z"
       style="fill:#000000;stroke:none" />
    <path
       inkscape:connector-curvature="0"
       id="path364-3"
       d="m 523.386,612.63601 33.87338,-0.45775"
       style="fill:none;stroke:#000000;stroke-width:5.95072889" />
    <path
       inkscape:connector-curvature="0"
       id="path366-6"
       d="m 592.19663,622.7406 32.94846,-0.31411"
       style="fill:none;stroke:#000000;stroke-width:6.87563515" />
    <rect
       style="fill:#312b2a;fill-opacity:1;stroke:#000000;stroke-width:8.34229183;stroke-linecap:butt;stroke-linejoin:round;stroke-miterlimit:4;stroke-opacity:1;stroke-dasharray:none;stroke-dashoffset:0"
       id="rect5318-3"
       width="38.49337"
       height="38.280167"
       x="1137.4557"
       y="-367.4534"
       transform="matrix(0.38061278,0.92473451,-0.38575404,0.92260166,0,0)" />
    <rect
       style="fill:#aa4400;fill-opacity:1;stroke:#000000;stroke-opacity:1"
       id="rect6010"
       width="520"
       height="20"
       x="313.73602"
       y="734.38251" />
    <rect
       style="fill:#aa4400;fill-opacity:1;stroke:#000000;stroke-opacity:1"
       id="rect6010-5"
       width="481.42856"
       height="140"
       x="332.30746"
       y="754.38251" />
    <path
       style="fill:#d45500;stroke:#000000;stroke-width:1px;stroke-linecap:butt;stroke-linejoin:miter;stroke-opacity:1"
       d="m 313.73603,734.38249 30,-10 450,0 40,10 z"
       id="path6078"
       inkscape:connector-curvature="0" />
    <path
       inkscape:connector-curvature="0"
       id="path4146"
       sodipodi:nodetypes="ccccccccc"
       style="fill:#b3b3b3;stroke:#000000;stroke-width:1.87460816;stroke-linecap:round"
       d="m 692.67131,592.71053 c 2.07898,-2.98169 2.46021,-6.94285 8.36471,-7.69504 l 90.6865,-0.44915 c 3.97623,1.54768 7.58897,3.31179 7.48258,7.24048 l -7.62,103.62869 c -0.54524,2.48926 -2.46022,4.5943 -6.10842,5.88221 l -80.93873,-0.45455 c -4.41065,-0.21646 -6.67139,-2.94382 -7.97463,-6.78592 l -3.89201,-101.36672 z" />
    <path
       inkscape:connector-curvature="0"
       id="path4152"
       style="fill:#000000;stroke:#000000;stroke-width:1.7342391;stroke-linecap:round"
       d="m 703.73603,604.38249 c 0.64276,28.29089 3.38625,53.58977 4.02901,81.88067 24.42923,0.29221 48.85403,0.58983 73.28326,0.88205 l 7.68773,-87.76272 c -27.51447,0.88206 -57.48553,4.11793 -85,5 z"
       sodipodi:nodetypes="ccccc" />
    <path
       inkscape:connector-curvature="0"
       id="path4162"
       sodipodi:nodetypes="ccc"
       style="fill:#cccccc;stroke:#000000;stroke-width:1.28199875;stroke-linecap:round"
       d="m 705.63619,725.54792 c 1.37141,10.13366 78.49071,9.12721 76.11648,0 -7.68104,-7.56956 -60.27741,-8.26582 -76.11648,0 z" />
    <path
       inkscape:connector-curvature="0"
       id="path4156"
       sodipodi:nodetypes="ccccc"
       style="fill:#b3b3b3;stroke:#000000;stroke-width:1.7993294;stroke-linecap:round"
       d="m 729.51603,701.15721 1.13193,21.9023 c 8.54443,4.28046 17.08885,6.00583 25.63328,0 l 4.14857,-21.9023 h -30.91378 z" />
    <path
       inkscape:connector-curvature="0"
       id="path4222"
       sodipodi:nodetypes="cccc"
       style="fill:#e6e6e6"
       d="m 732.26893,704.01451 1.02203,17.39107 7.50041,-17.39107 h -8.52244 z" />
    <path
       inkscape:connector-curvature="0"
       id="path5197"
       sodipodi:nodetypes="ccc"
       style="fill:#f2f2f2"
       d="m 714.16948,724.80909 c 2.94521,5.23857 20.05055,7.61502 28.93016,3.8518 l -28.93016,-3.8518 z" />
    <path
       id="path5241"
       sodipodi:rx="4.2857141"
       sodipodi:ry="4.4642859"
       style="fill:#99ff55"
       sodipodi:type="arc"
       d="m 210.35714,279.10715 c 0,2.46555 -1.91878,4.46428 -4.28571,4.46428 -2.36694,0 -4.28572,-1.99873 -4.28572,-4.46428 0,-2.46556 1.91878,-4.46429 4.28572,-4.46429 2.36693,0 4.28571,1.99873 4.28571,4.46429 z"
       transform="matrix(0.67514691,0,0,0.67514691,648.1476,494.97165)"
       sodipodi:cy="279.10715"
       sodipodi:cx="206.07143" />
    <g
       transform="matrix(0.60442636,0.04206885,-0.04206885,0.60442636,258.74965,469.25587)"
       id="g3070">
      <path
         inkscape:connector-curvature="0"
         d="m 268.83,177.89 7.34,230.96 c -29.71,8.28 -59.43,13.35 -89.15,7.25 L 145.7,192.38 c 40.2,-12.68 82.93,-16.28 123.13,-14.49 z"
         style="fill:#b3b3b3;stroke:#000000;stroke-width:4.09350014;stroke-linecap:round"
         sodipodi:nodetypes="ccccc"
         id="path4164" />
      <path
         sodipodi:cx="189.64285"
         sodipodi:cy="265.35715"
         transform="matrix(1.2287,0,0,1.2287,-14.231,-15.404)"
         d="m 202.14285,265.35715 c 0,6.50907 -5.59644,11.78571 -12.5,11.78571 -6.90356,0 -12.5,-5.27664 -12.5,-11.78571 0,-6.50907 5.59644,-11.78572 12.5,-11.78572 6.90356,0 12.5,5.27665 12.5,11.78572 z"
         sodipodi:type="arc"
         style="fill:#cccccc;stroke:#000000;stroke-width:3;stroke-linecap:round"
         sodipodi:ry="11.785714"
         sodipodi:rx="12.5"
         id="path4166" />
      <path
         inkscape:connector-curvature="0"
         d="m 174.9,221.14 2.55,23.73 71.74,-7.66 -0.85,-26.37 -73.44,10.3 z"
         style="fill:#cccccc;stroke:#000000;stroke-width:3.63249993;stroke-linecap:round"
         sodipodi:nodetypes="ccccc"
         id="path4168" />
      <path
         inkscape:connector-curvature="0"
         d="m 152.08,196.89 39.1,211.62 6.2,0.62 -35.37,-214.72 -9.93,2.48 z"
         style="fill:#f2f2f2"
         sodipodi:nodetypes="ccccc"
         id="path5237" />
      <path
         sodipodi:cx="206.07143"
         sodipodi:cy="279.10715"
         transform="matrix(1.2287,0,0,1.2287,-34.165,-29.496)"
         d="m 210.35714,279.10715 c 0,2.46555 -1.91878,4.46428 -4.28571,4.46428 -2.36694,0 -4.28572,-1.99873 -4.28572,-4.46428 0,-2.46556 1.91878,-4.46429 4.28572,-4.46429 2.36693,0 4.28571,1.99873 4.28571,4.46429 z"
         sodipodi:type="arc"
         style="fill:#66ff00"
         sodipodi:ry="4.4642859"
         sodipodi:rx="4.2857141"
         id="path5239" />
    </g>
    <g
       transform="matrix(0.75838379,0,0,0.1101615,299.56776,677.35506)"
       id="g3093">
      <path
         inkscape:connector-curvature="0"
         d="M 268.78,431.6 237.45,487.08 481,488.04 452.83,424.95 268.78,431.6 z"
         style="fill:#cccccc;stroke:#000000;stroke-width:4.17689991;stroke-linecap:round"
         sodipodi:nodetypes="ccccc"
         id="path4172" />
      <path
         inkscape:connector-curvature="0"
         d="m 265.83,473.65 188.67,-3.14 -16.37,-31.69 -151.73,0.26 -20.57,34.57 z"
         style="fill:#e6e6e6"
         sodipodi:nodetypes="ccccc"
         id="path5243" />
    </g>
    <path
       inkscape:connector-curvature="0"
       id="path98"
       d="m 834.25382,918.51144 0.67312,-2.39202 6.28251,-8.48081 4.48751,-3.04439 6.05813,-2.17456 7.85314,-0.86983 4.48751,0.21746 6.28251,0.65237 10.09689,2.39202 7.40438,3.4793 5.38501,3.69676 4.71188,5.87133 1.79501,5.43641 0,0.65237 -0.22438,0.86983 -4.93626,1.52219 -14.80877,0.65237 -25.35441,-1.73965 -14.80877,-2.82693 -4.03876,-1.73966 -1.34625,-1.52219 0,-0.65237 z"
       style="fill:#3e432a;stroke:#000000;stroke-width:3.97599912" />
    <path
       inkscape:connector-curvature="0"
       id="path100"
       d="m 836.04882,831.09393 1.57063,2.82693 4.93626,4.56659 6.05813,2.82693 6.73126,0.86983 3.14125,-0.43492 3.14126,-1.08728 4.48751,-3.4793 2.24375,-4.78405 -0.22438,-5.87132 -1.12187,-2.82694 -1.79501,-3.04439 -4.71188,-4.56658 -6.28251,-2.82694 -6.50688,-0.86982 -3.36563,0.65237 -2.91688,0.86982 -4.48751,3.69676 -2.24375,4.78405 0,5.65386 1.34625,3.0444 z"
       style="fill:#cfc0a0;stroke:#000000;stroke-width:3.31333232" />
    <path
       inkscape:connector-curvature="0"
       id="path102"
       d="m 886.53327,829.78919 -0.8975,1.08728 -4.71188,0.43491 -11.66752,-2.17456 -18.39878,-6.74115 -10.32126,-5.87133 -3.36563,-3.69676 0.22437,-1.30474 4.26313,-17.39652 8.52627,-26.96461 8.30188,-19.35362 7.85314,-12.39502 7.18001,-7.39353 6.50689,-3.26184 8.07751,-0.65237 3.59,0.86982 2.24376,2.17457 3.36563,5.87132 2.01938,8.04589 0.44875,10.65537 -1.57063,20.006 -6.73126,35.88032 -4.93626,22.18057 z"
       style="fill:#452789;stroke:#000000;stroke-width:4.19688797" />
    <path
       inkscape:connector-curvature="0"
       id="path104"
       d="m 934.54959,827.83208 -2.6925,0 -15.25752,0.43491 -20.41816,2.60948 -11.89189,2.82693 -10.32127,3.47931 -7.85313,4.13167 -5.83376,4.56659 -2.91688,5.0015 -0.22438,2.60947 0,41.96911 0.22438,2.60948 2.91688,5.0015 5.60938,4.56658 8.07751,4.13168 10.09689,3.4793 11.8919,2.60948 20.41815,2.82693 15.25753,0.21746 2.6925,0 15.25752,-0.21746 20.41816,-2.82693 11.89189,-2.60948 10.32127,-3.4793 7.85314,-4.13168 5.8338,-4.56658 2.9168,-5.0015 0.2244,-2.60948 0,-41.96911 -0.2244,-2.60947 -2.9168,-5.0015 -5.6094,-4.56659 -8.07754,-4.13167 -10.09689,-3.47931 -11.8919,-2.82693 -20.41815,-2.60948 -15.25753,-0.43491 z"
       style="fill:#7c8f9a;stroke:#000000;stroke-width:5.08044291" />
    <path
       inkscape:connector-curvature="0"
       id="path106"
       d="m 900.44454,916.33687 0.8975,-29.57408"
       style="fill:none;stroke:none" />
    <path
       inkscape:connector-curvature="0"
       id="path108"
       d="m 900.44454,916.33687 0.8975,-29.57408"
       style="fill:none;stroke:#000000;stroke-width:3.31333232" />
    <path
       inkscape:connector-curvature="0"
       id="path110"
       d="m 922.6577,709.97065 0.44875,0 0.44875,0 0.22438,-0.21745 0.22437,0 0.22438,0 0.44875,0 0,0.21745 6.50688,0.43492 12.7894,3.91421 11.89189,6.74116 10.32127,8.91571 4.4875,5.0015 4.48751,5.65387 7.85314,11.96011 6.73126,12.61248 5.38501,13.04739 6.50686,20.65836 4.7119,28.26935 0.8975,14.35213 0.2244,7.39352 0.2244,11.74265 -0.8975,7.39352 -1.3463,3.26185 -5.60938,3.26185 -13.6869,4.78404 -22.88628,4.13167 -13.91127,1.73965 -8.07752,0.43492 -11.44314,0.43491 0,0 -1.34625,0 -1.12188,0 -0.22437,0 0,0 -11.44314,0.21746 -8.07752,0 -13.91127,-1.30474 -23.33503,-3.04439 -13.91127,-4.13168 -5.83376,-3.04439 -1.34625,-3.26185 -1.34626,-7.17606 -0.44875,-11.74265 -0.44875,-7.39352 0.22438,-14.35213 3.14125,-28.4868 5.16063,-20.87583 4.71189,-13.4823 5.83376,-12.82993 7.18001,-12.17757 4.03875,-5.87132 4.26313,-5.21896 9.87252,-9.35063 11.44314,-7.17606 12.56502,-4.56659 6.50689,-0.86983 0,0 0.44875,-0.21745 0.22437,0 0,0.21745 z"
       style="fill:#452789;stroke:#000000;stroke-width:5.08044291" />
    <path
       inkscape:connector-curvature="0"
       id="path112"
       d="m 1009.7153,851.31738 -2.0193,2.60948 -5.6094,3.69676 -6.50691,1.73965 -6.73126,-0.21746 -3.14126,-1.08728 -2.6925,-1.30474 -3.81438,-4.34913 -1.57063,-5.21895 1.34625,-5.43642 1.57063,-2.82693 2.24375,-2.60948 5.60939,-3.69676 6.50688,-1.73965 6.50684,0.21746 3.1413,1.08728 2.9169,1.52219 3.8144,4.13168 1.3462,5.21895 -1.1219,5.65387 -1.795,2.60948 z"
       style="fill:#cfc0a0;stroke:#000000;stroke-width:3.31333232" />
    <path
       inkscape:connector-curvature="0"
       id="path114"
       d="m 1021.6072,919.59872 0,-0.65237 -2.4681,-6.74115 -5.6094,-6.5237 -6.0581,-3.91421 -8.07753,-3.04439 -10.99439,-1.30474 -6.50689,0 -8.97501,0.65237 -14.80877,2.39202 -10.9944,3.91422 -8.07751,4.56658 -7.62876,6.74115 -3.59001,6.95861 -0.22437,0.65237 0,0.65237 1.57063,1.08728 5.60938,1.5222 20.86691,1.52219 36.12443,-1.08728 21.53999,-2.82693 6.2825,-1.95711 2.0194,-1.73965 0,-0.86983 z"
       style="fill:#3e432a;stroke:#000000;stroke-width:4.41777658" />
    <path
       inkscape:connector-curvature="0"
       id="path116"
       d="m 982.79029,840.44455 0.67313,1.08729 5.38501,1.08728 13.46247,-0.86983 21.5401,-5.0015 12.3406,-5.0015 4.0388,-3.26184 0.2244,-1.5222 -2.9169,-18.70126 -6.5069,-29.35662 -7.18,-21.09329 -7.4044,-14.13467 -7.18,-8.4808 -6.9557,-4.34913 -8.97497,-1.5222 -4.26313,0.65237 -2.91688,0.86983 -4.4875,4.56659 -3.14126,8.04589 -1.795,11.30773 -0.44875,21.96311 3.36563,39.57708 3.14125,24.13767 z"
       style="fill:#452789;stroke:#000000;stroke-width:4.63866568" />
    <path
       inkscape:connector-curvature="0"
       id="path118"
       d="m 940.60773,588.41247 -8.07751,0 -9.19939,0.21746 -17.72565,3.04439 -15.93065,5.65387 -14.36003,8.26334 -12.11626,10.003 -9.64814,12.17757 -6.95564,13.4823 -3.59,14.78704 -0.22438,7.61098 0,5.21896 0.22438,7.82843 3.59,14.56959 6.95564,13.69976 9.64814,11.9601 12.11626,10.22046 14.36003,8.04589 15.93065,5.65387 17.72565,3.04439 9.19939,0.21746 8.07751,0 9.19939,-0.21746 17.50127,-3.04439 16.15503,-5.65387 14.36002,-8.04589 12.11626,-10.22046 9.6481,-11.9601 6.7313,-13.69976 3.59,-14.56959 0.2244,-7.82843 0,-5.21896 -0.2244,-7.61098 -3.59,-14.78704 -6.7313,-13.4823 -9.6481,-12.17757 -12.11626,-10.003 -14.36002,-8.26334 -16.15503,-5.65387 -17.50127,-3.04439 -9.19939,-0.21746 z"
       style="fill:#cfc0a0;stroke:#000000;stroke-width:5.301332" />
    <path
       inkscape:connector-curvature="0"
       id="path120"
       d="m 587.53198,654.86464 -17.05253,3.26184"
       style="fill:none;stroke:#000000;stroke-width:4.63866568" />
    <path
       inkscape:connector-curvature="0"
       id="path122"
       d="m 908.77958,668.40176 0.44875,1.52219 1.795,2.60948 2.46813,1.5222 3.14126,0.65237 1.57062,-0.21746 1.57063,-0.43491 2.46813,-1.73965 1.795,-2.60948 0.67313,-2.82694 -0.22438,-1.52219 -0.44875,-1.5222 -1.795,-2.60948 -2.69251,-1.52219 -2.91687,-0.65237 -1.79501,0.21746 -1.57062,0.43491 -2.46813,1.73965 -1.79501,2.39202 -0.44875,3.04439 0.22438,1.5222 z"
       style="fill:#221f1f;stroke:none" />
    <path
       inkscape:connector-curvature="0"
       id="path124"
       d="m 854.07716,667.56664 0.44875,1.52219 1.79501,2.60948 2.46812,1.5222 3.14126,0.65237 1.57063,-0.21746 1.57062,-0.43491 2.69251,-1.73966 1.57063,-2.39202 0.67312,-3.04439 -0.22437,-1.52219 -0.44875,-1.5222 -1.79501,-2.60948 -2.46813,-1.52219 -3.14125,-0.65237 -1.57063,0.21745 -1.57063,0.43492 -2.6925,1.73965 -1.57063,2.39202 -0.67312,3.04439 0.22437,1.5222 z"
       style="fill:#221f1f;stroke:none" />
    <path
       inkscape:connector-curvature="0"
       id="path126"
       d="m 967.75714,544.70371 -1.57062,0.65237 -2.46813,3.91422 -2.24375,5.21896 -2.01938,2.82693 -1.79501,0.86983 -0.8975,-0.21746 -2.01937,-0.86982 -3.59001,-4.34913 -3.14125,-5.65387 -3.36564,-4.34913 -2.24375,-0.65237 -1.12188,0 -1.795,1.30474 -2.46813,3.69676 -3.14125,6.52369 -2.46813,3.91422 -2.01938,1.52219 -1.12187,0.21746 -1.12188,-0.21746 -2.01938,-1.52219 -2.46813,-3.69676 -2.91688,-6.5237 -2.46813,-3.91421 -2.01937,-1.08729 -0.89751,-0.21745 -1.12187,0.43491 -1.12188,1.30474 -0.22437,3.69676 0.8975,5.87132 -0.22438,3.91422 -0.8975,1.73965 -0.8975,0.21746 -2.24375,0 -4.26314,-3.26185 -4.26313,-5.0015 -3.36563,-2.60947 -2.01938,-0.65237 -1.12187,0.21745 -0.8975,0.65237 -1.34626,1.95711 -1.12187,4.78404 -0.8975,7.61098 -1.57063,6.5237 -1.57063,1.52219 -1.12188,0.21746 -2.24375,-0.43492 -4.03876,-2.60947 -5.60938,-5.0015 -4.03875,-2.60948 -2.24376,-0.43491 -0.8975,0.43491 -0.8975,0.65237 -0.44875,2.17456 0.8975,4.56659 2.46813,6.95861 0.8975,4.78404 -0.44875,2.39202 -0.67313,0.65237 -2.01937,0.86983 -5.83376,-1.30474 -6.73126,-2.82694 -4.48751,-1.08728 -2.24375,0.43492 -0.67313,0.65236 -0.67313,0.65237 0.22438,2.17457 2.6925,4.13167 4.93626,5.87133 2.6925,4.13167 0.44876,2.39202 -0.44876,0.86983 -0.67312,0.65237 -2.24375,0.65237 -5.16064,-0.86983 -7.62876,-1.95711 -4.93626,-0.65237 -2.24375,0.43492 -0.44875,0.86982 -0.44875,0.86983 0.67312,1.73965 3.14126,2.60948 5.83376,3.4793 3.14125,2.60948 0.8975,1.95711 -0.22437,0.86983 -0.67313,0.86982 -2.01937,1.30474 -4.71189,0.86983 -7.62876,0.65237 -4.48751,1.08728 -2.01937,1.30474 -0.44875,0.86982 0,1.95711 3.36563,4.34913 4.71188,4.56659 3.59,4.56659 0.22438,1.9571 -0.67313,1.95711 -4.71188,2.39202 -6.05813,1.95711 -4.48751,2.39202 -0.67313,1.73966 0.22438,0.86982 1.34625,1.30474 3.59001,1.30474 6.73126,0.86983 6.28251,1.08728 1.795,1.30474 1.57063,0.21745 4.26313,-0.65237 6.95563,-0.43491 3.14126,-1.08728 0.8975,-1.08728 0,-1.30474 -3.36563,-2.82694 -4.93626,-2.60948 -2.46813,-2.17456 -0.67312,-1.30474 0.22437,-0.65237 1.34625,-1.08728 5.16064,0.65237 6.50688,1.52219 5.38501,0.65237 1.34625,-0.86982 0.44875,-1.5222 -2.6925,-4.13167 -4.48751,-4.56659 -2.01938,-3.26185 -0.22437,-1.52219 0.44875,-0.65237 1.34625,-0.86983 4.71188,1.08729 5.83376,1.9571 4.93626,1.30474 1.57063,-0.65237 1.12187,-1.30474 -0.8975,-4.78404 -2.24375,-5.43641 -0.67313,-3.4793 0.22438,-1.5222 0.67312,-0.65237 1.79501,-0.21746 4.26313,2.39203 4.71188,3.69676 4.48751,2.60947 1.795,-0.43491 1.34625,-1.08728 1.12188,-4.78404 0.67313,-6.08879 1.34625,-4.56658 1.57062,-0.86983 1.57063,-0.21746 3.59001,2.60948 3.81438,3.69676 3.59,2.60948 1.79501,0 1.34625,-0.65237 0.22437,-3.69676 -0.67312,-4.56659 0.22437,-2.82693 0.8975,-1.08728 0.89751,-0.21746 1.57062,0.21746 2.91688,3.69676 2.46813,5.0015 2.91688,3.91421 1.795,0.43492 1.79501,-0.43492 2.91688,-3.69676 2.46812,-5.0015 2.69251,-3.69676 1.795,-0.21745 1.795,0.43491 2.91688,3.4793 2.69251,4.34913 3.14125,3.26185 1.57063,0.86983 1.795,-0.21746 2.24376,-3.04439 2.01937,-4.13167 2.24376,-2.82694 1.57062,0.21746 1.57063,0.86982 0.8975,4.34913 -0.22437,5.21896 0.8975,4.56659 1.34625,0.86982 2.01938,0.43492 4.71188,-2.17457 5.16063,-3.04439 4.71189,-1.95711 1.795,0.21746 1.12188,1.08728 -0.22438,3.4793 -1.795,4.34913 -0.44875,3.69677 1.12187,1.08728 1.79501,0.86982 4.71188,-0.21745 5.38501,-0.65237 4.71188,0 1.57063,0.86982 0.8975,1.08729 -1.34625,2.60947 -2.69251,2.82694 -1.34625,2.60948 0.67313,1.30474 1.57062,0.86982 5.16059,0 5.8338,-1.08728 4.9363,0 1.3462,1.08728 0.4488,1.30474 -2.6925,3.69676 -4.2632,3.69676 -2.9168,3.69676 0.4487,1.5222 1.3463,1.08728 5.385,1.30474 6.7312,0.65237 5.385,1.30474 1.1219,1.30474 0.2244,1.30474 -3.3656,3.26184 -5.1607,3.26185 -3.59,3.26185 -0.2244,1.52219 0.8975,1.30474 4.7119,0.43492 5.385,-0.21746 4.2632,0.65237 0.6731,1.30474 -0.2244,1.52219 -3.59,1.95711 -5.1606,1.5222 -3.8144,1.95711 -0.4488,1.30473 0.2244,1.30474 2.9169,1.95711 6.5069,2.82694 3.8144,1.95711 4.7118,-0.21746 8.5263,0.86982 4.0388,-0.86982 0.8975,-1.30474 0.2243,-0.86983 -0.6731,-1.73965 -3.1412,-2.17456 -5.6094,-2.82694 -3.1413,-2.39202 -0.8975,-1.73965 0.2244,-0.86983 1.1219,-1.95711 5.8337,-2.82693 7.4044,-2.60948 5.8338,-3.04439 0.6731,-1.95711 0,-0.86982 -1.3463,-1.95711 -3.8143,-2.39202 -7.18,-3.26185 -4.2632,-2.60948 -1.5706,-1.73965 -0.2244,-1.08728 0.2244,-0.86983 1.3463,-1.73965 3.59,-1.73965 6.2825,-2.17457 3.3656,-1.73965 1.3462,-1.73965 0,-0.86983 -0.2243,-1.08728 -1.5707,-1.08728 -4.0387,-0.21746 -6.7313,0.21746 -4.0387,-0.21746 -1.795,-1.08728 -0.4488,-0.86983 -0.2244,-1.08728 1.1219,-1.95711 3.59,-3.26185 6.0582,-4.34913 3.3656,-3.04439 0.8975,-1.95711 -0.2244,-1.08728 -0.4487,-0.86983 -2.2438,-1.30473 -4.9362,-0.86983 -8.0776,-0.86983 -6.7312,-1.52219 -1.5706,-1.5222 -0.2244,-0.86982 0.4487,-2.17457 2.9169,-3.69676 5.1606,-5.0015 2.6925,-3.4793 0.4488,-2.17457 -0.4488,-0.86982 -0.6731,-0.86983 -2.0194,-0.65237 -4.7118,0.21746 -6.9557,1.30474 -6.2825,0.43491 -1.795,-1.30474 -0.4487,-0.86983 -0.2244,-1.52219 1.5706,-2.82694 3.3656,-3.4793 1.3463,-2.60948 -0.2244,-1.52219 -0.6731,-0.86983 -2.0194,-1.08728 -5.6094,0 -6.2825,1.08728 -5.83373,0.21746 -2.01938,-0.86983 -0.8975,-0.86982 -0.44875,-1.73966 0.67312,-3.69676 2.01938,-5.65387 0.44875,-3.4793 -0.67313,-1.73965 -0.8975,-0.65237 -0.8975,-0.43491 -2.46813,0.43491 -4.26313,2.17456 -6.28251,4.13168 -5.83376,2.82693 -2.24375,-0.43491 -0.8975,-0.43491 -1.12188,-2.17457 -0.44875,-4.34913 0.22438,-6.95861 -0.67313,-4.34913 -1.12188,-1.95711 -1.12187,-0.43491 -0.44875,-0.21746 -0.44876,0 z"
       style="fill:#79602d;stroke:none" />
    <path
       inkscape:connector-curvature="0"
       id="path960"
       d="m 895.247,705.8997 0,1.37344 -1.31792,2.74689 -2.30634,1.96206 -3.13004,1.17723 -1.81213,0.19621 -1.64739,-0.19621 -3.13005,-1.17723 -2.30634,-1.96206 -1.31792,-2.74689 -0.16474,-1.37344 0.16474,-1.56965 1.31792,-2.74688 2.30634,-1.96206 3.13005,-1.17724 1.64739,-0.19621 1.81213,0.19621 3.13004,1.17724 2.30634,1.96206 1.31792,2.74688 0,1.56965 z"
       style="fill:#ac646d;stroke:#000000;stroke-width:3.59570837;display:inline" />
  </g>
  <g
     inkscape:groupmode="layer"
     id="layer3"
     inkscape:label="balloons"
     style="display:inline">
    <text
       xml:space="preserve"
       style="font-size:24px;font-style:normal;font-variant:normal;font-weight:normal;font-stretch:normal;text-align:start;line-height:125%;letter-spacing:0px;word-spacing:0px;writing-mode:lr;text-anchor:start;fill:#000000;fill-opacity:1;stroke:none;font-family:SmackAttack BB;-inkscape-font-specification:SmackAttack BB"
       x="324.28571"
       y="64.094482"
       id="text7473"
       sodipodi:linespacing="125%"><tspan
         sodipodi:role="line"
         id="tspan7475"
         x="324.28571"
         y="64.094482" /></text>
    <text
       xml:space="preserve"
       style="font-size:24px;font-style:normal;font-variant:normal;font-weight:normal;font-stretch:normal;text-align:start;line-height:125%;writing-mode:lr-tb;text-anchor:start;fill:#afe9dd;fill-opacity:1;stroke:#000000;stroke-width:3.54330707;stroke-linecap:butt;stroke-linejoin:round;stroke-miterlimit:4;stroke-opacity:1;stroke-dasharray:none;stroke-dashoffset:0;font-family:SmackAttack BB;-inkscape-font-specification:SmackAttack BB"
       x="581.42859"
       y="134.09448"
       id="text7483"
       sodipodi:linespacing="125%"><tspan
         sodipodi:role="line"
         id="tspan7485"
         x="581.42859"
         y="134.09448" /></text>
    <text
       xml:space="preserve"
       style="font-size:24px;font-style:normal;font-variant:normal;font-weight:normal;font-stretch:normal;text-align:start;line-height:125%;writing-mode:lr-tb;text-anchor:start;fill:#afe9dd;fill-opacity:1;stroke:#000000;stroke-width:3.54330707;stroke-linecap:butt;stroke-linejoin:round;stroke-miterlimit:4;stroke-opacity:1;stroke-dasharray:none;stroke-dashoffset:0;font-family:SmackAttack BB;-inkscape-font-specification:SmackAttack BB"
       x="615.71429"
       y="65.523056"
       id="text7495"
       sodipodi:linespacing="125%"><tspan
         sodipodi:role="line"
         id="tspan7497"
         x="615.71429"
         y="65.523056" /></text>
    <text
       xml:space="preserve"
       style="font-size:24px;font-style:normal;font-variant:normal;font-weight:normal;font-stretch:normal;text-align:start;line-height:125%;writing-mode:lr-tb;text-anchor:start;fill:#afe9dd;fill-opacity:1;stroke:#000000;stroke-width:0;stroke-linecap:butt;stroke-linejoin:round;stroke-miterlimit:4;stroke-opacity:1;stroke-dasharray:none;stroke-dashoffset:0;font-family:SmackAttack BB;-inkscape-font-specification:SmackAttack BB"
       x="634.28571"
       y="66.951622"
       id="text7499"
       sodipodi:linespacing="125%"><tspan
         sodipodi:role="line"
         id="tspan7501"
         x="634.28571"
         y="66.951622" /></text>
    <path
       style="fill:#ffffff;fill-rule:evenodd;stroke:#050005;stroke-width:3.54330708999999988;stroke-linecap:butt;stroke-linejoin:round;stroke-opacity:1;fill-opacity:1;stroke-miterlimit:4;stroke-dasharray:none"
       d="M 661.75 24.09375 C 649.69845 24.09375 640 33.792199 640 45.84375 L 640 182.34375 C 640 194.3953 649.69845 204.09375 661.75 204.09375 L 895.125 204.09375 C 909.93929 232.16354 910 224.09375 910 224.09375 L 910 204.09375 L 998.25 204.09375 C 1010.3016 204.09375 1020 194.3953 1020 182.34375 L 1020 45.84375 C 1020 33.792199 1010.3016 24.09375 998.25 24.09375 L 661.75 24.09375 z "
       id="rect7714" />
    <text
       xml:space="preserve"
       style="font-size:24px;font-style:normal;font-variant:normal;font-weight:normal;font-stretch:normal;text-align:start;line-height:125%;writing-mode:lr-tb;text-anchor:start;fill:#ffffff;fill-opacity:1;stroke:#000600;stroke-width:3;stroke-linecap:butt;stroke-linejoin:round;stroke-miterlimit:4;stroke-opacity:1;stroke-dasharray:none;stroke-dashoffset:0;font-family:SmackAttack BB;-inkscape-font-specification:SmackAttack BB"
       x="660"
       y="64.094482"
       id="text7653"
       sodipodi:linespacing="125%"><tspan
         sodipodi:role="line"
         id="tspan7655"
         x="660"
         y="64.094482"
         style="fill:#000300;fill-opacity:1;stroke:none">hombreee...</tspan><tspan
         sodipodi:role="line"
         x="660"
         y="94.094482"
         style="fill:#000300;fill-opacity:1;stroke:none"
         id="tspan7657">Es que eso es linux.</tspan><tspan
         sodipodi:role="line"
         x="660"
         y="124.09448"
         style="fill:#000300;fill-opacity:1;stroke:none"
         id="tspan3765" /><tspan
         sodipodi:role="line"
         x="660"
         y="154.09448"
         style="fill:#000300;fill-opacity:1;stroke:none"
         id="tspan7659">los usuarios no van a </tspan><tspan
         sodipodi:role="line"
         x="660"
         y="184.09448"
         style="fill:#000300;fill-opacity:1;stroke:none"
         id="tspan7661">saber usarlo</tspan><tspan
         sodipodi:role="line"
         x="660"
         y="214.09448"
         style="fill:#000300;fill-opacity:1;stroke:none"
         id="tspan7663" /></text>
    <text
       xml:space="preserve"
       style="font-size:24px;font-style:normal;font-variant:normal;font-weight:normal;font-stretch:normal;text-align:start;line-height:125%;writing-mode:lr-tb;text-anchor:start;fill:#ffffff;fill-opacity:1;stroke:#050005;stroke-width:3.54330707;stroke-linecap:butt;stroke-linejoin:round;stroke-miterlimit:4;stroke-opacity:1;stroke-dasharray:none;stroke-dashoffset:0;font-family:SmackAttack BB;-inkscape-font-specification:SmackAttack BB"
       x="972.85712"
       y="92.665909"
       id="text7719"
       sodipodi:linespacing="125%"><tspan
         sodipodi:role="line"
         id="tspan7721"
         x="972.85712"
         y="92.665909" /><tspan
         sodipodi:role="line"
         x="972.85712"
         y="122.66591"
         id="tspan7727" /><tspan
         sodipodi:role="line"
         id="tspan7723"
         x="972.85712"
         y="152.66591" /><tspan
         sodipodi:role="line"
         x="972.85712"
         y="182.66591"
         id="tspan7725" /></text>
  </g>
</svg>
