<?xml version="1.0" encoding="UTF-8" standalone="no"?>
<!-- Created with Inkscape (http://www.inkscape.org/) -->

<svg
   xmlns:dc="http://purl.org/dc/elements/1.1/"
   xmlns:cc="http://creativecommons.org/ns#"
   xmlns:rdf="http://www.w3.org/1999/02/22-rdf-syntax-ns#"
   xmlns:svg="http://www.w3.org/2000/svg"
   xmlns="http://www.w3.org/2000/svg"
   xmlns:sodipodi="http://sodipodi.sourceforge.net/DTD/sodipodi-0.dtd"
   xmlns:inkscape="http://www.inkscape.org/namespaces/inkscape"
   width="1052.3622"
   height="744.09448"
   id="svg5396"
   version="1.1"
   inkscape:version="0.48.4 r9939"
   sodipodi:docname="gecos-v05.svg">
  <defs
     id="defs3">
    <inkscape:perspective
       sodipodi:type="inkscape:persp3d"
       inkscape:vp_x="0 : 372.04724 : 1"
       inkscape:vp_y="0 : 1000 : 0"
       inkscape:vp_z="1052.3622 : 372.04724 : 1"
       inkscape:persp3d-origin="526.18109 : 248.03149 : 1"
       id="perspective7460" />
    <linearGradient
       id="linearGradient7500"
       y2="-204.24001"
       gradientUnits="userSpaceOnUse"
       x2="653.26001"
       gradientTransform="matrix(1.1013,-0.15809,0.69098,0.32964,-40.16,-222.83)"
       y1="-254.53"
       x1="654.28998">
      <stop
         id="stop14612"
         style="stop-color:white"
         offset="0" />
      <stop
         id="stop14614"
         style="stop-color:white;stop-opacity:0"
         offset="1" />
    </linearGradient>
    <linearGradient
       id="linearGradient7502"
       y2="-436.19"
       gradientUnits="userSpaceOnUse"
       x2="411.78"
       gradientTransform="matrix(0.50432,0,0,0.50432,34.099,911.79)"
       y1="-452.60999"
       x1="379.73999">
      <stop
         id="stop10162"
         style="stop-color:#f8f8f8"
         offset="0" />
      <stop
         id="stop10164"
         style="stop-color:#6b6b6b"
         offset="1" />
    </linearGradient>
    <linearGradient
       id="linearGradient7504"
       y2="-264.31"
       gradientUnits="userSpaceOnUse"
       x2="377.42999"
       gradientTransform="matrix(0.50432,0,0,0.50432,6.0662,842.39)"
       y1="-332.04999"
       x1="310.45999">
      <stop
         id="stop8366"
         style="stop-color:#e2e2e2;stop-opacity:.85795"
         offset="0" />
      <stop
         id="stop9255"
         style="stop-color:white;stop-opacity:.84659"
         offset=".49123" />
      <stop
         id="stop8368"
         style="stop-color:white;stop-opacity:.40341"
         offset="1" />
    </linearGradient>
    <linearGradient
       id="linearGradient7506"
       y2="-264.31"
       gradientUnits="userSpaceOnUse"
       x2="377.42999"
       gradientTransform="matrix(-0.50432,0,0,-0.50432,414.84,672.86)"
       y1="-332.04999"
       x1="310.45999">
      <stop
         id="stop9267"
         style="stop-color:black;stop-opacity:.57386"
         offset="0" />
      <stop
         id="stop9269"
         style="stop-color:#dfdfdf;stop-opacity:.45455"
         offset=".49123" />
      <stop
         id="stop9271"
         style="stop-color:white;stop-opacity:.40341"
         offset="1" />
    </linearGradient>
    <linearGradient
       id="linearGradient7508"
       y2="714.22998"
       gradientUnits="userSpaceOnUse"
       x2="106.65"
       gradientTransform="matrix(1.0022,0,0,0.92383,139.49,18.687)"
       y1="732.45001"
       x1="106.8">
      <stop
         id="stop7474"
         style="stop-color:black"
         offset="0" />
      <stop
         id="stop7480"
         style="stop-color:white"
         offset=".65919" />
      <stop
         id="stop7482"
         style="stop-color:white"
         offset=".84436" />
      <stop
         id="stop7476"
         style="stop-color:#c1c1c1"
         offset="1" />
    </linearGradient>
    <linearGradient
       id="linearGradient7510"
       y2="633.84998"
       gradientUnits="userSpaceOnUse"
       x2="127.79"
       gradientTransform="matrix(0.75903,0,0,0.86443,192.34,124.69)"
       y1="640.96002"
       x1="160.37">
      <stop
         id="stop2841"
         style="stop-color:black"
         offset="0" />
      <stop
         id="stop2843"
         style="stop-color:white"
         offset="1" />
    </linearGradient>
  </defs>
  <sodipodi:namedview
     inkscape:document-units="mm"
     id="base"
     pagecolor="#ffffff"
     bordercolor="#666666"
     borderopacity="1.0"
     inkscape:pageopacity="0"
     inkscape:pageshadow="2"
     inkscape:zoom="0.49497475"
     inkscape:cx="443.02007"
     inkscape:cy="280.2413"
     inkscape:current-layer="layer1"
     showgrid="true"
     units="mm"
     inkscape:window-width="1276"
     inkscape:window-height="973"
     inkscape:window-x="0"
     inkscape:window-y="0"
     inkscape:window-maximized="0">
    <inkscape:grid
       type="xygrid"
       id="grid5404"
       empspacing="5"
       visible="true"
       enabled="true"
       snapvisiblegridlinesonly="true" />
  </sodipodi:namedview>
  <metadata
     id="metadata4">
    <rdf:RDF>
      <cc:Work
         rdf:about="">
        <dc:format>image/svg+xml</dc:format>
        <dc:type
           rdf:resource="http://purl.org/dc/dcmitype/StillImage" />
        <dc:title></dc:title>
      </cc:Work>
    </rdf:RDF>
  </metadata>
  <g
     inkscape:groupmode="layer"
     id="layer2"
     inkscape:label="background"
     style="display:inline"
     sodipodi:insensitive="true">
    <rect
       style="fill:#afe9dd;fill-opacity:1;stroke:none"
       id="rect5402-2"
       width="1060"
       height="525"
       x="2.0050203e-07"
       y="-0.90550864" />
    <rect
       transform="translate(0,-308.2677)"
       style="fill:#b3b3b3;fill-opacity:1;stroke:none"
       id="rect5402"
       width="1060"
       height="240"
       x="0"
       y="812.36218" />
    <text
       xml:space="preserve"
       style="font-size:64px;font-style:normal;font-variant:normal;font-weight:normal;font-stretch:normal;text-align:start;line-height:125%;letter-spacing:0px;word-spacing:0px;writing-mode:lr-tb;text-anchor:start;fill:#000000;fill-opacity:1;stroke:none;font-family:Moria Citadel;-inkscape-font-specification:Moria Citadel"
       x="690.94434"
       y="80.424263"
       id="text6210"
       sodipodi:linespacing="125%"><tspan
         sodipodi:role="line"
         id="tspan6212"
         x="690.94434"
         y="80.424263" /></text>
    <text
       xml:space="preserve"
       style="font-size:64px;font-style:normal;font-variant:normal;font-weight:normal;font-stretch:normal;text-align:start;line-height:125%;letter-spacing:0px;word-spacing:0px;writing-mode:lr-tb;text-anchor:start;fill:#000000;fill-opacity:1;stroke:none;font-family:Moria Citadel;-inkscape-font-specification:Moria Citadel"
       x="925.29974"
       y="282.45477"
       id="text6255"
       sodipodi:linespacing="125%"><tspan
         sodipodi:role="line"
         id="tspan6257"
         x="925.29974"
         y="282.45477" /></text>
    <text
       xml:space="preserve"
       style="font-size:64px;font-style:normal;font-variant:normal;font-weight:normal;font-stretch:normal;text-align:start;line-height:125%;letter-spacing:0px;word-spacing:0px;writing-mode:lr-tb;text-anchor:start;fill:#000000;fill-opacity:1;stroke:none;font-family:Moria Citadel;-inkscape-font-specification:Moria Citadel"
       x="889.9444"
       y="448.11978"
       id="text6293"
       sodipodi:linespacing="125%"><tspan
         sodipodi:role="line"
         id="tspan6295"
         x="889.9444"
         y="448.11978" /></text>
  </g>
  <g
     inkscape:label="characters"
     inkscape:groupmode="layer"
     id="layer1"
     transform="translate(0,-308.2677)"
     style="display:inline">
    <path
       inkscape:connector-curvature="0"
       id="path674-8"
       d="m 470.50695,769.73922 4.11973,2.05986 2.97536,1.60212 4.80636,4.57749 2.51762,5.49298 0,5.72185 -0.9155,2.74649 -0.45775,0.9155 -1.37324,2.51761 -4.57749,3.43312 -5.95072,1.37324 -6.40848,-0.9155 -3.43311,-1.37324 -4.11974,-1.83099 -2.97536,-1.831 -4.80636,-4.57748 -2.51762,-5.49298 0,-5.72185 0.9155,-2.74649 0.45775,-0.68663 1.37324,-2.51761 4.57749,-3.43312 5.95073,-1.37324 6.40847,0.68662 3.43312,1.37325 z"
       style="fill:#e4d4b3;stroke:#060000;stroke-width:4.11973524" />
    <path
       inkscape:connector-curvature="0"
       id="path676-5"
       d="m 674.89158,768.36597 -4.11974,2.05987 -3.20423,1.60212 -4.57749,4.80636 -2.51761,5.2641 -0.22888,5.72186 1.14437,2.74649 0.22888,0.91549 1.60212,2.51762 4.57748,3.43311 5.95073,1.37325 6.40848,-0.9155 3.20423,-1.14437 4.11974,-2.05987 3.20424,-1.83099 4.57748,-4.57749 2.51762,-5.49298 0.22887,-5.72185 -0.9155,-2.51762 -0.45774,-0.91549 -1.60212,-2.51762 -4.57749,-3.43311 -5.72185,-1.37325 -6.63735,0.68663 -3.20424,1.37324 z"
       style="fill:#e4d4b3;stroke:#060000;stroke-width:4.11973524" />
    <path
       inkscape:connector-curvature="0"
       id="path678-6"
       d="m 537.79595,684.8269 -34.33112,-16.70781 -1.831,-0.68663 -4.11973,0.22888 -7.0951,3.89086 -10.98596,10.75708 -10.75709,16.25007 -5.03523,9.61272 -5.72185,11.67258 -4.57749,10.07046 -5.95073,18.30994 -1.83099,15.33456 1.60212,8.0106 2.28874,3.43311 1.60212,0.9155 34.33113,16.70781 1.83099,0.68663 4.11974,-0.22888 7.09509,-3.89086 10.75709,-10.75708 10.98596,-16.0212 5.03523,-9.84159 5.72186,-11.67258 4.57748,-10.07046 5.72185,-18.30994 2.05987,-15.33456 -1.60212,-8.0106 -2.28874,-3.43311 -1.60212,-0.9155 z"
       style="fill:#b9c8ca;stroke:#000000;stroke-width:4.80635786" />
    <path
       inkscape:connector-curvature="0"
       id="path680-9"
       d="m 574.18694,766.53498 2.97537,0 16.47894,0.45775 21.97192,2.97536 13.04583,2.97537 10.98596,3.66198 8.69722,4.57749 5.95072,5.03523 3.20424,5.2641 0.45775,2.97537 0,45.54596 -0.22887,2.74649 -3.20424,5.49298 -6.1796,5.03523 -8.69722,4.34861 -10.98596,3.89086 -12.81696,2.97536 -22.20079,2.97537 -16.47894,0.45775 -2.74649,0 -16.47894,-0.45775 -22.2008,-2.97537 -12.81695,-2.97536 -10.98596,-3.66199 -8.69722,-4.57748 -6.1796,-5.03523 -3.20424,-5.49298 -0.22887,-2.74649 -0.22888,-45.54596 0.45775,-2.74649 3.20424,-5.49298 5.95073,-5.03523 8.69722,-4.57749 10.98596,-3.66198 12.81695,-2.97537 22.20079,-2.97536 16.47894,-0.45775 z"
       style="fill:#897cc4;stroke:#000000;stroke-width:5.49298048" />
    <path
       inkscape:connector-curvature="0"
       id="path682-7"
       d="m 575.33132,863.57763 -0.68663,-30.89802"
       style="fill:none;stroke:none" />
    <path
       inkscape:connector-curvature="0"
       id="path684-1"
       d="m 575.33132,863.57763 -0.68663,-30.89802"
       style="fill:none;stroke:#000000;stroke-width:3.43311262" />
    <path
       inkscape:connector-curvature="0"
       id="path686-5"
       d="m 583.34191,870.67273 0,-0.9155 1.37325,-6.86623 3.66198,-7.0951 4.11974,-4.57748 5.95073,-3.66199 7.78172,-2.51761 5.03523,-0.45775 6.63735,0 10.98596,1.37325 8.23947,2.97536 6.40848,3.89086 5.95073,6.63735 3.20423,6.63735 0,0.68663 0.22888,0.68662 -1.14437,1.37324 -4.11974,1.831 -15.10569,3.20423 -26.77828,2.05987 -16.02119,-1.37324 -4.80636,-1.60212 -1.60212,-1.37325 0,-0.91549 z"
       style="fill:#c6bca0;stroke:#000000;stroke-width:4.57748365" />
    <path
       inkscape:connector-curvature="0"
       id="path688-0"
       d="m 567.54959,870.67273 -0.22887,-0.9155 -1.37325,-6.63735 -3.66198,-6.63735 -4.11974,-4.34861 -5.95073,-3.66199 -8.01059,-2.28874 -5.03523,-0.45775 -6.63735,0 -10.98596,1.37325 -8.46835,2.74649 -6.1796,3.89086 -6.1796,6.1796 -3.20424,6.40848 0,0.68662 -0.22888,0.68662 1.14437,1.14437 4.11974,1.831 15.33457,3.20423 27.00715,1.831 16.02119,-1.14437 4.80636,-1.60212 1.60212,-1.60212 0.22887,-0.68662 z"
       style="fill:#c6bca0;stroke:#000000;stroke-width:4.57748365" />
    <path
       inkscape:connector-curvature="0"
       id="path690-7"
       d="m 599.3631,683.9114 34.33113,-16.70781 1.83099,-0.68662 4.11974,0.45774 7.0951,3.66199 10.98596,10.98596 10.75708,16.02119 5.03523,9.61272 5.72186,11.67258 4.57748,10.07046 5.95073,18.53881 1.83099,15.1057 -1.60212,8.01059 -2.28874,3.43312 -1.60212,0.91549 -34.33112,16.93669 -1.831,0.45775 -4.11973,-0.22887 -7.0951,-3.89087 -10.75709,-10.75708 -10.98596,-16.02119 -5.03523,-9.84159 -5.72185,-11.67259 -4.57749,-9.84158 -5.95072,-18.53881 -1.831,-15.33457 1.60212,-7.78172 2.28874,-3.66199 1.60212,-0.9155 z"
       style="fill:#b9c8ca;stroke:#000000;stroke-width:4.80635786" />
    <path
       inkscape:connector-curvature="0"
       id="path692-7"
       d="m 573.27145,637.44995 -0.45775,0 -0.45775,0 -1.37324,0 0,0 -7.55285,0.91549 -14.41907,4.80636 -13.27471,7.78172 -11.4437,10.29934 -5.03524,5.95073 -5.03523,6.40848 -8.46834,13.73245 -7.0951,14.41907 -5.95073,15.10569 -4.57748,15.56345 -3.43312,16.02119 -2.97536,24.03179 -0.68662,16.25006 0.22887,8.46835 0,13.2747 1.37325,8.23947 1.60212,3.66199 6.40847,3.66198 15.79232,5.03523 26.32053,4.11974 15.79232,1.83099 9.38384,0.22888 13.04583,0 0,0 1.37324,0 1.37325,0 0.22887,0 0,0 13.04583,0 9.38384,-0.22888 15.79232,-1.83099 26.32053,-4.11974 16.02119,-5.03523 6.40847,-3.66198 1.37325,-3.66199 1.37325,-8.23947 0.22887,-13.2747 0,-8.46835 -0.45775,-16.25006 -3.20424,-24.03179 -3.43311,-16.02119 -4.57748,-15.56345 -5.72186,-15.10569 -7.0951,-14.41907 -8.69722,-13.73245 -5.03523,-6.40848 -4.80635,-5.95073 -11.67259,-10.29934 -13.04583,-8.01059 -14.64794,-4.57749 -7.55285,-0.91549 0,0 -0.68662,0 z"
       style="fill:#b9c8ca;stroke:#000000;stroke-width:5.72185421" />
    <rect
       style="fill:#312b2a;fill-opacity:1;stroke:#000000;stroke-width:7.01880789;stroke-linecap:butt;stroke-linejoin:round;stroke-miterlimit:4;stroke-opacity:1;stroke-dasharray:none;stroke-dashoffset:0"
       id="rect5318"
       width="22.852701"
       height="22.852701"
       x="890.54639"
       y="74.023834"
       transform="matrix(0.70432126,0.70988137,-0.70988137,0.70432126,0,0)" />
    <path
       inkscape:connector-curvature="0"
       id="path694-2"
       d="m 567.09185,525.75935 8.23947,0 9.38384,0.22888 17.85218,3.20423 16.47894,5.95073 14.64795,8.46835 12.3592,10.75708 9.84159,12.81696 6.86623,14.1902 3.66199,15.33456 0.22887,8.23947 0,5.49298 -0.22887,8.23947 -3.66199,15.33457 -6.86623,14.1902 -9.84159,12.81696 -12.3592,10.75708 -14.64795,8.46835 -16.47894,5.95073 -17.85218,3.20423 -9.38384,0.22888 -8.23947,0 -9.38385,-0.22888 -18.08106,-3.20423 -16.25006,-5.95073 -14.64795,-8.46835 -12.3592,-10.75708 -10.07047,-12.81696 -6.86622,-14.1902 -3.66199,-15.33457 -0.22887,-8.23947 0,-5.49298 0.22887,-8.23947 3.66199,-15.33456 6.86622,-14.1902 10.07047,-12.81696 12.3592,-10.75708 14.64795,-8.46835 16.25006,-5.95073 18.08106,-3.20423 9.38385,-0.22888 z"
       style="fill:#e4d4b3;stroke:#000000;stroke-width:5.49298048" />
    <path
       inkscape:connector-curvature="0"
       id="path718-8"
       d="m 569.83834,520.49525 -9.38385,0.45774 -21.51417,5.26411 -20.59867,8.69722 -12.58808,8.23947 -5.95073,6.1796 -2.05987,3.20424 -4.80636,5.26411 -7.0951,10.29933 -6.1796,14.87682 -2.97536,9.84159 8.69722,-8.23947 13.04582,-11.67258 5.72186,-2.51762 3.66199,0.22888 1.60211,0.9155 5.95073,3.66198 14.87682,6.17961 16.93669,4.80635 17.62331,2.97537 8.69722,0.68662 10.07047,-0.22887 21.51417,-3.20424 20.3698,-5.26411 16.70781,-7.0951 5.72186,-3.89086 8.23947,5.95073 9.38384,7.55285 -0.9155,-5.95073 -3.20424,-9.84159 -4.80635,-8.23947 -5.72186,-6.63735 -3.43311,-2.51762 -3.66199,-3.89086 -7.78172,-6.86622 -12.58808,-8.23947 -18.76768,-7.0951 -19.91205,-3.43312 -10.07047,-0.45774 -2.28874,0 -2.51761,0 z"
       style="fill:#36201d;stroke:#060606;stroke-width:2.74649024" />
    <path
       inkscape:connector-curvature="0"
       id="path360-2"
       d="m 619.64245,629.95791 -0.45775,3.20424 -2.51761,3.43311 -2.51762,1.14437 -1.37324,0.22887 -1.37325,-0.22887 -2.51761,-1.14437 -2.51762,-3.43311 -0.45775,-3.20424 0.45775,-3.20424 2.51762,-3.66199 2.51761,-1.14437 1.37325,0 1.37324,0 2.51762,1.14437 2.51761,3.66199 0.45775,3.20424 z"
       style="fill:#000000;stroke:none" />
    <path
       inkscape:connector-curvature="0"
       id="path362-1"
       d="m 555.57489,631.51271 -0.45774,3.20424 -2.74649,3.43312 -2.28875,1.14437 -1.37324,0.22887 -1.60212,-0.22887 -2.28874,-1.14437 -2.74649,-3.43312 -0.22888,-3.20424 0.22888,-3.20423 2.74649,-3.43312 2.28874,-1.37324 1.60212,0 1.37324,0 2.28875,1.37324 2.74649,3.43312 0.45774,3.20423 z"
       style="fill:#000000;stroke:none" />
    <path
       inkscape:connector-curvature="0"
       id="path364-3"
       d="M 523.386,612.63601 560,602.36218"
       style="fill:none;stroke:#000000;stroke-width:5.95072889"
       sodipodi:nodetypes="cc" />
    <path
       inkscape:connector-curvature="0"
       id="path366-6"
       d="m 600,612.36218 25.14509,10.06431"
       style="fill:none;stroke:#000000;stroke-width:6.87563515"
       sodipodi:nodetypes="cc" />
    <rect
       style="fill:#312b2a;fill-opacity:1;stroke:#000000;stroke-width:8.34229183;stroke-linecap:butt;stroke-linejoin:round;stroke-miterlimit:4;stroke-opacity:1;stroke-dasharray:none;stroke-dashoffset:0"
       id="rect5318-3"
       width="38.49337"
       height="38.280167"
       x="1137.4557"
       y="-367.4534"
       transform="matrix(0.38061278,0.92473451,-0.38575404,0.92260166,0,0)" />
    <rect
       style="fill:#aa4400;fill-opacity:1;stroke:#000000;stroke-opacity:1"
       id="rect6010"
       width="520"
       height="20"
       x="313.73602"
       y="734.38251" />
    <rect
       style="fill:#aa4400;fill-opacity:1;stroke:#000000;stroke-opacity:1"
       id="rect6010-5"
       width="481.42856"
       height="140"
       x="332.30746"
       y="754.38251" />
    <path
       style="fill:#d45500;stroke:#000000;stroke-width:1px;stroke-linecap:butt;stroke-linejoin:miter;stroke-opacity:1"
       d="m 313.73603,734.38249 30,-10 450,0 40,10 z"
       id="path6078"
       inkscape:connector-curvature="0" />
    <path
       inkscape:connector-curvature="0"
       id="path4146"
       sodipodi:nodetypes="ccccccccc"
       style="fill:#b3b3b3;stroke:#000000;stroke-width:1.87460816;stroke-linecap:round"
       d="m 692.67131,592.71053 c 2.07898,-2.98169 2.46021,-6.94285 8.36471,-7.69504 l 90.6865,-0.44915 c 3.97623,1.54768 7.58897,3.31179 7.48258,7.24048 l -7.62,103.62869 c -0.54524,2.48926 -2.46022,4.5943 -6.10842,5.88221 l -80.93873,-0.45455 c -4.41065,-0.21646 -6.67139,-2.94382 -7.97463,-6.78592 l -3.89201,-101.36672 z" />
    <path
       inkscape:connector-curvature="0"
       id="path4152"
       style="fill:#000000;stroke:#000000;stroke-width:1.7342391;stroke-linecap:round"
       d="m 703.73603,604.38249 c 0.64276,28.29089 3.38625,53.58977 4.02901,81.88067 24.42923,0.29221 48.85403,0.58983 73.28326,0.88205 l 7.68773,-87.76272 c -27.51447,0.88206 -57.48553,4.11793 -85,5 z"
       sodipodi:nodetypes="ccccc" />
    <path
       inkscape:connector-curvature="0"
       id="path4162"
       sodipodi:nodetypes="ccc"
       style="fill:#cccccc;stroke:#000000;stroke-width:1.28199875;stroke-linecap:round"
       d="m 705.63619,725.54792 c 1.37141,10.13366 78.49071,9.12721 76.11648,0 -7.68104,-7.56956 -60.27741,-8.26582 -76.11648,0 z" />
    <path
       inkscape:connector-curvature="0"
       id="path4156"
       sodipodi:nodetypes="ccccc"
       style="fill:#b3b3b3;stroke:#000000;stroke-width:1.7993294;stroke-linecap:round"
       d="m 729.51603,701.15721 1.13193,21.9023 c 8.54443,4.28046 17.08885,6.00583 25.63328,0 l 4.14857,-21.9023 h -30.91378 z" />
    <path
       inkscape:connector-curvature="0"
       id="path4222"
       sodipodi:nodetypes="cccc"
       style="fill:#e6e6e6"
       d="m 732.26893,704.01451 1.02203,17.39107 7.50041,-17.39107 h -8.52244 z" />
    <path
       inkscape:connector-curvature="0"
       id="path5197"
       sodipodi:nodetypes="ccc"
       style="fill:#f2f2f2"
       d="m 714.16948,724.80909 c 2.94521,5.23857 20.05055,7.61502 28.93016,3.8518 l -28.93016,-3.8518 z" />
    <path
       id="path5241"
       sodipodi:rx="4.2857141"
       sodipodi:ry="4.4642859"
       style="fill:#99ff55"
       sodipodi:type="arc"
       d="m 210.35714,279.10715 a 4.2857141,4.4642859 0 1 1 -8.57143,0 4.2857141,4.4642859 0 1 1 8.57143,0 z"
       transform="matrix(0.67514691,0,0,0.67514691,648.1476,494.97165)"
       sodipodi:cy="279.10715"
       sodipodi:cx="206.07143" />
    <g
       transform="matrix(0.60442636,0.04206885,-0.04206885,0.60442636,258.74965,469.25587)"
       id="g3070">
      <path
         inkscape:connector-curvature="0"
         d="m 268.83,177.89 7.34,230.96 c -29.71,8.28 -59.43,13.35 -89.15,7.25 L 145.7,192.38 c 40.2,-12.68 82.93,-16.28 123.13,-14.49 z"
         style="fill:#b3b3b3;stroke:#000000;stroke-width:4.09350014;stroke-linecap:round"
         sodipodi:nodetypes="ccccc"
         id="path4164" />
      <path
         sodipodi:cx="189.64285"
         sodipodi:cy="265.35715"
         transform="matrix(1.2287,0,0,1.2287,-14.231,-15.404)"
         d="m 202.14285,265.35715 a 12.5,11.785714 0 1 1 -25,0 12.5,11.785714 0 1 1 25,0 z"
         sodipodi:type="arc"
         style="fill:#cccccc;stroke:#000000;stroke-width:3;stroke-linecap:round"
         sodipodi:ry="11.785714"
         sodipodi:rx="12.5"
         id="path4166" />
      <path
         inkscape:connector-curvature="0"
         d="m 174.9,221.14 2.55,23.73 71.74,-7.66 -0.85,-26.37 -73.44,10.3 z"
         style="fill:#cccccc;stroke:#000000;stroke-width:3.63249993;stroke-linecap:round"
         sodipodi:nodetypes="ccccc"
         id="path4168" />
      <path
         inkscape:connector-curvature="0"
         d="m 152.08,196.89 39.1,211.62 6.2,0.62 -35.37,-214.72 -9.93,2.48 z"
         style="fill:#f2f2f2"
         sodipodi:nodetypes="ccccc"
         id="path5237" />
      <path
         sodipodi:cx="206.07143"
         sodipodi:cy="279.10715"
         transform="matrix(1.2287,0,0,1.2287,-34.165,-29.496)"
         d="m 210.35714,279.10715 a 4.2857141,4.4642859 0 1 1 -8.57143,0 4.2857141,4.4642859 0 1 1 8.57143,0 z"
         sodipodi:type="arc"
         style="fill:#66ff00"
         sodipodi:ry="4.4642859"
         sodipodi:rx="4.2857141"
         id="path5239" />
    </g>
    <g
       transform="matrix(0.75838379,0,0,0.1101615,299.56776,677.35506)"
       id="g3093">
      <path
         inkscape:connector-curvature="0"
         d="M 268.78,431.6 237.45,487.08 481,488.04 452.83,424.95 268.78,431.6 z"
         style="fill:#cccccc;stroke:#000000;stroke-width:4.17689991;stroke-linecap:round"
         sodipodi:nodetypes="ccccc"
         id="path4172" />
      <path
         inkscape:connector-curvature="0"
         d="m 265.83,473.65 188.67,-3.14 -16.37,-31.69 -151.73,0.26 -20.57,34.57 z"
         style="fill:#e6e6e6"
         sodipodi:nodetypes="ccccc"
         id="path5243" />
    </g>
    <path
       inkscape:connector-curvature="0"
       id="path98"
       d="m 834.25382,918.51144 0.67312,-2.39202 6.28251,-8.48081 4.48751,-3.04439 6.05813,-2.17456 7.85314,-0.86983 4.48751,0.21746 6.28251,0.65237 10.09689,2.39202 7.40438,3.4793 5.38501,3.69676 4.71188,5.87133 1.79501,5.43641 0,0.65237 -0.22438,0.86983 -4.93626,1.52219 -14.80877,0.65237 -25.35441,-1.73965 -14.80877,-2.82693 -4.03876,-1.73966 -1.34625,-1.52219 0,-0.65237 z"
       style="fill:#3e432a;stroke:#000000;stroke-width:3.97599912" />
    <path
       inkscape:connector-curvature="0"
       id="path100"
       d="m 836.04882,831.09393 1.57063,2.82693 4.93626,4.56659 6.05813,2.82693 6.73126,0.86983 3.14125,-0.43492 3.14126,-1.08728 4.48751,-3.4793 2.24375,-4.78405 -0.22438,-5.87132 -1.12187,-2.82694 -1.79501,-3.04439 -4.71188,-4.56658 -6.28251,-2.82694 -6.50688,-0.86982 -3.36563,0.65237 -2.91688,0.86982 -4.48751,3.69676 -2.24375,4.78405 0,5.65386 1.34625,3.0444 z"
       style="fill:#cfc0a0;stroke:#000000;stroke-width:3.31333232" />
    <path
       inkscape:connector-curvature="0"
       id="path102"
       d="m 886.53327,829.78919 -0.8975,1.08728 -4.71188,0.43491 -11.66752,-2.17456 -18.39878,-6.74115 -10.32126,-5.87133 -3.36563,-3.69676 0.22437,-1.30474 4.26313,-17.39652 8.52627,-26.96461 8.30188,-19.35362 7.85314,-12.39502 7.18001,-7.39353 6.50689,-3.26184 8.07751,-0.65237 3.59,0.86982 2.24376,2.17457 3.36563,5.87132 2.01938,8.04589 0.44875,10.65537 -1.57063,20.006 -6.73126,35.88032 -4.93626,22.18057 z"
       style="fill:#452789;stroke:#000000;stroke-width:4.19688797" />
    <path
       inkscape:connector-curvature="0"
       id="path104"
       d="m 934.54959,827.83208 -2.6925,0 -15.25752,0.43491 -20.41816,2.60948 -11.89189,2.82693 -10.32127,3.47931 -7.85313,4.13167 -5.83376,4.56659 -2.91688,5.0015 -0.22438,2.60947 0,41.96911 0.22438,2.60948 2.91688,5.0015 5.60938,4.56658 8.07751,4.13168 10.09689,3.4793 11.8919,2.60948 20.41815,2.82693 15.25753,0.21746 2.6925,0 15.25752,-0.21746 20.41816,-2.82693 11.89189,-2.60948 10.32127,-3.4793 7.85314,-4.13168 5.8338,-4.56658 2.9168,-5.0015 0.2244,-2.60948 0,-41.96911 -0.2244,-2.60947 -2.9168,-5.0015 -5.6094,-4.56659 -8.07754,-4.13167 -10.09689,-3.47931 -11.8919,-2.82693 -20.41815,-2.60948 -15.25753,-0.43491 z"
       style="fill:#7c8f9a;stroke:#000000;stroke-width:5.08044291" />
    <path
       inkscape:connector-curvature="0"
       id="path106"
       d="m 900.44454,916.33687 0.8975,-29.57408"
       style="fill:none;stroke:none" />
    <path
       inkscape:connector-curvature="0"
       id="path108"
       d="m 900.44454,916.33687 0.8975,-29.57408"
       style="fill:none;stroke:#000000;stroke-width:3.31333232" />
    <path
       inkscape:connector-curvature="0"
       id="path110"
       d="m 922.6577,709.97065 0.44875,0 0.44875,0 0.22438,-0.21745 0.22437,0 0.22438,0 0.44875,0 0,0.21745 6.50688,0.43492 12.7894,3.91421 11.89189,6.74116 10.32127,8.91571 4.4875,5.0015 4.48751,5.65387 7.85314,11.96011 6.73126,12.61248 5.38501,13.04739 6.50686,20.65836 4.7119,28.26935 0.8975,14.35213 0.2244,7.39352 0.2244,11.74265 -0.8975,7.39352 -1.3463,3.26185 -5.60938,3.26185 -13.6869,4.78404 -22.88628,4.13167 -13.91127,1.73965 -8.07752,0.43492 -11.44314,0.43491 0,0 -1.34625,0 -1.12188,0 -0.22437,0 0,0 -11.44314,0.21746 -8.07752,0 -13.91127,-1.30474 -23.33503,-3.04439 -13.91127,-4.13168 -5.83376,-3.04439 -1.34625,-3.26185 -1.34626,-7.17606 -0.44875,-11.74265 -0.44875,-7.39352 0.22438,-14.35213 3.14125,-28.4868 5.16063,-20.87583 4.71189,-13.4823 5.83376,-12.82993 7.18001,-12.17757 4.03875,-5.87132 4.26313,-5.21896 9.87252,-9.35063 11.44314,-7.17606 12.56502,-4.56659 6.50689,-0.86983 0,0 0.44875,-0.21745 0.22437,0 0,0.21745 z"
       style="fill:#452789;stroke:#000000;stroke-width:5.08044291" />
    <path
       inkscape:connector-curvature="0"
       id="path112"
       d="m 1009.7153,851.31738 -2.0193,2.60948 -5.6094,3.69676 -6.50691,1.73965 -6.73126,-0.21746 -3.14126,-1.08728 -2.6925,-1.30474 -3.81438,-4.34913 -1.57063,-5.21895 1.34625,-5.43642 1.57063,-2.82693 2.24375,-2.60948 5.60939,-3.69676 6.50688,-1.73965 6.50684,0.21746 3.1413,1.08728 2.9169,1.52219 3.8144,4.13168 1.3462,5.21895 -1.1219,5.65387 -1.795,2.60948 z"
       style="fill:#cfc0a0;stroke:#000000;stroke-width:3.31333232" />
    <path
       inkscape:connector-curvature="0"
       id="path114"
       d="m 1021.6072,919.59872 0,-0.65237 -2.4681,-6.74115 -5.6094,-6.5237 -6.0581,-3.91421 -8.07753,-3.04439 -10.99439,-1.30474 -6.50689,0 -8.97501,0.65237 -14.80877,2.39202 -10.9944,3.91422 -8.07751,4.56658 -7.62876,6.74115 -3.59001,6.95861 -0.22437,0.65237 0,0.65237 1.57063,1.08728 5.60938,1.5222 20.86691,1.52219 36.12443,-1.08728 21.53999,-2.82693 6.2825,-1.95711 2.0194,-1.73965 0,-0.86983 z"
       style="fill:#3e432a;stroke:#000000;stroke-width:4.41777658" />
    <path
       inkscape:connector-curvature="0"
       id="path116"
       d="m 982.79029,840.44455 0.67313,1.08729 5.38501,1.08728 13.46247,-0.86983 21.5401,-5.0015 12.3406,-5.0015 4.0388,-3.26184 0.2244,-1.5222 -2.9169,-18.70126 -6.5069,-29.35662 -7.18,-21.09329 -7.4044,-14.13467 -7.18,-8.4808 -6.9557,-4.34913 -8.97497,-1.5222 -4.26313,0.65237 -2.91688,0.86983 -4.4875,4.56659 -3.14126,8.04589 -1.795,11.30773 -0.44875,21.96311 3.36563,39.57708 3.14125,24.13767 z"
       style="fill:#452789;stroke:#000000;stroke-width:4.63866568" />
    <path
       inkscape:connector-curvature="0"
       id="path118"
       d="m 940.60773,588.41247 -8.07751,0 -9.19939,0.21746 -17.72565,3.04439 -15.93065,5.65387 -14.36003,8.26334 -12.11626,10.003 -9.64814,12.17757 -6.95564,13.4823 -3.59,14.78704 -0.22438,7.61098 0,5.21896 0.22438,7.82843 3.59,14.56959 6.95564,13.69976 9.64814,11.9601 12.11626,10.22046 14.36003,8.04589 15.93065,5.65387 17.72565,3.04439 9.19939,0.21746 8.07751,0 9.19939,-0.21746 17.50127,-3.04439 16.15503,-5.65387 14.36002,-8.04589 12.11626,-10.22046 9.6481,-11.9601 6.7313,-13.69976 3.59,-14.56959 0.2244,-7.82843 0,-5.21896 -0.2244,-7.61098 -3.59,-14.78704 -6.7313,-13.4823 -9.6481,-12.17757 -12.11626,-10.003 -14.36002,-8.26334 -16.15503,-5.65387 -17.50127,-3.04439 -9.19939,-0.21746 z"
       style="fill:#cfc0a0;stroke:#000000;stroke-width:5.301332" />
    <path
       inkscape:connector-curvature="0"
       id="path120"
       d="m 587.53198,654.86464 -17.05253,3.26184"
       style="fill:none;stroke:#000000;stroke-width:4.63866568" />
    <path
       inkscape:connector-curvature="0"
       id="path122"
       d="m 908.77958,668.40176 0.44875,1.52219 1.795,2.60948 2.46813,1.5222 3.14126,0.65237 1.57062,-0.21746 1.57063,-0.43491 2.46813,-1.73965 1.795,-2.60948 0.67313,-2.82694 -0.22438,-1.52219 -0.44875,-1.5222 -1.795,-2.60948 -2.69251,-1.52219 -2.91687,-0.65237 -1.79501,0.21746 -1.57062,0.43491 -2.46813,1.73965 -1.79501,2.39202 -0.44875,3.04439 0.22438,1.5222 z"
       style="fill:#221f1f;stroke:none" />
    <path
       inkscape:connector-curvature="0"
       id="path124"
       d="m 854.07716,667.56664 0.44875,1.52219 1.79501,2.60948 2.46812,1.5222 3.14126,0.65237 1.57063,-0.21746 1.57062,-0.43491 2.69251,-1.73966 1.57063,-2.39202 0.67312,-3.04439 -0.22437,-1.52219 -0.44875,-1.5222 -1.79501,-2.60948 -2.46813,-1.52219 -3.14125,-0.65237 -1.57063,0.21745 -1.57063,0.43492 -2.6925,1.73965 -1.57063,2.39202 -0.67312,3.04439 0.22437,1.5222 z"
       style="fill:#221f1f;stroke:none" />
    <path
       inkscape:connector-curvature="0"
       id="path126"
       d="m 967.75714,544.70371 -1.57062,0.65237 -2.46813,3.91422 -2.24375,5.21896 -2.01938,2.82693 -1.79501,0.86983 -0.8975,-0.21746 -2.01937,-0.86982 -3.59001,-4.34913 -3.14125,-5.65387 -3.36564,-4.34913 -2.24375,-0.65237 -1.12188,0 -1.795,1.30474 -2.46813,3.69676 -3.14125,6.52369 -2.46813,3.91422 -2.01938,1.52219 -1.12187,0.21746 -1.12188,-0.21746 -2.01938,-1.52219 -2.46813,-3.69676 -2.91688,-6.5237 -2.46813,-3.91421 -2.01937,-1.08729 -0.89751,-0.21745 -1.12187,0.43491 -1.12188,1.30474 -0.22437,3.69676 0.8975,5.87132 -0.22438,3.91422 -0.8975,1.73965 -0.8975,0.21746 -2.24375,0 -4.26314,-3.26185 -4.26313,-5.0015 -3.36563,-2.60947 -2.01938,-0.65237 -1.12187,0.21745 -0.8975,0.65237 -1.34626,1.95711 -1.12187,4.78404 -0.8975,7.61098 -1.57063,6.5237 -1.57063,1.52219 -1.12188,0.21746 -2.24375,-0.43492 -4.03876,-2.60947 -5.60938,-5.0015 -4.03875,-2.60948 -2.24376,-0.43491 -0.8975,0.43491 -0.8975,0.65237 -0.44875,2.17456 0.8975,4.56659 2.46813,6.95861 0.8975,4.78404 -0.44875,2.39202 -0.67313,0.65237 -2.01937,0.86983 -5.83376,-1.30474 -6.73126,-2.82694 -4.48751,-1.08728 -2.24375,0.43492 -0.67313,0.65236 -0.67313,0.65237 0.22438,2.17457 2.6925,4.13167 4.93626,5.87133 2.6925,4.13167 0.44876,2.39202 -0.44876,0.86983 -0.67312,0.65237 -2.24375,0.65237 -5.16064,-0.86983 -7.62876,-1.95711 -4.93626,-0.65237 -2.24375,0.43492 -0.44875,0.86982 -0.44875,0.86983 0.67312,1.73965 3.14126,2.60948 5.83376,3.4793 3.14125,2.60948 0.8975,1.95711 -0.22437,0.86983 -0.67313,0.86982 -2.01937,1.30474 -4.71189,0.86983 -7.62876,0.65237 -4.48751,1.08728 -2.01937,1.30474 -0.44875,0.86982 0,1.95711 3.36563,4.34913 4.71188,4.56659 3.59,4.56659 0.22438,1.9571 -0.67313,1.95711 -4.71188,2.39202 -6.05813,1.95711 -4.48751,2.39202 -0.67313,1.73966 0.22438,0.86982 1.34625,1.30474 3.59001,1.30474 6.73126,0.86983 6.28251,1.08728 1.795,1.30474 1.57063,0.21745 4.26313,-0.65237 6.95563,-0.43491 3.14126,-1.08728 0.8975,-1.08728 0,-1.30474 -3.36563,-2.82694 -4.93626,-2.60948 -2.46813,-2.17456 -0.67312,-1.30474 0.22437,-0.65237 1.34625,-1.08728 5.16064,0.65237 6.50688,1.52219 5.38501,0.65237 1.34625,-0.86982 0.44875,-1.5222 -2.6925,-4.13167 -4.48751,-4.56659 -2.01938,-3.26185 -0.22437,-1.52219 0.44875,-0.65237 1.34625,-0.86983 4.71188,1.08729 5.83376,1.9571 4.93626,1.30474 1.57063,-0.65237 1.12187,-1.30474 -0.8975,-4.78404 -2.24375,-5.43641 -0.67313,-3.4793 0.22438,-1.5222 0.67312,-0.65237 1.79501,-0.21746 4.26313,2.39203 4.71188,3.69676 4.48751,2.60947 1.795,-0.43491 1.34625,-1.08728 1.12188,-4.78404 0.67313,-6.08879 1.34625,-4.56658 1.57062,-0.86983 1.57063,-0.21746 3.59001,2.60948 3.81438,3.69676 3.59,2.60948 1.79501,0 1.34625,-0.65237 0.22437,-3.69676 -0.67312,-4.56659 0.22437,-2.82693 0.8975,-1.08728 0.89751,-0.21746 1.57062,0.21746 2.91688,3.69676 2.46813,5.0015 2.91688,3.91421 1.795,0.43492 1.79501,-0.43492 2.91688,-3.69676 2.46812,-5.0015 2.69251,-3.69676 1.795,-0.21745 1.795,0.43491 2.91688,3.4793 2.69251,4.34913 3.14125,3.26185 1.57063,0.86983 1.795,-0.21746 2.24376,-3.04439 2.01937,-4.13167 2.24376,-2.82694 1.57062,0.21746 1.57063,0.86982 0.8975,4.34913 -0.22437,5.21896 0.8975,4.56659 1.34625,0.86982 2.01938,0.43492 4.71188,-2.17457 5.16063,-3.04439 4.71189,-1.95711 1.795,0.21746 1.12188,1.08728 -0.22438,3.4793 -1.795,4.34913 -0.44875,3.69677 1.12187,1.08728 1.79501,0.86982 4.71188,-0.21745 5.38501,-0.65237 4.71188,0 1.57063,0.86982 0.8975,1.08729 -1.34625,2.60947 -2.69251,2.82694 -1.34625,2.60948 0.67313,1.30474 1.57062,0.86982 5.16059,0 5.8338,-1.08728 4.9363,0 1.3462,1.08728 0.4488,1.30474 -2.6925,3.69676 -4.2632,3.69676 -2.9168,3.69676 0.4487,1.5222 1.3463,1.08728 5.385,1.30474 6.7312,0.65237 5.385,1.30474 1.1219,1.30474 0.2244,1.30474 -3.3656,3.26184 -5.1607,3.26185 -3.59,3.26185 -0.2244,1.52219 0.8975,1.30474 4.7119,0.43492 5.385,-0.21746 4.2632,0.65237 0.6731,1.30474 -0.2244,1.52219 -3.59,1.95711 -5.1606,1.5222 -3.8144,1.95711 -0.4488,1.30473 0.2244,1.30474 2.9169,1.95711 6.5069,2.82694 3.8144,1.95711 4.7118,-0.21746 8.5263,0.86982 4.0388,-0.86982 0.8975,-1.30474 0.2243,-0.86983 -0.6731,-1.73965 -3.1412,-2.17456 -5.6094,-2.82694 -3.1413,-2.39202 -0.8975,-1.73965 0.2244,-0.86983 1.1219,-1.95711 5.8337,-2.82693 7.4044,-2.60948 5.8338,-3.04439 0.6731,-1.95711 0,-0.86982 -1.3463,-1.95711 -3.8143,-2.39202 -7.18,-3.26185 -4.2632,-2.60948 -1.5706,-1.73965 -0.2244,-1.08728 0.2244,-0.86983 1.3463,-1.73965 3.59,-1.73965 6.2825,-2.17457 3.3656,-1.73965 1.3462,-1.73965 0,-0.86983 -0.2243,-1.08728 -1.5707,-1.08728 -4.0387,-0.21746 -6.7313,0.21746 -4.0387,-0.21746 -1.795,-1.08728 -0.4488,-0.86983 -0.2244,-1.08728 1.1219,-1.95711 3.59,-3.26185 6.0582,-4.34913 3.3656,-3.04439 0.8975,-1.95711 -0.2244,-1.08728 -0.4487,-0.86983 -2.2438,-1.30473 -4.9362,-0.86983 -8.0776,-0.86983 -6.7312,-1.52219 -1.5706,-1.5222 -0.2244,-0.86982 0.4487,-2.17457 2.9169,-3.69676 5.1606,-5.0015 2.6925,-3.4793 0.4488,-2.17457 -0.4488,-0.86982 -0.6731,-0.86983 -2.0194,-0.65237 -4.7118,0.21746 -6.9557,1.30474 -6.2825,0.43491 -1.795,-1.30474 -0.4487,-0.86983 -0.2244,-1.52219 1.5706,-2.82694 3.3656,-3.4793 1.3463,-2.60948 -0.2244,-1.52219 -0.6731,-0.86983 -2.0194,-1.08728 -5.6094,0 -6.2825,1.08728 -5.83373,0.21746 -2.01938,-0.86983 -0.8975,-0.86982 -0.44875,-1.73966 0.67312,-3.69676 2.01938,-5.65387 0.44875,-3.4793 -0.67313,-1.73965 -0.8975,-0.65237 -0.8975,-0.43491 -2.46813,0.43491 -4.26313,2.17456 -6.28251,4.13168 -5.83376,2.82693 -2.24375,-0.43491 -0.8975,-0.43491 -1.12188,-2.17457 -0.44875,-4.34913 0.22438,-6.95861 -0.67313,-4.34913 -1.12188,-1.95711 -1.12187,-0.43491 -0.44875,-0.21746 -0.44876,0 z"
       style="fill:#79602d;stroke:none" />
    <path
       inkscape:connector-curvature="0"
       id="path628"
       d="m 305.78614,788.25613 -1.4751,2.73947 -4.63602,4.42529 -5.68966,2.73947 -6.32185,0.84291 -2.95019,-0.63219 -2.9502,-0.84291 -4.21456,-3.37165 -2.10728,-4.84675 0.21072,-5.47893 1.05364,-2.9502 1.68583,-2.73947 4.63602,-4.42529 5.68966,-2.73947 6.11112,-0.84291 3.16093,0.63219 2.73946,0.84291 4.21457,3.37165 2.10728,4.84675 0,5.47893 -1.26437,2.9502 z"
       style="fill:#e3d2b0;stroke:#000000;stroke-width:4.63602161" />
    <path
       inkscape:connector-curvature="0"
       id="path630"
       d="m 271.22671,579.42445 1.26437,1.68582 7.58622,13.06515 6.32184,13.06516 5.90039,16.4368 4.63603,19.17627 2.31801,21.28355 -1.05365,17.06899 -1.89655,11.80078 -1.4751,5.90039 -0.84291,2.73946 -2.73947,5.26821 -6.32184,6.95403 -11.37933,7.58622 -13.06515,5.68966 -20.22991,6.11112 -19.80845,3.58238 -2.10729,0.21073 5.90039,-139.92355"
       style="fill:none;stroke:none" />
    <path
       inkscape:connector-curvature="0"
       id="path632"
       d="m 271.22671,579.42445 1.26437,1.68582 7.58622,13.06515 6.32184,13.06516 5.90039,16.4368 4.63603,19.17627 2.31801,21.28355 -1.05365,17.06899 -1.89655,11.80078 -1.4751,5.90039 -0.84291,2.73946 -2.73947,5.26821 -6.32184,6.95403 -11.37933,7.58622 -13.06515,5.68966 -20.22991,6.11112 -19.80845,3.58238 -2.10729,0.21073 5.90039,-139.92355"
       style="fill:#312b2a;fill-opacity:1;stroke:#000000;stroke-width:2.95019507" />
    <path
       inkscape:connector-curvature="0"
       id="path634"
       d="m 258.37229,786.99176 0.84291,0.84291 4.42529,0.42146 10.95787,-2.10728 17.27972,-6.53258 9.6935,-5.68966 3.16092,-3.37165 -0.21073,-1.4751 -4.00383,-16.85826 -8.00768,-26.1303 -7.79694,-18.54408 -7.37549,-12.22224 -6.7433,-6.95403 -6.11112,-3.37166 -7.58622,-0.42145 -3.37165,0.84291 -2.10728,1.89655 -3.16093,5.68967 -1.89655,8.00767 -0.42146,10.11496 1.4751,19.38699 6.32185,34.77016 4.63602,21.70501 z"
       style="fill:#236670;stroke:#000000;stroke-width:4.00383615" />
    <path
       inkscape:connector-curvature="0"
       id="path636"
       d="m 216.43737,778.14117 2.31801,0 14.54025,0.42146 19.17627,2.52874 11.16859,2.73947 9.48277,3.37165 7.58622,4.00383 5.26821,4.4253 2.73946,4.84675 0.42146,2.52874 0,40.67055 -0.21073,2.52873 -2.73946,4.84675 -5.47894,4.4253 -7.37549,4.00383 -9.6935,3.37165 -11.16859,2.73947 -19.17627,2.52874 -14.32952,0.42146 -2.52874,0 -14.32952,-0.42146 -19.17627,-2.52874 -11.1686,-2.73947 -9.48277,-3.37165 -7.58621,-4.00383 -5.26821,-4.4253 -2.73947,-4.84675 -0.42145,-2.52873 0,-40.67055 0.21073,-2.52874 2.73946,-4.84675 5.47894,-4.4253 7.37548,-4.00383 9.6935,-3.37165 11.1686,-2.73947 19.17627,-2.52874 14.32952,-0.42146 z"
       style="fill:#ffffff;stroke:#000000;stroke-width:4.84674931" />
    <path
       inkscape:connector-curvature="0"
       id="path638"
       d="m 248.25733,863.90757 -0.63218,-28.65904"
       style="fill:none;stroke:none" />
    <path
       inkscape:connector-curvature="0"
       id="path640"
       d="m 248.25733,863.90757 -0.63218,-28.65904"
       style="fill:none;stroke:#000000;stroke-width:3.16092348" />
    <path
       inkscape:connector-curvature="0"
       id="path642"
       d="m 224.44504,670.66977 -0.42145,0 -0.42146,0 -0.21073,0 -0.21073,0 -0.21073,0 -0.42145,0 0,0 -6.11112,0.63219 -12.01151,3.79311 -11.1686,6.53257 -9.6935,8.42913 -4.21456,5.05748 -4.21456,5.47893 -7.37549,11.37933 -6.32185,12.22224 -5.05748,12.85442 -6.11112,19.80845 -4.42529,27.6054 -0.84291,13.69734 -0.21073,7.37548 -0.21073,11.37933 1.05364,6.95403 1.05364,3.16092 5.26821,3.37166 12.85442,4.42529 21.49428,4.21456 13.06515,1.68583 7.58622,0.42146 10.74714,0.42145 0,0 1.26437,0 1.05364,0 0.21073,0 10.74714,0.21073 7.58621,-0.21073 13.06515,-1.05364 21.91574,-3.16092 13.06515,-3.79311 5.47894,-2.9502 1.26437,-3.16092 1.26436,-6.95403 0.42146,-11.37933 0.42146,-7.37548 -0.21073,-13.69734 -2.9502,-27.81613 -4.84675,-20.01918 -4.42529,-13.06515 -5.47893,-12.43296 -6.74331,-12.01151 -3.7931,-5.47894 -4.00384,-5.2682 -9.27204,-8.85059 -10.74714,-7.16476 -11.80078,-4.42529 -6.11112,-0.84292 0,0 -0.42146,0 -0.21073,0 z"
       style="fill:#236670;stroke:#000000;stroke-width:4.84674931" />
    <path
       inkscape:connector-curvature="0"
       id="path644"
       d="m 314.21527,861.37883 -0.63218,-2.31801 -5.90039,-8.2184 -4.21457,-2.9502 -5.68966,-2.10728 -7.37549,-0.84292 -4.21456,0.21073 -5.9004,0.63219 -9.48277,2.31801 -6.95403,3.16092 -4.84675,3.79311 -4.63602,5.47893 -1.68582,5.47894 0,0.63218 0.21072,0.84292 4.63603,1.47509 13.90806,0.63219 23.81229,-1.68583 13.90806,-2.73946 3.79311,-1.89656 1.26437,-1.26437 0,-0.63218 z"
       style="fill:#2c3873;stroke:#000000;stroke-width:5.05747795" />
    <path
       inkscape:connector-curvature="0"
       id="path646"
       d="m 137.62501,807.85386 1.89655,2.52873 5.26821,3.58238 6.11112,1.68583 6.32185,-0.21073 2.95019,-1.05364 2.73947,-1.4751 3.58238,-4.00383 1.26437,-5.05748 -1.05364,-5.47894 -1.68583,-2.52873 -2.10728,-2.52874 -5.26821,-3.58238 -6.11112,-1.68583 -6.11112,0.21073 -2.95019,1.05364 -2.73947,1.26437 -3.58238,4.21456 -1.26437,5.05748 1.05364,5.26821 1.68583,2.73947 z"
       style="fill:#e3d2b0;stroke:#000000;stroke-width:4.63602161" />
    <path
       inkscape:connector-curvature="0"
       id="path648"
       d="m 207.58678,553.08342 7.58622,0 8.63986,0.21073 16.64753,2.95019 14.9617,5.47894 13.48661,7.79694 11.37932,9.90423 9.06132,11.59005 6.53257,13.06515 3.37166,14.32952 0.21072,7.58622 0,5.05748 -0.21072,7.37548 -3.37166,14.32952 -6.53257,13.06515 -9.06132,11.59006 -11.37932,9.90422 -13.48661,8.00768 -14.9617,5.47893 -16.64753,2.9502 -8.63986,0.21073 -7.58622,0 -8.63985,-0.21073 -16.43681,-2.9502 -15.17243,-5.47893 -13.48661,-8.00768 -11.37932,-9.90422 -9.06131,-11.59006 -6.32185,-13.06515 -3.37165,-14.32952 -0.21073,-7.37548 0,-5.05748 0.21073,-7.58622 3.37165,-14.32952 6.32185,-13.06515 9.06131,-11.59005 11.37932,-9.90423 13.48661,-7.79694 15.17243,-5.47894 16.43681,-2.95019 8.63985,-0.21073 z"
       style="fill:#e3d2b0;stroke:#000000;stroke-width:5.05747795" />
    <path
       inkscape:connector-curvature="0"
       id="path650"
       d="m 153.2189,867.48995 0.21073,-0.84292 2.31801,-6.32184 5.2682,-6.32185 5.47894,-3.79311 7.79694,-2.95019 10.11496,-1.4751 6.32184,0.21073 8.42913,0.42145 13.69734,2.52874 10.53641,3.58238 7.58622,4.42529 7.16476,6.74331 3.37165,6.53257 0,0.84292 0.21073,0.63218 -1.4751,1.05364 -5.47893,1.26437 -19.59773,1.4751 -33.92725,-0.84291 -20.22991,-2.73947 -5.90039,-2.10728 -1.68582,-1.4751 -0.21073,-0.84291 z"
       style="fill:#2c3873;stroke:#000000;stroke-width:5.05747795" />
    <path
       inkscape:connector-curvature="0"
       id="path660"
       d="m 231.18835,634.84597 0.21072,1.4751 -0.42145,2.9502 -1.68583,2.31801 -2.31801,1.89655 -1.4751,0.42146 -1.47509,0.21073 -2.9502,-0.63219 -2.31801,-1.4751 -1.89655,-2.52873 -0.42146,-1.4751 -0.21073,-1.4751 0.63219,-2.9502 1.47509,-2.31801 2.52874,-1.68582 1.4751,-0.42146 1.4751,-0.21073 2.95019,0.42146 2.31801,1.68583 1.68583,2.31801 0.42146,1.47509 z"
       style="fill:#221f1f;stroke:none" />
    <path
       inkscape:connector-curvature="0"
       id="path662"
       d="m 292.08881,630.42068 -0.21073,1.4751 -1.05364,2.73947 -2.10729,2.10728 -2.73946,1.05364 -1.4751,0.21073 -1.4751,-0.21073 -2.73947,-1.05364 -2.10728,-2.10728 -1.05364,-2.73947 -0.21073,-1.4751 0.21073,-1.68582 1.05364,-2.52874 2.10728,-2.10729 2.73947,-1.26437 1.4751,0 1.4751,0 2.73946,1.26437 2.10729,2.10729 1.05364,2.52874 0.21073,1.68582 z"
       style="fill:#221f1f;stroke:none" />
    <path
       inkscape:connector-curvature="0"
       id="path664"
       d="m 155.74764,654.65443 -0.84292,0.63218 -2.31801,0.63219 -3.7931,-0.84292 -2.31801,-1.89655 -1.26437,-1.4751 -1.26437,-3.16092 0,-3.16092 1.26437,-2.73947 1.05364,-1.05364 1.4751,-1.26437 3.58238,-0.84291 2.10728,0"
       style="fill:none;stroke:#000000;stroke-width:3.79310822" />
    <path
       inkscape:connector-curvature="0"
       id="path668"
       d="m 220.86266,545.91866 -6.7433,0.21073 -6.95403,0.63218 -8.00768,1.05364 -6.11111,1.05364 -11.59006,2.73947 -10.95787,4.21457 -10.11495,5.05747 -9.06131,6.11112 -8.42913,7.16476 -7.16476,7.79695 -5.90039,8.63985 -2.52874,4.63603 -0.84292,-0.42146 -0.84291,1.68583 -7.79694,18.96554 -7.37549,24.23374 -4.4253,19.387 -3.16092,21.70501 -1.4751,23.60156 0.21073,12.22224 0.42146,4.42529 1.68582,7.37549 2.9502,6.11112 3.79311,4.63602 4.84675,3.58238 5.2682,2.52874 8.63986,2.31801 12.22224,0.42146 11.16859,-1.26437 12.85443,-2.73947 1.89655,-0.63218 0.21073,-7.37549 -0.84291,-14.11879 -2.73947,-20.65137 -2.52874,-20.65137 -0.63218,-14.11879 0.63218,-14.75098 3.16092,-15.59389 2.52874,-8.2184 139.29137,-17.9119 -1.26437,-6.95403 -5.26821,-12.85442 -7.37549,-11.80078 -9.6935,-10.11496 -11.37932,-8.42913 -13.06515,-6.7433 -14.32952,-4.63602 -15.38316,-2.31801 -7.79695,-0.21073 z"
       style="fill:#312b2a;stroke:#000002;stroke-width:2.52873898" />
    <path
       inkscape:connector-curvature="0"
       id="path670"
       d="m 173.02735,797.10672 -0.63218,1.26436 -5.05748,0.84292 -12.64369,-0.84292 -20.22991,-4.63602 -11.59006,-4.84675 -3.7931,-3.16092 -0.21073,-1.68583 2.73946,-18.12262 6.11112,-28.44832 6.74331,-20.44063 6.7433,-13.69734 6.95403,-8.2184 6.53258,-4.00384 8.42913,-1.47509 4.00383,0.42145 2.73947,0.84291 4.21456,4.63603 2.9502,7.79694 1.68583,10.74714 0.42145,21.28355 -3.16092,38.56327 -2.9502,23.18011 z"
       style="fill:#236670;stroke:#000000;stroke-width:4.42529297" />
    <path
       inkscape:connector-curvature="0"
       id="path310"
       d="m 220.86699,908.16246 -1.56539,2.90716 -4.91981,4.69617 -6.03794,3.13078 -6.48519,0.67089 -3.35441,-0.44726 -2.90716,-1.11813 -4.47254,-3.57804 -2.4599,-4.91981 0.22362,-5.81431 1.34177,-3.13078 1.56539,-2.90716 4.9198,-4.69617 6.03794,-2.90716 6.70882,-0.89451 3.13078,0.44726 3.13079,1.11814 4.47255,3.57803 2.23627,4.91981 -0.22363,6.03793 -1.34176,2.90716 z"
       style="fill:#ab926c;stroke:#000000;stroke-width:4.91980267" />
    <path
       inkscape:connector-curvature="0"
       id="path312"
       d="m 170.55083,906.8207 0.89451,1.11813 4.69617,0.44726 11.62863,-2.23628 18.33744,-6.93244 10.28686,-6.03794 3.35441,-3.57804 0,-1.56539 -4.47255,-17.89019 -8.49784,-27.7298 -8.27421,-19.67921 -7.60333,-12.97039 -7.3797,-7.60333 -6.26157,-3.35441 -8.05059,-0.44725 -3.80166,0.89451 -2.23628,2.01264 -3.35441,6.03794 -1.78902,8.49784 -0.44725,10.73412 1.56539,20.57372 6.4852,36.89851 4.9198,22.81 z"
       style="fill:#db2944;stroke:#000000;stroke-width:4.24891996" />
    <path
       inkscape:connector-curvature="0"
       id="path314"
       d="m 126.04898,897.65197 2.68353,0 15.20666,0.44726 20.35009,2.68353 11.85225,2.90715 10.06323,3.57804 8.05059,4.24892 5.81431,4.69618 2.90716,5.14343 0.22363,2.68352 0,43.16009 -0.22363,2.68353 -2.90716,5.14343 -5.59068,4.69617 -8.05059,4.24892 -10.06323,3.57804 -11.85225,2.68353 -20.35009,2.90716 -15.20667,0.22362 -2.68352,0 -15.20667,-0.22362 -20.350087,-2.90716 -11.852251,-2.68353 -10.28686,-3.57804 -8.050585,-4.24892 -5.590685,-4.69617 -2.907156,-5.14343 -0.223627,-2.68353 0,-43.16009 0.223627,-2.68352 2.907156,-5.14343 5.590685,-4.69618 8.050585,-4.24892 10.063232,-3.57804 11.852251,-2.90715 20.350095,-2.68353 15.20666,-0.44726 z"
       style="fill:#231d49;stroke:#000000;stroke-width:5.14342976" />
    <path
       inkscape:connector-curvature="0"
       id="path316"
       d="m 159.81671,988.66832 -0.67088,-30.41333"
       style="fill:none;stroke:none" />
    <path
       inkscape:connector-curvature="0"
       id="path318"
       d="m 159.81671,988.66832 -0.67088,-30.41333"
       style="fill:none;stroke:#000000;stroke-width:3.35441065" />
    <path
       inkscape:connector-curvature="0"
       id="path320"
       d="m 134.54682,783.60201 -0.44726,0 -0.22362,0 -0.22363,0 -0.22363,0 -0.44725,0 -0.44726,0 0,0 -6.48519,0.44725 -12.74676,4.0253 -11.85225,6.93245 -10.286862,9.16872 -4.472548,5.36706 -4.472548,5.59068 -7.826958,12.29951 -6.708821,12.97038 -5.367057,13.64127 -6.261567,21.02098 -4.919802,29.29519 -0.89451,14.53577 0,7.82696 -0.447255,11.85225 1.118137,7.60334 1.118137,3.35441 5.590685,3.35441 13.64127,4.9198 23.03362,4.24892 13.641269,2.01265 8.27421,0.44725 11.405,0.22363 0,0 1.11814,0.22363 1.11813,0 0.22363,0 0,0 11.405,0.22362 8.27421,-0.22362 13.8649,-1.11814 23.03362,-3.35441 13.8649,-4.0253 5.81431,-3.13078 1.34176,-3.35441 1.56539,-7.60333 0.22363,-11.85225 0.44726,-7.82696 0,-14.75941 -3.13079,-29.29518 -5.14343,-21.46823 -4.69617,-13.64127 -6.03794,-13.41764 -7.15608,-12.52314 -4.02529,-5.81431 -4.24892,-5.59068 -9.8396,-9.61598 -11.18137,-7.37971 -12.52314,-4.69617 -6.70882,-0.89451 0,0 -0.22363,0 -0.44725,0 z"
       style="fill:#db2944;stroke:#000000;stroke-width:5.14342976" />
    <path
       inkscape:connector-curvature="0"
       id="path322"
       d="m 229.81208,985.98479 -0.44725,-2.4599 -6.4852,-8.72147 -4.47254,-3.13078 -6.03794,-2.23628 -7.60333,-0.89451 -4.69618,0.22363 -6.26156,0.67088 -9.83961,2.4599 -7.60333,3.35441 -5.14343,4.0253 -4.69618,5.81431 -2.01264,5.81431 0,0.44726 0.22363,1.11813 5.14343,1.34177 14.53578,0.67088 25.26989,-1.56539 14.75941,-2.90716 4.24892,-2.01264 1.11813,-1.34177 0,-0.67088 z"
       style="fill:#3e432a;stroke:#000000;stroke-width:5.36705732" />
    <g
       style="display:inline"
       transform="matrix(0.32736627,0.4691307,-0.4691307,0.32736627,130.20002,786.00039)"
       id="layer1-6">
      <g
         id="g7484"
         transform="matrix(1.2394,0,0,1.2394,-157.81,-796.13)">
        <g
           id="g16395"
           transform="matrix(0.50432,0,0,0.50432,25.559,879.69)">
          <path
             inkscape:connector-curvature="0"
             id="path12836"
             style="fill:#ff0202;fill-rule:evenodd;stroke:#000000;stroke-width:2"
             d="m 377.69,-384.88 179.61,-49.26 v 99.55 l -179.61,-50.29 z" />
          <path
             inkscape:connector-curvature="0"
             id="path13723"
             style="fill:url(#linearGradient7500);fill-rule:evenodd"
             d="m 554.21,-429.28 -162.86,44.38 162.86,-8.28 v -36.1 z" />
        </g>
        <path
           inkscape:connector-curvature="0"
           id="path11064"
           style="fill:#000000;fill-rule:evenodd;stroke:#000000;stroke-width:0.50432003px"
           d="m 229.99,680.76 c 0,0 -27.14,0.44 -33.33,0 -7.25,-0.51 -0.61,2.77 -6.89,6.72 -3.55,2.24 -5.72,4.51 -9.34,10.37 -3.75,6.08 -8.28,40.03 -8.28,40.03 0,0 4.18,3.04 5.28,-0.7 0.9,-3.03 2.44,-28.57 7.19,-35.76 4.58,-6.94 5.23,-6.11 8.57,-7.74 6.7,-3.28 4.86,-2.55 13.18,-2.6 8.34,-0.05 23.63,-0.51 23.63,-0.51 l -0.01,-9.81 z" />
        <rect
           id="rect9273"
           style="fill:url(#linearGradient7502);stroke:#000000;stroke-width:1.2608"
           rx="9.8344002"
           ry="9.8344002"
           height="53.830002"
           width="19.669001"
           y="664.89001"
           x="221.47" />
        <g
           id="g5610"
           transform="translate(20.528,55.425)">
          <rect
             id="rect3919"
             style="fill:#ff0707;stroke:#000000;stroke-width:3.42939997"
             rx="42.183998"
             ry="42.183998"
             height="212.73"
             width="84.369003"
             y="651.39001"
             x="168.59" />
          <path
             inkscape:connector-curvature="0"
             id="rect5693"
             style="fill:url(#linearGradient7504)"
             d="m 209.28,658.07 c -19.53,0 -35.25,15.71 -35.25,35.24 v 60.59 l 6.86,-63.21 c 2.07,-19.1 18.87,-32.89 37.9,-31.33 -3.02,-0.84 -6.21,-1.29 -9.51,-1.29 z" />
          <path
             inkscape:connector-curvature="0"
             id="path9261"
             style="fill:url(#linearGradient7506)"
             d="m 211.62,857.18 c 19.53,0 35.26,-15.72 35.26,-35.25 v -60.59 l -6.86,63.21 c -2.08,19.1 -18.88,32.9 -37.91,31.34 3.02,0.84 6.21,1.29 9.51,1.29 z" />
          <rect
             id="rect4806"
             style="fill:#ffffff;stroke:#000000;stroke-width:1.2608"
             height="82.816002"
             width="43.478001"
             y="713.5"
             x="204.82001" />
        </g>
        <path
           inkscape:connector-curvature="0"
           id="path4640"
           style="fill:url(#linearGradient7508);stroke:#000000;stroke-width:0.52535999"
           d="m 246.47,676.74 h -5.2 c -0.01,4.04 -4.41,4.16 -4.38,8.73 0.02,4.55 4.35,4.66 4.32,8.62 h 5.26 v -17.35 z" />
        <g
           id="g5538"
           transform="translate(-69.467,29.297)">
          <rect
             id="rect4649"
             style="fill:#000000;stroke:#000000;stroke-width:0.81002003"
             height="5.2814999"
             width="26.666"
             y="675.77002"
             x="287.04001" />
          <rect
             id="rect1950"
             style="fill:url(#linearGradient7510);stroke:#000000;stroke-width:0.81002003"
             height="5.2814999"
             width="26.666"
             y="673.03998"
             x="287.01999" />
        </g>
      </g>
    </g>
    <path
       inkscape:connector-curvature="0"
       id="path324"
       d="m 42.412339,929.18343 2.236274,2.45991 5.590684,3.80166 6.485194,2.01265 6.485194,-0.22363 3.130783,-1.11814 2.907156,-1.56539 3.801666,-4.24892 1.341764,-5.36706 -1.118137,-5.81431 -1.789019,-2.68353 -2.012646,-2.68352 -5.590685,-3.80167 -6.485194,-2.01265 -6.708821,0.44726 -3.130783,1.11813 -2.683529,1.34177 -3.801665,4.24892 -1.565392,5.36706 1.341764,5.81431 1.565392,2.90715 z"
       style="fill:#ab926c;stroke:#000000;stroke-width:4.91980267" />
    <path
       inkscape:connector-curvature="0"
       id="path326"
       d="m 80.205366,917.77844 -0.89451,1.34176 -5.367057,0.89451 -13.194015,-0.89451 -21.468229,-4.9198 -12.299505,-5.14343 -4.248921,-3.57804 0,-1.56539 2.683529,-19.23195 6.485194,-30.1897 7.156076,-21.69186 7.379704,-14.53578 7.156076,-8.72146 6.932449,-4.47255 8.945095,-1.34177 4.24892,0.44726 2.907156,0.89451 4.472548,4.9198 3.130783,8.27421 1.789019,11.405 0.447255,22.58637 -3.354411,40.70018 -2.907156,24.82264 z"
       style="fill:#db2944;stroke:#000000;stroke-width:4.6961751" />
    <path
       inkscape:connector-curvature="0"
       id="path328"
       d="m 116.88026,658.5943 8.05058,0 9.16872,0.44726 17.44294,2.90716 16.10117,6.03793 14.31215,8.27422 12.07588,10.51048 9.61598,12.29951 6.70882,13.8649 3.57804,15.20666 0.22363,8.05059 0,5.14343 -0.22363,8.05058 -3.57804,15.20666 -6.70882,13.8649 -9.61598,12.29951 -12.07588,10.51048 -14.31215,8.27422 -16.10117,6.03794 -17.44294,2.90715 -9.16872,0.44726 -8.05058,0 -9.16873,-0.44726 -17.666559,-2.90715 -15.877544,-6.03794 -14.312153,-8.27422 -12.075878,-10.51048 -9.615977,-12.29951 -6.932449,-13.8649 -3.578038,-15.20666 -0.223628,-8.05058 0,-5.14343 0.223628,-8.05059 3.578038,-15.20666 6.932449,-13.8649 9.615977,-12.29951 12.075878,-10.51048 14.312153,-8.27422 15.877544,-6.03793 17.666559,-2.90716 9.16873,-0.44726 z"
       style="fill:#ab926c;stroke:#000000;stroke-width:5.36705732" />
    <path
       inkscape:connector-curvature="0"
       id="path330"
       d="m 64.551449,992.24636 0,-0.67089 2.459902,-6.70882 5.590684,-6.70882 6.037939,-4.02529 8.050586,-3.13079 10.957742,-1.56539 6.485198,0 8.94509,0.67088 14.53578,2.68353 11.18137,3.80167 8.05059,4.69617 7.60333,7.15608 3.57803,6.93245 0,0.67088 0.22363,0.89451 -1.56539,1.11814 -5.59068,1.34176 -20.79735,1.56537 -36.227636,-0.8945 -21.244602,-2.90714 -6.261566,-2.23628 -2.012647,-1.78901 0,-0.89451 z"
       style="fill:#3e432a;stroke:#000000;stroke-width:5.36705732" />
    <path
       inkscape:connector-curvature="0"
       id="path370"
       d="m 141.92652,682.74606 -2.23627,1.56539 -3.13078,4.47255 -1.11814,5.14343 0.89451,5.14343 1.34176,2.4599 1.78902,2.68353 4.9198,3.35441 5.81432,1.34177 6.26156,-0.89451 2.68353,-1.5654 2.90716,-2.01264 4.02529,-5.81431 1.34176,-6.70883 -1.11813,-6.93244 -1.56539,-3.13079 -2.45991,-3.35441 -6.48519,-4.47255 -7.60333,-1.78902 -7.82696,1.34177 -3.80166,2.01265 -3.80167,2.68352 -4.9198,7.37971 -2.01265,8.72147 1.56539,8.94509 2.01265,4.02529 3.13078,4.47255 8.49784,5.59069 9.83961,2.01264 10.06323,-1.56539 4.69618,-2.4599 2.4599,-1.56539 4.24892,-4.24892 4.47254,-7.15608 2.45991,-11.18137 -1.11814,-8.49784 -2.01265,-5.59068 -1.56539,-2.4599 -2.68353,-3.80167 -3.13078,-3.13078"
       style="fill:none;stroke:none" />
    <path
       inkscape:connector-curvature="0"
       id="path372"
       d="m 141.92652,682.74606 -2.23627,1.56539 -3.13078,4.47255 -1.11814,5.14343 0.89451,5.14343 1.34176,2.4599 1.78902,2.68353 4.9198,3.35441 5.81432,1.34177 6.26156,-0.89451 2.68353,-1.5654 2.90716,-2.01264 4.02529,-5.81431 1.34176,-6.70883 -1.11813,-6.93244 -1.56539,-3.13079 -2.45991,-3.35441 -6.48519,-4.47255 -7.60333,-1.78902 -7.82696,1.34177 -3.80166,2.01265 -3.80167,2.68352 -4.9198,7.37971 -2.01265,8.72147 1.56539,8.94509 2.01265,4.02529 3.13078,4.47255 8.49784,5.59069 9.83961,2.01264 10.06323,-1.56539 4.69618,-2.4599 2.4599,-1.56539 4.24892,-4.24892 4.47254,-7.15608 2.45991,-11.18137 -1.11814,-8.49784 -2.01265,-5.59068 -1.56539,-2.4599 -2.68353,-3.80167 -3.13078,-3.13078"
       style="fill:#808000;fill-opacity:1;stroke:#000000;stroke-width:3.57803798" />
    <path
       inkscape:connector-curvature="0"
       id="path374"
       d="m 68.129487,673.80097 -1.565391,-0.89451 -2.012647,-3.13079 -0.670882,-3.35441 0.447255,-3.57804 0.89451,-1.56539 1.341764,-1.78902 3.354411,-2.23627 3.801665,-0.89451 4.025293,0.67088 2.012646,0.89451 1.789019,1.34177 2.683529,3.80166 0.894509,4.69618 -0.670882,4.69617 -1.118137,2.01265 -1.565391,2.23627 -4.248921,3.13079 -5.143429,1.11813 -5.367057,-0.89451 -2.459902,-1.34176 -2.459901,-1.78902 -3.35441,-4.9198 -1.341765,-6.03794 1.118137,-5.81431 1.341764,-2.90716 2.012647,-2.90716 5.590684,-3.80166 6.708822,-1.34177 6.708821,1.11814 3.130783,1.56539 3.130784,2.4599 4.472547,6.26157 1.565392,7.60333 -1.341764,7.60333 -1.789019,3.57804 -1.789019,2.4599 -2.236274,2.23628"
       style="fill:none;stroke:none" />
    <path
       inkscape:connector-curvature="0"
       id="path376"
       d="m 68.129487,673.80097 -1.565391,-0.89451 -2.012647,-3.13079 -0.670882,-3.35441 0.447255,-3.57804 0.89451,-1.56539 1.341764,-1.78902 3.354411,-2.23627 3.801665,-0.89451 4.025293,0.67088 2.012646,0.89451 1.789019,1.34177 2.683529,3.80166 0.894509,4.69618 -0.670882,4.69617 -1.118137,2.01265 -1.565391,2.23627 -4.248921,3.13079 -5.143429,1.11813 -5.367057,-0.89451 -2.459902,-1.34176 -2.459901,-1.78902 -3.35441,-4.9198 -1.341765,-6.03794 1.118137,-5.81431 1.341764,-2.90716 2.012647,-2.90716 5.590684,-3.80166 6.708822,-1.34177 6.708821,1.11814 3.130783,1.56539 3.130784,2.4599 4.472547,6.26157 1.565392,7.60333 -1.341764,7.60333 -1.789019,3.57804 -1.789019,2.4599 -2.236274,2.23628"
       style="fill:#808000;fill-opacity:1;stroke:#000000;stroke-width:3.57803798" />
    <path
       inkscape:connector-curvature="0"
       id="path378"
       d="m 173.45798,677.82626 -1.56539,-1.11814 -2.01264,-2.90715 -0.67089,-3.57804 0.44726,-3.35441 0.89451,-1.78902 1.34176,-1.78902 3.35441,-2.23627 3.80167,-0.89451 4.02529,0.67088 2.01265,0.89451 1.78902,1.56539 2.68352,3.80167 1.11814,4.47254 -0.89451,4.69618 -1.11813,2.23627 -1.5654,2.23628 -4.24892,2.90715 -5.14343,1.11814 -5.36705,-0.89451 -2.4599,-1.11814 -2.45991,-2.01264 -3.35441,-4.91981 -1.34176,-5.81431 1.11814,-6.03794 1.34176,-2.68353 2.01265,-2.90715 5.59068,-3.80167 6.70882,-1.56539 6.70882,1.11814 3.13079,1.78902 3.13078,2.23627 4.47255,6.48519 1.56539,7.37971 -1.34176,7.60333 -1.78902,3.57804 -1.78902,2.4599 -2.23628,2.23627"
       style="fill:none;stroke:none" />
    <path
       inkscape:connector-curvature="0"
       id="path380"
       d="m 173.45798,677.82626 -1.56539,-1.11814 -2.01264,-2.90715 -0.67089,-3.57804 0.44726,-3.35441 0.89451,-1.78902 1.34176,-1.78902 3.35441,-2.23627 3.80167,-0.89451 4.02529,0.67088 2.01265,0.89451 1.78902,1.56539 2.68352,3.80167 1.11814,4.47254 -0.89451,4.69618 -1.11813,2.23627 -1.5654,2.23628 -4.24892,2.90715 -5.14343,1.11814 -5.36705,-0.89451 -2.4599,-1.11814 -2.45991,-2.01264 -3.35441,-4.91981 -1.34176,-5.81431 1.11814,-6.03794 1.34176,-2.68353 2.01265,-2.90715 5.59068,-3.80167 6.70882,-1.56539 6.70882,1.11814 3.13079,1.78902 3.13078,2.23627 4.47255,6.48519 1.56539,7.37971 -1.34176,7.60333 -1.78902,3.57804 -1.78902,2.4599 -2.23628,2.23627"
       style="fill:#808000;fill-opacity:1;stroke:#000000;stroke-width:3.57803798" />
    <path
       inkscape:connector-curvature="0"
       id="path382"
       d="m 157.13318,668.43391 1.5654,-1.34176 2.4599,-3.35442 0.67088,-3.80166 -0.44726,-4.02529 -1.11813,-2.01265 -1.34177,-2.01265 -3.80166,-2.4599 -4.47255,-1.11813 -4.47255,0.8945 -2.23627,0.89451 -2.23627,1.78902 -2.90716,4.24892 -1.11814,5.14343 0.67088,5.36706 1.34177,2.4599 1.78902,2.4599 4.9198,3.57804 5.81431,1.11814 6.03794,-0.89451 2.90716,-1.34177 2.90715,-2.23627 3.80167,-5.59068 1.34176,-6.70883 -1.11813,-6.93244 -1.5654,-3.13079 -2.4599,-3.13078 -6.26156,-4.47255 -7.60333,-1.56539 -7.60333,1.34176 -3.57804,1.78902 -3.80167,2.68353 -4.69617,7.15608 -1.78902,8.72147 1.34176,8.49784 2.01265,4.02529 2.01264,2.90715 2.45991,2.45991"
       style="fill:none;stroke:none" />
    <path
       inkscape:connector-curvature="0"
       id="path384"
       d="m 157.13318,668.43391 1.5654,-1.34176 2.4599,-3.35442 0.67088,-3.80166 -0.44726,-4.02529 -1.11813,-2.01265 -1.34177,-2.01265 -3.80166,-2.4599 -4.47255,-1.11813 -4.47255,0.8945 -2.23627,0.89451 -2.23627,1.78902 -2.90716,4.24892 -1.11814,5.14343 0.67088,5.36706 1.34177,2.4599 1.78902,2.4599 4.9198,3.57804 5.81431,1.11814 6.03794,-0.89451 2.90716,-1.34177 2.90715,-2.23627 3.80167,-5.59068 1.34176,-6.70883 -1.11813,-6.93244 -1.5654,-3.13079 -2.4599,-3.13078 -6.26156,-4.47255 -7.60333,-1.56539 -7.60333,1.34176 -3.57804,1.78902 -3.80167,2.68353 -4.69617,7.15608 -1.78902,8.72147 1.34176,8.49784 2.01265,4.02529 2.01264,2.90715 2.45991,2.45991"
       style="fill:#808000;fill-opacity:1;stroke:#000000;stroke-width:4.02529287" />
    <path
       inkscape:connector-curvature="0"
       id="path386"
       d="m 41.517829,686.3241 -1.118137,-0.89451 -1.789019,-2.01265 -0.670882,-3.80166 1.118137,-2.4599 1.118137,-1.34177 2.907156,-1.78902 3.130783,-0.44725 3.578038,0.44725 1.565392,0.67089 1.565392,0.89451 2.236273,2.90715 0.89451,3.35441 -0.670882,3.35441 -0.89451,1.56539 -1.341764,1.5654 -3.801665,2.23627 -4.248921,0.89451 -4.472547,-0.67088 -2.012647,-0.89451 -2.236273,-1.34177 -2.683529,-3.80166 -1.118137,-4.24892 0.89451,-4.24892 1.118136,-2.01265 1.78902,-2.23627 4.696175,-2.68353 5.590684,-1.11814 5.590685,0.89451 2.683528,1.11814 2.683529,1.78902 3.578038,4.69617 1.341764,5.36706 -1.118137,5.59068 -1.565392,2.45991 -1.341764,2.01264 -1.789019,1.56539"
       style="fill:none;stroke:none" />
    <path
       inkscape:connector-curvature="0"
       id="path388"
       d="m 41.517829,686.3241 -1.118137,-0.89451 -1.789019,-2.01265 -0.670882,-3.80166 1.118137,-2.4599 1.118137,-1.34177 2.907156,-1.78902 3.130783,-0.44725 3.578038,0.44725 1.565392,0.67089 1.565392,0.89451 2.236273,2.90715 0.89451,3.35441 -0.670882,3.35441 -0.89451,1.56539 -1.341764,1.5654 -3.801665,2.23627 -4.248921,0.89451 -4.472547,-0.67088 -2.012647,-0.89451 -2.236273,-1.34177 -2.683529,-3.80166 -1.118137,-4.24892 0.89451,-4.24892 1.118136,-2.01265 1.78902,-2.23627 4.696175,-2.68353 5.590684,-1.11814 5.590685,0.89451 2.683528,1.11814 2.683529,1.78902 3.578038,4.69617 1.341764,5.36706 -1.118137,5.59068 -1.565392,2.45991 -1.341764,2.01264 -1.789019,1.56539"
       style="fill:#808000;fill-opacity:1;stroke:#000000;stroke-width:3.57803798" />
    <path
       inkscape:connector-curvature="0"
       id="path390"
       d="m 103.23899,667.76303 -1.78902,-1.11814 -2.236277,-3.35441 -0.894509,-3.80167 0.670882,-4.02529 0.894509,-1.78902 1.341765,-1.78902 3.80167,-2.68353 4.47254,-0.8945 4.47255,0.67088 2.01265,1.11813 2.23627,1.5654 2.90716,4.24892 1.11813,4.9198 -0.89451,5.36706 -1.11813,2.23627 -1.78902,2.68353 -4.9198,3.35441 -5.81432,1.11814 -5.81431,-0.89451 -2.683527,-1.5654 -2.907156,-2.01264 -3.578038,-5.36706 -1.565391,-6.70882 1.118137,-6.70882 1.565391,-2.90716 2.459901,-3.35441 6.261563,-4.24892 7.37971,-1.56539 7.3797,1.34176 3.57804,1.78902 3.57804,2.68353 4.69617,6.93245 1.78902,8.49784 -1.34176,8.49784 -2.23628,3.80167 -1.78902,2.90715 -2.4599,2.4599"
       style="fill:none;stroke:none" />
    <path
       inkscape:connector-curvature="0"
       id="path392"
       d="m 103.23899,667.76303 -1.78902,-1.11814 -2.236277,-3.35441 -0.894509,-3.80167 0.670882,-4.02529 0.894509,-1.78902 1.341765,-1.78902 3.80167,-2.68353 4.47254,-0.8945 4.47255,0.67088 2.01265,1.11813 2.23627,1.5654 2.90716,4.24892 1.11813,4.9198 -0.89451,5.36706 -1.11813,2.23627 -1.78902,2.68353 -4.9198,3.35441 -5.81432,1.11814 -5.81431,-0.89451 -2.683527,-1.5654 -2.907156,-2.01264 -3.578038,-5.36706 -1.565391,-6.70882 1.118137,-6.70882 1.565391,-2.90716 2.459901,-3.35441 6.261563,-4.24892 7.37971,-1.56539 7.3797,1.34176 3.57804,1.78902 3.57804,2.68353 4.69617,6.93245 1.78902,8.49784 -1.34176,8.49784 -2.23628,3.80167 -1.78902,2.90715 -2.4599,2.4599"
       style="fill:#808000;fill-opacity:1;stroke:#000000;stroke-width:4.02529287" />
    <path
       inkscape:connector-curvature="0"
       id="path394"
       d="m 195.59709,732.16771 -0.22362,2.68353 -3.13079,3.80167 -2.4599,0.22362 -2.23627,-0.22362 -3.13078,-3.80167 -0.44726,-2.68353 0.44726,-2.68353 3.13078,-3.80166 2.23627,-0.22363 2.4599,0.22363 3.13079,3.80166 0.22362,2.68353 z"
       style="fill:#000000;stroke:none" />
    <path
       inkscape:connector-curvature="0"
       id="path396"
       d="m 137.6776,733.95673 -0.22362,2.68353 -3.13079,3.80167 -2.4599,0.44725 -2.23627,-0.44725 -3.13079,-3.80167 -0.44725,-2.68353 0.44725,-2.68353 3.13079,-3.57803 2.23627,-0.44726 2.4599,0.44726 3.13079,3.57803 0.22362,2.68353 z"
       style="fill:#000000;stroke:none" />
    <path
       inkscape:connector-curvature="0"
       id="path398"
       d="m 111.06594,729.70781 28.84794,-0.22363"
       style="fill:none;stroke:#000000;stroke-width:5.14342976" />
    <path
       inkscape:connector-curvature="0"
       id="path400"
       d="m 168.76181,728.14242 28.6243,-0.22363"
       style="fill:none;stroke:#000000;stroke-width:5.14342976" />
    <path
       inkscape:connector-curvature="0"
       id="path404"
       d="m 50.239297,755.64859 -2.012646,1.34176 -5.14343,-0.89451 -2.236274,-1.78902 -1.118137,-1.56539 -1.341764,-3.13078 0,-3.13079 1.341764,-2.90715 1.118137,-1.11814 1.341764,-1.11813 3.578038,-0.89451 2.012647,0"
       style="fill:none;stroke:#000000;stroke-width:3.80166531" />
    <path
       inkscape:connector-curvature="0"
       id="path406"
       d="m 33.019989,702.87253 -1.789019,-1.34177 -0.89451,-3.80166 0.89451,-1.78902 1.789019,-1.78902 4.919802,-0.89451 2.459901,0.89451 1.341765,0.67088 1.565391,2.23627 0.670882,3.80167 -1.118136,2.4599 -1.118137,1.11814 -2.683529,1.78902 -4.919802,0.67088 -3.354411,-1.34177 -1.565392,-0.89451 -2.236273,-2.90715 -0.670883,-3.13078 0.670883,-3.35442 0.894509,-1.56539 1.341764,-1.56539 3.578038,-2.23627 4.248921,-0.67088 4.24892,0.67088 2.012646,0.89451 2.012647,1.34176 2.683528,3.35441 1.118137,4.24892 -0.894509,4.24892 -1.118137,2.01265 -1.118137,1.34176 -1.341764,1.11814"
       style="fill:none;stroke:none" />
    <path
       inkscape:connector-curvature="0"
       id="path408"
       d="m 33.019989,702.87253 -1.789019,-1.34177 -0.89451,-3.80166 0.89451,-1.78902 1.789019,-1.78902 4.919802,-0.89451 2.459901,0.89451 1.341765,0.67088 1.565391,2.23627 0.670882,3.80167 -1.118136,2.4599 -1.118137,1.11814 -2.683529,1.78902 -4.919802,0.67088 -3.354411,-1.34177 -1.565392,-0.89451 -2.236273,-2.90715 -0.670883,-3.13078 0.670883,-3.35442 0.894509,-1.56539 1.341764,-1.56539 3.578038,-2.23627 4.248921,-0.67088 4.24892,0.67088 2.012646,0.89451 2.012647,1.34176 2.683528,3.35441 1.118137,4.24892 -0.894509,4.24892 -1.118137,2.01265 -1.118137,1.34176 -1.341764,1.11814"
       style="fill:#808000;fill-opacity:1;stroke:#000000;stroke-width:2.68352866" />
    <path
       inkscape:connector-curvature="0"
       id="path960"
       d="m 153.81843,785.8997 0,1.37344 -1.31792,2.74689 -2.30634,1.96206 -3.13004,1.17723 -1.81213,0.19621 -1.64739,-0.19621 -3.13005,-1.17723 -2.30634,-1.96206 -1.31792,-2.74689 -0.16474,-1.37344 0.16474,-1.56965 1.31792,-2.74688 2.30634,-1.96206 3.13005,-1.17724 1.64739,-0.19621 1.81213,0.19621 3.13004,1.17724 2.30634,1.96206 1.31792,2.74688 0,1.56965 z"
       style="fill:#ac646d;stroke:#000000;stroke-width:3.59570837;display:inline" />
    <path
       inkscape:connector-curvature="0"
       id="path402"
       d="m 890.56493,710.17776 16.99569,2.4599"
       style="fill:none;stroke:#000000;stroke-width:4.47254753;display:inline" />
    <text
       xml:space="preserve"
       style="font-size:64px;font-style:normal;font-variant:normal;font-weight:normal;font-stretch:normal;text-align:start;line-height:125%;letter-spacing:0px;word-spacing:0px;writing-mode:lr-tb;text-anchor:start;fill:#000000;fill-opacity:1;stroke:none;font-family:Moria Citadel;-inkscape-font-specification:Moria Citadel"
       x="42.857143"
       y="98.380196"
       id="text4745"
       sodipodi:linespacing="125%"
       transform="translate(0,308.2677)"><tspan
         sodipodi:role="line"
         id="tspan4747"
         x="42.857143"
         y="98.380196" /></text>
    <path
       inkscape:connector-curvature="0"
       id="path960-5"
       d="m 265.84384,672.86414 0,1.37344 -1.31792,2.74689 -2.30634,1.96206 -3.13004,1.17723 -1.81213,0.19621 -1.64739,-0.19621 -3.13005,-1.17723 -2.30634,-1.96206 -1.31792,-2.74689 -0.16474,-1.37344 0.16474,-1.56965 1.31792,-2.74688 2.30634,-1.96206 3.13005,-1.17724 1.64739,-0.19621 1.81213,0.19621 3.13004,1.17724 2.30634,1.96206 1.31792,2.74688 0,1.56965 z"
       style="fill:#ac646d;stroke:#000000;stroke-width:3.59570837;display:inline" />
  </g>
  <g
     inkscape:groupmode="layer"
     id="layer3"
     inkscape:label="balloons"
     style="display:inline">
    <text
       xml:space="preserve"
       style="font-size:24px;font-style:normal;font-variant:normal;font-weight:normal;font-stretch:normal;text-align:start;line-height:125%;letter-spacing:0px;word-spacing:0px;writing-mode:lr-tb;text-anchor:start;fill:#000000;fill-opacity:1;stroke:none;font-family:SmackAttack BB;-inkscape-font-specification:SmackAttack BB"
       x="324.28571"
       y="64.094482"
       id="text7473"
       sodipodi:linespacing="125%"><tspan
         sodipodi:role="line"
         id="tspan7475"
         x="324.28571"
         y="64.094482" /></text>
    <text
       xml:space="preserve"
       style="font-size:24px;font-style:normal;font-variant:normal;font-weight:normal;font-stretch:normal;text-align:start;line-height:125%;writing-mode:lr-tb;text-anchor:start;fill:#afe9dd;fill-opacity:1;stroke:#000000;stroke-width:3.54330707;stroke-linecap:butt;stroke-linejoin:round;stroke-miterlimit:4;stroke-opacity:1;stroke-dasharray:none;stroke-dashoffset:0;font-family:SmackAttack BB;-inkscape-font-specification:SmackAttack BB"
       x="581.42859"
       y="134.09448"
       id="text7483"
       sodipodi:linespacing="125%"><tspan
         sodipodi:role="line"
         id="tspan7485"
         x="581.42859"
         y="134.09448" /></text>
    <text
       xml:space="preserve"
       style="font-size:24px;font-style:normal;font-variant:normal;font-weight:normal;font-stretch:normal;text-align:start;line-height:125%;writing-mode:lr-tb;text-anchor:start;fill:#afe9dd;fill-opacity:1;stroke:#000000;stroke-width:3.54330707;stroke-linecap:butt;stroke-linejoin:round;stroke-miterlimit:4;stroke-opacity:1;stroke-dasharray:none;stroke-dashoffset:0;font-family:SmackAttack BB;-inkscape-font-specification:SmackAttack BB"
       x="615.71429"
       y="65.523056"
       id="text7495"
       sodipodi:linespacing="125%"><tspan
         sodipodi:role="line"
         id="tspan7497"
         x="615.71429"
         y="65.523056" /></text>
    <text
       xml:space="preserve"
       style="font-size:24px;font-style:normal;font-variant:normal;font-weight:normal;font-stretch:normal;text-align:start;line-height:125%;writing-mode:lr-tb;text-anchor:start;fill:#afe9dd;fill-opacity:1;stroke:#000000;stroke-width:0;stroke-linecap:butt;stroke-linejoin:round;stroke-miterlimit:4;stroke-opacity:1;stroke-dasharray:none;stroke-dashoffset:0;font-family:SmackAttack BB;-inkscape-font-specification:SmackAttack BB"
       x="634.28571"
       y="66.951622"
       id="text7499"
       sodipodi:linespacing="125%"><tspan
         sodipodi:role="line"
         id="tspan7501"
         x="634.28571"
         y="66.951622" /></text>
    <text
       xml:space="preserve"
       style="font-size:24px;font-style:normal;font-variant:normal;font-weight:normal;font-stretch:normal;text-align:start;line-height:125%;writing-mode:lr-tb;text-anchor:start;fill:#ffffff;fill-opacity:1;stroke:#050005;stroke-width:3.54330707;stroke-linecap:butt;stroke-linejoin:round;stroke-miterlimit:4;stroke-opacity:1;stroke-dasharray:none;stroke-dashoffset:0;font-family:SmackAttack BB;-inkscape-font-specification:SmackAttack BB"
       x="972.85712"
       y="92.665909"
       id="text7719"
       sodipodi:linespacing="125%"><tspan
         sodipodi:role="line"
         id="tspan7721"
         x="972.85712"
         y="92.665909" /><tspan
         sodipodi:role="line"
         x="972.85712"
         y="122.66591"
         id="tspan7727" /><tspan
         sodipodi:role="line"
         id="tspan7723"
         x="972.85712"
         y="152.66591" /><tspan
         sodipodi:role="line"
         x="972.85712"
         y="182.66591"
         id="tspan7725" /></text>
    <text
       xml:space="preserve"
       style="font-size:24px;font-style:normal;font-variant:normal;font-weight:normal;font-stretch:normal;text-indent:0;text-align:start;text-decoration:none;line-height:125%;letter-spacing:normal;word-spacing:normal;text-transform:none;direction:ltr;block-progression:tb;writing-mode:lr-tb;text-anchor:start;baseline-shift:baseline;color:#000000;fill:#ffffff;fill-opacity:1;fill-rule:nonzero;stroke:#000600;stroke-width:3;stroke-linecap:butt;stroke-linejoin:round;stroke-miterlimit:4;stroke-opacity:1;stroke-dasharray:none;stroke-dashoffset:0;marker:none;visibility:visible;display:inline;overflow:visible;enable-background:accumulate;font-family:SmackAttack BB;-inkscape-font-specification:SmackAttack BB"
       x="114.28571"
       y="132.66591"
       id="text4749"
       sodipodi:linespacing="125%"><tspan
         sodipodi:role="line"
         id="tspan4751"
         x="114.28571"
         y="132.66591" /></text>
    <path
       style="color:#000000;fill:#ffffff;fill-opacity:1;fill-rule:evenodd;stroke:#050005;stroke-width:3.54330707;stroke-linecap:butt;stroke-linejoin:round;stroke-miterlimit:4;stroke-opacity:1;stroke-dasharray:none;stroke-dashoffset:0;marker:none;visibility:visible;display:inline;overflow:visible;enable-background:accumulate"
       d="m 63.9375,47.03125 c -11.08,0 -20,8.92 -20,20 l 0,80 c 0,11.08 8.92,20 20,20 l 166.0625,0 0,47.0625 28.25,-47.0625 165.6875,0 c 11.08,0 20,-8.92 20,-20 l 0,-80 c 0,-11.08 -8.92,-20 -20,-20 l -360,0 z"
       id="rect5579"
       inkscape:connector-curvature="0" />
    <text
       xml:space="preserve"
       style="font-size:24px;font-style:normal;font-variant:normal;font-weight:normal;font-stretch:normal;text-indent:0;text-align:start;text-decoration:none;line-height:125%;letter-spacing:normal;word-spacing:normal;text-transform:none;direction:ltr;block-progression:tb;writing-mode:lr-tb;text-anchor:start;baseline-shift:baseline;color:#000000;fill:#00000e;fill-opacity:1;fill-rule:nonzero;stroke:#000600;stroke-width:3.54330707;stroke-linecap:butt;stroke-linejoin:round;stroke-miterlimit:4;stroke-opacity:1;stroke-dasharray:none;stroke-dashoffset:0;marker:none;visibility:visible;display:inline;overflow:visible;enable-background:accumulate;font-family:SmackAttack BB;-inkscape-font-specification:SmackAttack BB"
       x="60"
       y="84.094482"
       id="text4753"
       sodipodi:linespacing="125%"><tspan
         sodipodi:role="line"
         x="60"
         y="84.094482"
         id="tspan4761"
         style="font-weight:normal;fill:#00000e;fill-opacity:1;stroke:none;-inkscape-font-specification:SmackAttack BB">En soporte no tenemos </tspan><tspan
         sodipodi:role="line"
         x="60"
         y="114.09448"
         style="font-weight:normal;fill:#00000e;fill-opacity:1;stroke:none;-inkscape-font-specification:SmackAttack BB"
         id="tspan5564">mucha PRactica con linux,</tspan><tspan
         sodipodi:role="line"
         x="60"
         y="144.09448"
         id="tspan4763"
         style="font-weight:normal;fill:#00000e;fill-opacity:1;stroke:none;-inkscape-font-specification:SmackAttack BB">ni tiempo para aprender</tspan></text>
    <text
       xml:space="preserve"
       style="font-size:24px;font-style:normal;font-variant:normal;font-weight:normal;font-stretch:normal;text-indent:0;text-align:start;text-decoration:none;line-height:125%;letter-spacing:normal;word-spacing:normal;text-transform:none;direction:ltr;block-progression:tb;writing-mode:lr-tb;text-anchor:start;baseline-shift:baseline;color:#000000;fill:#ffffff;fill-opacity:1;fill-rule:nonzero;stroke:#000600;stroke-width:3;stroke-linecap:butt;stroke-linejoin:round;stroke-miterlimit:4;stroke-opacity:1;stroke-dasharray:none;stroke-dashoffset:0;marker:none;visibility:visible;display:inline;overflow:visible;enable-background:accumulate;font-family:SmackAttack BB;-inkscape-font-specification:SmackAttack BB"
       x="751.42859"
       y="144.09448"
       id="text5612"
       sodipodi:linespacing="125%"><tspan
         sodipodi:role="line"
         id="tspan5614"
         x="751.42859"
         y="144.09448" /></text>
    <text
       xml:space="preserve"
       style="font-size:24px;font-style:normal;font-variant:normal;font-weight:normal;font-stretch:normal;text-indent:0;text-align:start;text-decoration:none;line-height:125%;letter-spacing:normal;word-spacing:normal;text-transform:none;direction:ltr;block-progression:tb;writing-mode:lr-tb;text-anchor:start;baseline-shift:baseline;color:#000000;fill:#ffffff;fill-opacity:1;fill-rule:nonzero;stroke:#000600;stroke-width:3;stroke-linecap:butt;stroke-linejoin:round;stroke-miterlimit:4;stroke-opacity:1;stroke-dasharray:none;stroke-dashoffset:0;marker:none;visibility:visible;display:inline;overflow:visible;enable-background:accumulate;font-family:SmackAttack BB;-inkscape-font-specification:SmackAttack BB"
       x="748.57141"
       y="119.80877"
       id="text5616"
       sodipodi:linespacing="125%"><tspan
         sodipodi:role="line"
         id="tspan5618"
         x="748.57141"
         y="119.80877"></tspan></text>
    <rect
       style="color:#000000;fill:#ffffff;fill-opacity:1;fill-rule:evenodd;stroke:#050005;stroke-width:3.54330707;stroke-linecap:butt;stroke-linejoin:round;stroke-miterlimit:4;stroke-opacity:1;stroke-dasharray:none;stroke-dashoffset:0;marker:none;visibility:visible;display:inline;overflow:visible;enable-background:accumulate"
       id="rect5652"
       width="280"
       height="60"
       x="740"
       y="124.09448"
       ry="20" />
    <text
       xml:space="preserve"
       style="font-size:24px;font-style:normal;font-variant:normal;font-weight:normal;font-stretch:normal;text-indent:0;text-align:start;text-decoration:none;line-height:125%;letter-spacing:normal;word-spacing:normal;text-transform:none;direction:ltr;block-progression:tb;writing-mode:lr-tb;text-anchor:start;baseline-shift:baseline;color:#000000;fill:#00000e;fill-opacity:1;fill-rule:nonzero;stroke:#000600;stroke-width:3.54330707;stroke-linecap:butt;stroke-linejoin:round;stroke-miterlimit:4;stroke-opacity:1;stroke-dasharray:none;stroke-dashoffset:0;marker:none;visibility:visible;display:inline;overflow:visible;enable-background:accumulate;font-family:SmackAttack BB;-inkscape-font-specification:SmackAttack BB"
       x="760"
       y="164.09448"
       id="text4753-8"
       sodipodi:linespacing="125%"><tspan
         sodipodi:role="line"
         x="760"
         y="164.09448"
         id="tspan4763-9"
         style="font-weight:normal;fill:#00000e;fill-opacity:1;stroke:none;-inkscape-font-specification:SmackAttack BB">lo que yo decA</tspan></text>
    <text
       xml:space="preserve"
       style="font-size:24px;font-style:normal;font-variant:normal;font-weight:normal;font-stretch:normal;text-indent:0;text-align:start;text-decoration:none;line-height:125%;letter-spacing:normal;word-spacing:normal;text-transform:none;direction:ltr;block-progression:tb;writing-mode:lr-tb;text-anchor:start;baseline-shift:baseline;color:#000000;fill:#ffffff;fill-opacity:1;fill-rule:nonzero;stroke:#000600;stroke-width:3;stroke-linecap:butt;stroke-linejoin:round;stroke-miterlimit:4;stroke-opacity:1;stroke-dasharray:none;stroke-dashoffset:0;marker:none;visibility:visible;display:inline;overflow:visible;enable-background:accumulate;font-family:SmackAttack BB;-inkscape-font-specification:SmackAttack BB"
       x="260"
       y="606.95166"
       id="text5654"
       sodipodi:linespacing="125%"><tspan
         sodipodi:role="line"
         id="tspan5656"
         x="260"
         y="606.95166"></tspan></text>
    <path
       style="color:#000000;fill:#ffffff;fill-opacity:1;fill-rule:evenodd;stroke:#050005;stroke-width:3.47752142;stroke-linecap:butt;stroke-linejoin:round;stroke-miterlimit:4;stroke-opacity:1;stroke-dasharray:none;stroke-dashoffset:0;marker:none;visibility:visible;display:inline;overflow:visible;enable-background:accumulate"
       d="m 190,494.09375 22.53125,30.03125 c -10.2692,0.87359 -18.28125,9.43464 -18.28125,19.9375 l 0,60.0625 c 0,11.08729 8.94396,20 20.03125,20 l 325.75,0 c 11.08729,0 20,-8.91271 20,-20 l 0,-60.0625 c 0,-11.08729 -8.91271,-20 -20,-20 l -280.09375,0 L 190,494.09375 z"
       id="rect5692"
       inkscape:connector-curvature="0" />
    <text
       xml:space="preserve"
       style="font-size:24px;font-style:normal;font-variant:normal;font-weight:normal;font-stretch:normal;text-indent:0;text-align:start;text-decoration:none;line-height:125%;letter-spacing:normal;word-spacing:normal;text-transform:none;direction:ltr;block-progression:tb;writing-mode:lr-tb;text-anchor:start;baseline-shift:baseline;color:#000000;fill:#00000e;fill-opacity:1;fill-rule:nonzero;stroke:#000600;stroke-width:3.54330707;stroke-linecap:butt;stroke-linejoin:round;stroke-miterlimit:4;stroke-opacity:1;stroke-dasharray:none;stroke-dashoffset:0;marker:none;visibility:visible;display:inline;overflow:visible;enable-background:accumulate;font-family:SmackAttack BB;-inkscape-font-specification:SmackAttack BB"
       x="220"
       y="564.09448"
       id="text4753-1"
       sodipodi:linespacing="125%"><tspan
         sodipodi:role="line"
         x="220"
         y="564.09448"
         id="tspan4763-2"
         style="font-weight:normal;fill:#00000e;fill-opacity:1;stroke:none;-inkscape-font-specification:SmackAttack BB">todo el da apagando</tspan><tspan
         sodipodi:role="line"
         x="220"
         y="594.56714"
         style="font-weight:normal;fill:#00000e;fill-opacity:1;stroke:none;-inkscape-font-specification:SmackAttack BB"
         id="tspan5690">fuegos, ya sabe...</tspan></text>
    <path
       sodipodi:type="arc"
       style="fill:#ffeeff;fill-opacity:0.99183673;stroke:#000000;stroke-width:3.54330707;stroke-miterlimit:4;stroke-opacity:1;stroke-dasharray:none"
       id="path5697"
       sodipodi:cx="860"
       sodipodi:cy="204.09448"
       sodipodi:rx="10"
       sodipodi:ry="10"
       d="m 860.8517,214.05815 a 10,10 0 1 1 1.8e-4,-2e-5"
       sodipodi:start="1.4855231"
       sodipodi:end="7.7686907"
       sodipodi:open="true" />
    <path
       sodipodi:type="arc"
       style="fill:#ffeeff;fill-opacity:0.99183673;stroke:#000000;stroke-width:3.54330707;stroke-miterlimit:4;stroke-opacity:1;stroke-dasharray:none"
       id="path5699"
       sodipodi:cx="875"
       sodipodi:cy="229.09448"
       sodipodi:rx="5"
       sodipodi:ry="5"
       d="m 875.42585,234.07631 a 5,5 0 1 1 9e-5,0"
       sodipodi:start="1.4855231"
       sodipodi:end="7.7686907"
       sodipodi:open="true" />
  </g>
</svg>
